<?xml version="1.0" encoding="UTF-8" standalone="no"?>
<!-- Created with Inkscape (http://www.inkscape.org/) -->

<svg
   xmlns:dc="http://purl.org/dc/elements/1.1/"
   xmlns:cc="http://creativecommons.org/ns#"
   xmlns:rdf="http://www.w3.org/1999/02/22-rdf-syntax-ns#"
   xmlns:svg="http://www.w3.org/2000/svg"
   xmlns="http://www.w3.org/2000/svg"
   xmlns:xlink="http://www.w3.org/1999/xlink"
   xmlns:sodipodi="http://sodipodi.sourceforge.net/DTD/sodipodi-0.dtd"
   xmlns:inkscape="http://www.inkscape.org/namespaces/inkscape"
   width="48px"
   height="48px"
   id="svg4032"
   version="1.1"
   inkscape:version="0.48.3.1 r9886"
   sodipodi:docname="system-software-update.svg">
  <defs
     id="defs4034">
    <linearGradient
       id="linearGradient4232">
      <stop
         id="stop4234"
         offset="0"
         style="stop-color:#ffffff;stop-opacity:1;" />
      <stop
         style="stop-color:#e9e9e9;stop-opacity:1;"
         offset="0.60666668"
         id="stop4238" />
      <stop
         id="stop4240"
         offset="0.86666667"
         style="stop-color:#afafaf;stop-opacity:1;" />
      <stop
         id="stop4236"
         offset="1"
         style="stop-color:#767676;stop-opacity:1;" />
    </linearGradient>
    <linearGradient
       id="linearGradient3940">
      <stop
         style="stop-color:#f7f7f7;stop-opacity:1;"
         offset="0"
         id="stop3942" />
      <stop
         style="stop-color:#fef2cc;stop-opacity:1;"
         offset="1"
         id="stop3944" />
    </linearGradient>
    <linearGradient
       id="linearGradient3895-9-0-3">
      <stop
         offset="0"
         style="stop-color:#37120a;stop-opacity:1;"
         id="stop3897-0-5-7" />
      <stop
         offset="1"
         style="stop-color:#000000;stop-opacity:1;"
         id="stop3899-8-7-06" />
    </linearGradient>
    <radialGradient
       inkscape:collect="always"
       xlink:href="#linearGradient3895-9-0-3"
       id="radialGradient3456"
       gradientUnits="userSpaceOnUse"
       gradientTransform="matrix(6.0283824e-7,0.68390718,-1.6465551,1.3514022e-6,37.713106,-49.528784)"
       cx="7.4956832"
       cy="8.4497671"
       fx="7.4956832"
       fy="8.4497671"
       r="19.99999" />
    <linearGradient
       id="linearGradient4067-0-2">
      <stop
         id="stop4069-2-9"
         offset="0"
         style="stop-color:#ffe452;stop-opacity:1;" />
      <stop
         id="stop4071-8-9"
         offset="1"
         style="stop-color:#ffeb41;stop-opacity:0;" />
    </linearGradient>
    <linearGradient
       inkscape:collect="always"
       xlink:href="#linearGradient3924"
       id="linearGradient2959"
       gradientUnits="userSpaceOnUse"
       gradientTransform="translate(-0.1999883,1.00001)"
       x1="23.99999"
       y1="4.999989"
       x2="23.99999"
       y2="43" />
    <linearGradient
       id="linearGradient3924">
      <stop
         offset="0"
         style="stop-color:#ffffff;stop-opacity:1;"
         id="stop3926" />
      <stop
         id="stop3928"
         style="stop-color:#ffffff;stop-opacity:0.23529412;"
         offset="0.06316455" />
      <stop
         offset="0.95056331"
         style="stop-color:#ffffff;stop-opacity:0.15686275;"
         id="stop3930" />
      <stop
         offset="1"
         style="stop-color:#ffffff;stop-opacity:0.39215687;"
         id="stop3932" />
    </linearGradient>
    <linearGradient
       inkscape:collect="always"
       xlink:href="#linearGradient8265-821-176-38-919-66-249-7-7"
       id="linearGradient3568"
       gradientUnits="userSpaceOnUse"
       gradientTransform="matrix(0.82498024,0,0,1.3012336,3.9618877,-1.4329212)"
       x1="16.626165"
       y1="15.298182"
       x2="20.054544"
       y2="24.627615" />
    <linearGradient
       id="linearGradient8265-821-176-38-919-66-249-7-7">
      <stop
         offset="0"
         style="stop-color:#ff9116;stop-opacity:1;"
         id="stop2687-1-9" />
      <stop
         offset="1"
         style="stop-color:#ffdf80;stop-opacity:0.375;"
         id="stop2689-5-4" />
    </linearGradient>
    <radialGradient
       r="19.99999"
       fy="8.4497671"
       fx="7.4956832"
       cy="8.4497671"
       cx="7.4956832"
       gradientTransform="matrix(1.9428467e-8,2.33699,-2.4722567,-4.3056275e-8,44.690112,-11.434799)"
       gradientUnits="userSpaceOnUse"
       id="radialGradient2874"
       xlink:href="#linearGradient4644-104-3-3-6-2"
       inkscape:collect="always" />
    <linearGradient
       id="linearGradient4644-104-3-3-6-2">
      <stop
         id="stop5237-6-5-1-7"
         style="stop-color:#5e2000;stop-opacity:1;"
         offset="0" />
      <stop
         id="stop5239-4-6-4-8"
         style="stop-color:#390e04;stop-opacity:1;"
         offset="1" />
    </linearGradient>
    <linearGradient
       y2="43.2943"
       x2="13.990655"
       y1="3.9626207"
       x1="13.990655"
       gradientTransform="translate(-0.1999908,1)"
       gradientUnits="userSpaceOnUse"
       id="linearGradient2876"
       xlink:href="#linearGradient3895-9-0-3"
       inkscape:collect="always" />
    <radialGradient
       inkscape:collect="always"
       xlink:href="#linearGradient3688-166-749"
       id="radialGradient3013"
       gradientUnits="userSpaceOnUse"
       gradientTransform="matrix(2.003784,0,0,1.4,27.98813,-17.4)"
       cx="4.9929786"
       cy="43.5"
       fx="4.9929786"
       fy="43.5"
       r="2.5" />
    <linearGradient
       id="linearGradient3688-166-749">
      <stop
         offset="0"
         style="stop-color:#181818;stop-opacity:1"
         id="stop2883" />
      <stop
         offset="1"
         style="stop-color:#181818;stop-opacity:0"
         id="stop2885" />
    </linearGradient>
    <radialGradient
       inkscape:collect="always"
       xlink:href="#linearGradient3688-464-309"
       id="radialGradient3015"
       gradientUnits="userSpaceOnUse"
       gradientTransform="matrix(2.003784,0,0,1.4,-20.01187,-104.4)"
       cx="4.9929786"
       cy="43.5"
       fx="4.9929786"
       fy="43.5"
       r="2.5" />
    <linearGradient
       id="linearGradient3688-464-309">
      <stop
         offset="0"
         style="stop-color:#181818;stop-opacity:1"
         id="stop2889" />
      <stop
         offset="1"
         style="stop-color:#181818;stop-opacity:0"
         id="stop2891" />
    </linearGradient>
    <linearGradient
       id="linearGradient3702-501-757">
      <stop
         offset="0"
         style="stop-color:#181818;stop-opacity:0"
         id="stop2895" />
      <stop
         offset="0.5"
         style="stop-color:#181818;stop-opacity:1"
         id="stop2897" />
      <stop
         offset="1"
         style="stop-color:#181818;stop-opacity:0"
         id="stop2899" />
    </linearGradient>
    <linearGradient
       y2="39.999443"
       x2="25.058096"
       y1="47.027729"
       x1="25.058096"
       gradientUnits="userSpaceOnUse"
       id="linearGradient4030"
       xlink:href="#linearGradient3702-501-757"
       inkscape:collect="always" />
    <filter
       id="filter3044"
       inkscape:label="Desaturate"
       x="0"
       y="0"
       width="1"
       height="1"
       inkscape:menu="Color"
       inkscape:menu-tooltip="Render in shades of gray by reducing saturation to zero"
       color-interpolation-filters="sRGB">
      <feColorMatrix
         id="feColorMatrix3046"
         type="saturate"
         values="0" />
    </filter>
    <filter
       id="filter3048"
       inkscape:label="Desaturate"
       x="0"
       y="0"
       width="1"
       height="1"
       inkscape:menu="Color"
       inkscape:menu-tooltip="Render in shades of gray by reducing saturation to zero"
       color-interpolation-filters="sRGB">
      <feColorMatrix
         id="feColorMatrix3050"
         type="saturate"
         values="0" />
    </filter>
    <filter
       id="filter3052"
       inkscape:label="Desaturate"
       x="0"
       y="0"
       width="1"
       height="1"
       inkscape:menu="Color"
       inkscape:menu-tooltip="Render in shades of gray by reducing saturation to zero"
       color-interpolation-filters="sRGB">
      <feColorMatrix
         id="feColorMatrix3054"
         type="saturate"
         values="0" />
    </filter>
    <filter
       id="filter3056"
       inkscape:label="Desaturate"
       x="0"
       y="0"
       width="1"
       height="1"
       inkscape:menu="Color"
       inkscape:menu-tooltip="Render in shades of gray by reducing saturation to zero"
       color-interpolation-filters="sRGB">
      <feColorMatrix
         id="feColorMatrix3058"
         type="saturate"
         values="0" />
    </filter>
    <filter
       id="filter3060"
       inkscape:label="Desaturate"
       x="0"
       y="0"
       width="1"
       height="1"
       inkscape:menu="Color"
       inkscape:menu-tooltip="Render in shades of gray by reducing saturation to zero"
       color-interpolation-filters="sRGB">
      <feColorMatrix
         id="feColorMatrix3062"
         type="saturate"
         values="0" />
    </filter>
    <linearGradient
       inkscape:collect="always"
       xlink:href="#linearGradient4232"
       id="linearGradient4230"
       x1="10.832994"
       y1="10.183435"
       x2="29.248091"
       y2="34.528763"
       gradientUnits="userSpaceOnUse" />
  </defs>
  <sodipodi:namedview
     id="base"
     pagecolor="#ffffff"
     bordercolor="#666666"
     borderopacity="1.0"
     inkscape:pageopacity="0.0"
     inkscape:pageshadow="2"
     inkscape:zoom="1.0238317"
     inkscape:cx="-32.730099"
     inkscape:cy="-2.5724338"
     inkscape:current-layer="layer1"
     showgrid="true"
     inkscape:grid-bbox="true"
     inkscape:document-units="px"
     inkscape:window-width="1366"
     inkscape:window-height="720"
     inkscape:window-x="0"
     inkscape:window-y="26"
     inkscape:window-maximized="1" />
  <metadata
     id="metadata4037">
    <rdf:RDF>
      <cc:Work
         rdf:about="">
        <dc:format>image/svg+xml</dc:format>
        <dc:type
           rdf:resource="http://purl.org/dc/dcmitype/StillImage" />
        <dc:title></dc:title>
      </cc:Work>
    </rdf:RDF>
  </metadata>
  <g
     id="layer1"
     inkscape:label="Layer 1"
     inkscape:groupmode="layer">
    <g
       style="opacity:0.59999999999999998;filter:url(#filter3060)"
       id="g3712"
       transform="matrix(1.1578952,0,0,0.6428571,-3.989476,16.035716)">
      <rect
         style="fill:url(#radialGradient3013);fill-opacity:1;stroke:none"
         id="rect2801"
         y="40"
         x="38"
         height="7"
         width="5" />
      <rect
         style="fill:url(#radialGradient3015);fill-opacity:1;stroke:none"
         id="rect3696"
         transform="scale(-1,-1)"
         y="-47"
         x="-10"
         height="7"
         width="5" />
      <rect
         style="fill:url(#linearGradient4030);fill-opacity:1;stroke:none"
         id="rect3700"
         y="40"
         x="10"
         height="7.0000005"
         width="28" />
    </g>
    <rect
       style="color:#000000;fill:url(#radialGradient2874);fill-opacity:1;fill-rule:nonzero;stroke:url(#linearGradient2876);stroke-width:1;stroke-linecap:round;stroke-linejoin:round;stroke-miterlimit:4;stroke-opacity:1;stroke-dasharray:none;stroke-dashoffset:0;marker:none;visibility:visible;display:inline;overflow:visible;enable-background:accumulate;filter:url(#filter3056)"
       id="rect5505-21"
       y="5.5"
       x="4.3000083"
       ry="2"
       rx="2"
       height="39"
       width="39" />
    <path
       inkscape:connector-curvature="0"
       style="opacity:0.40000000000000002;fill:url(#linearGradient3568);fill-opacity:1;fill-rule:evenodd;stroke:none;filter:url(#filter3052)"
       id="path3333"
       d="M 6.0169247,6 C 5.3377346,6 4.800008,6.9124652 4.800008,7.8 L 4.8126525,30 C 5.9058203,29.975834 41.970269,21.153092 42.800008,20.728709 l 0,-12.928709 c 0,-0.6784043 -0.531183,-1.8 -1.11929,-1.8 L 6.0169294,6 z"
       sodipodi:nodetypes="ccccccc" />
    <rect
       style="opacity:0.50000000000000000;fill:none;stroke:url(#linearGradient2959);stroke-width:1;stroke-linecap:round;stroke-linejoin:round;stroke-miterlimit:4;stroke-opacity:1;stroke-dasharray:none;stroke-dashoffset:0;filter:url(#filter3048)"
       id="rect6741"
       y="6.5"
       x="5.3000083"
       ry="1"
       rx="1"
       height="37"
       width="37" />
    <rect
       style="opacity:0.50000000000000000;color:#000000;fill:url(#radialGradient3456);fill-opacity:1.0;fill-rule:nonzero;stroke:none;stroke-width:1;marker:none;visibility:visible;display:inline;overflow:visible;enable-background:accumulate;filter:url(#filter3044)"
       id="rect5505-2-6-47"
       y="-45"
       x="3.8000081"
       ry="2"
       rx="2"
       height="40"
       width="40"
       transform="scale(1,-1)" />
    <path
       d="m 34.951434,20.736874 c 0,2.266677 -1.839622,4.106297 -4.106299,4.106297 -2.266671,0 -4.106297,-1.83962 -4.106297,-4.106297 0,-2.266675 1.839626,-4.106295 4.106297,-4.106295 2.266677,0 4.106299,1.83962 4.106299,4.106295 z m -4.126828,-7.644027 c -4.210086,0 -7.629485,3.395322 -7.667721,7.596646 l -4.777516,6.84646 c -0.194634,-0.02013 -0.39245,-0.03159 -0.592257,-0.03159 -1.067398,-1e-6 -2.064901,0.29342 -2.921789,0.805466 l -9.0388369,-3.52233 0.00717,7.558127 6.3625769,2.099959 c 0.559772,2.573082 2.854096,4.509029 5.590883,4.509029 2.964447,0 5.410277,-2.272373 5.693541,-5.164457 l 7.343953,-5.369771 c 4.232949,0 7.66772,-3.428094 7.667713,-7.659822 7e-6,-4.234148 -3.43446,-7.667717 -7.667717,-7.667717 z m 0,2.526951 c 2.836204,0 5.140767,2.304494 5.140767,5.140766 -5e-6,2.836274 -2.304563,5.132871 -5.140767,5.132871 -2.836204,0 -5.140766,-2.296597 -5.140766,-5.132871 -6e-6,-2.836273 2.304557,-5.140766 5.140766,-5.140766 z M 17.787112,29.020537 c 2.333264,-2e-6 4.208958,1.87568 4.208958,4.208953 -1.1e-5,2.333274 -1.875684,4.208957 -4.208958,4.208957 -1.62297,0 -3.024317,-0.904903 -3.727251,-2.242672 0.692153,0.279306 1.385504,0.555759 2.076837,0.837054 1.715538,0.689352 3.66939,-0.13968 4.358989,-1.855732 0.689599,-1.715548 -0.147825,-3.661742 -1.863624,-4.351094 L 16.87899,29.123194 c 0.292084,-0.06361 0.596302,-0.102659 0.908122,-0.102657 z"
       id="Gears-1"
       style="fill:#000000;fill-opacity:1;fill-rule:nonzero;stroke:none"
       inkscape:connector-curvature="0"
       sodipodi:nodetypes="ssssssccsccccsccsssssssssscccccs" />
    <path
       d="m 34.340295,19.831831 c 0,2.266677 -1.839622,4.106297 -4.106299,4.106297 -2.266671,0 -4.106297,-1.83962 -4.106297,-4.106297 0,-2.266675 1.839626,-4.106295 4.106297,-4.106295 2.266677,0 4.106299,1.83962 4.106299,4.106295 z m -4.126828,-7.644027 c -4.210086,0 -7.629485,3.395322 -7.667721,7.596646 l -4.777516,6.84646 c -0.194634,-0.02013 -0.39245,-0.03159 -0.592257,-0.03159 -1.067398,-10e-7 -2.064901,0.29342 -2.921789,0.805466 l -8.4283848,-3.52233 0.00717,7.619173 5.7521247,2.038913 c 0.559772,2.573082 2.854096,4.509029 5.590883,4.509029 2.964447,0 5.410277,-2.272373 5.693541,-5.164457 l 7.343953,-5.369771 c 4.232949,0 7.66772,-3.428094 7.667713,-7.659822 7e-6,-4.234148 -3.43446,-7.667717 -7.667713,-7.667717 z m 0,2.526951 c 2.836204,0 5.140767,2.304494 5.140767,5.140766 -5e-6,2.836274 -2.304563,5.132871 -5.140767,5.132871 -2.836204,0 -5.140766,-2.296597 -5.140766,-5.132871 -6e-6,-2.836273 2.304557,-5.140766 5.140766,-5.140766 z M 17.175973,28.115494 c 2.333264,-2e-6 4.208958,1.87568 4.208958,4.208953 -1.1e-5,2.333274 -1.875684,4.208957 -4.208958,4.208957 -1.62297,0 -3.024317,-0.904903 -3.727251,-2.242672 0.692153,0.279306 1.385504,0.555759 2.076837,0.837054 1.715538,0.689352 3.66939,-0.13968 4.358989,-1.855732 0.689599,-1.715548 -0.147825,-3.661742 -1.863624,-4.351094 l -1.753073,-0.702809 c 0.292084,-0.06361 0.596302,-0.102659 0.908122,-0.102657 z"
       id="Gears"
       style="fill:url(#linearGradient4230);fill-opacity:1;fill-rule:nonzero;stroke:none"
       inkscape:connector-curvature="0"
       sodipodi:nodetypes="ssssssccsccccsccsssssssssscccccs" />
  </g>
</svg>
