<?xml version="1.0" encoding="UTF-8" standalone="no"?>
<!-- Created with Inkscape (http://www.inkscape.org/) -->

<svg
   xmlns:dc="http://purl.org/dc/elements/1.1/"
   xmlns:cc="http://creativecommons.org/ns#"
   xmlns:rdf="http://www.w3.org/1999/02/22-rdf-syntax-ns#"
   xmlns:svg="http://www.w3.org/2000/svg"
   xmlns="http://www.w3.org/2000/svg"
   xmlns:xlink="http://www.w3.org/1999/xlink"
   xmlns:sodipodi="http://sodipodi.sourceforge.net/DTD/sodipodi-0.dtd"
   xmlns:inkscape="http://www.inkscape.org/namespaces/inkscape"
   width="24"
   height="24"
   id="svg3250"
   version="1.1"
   inkscape:version="0.48.1 r9760"
   sodipodi:docname="caffeine-cup-full24.svg">
  <defs
     id="defs3252">
    <linearGradient
       id="linearGradient3678">
      <stop
         style="stop-color:#ffffff;stop-opacity:1;"
         offset="0"
         id="stop3680" />
      <stop
         style="stop-color:#e6e6e6;stop-opacity:1;"
         offset="1"
         id="stop3682" />
    </linearGradient>
    <linearGradient
       inkscape:collect="always"
       xlink:href="#linearGradient3678"
       id="linearGradient4157"
       x1="341.23358"
       y1="265.13657"
       x2="341.23358"
       y2="282.28528"
       gradientUnits="userSpaceOnUse"
       gradientTransform="matrix(1.0515565,0,0,0.86727206,-16.680975,36.441298)" />
    <linearGradient
       inkscape:collect="always"
       xlink:href="#linearGradient3678"
       id="linearGradient3784"
       x1="341.31662"
       y1="267.60748"
       x2="341.31662"
       y2="281.36218"
       gradientUnits="userSpaceOnUse" />
    <linearGradient
       inkscape:collect="always"
       xlink:href="#linearGradient3678"
       id="linearGradient3084"
       gradientUnits="userSpaceOnUse"
       x1="341.31662"
       y1="267.60748"
       x2="341.31662"
       y2="281.36218"
       gradientTransform="matrix(1.1034483,0,0,1.1034483,-34.724597,-28.209891)" />
    <linearGradient
       inkscape:collect="always"
       xlink:href="#linearGradient3678"
       id="linearGradient3087"
       gradientUnits="userSpaceOnUse"
       x1="341.31662"
       y1="267.60748"
       x2="341.31662"
       y2="281.36218"
       gradientTransform="matrix(1.1034483,0,0,1.1034483,-34.310807,-28.209891)" />
    <linearGradient
       inkscape:collect="always"
       xlink:href="#linearGradient3678"
       id="linearGradient3090"
       gradientUnits="userSpaceOnUse"
       x1="341.31662"
       y1="267.60748"
       x2="341.31662"
       y2="281.36218"
       gradientTransform="matrix(1.1034483,0,0,1.1034483,-33.897017,-28.209891)" />
  </defs>
  <sodipodi:namedview
     id="base"
     pagecolor="#ffffff"
     bordercolor="#666666"
     borderopacity="1.0"
     inkscape:pageopacity="0.0"
     inkscape:pageshadow="2"
     inkscape:zoom="14.854167"
     inkscape:cx="10.598104"
     inkscape:cy="16.385697"
     inkscape:document-units="px"
     inkscape:current-layer="layer1"
     showgrid="true"
     fit-margin-top="0"
     fit-margin-left="0"
     fit-margin-right="0"
     fit-margin-bottom="0"
     gridtolerance="1">
    <inkscape:grid
       type="xygrid"
       id="grid4212"
       empspacing="5"
       visible="true"
       enabled="true"
       snapvisiblegridlinesonly="true" />
  </sodipodi:namedview>
  <metadata
     id="metadata3255">
    <rdf:RDF>
      <cc:Work
         rdf:about="">
        <dc:format>image/svg+xml</dc:format>
        <dc:type
           rdf:resource="http://purl.org/dc/dcmitype/StillImage" />
        <dc:title></dc:title>
      </cc:Work>
    </rdf:RDF>
  </metadata>
  <g
     inkscape:label="Capa 1"
     inkscape:groupmode="layer"
     id="layer1"
     transform="translate(-331.85715,-259.36218)">
    <path
       style="opacity:0.5;color:#000000;fill:#000000;fill-opacity:1;fill-rule:nonzero;stroke:none;stroke-width:0.99999982;marker:none;visibility:visible;display:inline;overflow:visible;enable-background:accumulate"
       d="m 342.25989,269.48862 c -4.64913,0 -8.40274,1.0455 -8.40274,2.32758 0,0.17233 0.0785,0.35359 0.20834,0.51724 0.1041,0.1312 0.23837,0.25284 0.41666,0.37357 1.17374,-0.88017 4.23039,-1.37931 7.84717,-1.37931 3.53996,0 6.55034,0.47089 7.77774,1.32184 0.13233,-0.0963 0.25939,-0.18446 0.34723,-0.28736 -0.3601,1.01134 -3.8911,1.43678 -8.1944,1.43678 -4.34855,0 -7.89707,-0.41853 -8.1944,-1.46552 -0.0792,0.0668 -0.16493,0.0995 -0.20834,0.17242 0,4.38923 2.80738,9.85632 8.29857,9.85632 3.1847,0 5.37261,-1.58703 6.73607,-3.73564 l -0.0346,0.31611 2.46526,0 c 2.0665,0 1.77504,-0.89302 2.04861,-1.98278 l 0.31249,-1.23563 c 0.27358,-1.08974 0.39675,-1.954 -1.11111,-1.954 l -1.97916,0 c 0.0502,-0.42208 0.0959,-0.85182 0.10412,-1.26438 0,-0.0882 -0.0673,-0.14818 -0.17361,-0.22989 0.10889,-0.14855 0.17361,-0.30436 0.17361,-0.45977 0,-1.28208 -3.78833,-2.32758 -8.43745,-2.32758 z m 9.37494,6.00575 c 0.0773,0.006 0.11596,0.0447 0.0695,0.22987 l -0.3125,1.23563 c -0.093,0.37041 -0.39429,0.25864 -0.69444,0.25864 l -1.00694,0 c 0.23337,-0.54173 0.40596,-1.12596 0.55555,-1.69541 l 1.07639,0 c 0.15006,0 0.23511,-0.0359 0.31249,-0.0287 z"
       id="path4798-0"
       inkscape:connector-curvature="0" />
    <path
       style="opacity:0.98999999;color:#000000;fill:url(#linearGradient4157);fill-opacity:1;fill-rule:nonzero;stroke:none;stroke-width:0.99999982;marker:none;visibility:visible;display:inline;overflow:visible;enable-background:accumulate"
       d="m 342.25989,268.28413 c -4.64913,0 -8.40274,1.05651 -8.40274,2.3521 0,0.17414 0.0785,0.35732 0.20834,0.52268 0.1041,0.1326 0.23837,0.2555 0.41666,0.3775 1.17374,-0.88944 4.23039,-1.14608 7.84717,-1.14608 3.53996,0 6.55034,0.22809 7.77774,1.088 0.13233,-0.0973 0.25939,-0.18643 0.34723,-0.29038 -0.3601,1.02197 -3.8911,2.51147 -8.1944,2.51147 -4.34855,0 -7.89707,-1.48249 -8.1944,-2.54051 -0.0792,0.0674 -0.16493,0.12961 -0.20834,0.20327 0,4.43541 2.80738,9.93103 8.29857,9.93103 3.1847,0 5.37261,-1.60372 6.73607,-3.77496 l -0.0346,0.31942 2.46526,0 c 2.0665,0 1.77504,-0.87336 2.04861,-1.97458 l 0.31249,-1.24865 c 0.27358,-1.10121 0.39675,-1.97458 -1.11111,-1.97458 l -1.97916,0 c 0.0502,-0.42653 0.0959,-0.86078 0.10412,-1.27768 0,-0.0891 -0.0673,-0.17878 -0.17361,-0.26135 0.10889,-0.15011 0.17361,-0.30756 0.17361,-0.4646 0,-1.29559 -3.78833,-2.3521 -8.43745,-2.3521 z m 9.37494,6.06897 c 0.0773,0.007 0.11596,0.0742 0.0695,0.26134 l -0.3125,1.24865 c -0.093,0.37429 -0.39429,0.2323 -0.69444,0.2323 l -1.00694,0 c 0.23337,-0.54743 0.40596,-1.13781 0.55555,-1.71325 l 1.07639,0 c 0.15006,0 0.23511,-0.0363 0.31249,-0.0291 z"
       id="path4798"
       inkscape:connector-curvature="0"
       sodipodi:nodetypes="ssccsccsccsccsccscccsscccsccscc" />
  </g>
</svg>
