<?xml version="1.0" encoding="UTF-8" standalone="no"?>
<!-- Created with Inkscape (http://www.inkscape.org/) -->

<svg
   xmlns:dc="http://purl.org/dc/elements/1.1/"
   xmlns:cc="http://creativecommons.org/ns#"
   xmlns:rdf="http://www.w3.org/1999/02/22-rdf-syntax-ns#"
   xmlns:svg="http://www.w3.org/2000/svg"
   xmlns="http://www.w3.org/2000/svg"
   xmlns:xlink="http://www.w3.org/1999/xlink"
   version="1.1"
   width="22"
   height="22"
   id="svg3377">
  <defs
     id="defs3379">
    <linearGradient
       id="linearGradient10691">
      <stop
         id="stop10693"
         style="stop-color:#000000;stop-opacity:1"
         offset="0" />
      <stop
         id="stop10695"
         style="stop-color:#000000;stop-opacity:0"
         offset="1" />
    </linearGradient>
    <radialGradient
       cx="6.702713"
       cy="73.615715"
       r="7.228416"
       fx="6.702713"
       fy="73.615715"
       id="radialGradient2693"
       xlink:href="#linearGradient10691"
       gradientUnits="userSpaceOnUse"
       gradientTransform="scale(1.902215,0.525703)" />
    <linearGradient
       x1="63.9995"
       y1="3.1001"
       x2="63.9995"
       y2="122.8994"
       id="XMLID_4_"
       gradientUnits="userSpaceOnUse">
      <stop
         id="stop11"
         style="stop-color:#f2f2f2;stop-opacity:1"
         offset="0" />
      <stop
         id="stop13"
         style="stop-color:#d8d8d8;stop-opacity:1"
         offset="1" />
    </linearGradient>
    <linearGradient
       x1="64"
       y1="6.8743429"
       x2="64"
       y2="117.22547"
       id="linearGradient3226"
       xlink:href="#XMLID_4_"
       gradientUnits="userSpaceOnUse"
       gradientTransform="matrix(0.171875,0,0,0.171875,0,26)" />
    <linearGradient
       id="linearGradient5128">
      <stop
         id="stop5130"
         style="stop-color:#ffffff;stop-opacity:1"
         offset="0" />
      <stop
         id="stop5132"
         style="stop-color:#959595;stop-opacity:1"
         offset="1" />
    </linearGradient>
    <linearGradient
       x1="86.132919"
       y1="105.105"
       x2="84.63858"
       y2="20.895"
       id="linearGradient2443"
       xlink:href="#linearGradient5128"
       gradientUnits="userSpaceOnUse"
       gradientTransform="matrix(0.14748209,0,0,0.1472371,1.5639125,27.394621)" />
    <linearGradient
       x1="63.9995"
       y1="21.941401"
       x2="63.9995"
       y2="104.0591"
       id="linearGradient2441"
       xlink:href="#XMLID_5_"
       gradientUnits="userSpaceOnUse"
       gradientTransform="matrix(0.14748209,0,0,0.1472371,1.5639125,27.394621)"
       spreadMethod="pad" />
    <linearGradient
       x1="49.273136"
       y1="22.274775"
       x2="49.373875"
       y2="102.04791"
       id="linearGradient2438"
       xlink:href="#XMLID_6_"
       gradientUnits="userSpaceOnUse"
       gradientTransform="matrix(0.17021123,0,0,0.16992845,0.10924815,25.836174)" />
    <linearGradient
       x1="63.9995"
       y1="21.941401"
       x2="63.9995"
       y2="104.0591"
       id="linearGradient2193"
       gradientUnits="userSpaceOnUse">
      <stop
         id="stop2195"
         style="stop-color:#dddddd;stop-opacity:1"
         offset="0" />
      <stop
         id="stop2197"
         style="stop-color:#e8e9ef;stop-opacity:1"
         offset="1" />
    </linearGradient>
    <linearGradient
       x1="63.9995"
       y1="21.941401"
       x2="63.9995"
       y2="104.0591"
       id="linearGradient2199"
       xlink:href="#linearGradient2193"
       gradientUnits="userSpaceOnUse"
       spreadMethod="pad">
      <stop
         id="stop2201"
         style="stop-color:#fcfcfd;stop-opacity:1"
         offset="0" />
      <stop
         id="stop2203"
         style="stop-color:#cccccc;stop-opacity:1"
         offset="1" />
    </linearGradient>
    <linearGradient
       x1="63.9995"
       y1="21.941401"
       x2="63.9995"
       y2="104.0591"
       id="XMLID_5_"
       xlink:href="#linearGradient2199"
       gradientUnits="userSpaceOnUse"
       spreadMethod="pad">
      <stop
         id="stop24"
         style="stop-color:#dadada;stop-opacity:1"
         offset="0" />
      <stop
         id="stop26"
         style="stop-color:#cccccc;stop-opacity:1"
         offset="1" />
    </linearGradient>
    <linearGradient
       x1="64"
       y1="21.523018"
       x2="64"
       y2="103.06695"
       id="XMLID_6_"
       xlink:href="#XMLID_5_"
       gradientUnits="userSpaceOnUse"
       spreadMethod="pad">
      <stop
         id="stop31"
         style="stop-color:#d9d9d9;stop-opacity:1"
         offset="0" />
      <stop
         id="stop33"
         style="stop-color:#cccccc;stop-opacity:1"
         offset="1" />
    </linearGradient>
    <linearGradient
       x1="64"
       y1="21.523018"
       x2="64"
       y2="103.06695"
       id="linearGradient2436"
       xlink:href="#XMLID_6_"
       gradientUnits="userSpaceOnUse"
       gradientTransform="matrix(0.17021123,0,0,0.16992845,0.10924815,25.836174)"
       spreadMethod="pad" />
    <linearGradient
       x1="63.9995"
       y1="3.1001"
       x2="63.9995"
       y2="122.8994"
       id="linearGradient5546"
       gradientUnits="userSpaceOnUse">
      <stop
         id="stop5548"
         style="stop-color:#d8d8d8;stop-opacity:1"
         offset="0" />
      <stop
         id="stop5550"
         style="stop-color:#ffffff;stop-opacity:1"
         offset="1" />
    </linearGradient>
    <linearGradient
       x1="39.980453"
       y1="3.4715931"
       x2="39.980453"
       y2="14.369016"
       id="linearGradient2733"
       xlink:href="#linearGradient5546"
       gradientUnits="userSpaceOnUse"
       gradientTransform="matrix(0.47763668,0,0,0.47763668,-0.81112453,26.159059)" />
    <linearGradient
       id="linearGradient2250">
      <stop
         id="stop2252"
         style="stop-color:#b9b9b9;stop-opacity:1"
         offset="0" />
      <stop
         id="stop2254"
         style="stop-color:#ffffff;stop-opacity:0"
         offset="1" />
    </linearGradient>
    <linearGradient
       x1="31.177404"
       y1="19.821514"
       x2="40.859177"
       y2="9.6568537"
       id="linearGradient2730"
       xlink:href="#linearGradient2250"
       gradientUnits="userSpaceOnUse"
       gradientTransform="matrix(0.54383808,0,0,0.54383808,-2.3597045,23.119705)" />
    <linearGradient
       id="linearGradient3087-462-170-890-278">
      <stop
         id="stop3193"
         style="stop-color:#484848;stop-opacity:1"
         offset="0" />
      <stop
         id="stop3195"
         style="stop-color:#878787;stop-opacity:1"
         offset="0" />
      <stop
         id="stop3197"
         style="stop-color:#6b6b6b;stop-opacity:1"
         offset="0" />
      <stop
         id="stop3199"
         style="stop-color:#4d4d4d;stop-opacity:1"
         offset="0.75" />
      <stop
         id="stop3201"
         style="stop-color:#4e4e4e;stop-opacity:1"
         offset="1" />
    </linearGradient>
    <linearGradient
       x1="9.7503242"
       y1="32.28376"
       x2="16.915297"
       y2="39.443218"
       id="linearGradient2727-611-236-922-438"
       xlink:href="#linearGradient3087-462-170-890-278"
       gradientUnits="userSpaceOnUse"
       gradientTransform="matrix(0.47763668,0,0,0.47763668,-0.97999514,25.821319)" />
    <linearGradient
       id="linearGradient2257-789-141-816-743">
      <stop
         id="stop3211"
         style="stop-color:#bababa;stop-opacity:1"
         offset="0" />
      <stop
         id="stop3213"
         style="stop-color:#bababa;stop-opacity:0"
         offset="1" />
    </linearGradient>
    <linearGradient
       x1="12.004697"
       y1="35.688461"
       x2="10.650805"
       y2="33.194965"
       id="linearGradient2723-207-870-812-510"
       xlink:href="#linearGradient2257-789-141-816-743"
       gradientUnits="userSpaceOnUse"
       gradientTransform="matrix(0.54778307,-0.01433844,0.01433844,0.54778307,-1.4931469,23.162772)" />
    <linearGradient
       id="linearGradient2265-890-372-783-802">
      <stop
         id="stop3205"
         style="stop-color:#000000;stop-opacity:1"
         offset="0" />
      <stop
         id="stop3207"
         style="stop-color:#000000;stop-opacity:0"
         offset="1" />
    </linearGradient>
    <linearGradient
       x1="14.017542"
       y1="36.942543"
       x2="15.415793"
       y2="38.268368"
       id="linearGradient2719-69-752-179-525"
       xlink:href="#linearGradient2265-890-372-783-802"
       gradientUnits="userSpaceOnUse"
       gradientTransform="matrix(0.47754367,-0.00942129,0.00942129,0.47754367,-1.1830105,25.331983)" />
  </defs>
  <metadata
     id="metadata3382">
    <rdf:RDF>
      <cc:Work
         rdf:about="">
        <dc:format>image/svg+xml</dc:format>
        <dc:type
           rdf:resource="http://purl.org/dc/dcmitype/StillImage" />
        <dc:title></dc:title>
      </cc:Work>
    </rdf:RDF>
  </metadata>
  <g
     transform="translate(0,-26)"
     id="layer1">
    <path
       d="m 26.5,38.700001 a 13.75,3.8 0 1 1 -27.5,0 13.75,3.8 0 1 1 27.5,0 z"
       transform="matrix(0.73333335,0,0,0.84547589,1.65,12.067276)"
       id="path10689"
       style="opacity:0.4;fill:url(#radialGradient2693);fill-opacity:1;fill-rule:nonzero;stroke:none;stroke-width:0.80000001;marker:none;visibility:visible;display:inline;overflow:visible" />
    <path
       d="m 20.185794,34.343247 -0.777537,0 c -0.209854,0 -0.452501,-0.174345 -0.519218,-0.372882 -0.0037,-0.01032 -0.48255,-1.167513 -0.48255,-1.167513 -0.09855,-0.197891 -0.05088,-0.491907 0.09741,-0.640124 l 0.549752,-0.548838 c 0.126333,-0.126284 0.19612,-0.294661 0.19612,-0.474166 0,-0.179507 -0.06978,-0.347884 -0.19612,-0.474005 l -2.164599,-2.161003 c -0.126332,-0.126123 -0.29499,-0.195634 -0.474794,-0.195796 -0.179805,0 -0.348462,0.06951 -0.474794,0.195796 l -0.549751,0.548838 c -0.148303,0.147895 -0.442968,0.195634 -0.630528,0.102091 -0.0105,-0.0049 -1.169617,-0.482714 -1.169617,-0.482714 -0.209367,-0.07048 -0.384002,-0.312723 -0.384002,-0.522227 l 0,-0.776407 c -4.84e-4,-0.369816 -0.301774,-0.670606 -0.672045,-0.670606 l -3.0610364,0 c -0.3704323,0 -0.6717216,0.30079 -0.6717216,0.670606 l 0,0.776407 c 0,0.209504 -0.1746354,0.451748 -0.3735023,0.518356 -0.01034,0.0038 -1.1694553,0.481747 -1.1694553,0.481747 -0.1982208,0.09838 -0.4928867,0.05064 -0.641189,-0.09741 L 6.066869,28.504716 C 5.9403763,28.378433 5.7717184,28.30892 5.5919142,28.30892 c -0.1798046,0 -0.3484619,0.06968 -0.4747934,0.195796 l -2.1647607,2.161003 c -0.2618713,0.261436 -0.2618713,0.686734 0,0.948171 l 0.5497522,0.548838 c 0.1481408,0.148056 0.1959593,0.442233 0.1022605,0.62948 -0.00485,0.01049 -0.4836781,1.167674 -0.4836781,1.167674 -0.070597,0.20902 -0.3130827,0.383203 -0.5229351,0.383203 l -0.5760849,0 c -0.370271,1.62e-4 -0.873174,0.300951 -0.873174,0.670768 l 0,3.05579 c 0,0.369817 0.3012895,0.670606 0.6717219,0.670606 l 0.7776984,0 c 0.2098527,0 0.4524996,0.174183 0.5190579,0.372881 0.00388,0.01033 0.4827092,1.167513 0.4827092,1.167513 0.098545,0.197892 0.050727,0.491906 -0.097414,0.640124 l -0.5497524,0.548838 c -0.2618711,0.261437 -0.2618711,0.686735 0,0.948171 l 2.1647608,2.161002 c 0.1263315,0.126124 0.2949889,0.195799 0.4747934,0.195799 0.179966,0 0.3486235,-0.06968 0.474955,-0.195799 l 0.5497522,-0.548836 c 0.1483023,-0.147894 0.4429683,-0.195636 0.6305272,-0.102092 0.010498,0.0049 1.1696163,0.482876 1.1696163,0.482876 0.209207,0.07048 0.3838416,0.312564 0.3838416,0.522067 l 0,0.776245 c 0,0.369818 0.3012893,0.670606 0.6717216,0.670606 l 3.0608742,0 c 0.370271,0 0.67156,-0.300788 0.67156,-0.670606 l 0,-0.776245 c 0,-0.209503 0.174635,-0.45175 0.373664,-0.518358 0.01034,-0.0037 1.169456,-0.481746 1.169456,-0.481746 0.198221,-0.09838 0.493048,-0.0508 0.641189,0.09725 l 0.549752,0.548836 c 0.126332,0.126124 0.294989,0.195799 0.474793,0.195799 0.179805,0 0.348463,-0.06968 0.474793,-0.195799 l 2.1646,-2.161002 c 0.126333,-0.126121 0.19612,-0.294498 0.19612,-0.474005 0,-0.179505 -0.06978,-0.347883 -0.19612,-0.474003 l -0.549751,-0.54884 c -0.148302,-0.148056 -0.19596,-0.442233 -0.102261,-0.629479 0.0049,-0.01049 0.483678,-1.167674 0.483678,-1.167674 0.07059,-0.208859 0.313082,-0.383204 0.522936,-0.383204 l 0.777536,0 c 0.370432,0 0.671722,-0.300789 0.671722,-0.670606 l 0,-3.056112 c 5.15e-4,-0.369817 -0.300805,-0.670606 -0.671237,-0.670606 z m -9.182786,5.051802 c -1.5759136,0 -2.8581301,-1.279926 -2.8581301,-2.853221 0,-1.573296 1.2822165,-2.853382 2.8581301,-2.853382 1.576074,0 2.857968,1.280086 2.857968,2.853382 0,1.573457 -1.281894,2.853221 -2.857968,2.853221 z"
       id="path6"
       style="opacity:0.1;fill:#030303;stroke-width:2.66666675;stroke-miterlimit:4;stroke-dasharray:none" />
    <path
       d="m 20.183028,34.339537 -0.777538,0 c -0.209853,0 -0.4525,-0.174667 -0.519219,-0.373527 -0.0037,-0.01032 -0.482548,-1.169286 -0.482548,-1.169286 -0.09854,-0.198214 -0.05089,-0.492714 0.09742,-0.641092 l 0.549752,-0.549806 c 0.126331,-0.126445 0.196123,-0.295144 0.196123,-0.474973 0,-0.179667 -0.06979,-0.348366 -0.196123,-0.474811 l -2.1646,-2.164551 c -0.126332,-0.126444 -0.294989,-0.196118 -0.474793,-0.196118 -0.179805,0 -0.348463,0.06968 -0.474794,0.196118 l -0.549752,0.549645 c -0.148303,0.148217 -0.442969,0.195956 -0.630527,0.102252 -0.01051,-0.0049 -1.169617,-0.48352 -1.169617,-0.48352 -0.209368,-0.07064 -0.384003,-0.313208 -0.384003,-0.523034 l 0,-0.777697 c -4.89e-4,-0.370462 -0.301779,-0.671735 -0.67205,-0.671735 l -3.0610359,0 c -0.370433,0 -0.6717223,0.301273 -0.6717223,0.671735 l 0,0.777697 c 0,0.209826 -0.1746347,0.452554 -0.3735016,0.519163 -0.01034,0.0038 -1.1694553,0.482552 -1.1694553,0.482552 -0.1982214,0.09854 -0.492887,0.0508 -0.6411896,-0.09741 L 6.0641024,28.491491 c -0.1264931,-0.126444 -0.2951505,-0.196118 -0.474955,-0.196118 -0.1798045,0 -0.3484619,0.06983 -0.4747936,0.196118 l -2.1647605,2.164551 c -0.2618714,0.261921 -0.2618714,0.688025 0,0.949784 l 0.5497523,0.549806 c 0.1481407,0.148218 0.1959594,0.442878 0.1022605,0.630608 -0.00485,0.01049 -0.4836783,1.169609 -0.4836783,1.169609 -0.070597,0.209344 -0.3130827,0.383849 -0.5229349,0.383849 l -0.5760851,0 C 1.648637,34.339537 1.1457341,34.64081 1.1457341,35.011272 l 0,3.06095 c 0,0.370302 0.3012894,0.671575 0.671722,0.671575 l 0.7776983,0 c 0.2098525,0 0.4524995,0.174506 0.5190577,0.373527 0.00388,0.01032 0.4827092,1.169286 0.4827092,1.169286 0.098545,0.198215 0.050727,0.492875 -0.097414,0.641254 L 2.949755,41.47767 c -0.2618714,0.261759 -0.2618714,0.688024 0,0.949783 l 2.1647606,2.164555 c 0.1263315,0.126444 0.2949889,0.196115 0.4747932,0.196115 0.1799661,0 0.3486236,-0.06967 0.474955,-0.196115 L 6.614016,44.04236 c 0.1483024,-0.148217 0.442968,-0.196119 0.6305269,-0.102252 0.010498,0.0047 1.169617,0.483521 1.169617,0.483521 0.2092062,0.07064 0.3838409,0.313046 0.3838409,0.523034 l 0,0.777533 c 0,0.370464 0.30129,0.671737 0.6717223,0.671737 l 3.0608749,0 c 0.370271,0 0.67156,-0.301273 0.67156,-0.671737 l 0,-0.777533 c 0,-0.209988 0.174635,-0.452555 0.373663,-0.519326 0.01034,-0.0038 1.169456,-0.482552 1.169456,-0.482552 0.198221,-0.09854 0.493049,-0.05064 0.641189,0.09741 l 0.549752,0.549644 c 0.126332,0.126447 0.29499,0.196117 0.474794,0.196117 0.179804,0 0.348462,-0.06967 0.474793,-0.196117 l 2.1646,-2.164551 c 0.126333,-0.126284 0.196121,-0.294984 0.196121,-0.474812 0,-0.179828 -0.06979,-0.348528 -0.196121,-0.474811 l -0.549753,-0.549806 c -0.148301,-0.148218 -0.19596,-0.443039 -0.10226,-0.630448 0.0049,-0.01064 0.483678,-1.169609 0.483678,-1.169609 0.0706,-0.209504 0.313085,-0.38401 0.522938,-0.38401 l 0.777536,0 c 0.37043,0 0.671722,-0.301273 0.671722,-0.671575 l 0,-3.06095 c 5.15e-4,-0.370462 -0.300806,-0.671735 -0.671237,-0.671735 z m -9.182787,5.281144 c -1.7096758,0 -3.1004541,-1.388467 -3.1004541,-3.095142 0,-1.706836 1.3907783,-3.095304 3.1004541,-3.095304 1.709515,0 3.100292,1.388468 3.100292,3.095304 0,1.706675 -1.390777,3.095142 -3.100292,3.095142 z"
       id="path8"
       style="fill:url(#linearGradient3226);fill-opacity:1;stroke:#888888;stroke-width:0.45813477;stroke-linecap:round;stroke-linejoin:round;stroke-miterlimit:4;stroke-opacity:1;stroke-dasharray:none" />
    <path
       d="m 11.002766,30.544758 c -3.3833864,0 -6.1359924,2.748033 -6.1359924,6.125799 0,3.377766 2.752606,6.1258 6.1359924,6.1258 3.383386,0 6.135992,-2.748034 6.135992,-6.1258 0,-3.377766 -2.752606,-6.125799 -6.135992,-6.125799 z m 0,10.631255 c -2.4925947,0 -4.512952,-2.016854 -4.512952,-4.505456 0,-2.488601 2.0203574,-4.505455 4.512952,-4.505455 2.492594,0 4.512951,2.017001 4.512951,4.505455 0,2.488454 -2.020357,4.505456 -4.512951,4.505456 z"
       id="path28"
       style="fill:url(#linearGradient2441);stroke:url(#linearGradient2443);stroke-width:0.45813477;stroke-miterlimit:4;stroke-dasharray:none" />
    <path
       d="m 11.002766,31.273884 c -2.9141862,0 -5.2765477,2.358438 -5.2765477,5.267783 0,2.909345 2.3623615,5.267782 5.2765477,5.267782 2.914186,0 5.276547,-2.358437 5.276547,-5.267782 0,-2.909345 -2.362361,-5.267783 -5.276547,-5.267783 z m 0,8.751317 c -1.927302,0 -3.4893301,-1.559605 -3.4893301,-3.483534 0,-1.9241 1.5620281,-3.483533 3.4893301,-3.483533 1.927131,0 3.48933,1.559433 3.48933,3.483533 0,1.923929 -1.562199,3.483534 -3.48933,3.483534 z"
       id="path35"
       style="fill:url(#linearGradient2436);stroke:url(#linearGradient2438);stroke-width:0.45813477;stroke-miterlimit:4;stroke-opacity:1;stroke-dasharray:none" />
    <path
       d="m 9.8759962,39.503034 c 0.4533118,-0.388552 7.2242548,-7.313811 7.2242548,-7.313811 l 1.671728,-0.11941 2.627002,-3.641981 -2.188583,-1.949764 -3.403161,2.925526 0,1.671729 -6.9257318,7.194402 c -0.3283741,0.328375 0.5765579,1.591536 0.994491,1.233309 z"
       id="path2144"
       style="fill:url(#linearGradient2733);fill-opacity:1;fill-rule:nonzero;stroke:#888a85;stroke-width:0.45833334;stroke-linecap:butt;stroke-linejoin:round;stroke-miterlimit:4;stroke-opacity:1;stroke-dasharray:none;stroke-dashoffset:0;marker:none;visibility:visible;display:inline;overflow:visible" />
    <path
       d="m 9.8233493,38.937482 c 0.3517387,-0.30149 7.0831647,-7.194871 7.0831647,-7.194871 l 1.592674,-0.134871 2.291688,-3.079247 -1.571545,-1.386238 -2.978373,2.565541 0.08443,1.550458 -6.8937463,7.228872 c -0.2547985,0.254797 0.067421,0.728318 0.3917026,0.450356 z"
       id="path3085"
       style="opacity:0.53977272;fill:none;stroke:url(#linearGradient2730);stroke-width:0.45833334;stroke-linecap:butt;stroke-linejoin:round;stroke-miterlimit:4;stroke-opacity:1;stroke-dasharray:none;stroke-dashoffset:0;marker:none;visibility:visible;display:inline;overflow:visible" />
    <path
       d="M 2.2440533,46.837333 C 2.9600639,47.63418 4.9489326,47.99471 5.8309075,46.451255 6.2154589,45.778291 6.9696722,43.89369 10.3345,40.865348 10.899627,40.35731 11.498263,39.195146 10.990774,38.568247 L 9.6772738,37.254748 C 9.139933,36.657702 7.6463565,36.936195 7.0335822,37.77187 5.2069617,40.271455 2.2227494,42.261187 1.5497849,42.501533 0.26202,42.961447 0.40695875,44.859696 1.2589276,45.76265 l 0.9851257,1.074683 z"
       id="path2142"
       style="fill:url(#linearGradient2727-611-236-922-438);fill-opacity:1;fill-rule:nonzero;stroke:#373737;stroke-width:0.45833334;stroke-linecap:round;stroke-linejoin:round;stroke-miterlimit:4;stroke-opacity:1;stroke-dasharray:none;stroke-dashoffset:0;marker:none;visibility:visible;display:inline;overflow:visible" />
    <path
       d="m 20.771261,28.20101 a 1.767767,1.767767 0 1 1 -3.535534,0 1.767767,1.767767 0 1 1 3.535534,0 z"
       transform="matrix(0.31046409,0,0,0.31046409,2.6190519,29.238487)"
       id="path3101"
       style="opacity:0.60227272;fill:#bababa;fill-opacity:1;fill-rule:nonzero;stroke:none;stroke-width:1.4762845;marker:none;visibility:visible;display:inline;overflow:visible" />
    <path
       d="m 7.7985944,39.230803 c 0,0 -3.8992594,3.969806 -5.7258799,4.642773"
       id="path3103"
       style="fill:none;stroke:url(#linearGradient2723-207-870-812-510);stroke-width:0.45833334;stroke-linecap:round;stroke-linejoin:round;stroke-miterlimit:4;stroke-opacity:1;stroke-dasharray:none;stroke-dashoffset:0;marker:none;visibility:visible;display:inline;overflow:visible" />
    <path
       d="m 2.4293329,46.225585 c 0.7838152,0.949333 2.5014016,1.175359 3.040687,-0.20154 0.3705195,-0.946012 1.8129495,-3.081271 4.4581575,-5.461959 0.4442666,-0.399385 0.9148766,-1.313004 0.5159206,-1.80583 L 9.4115083,37.723667 C 8.9890865,37.254309 7.8149341,37.473242 7.3332098,38.130195 5.8972409,40.095208 2.7196434,42.665561 1.9515238,42.919029 0.76226219,43.311467 0.98512902,44.670895 1.6548915,45.380741 l 0.7744413,0.844844 z"
       id="path2270"
       style="opacity:0.19886367;fill:none;stroke:#bababa;stroke-width:0.45833334;stroke-linecap:butt;stroke-linejoin:miter;stroke-miterlimit:4;stroke-opacity:1;stroke-dasharray:none;stroke-dashoffset:0;marker:none;visibility:visible;display:inline;overflow:visible" />
    <path
       d="m 8.9655074,40.12064 c 0,0 -3.9823991,3.598796 -4.8476403,5.906106"
       id="path2247"
       style="opacity:0.27840911;fill:none;stroke:url(#linearGradient2719-69-752-179-525);stroke-width:0.45833334;stroke-linecap:round;stroke-linejoin:round;stroke-miterlimit:4;stroke-opacity:1;stroke-dasharray:none;stroke-dashoffset:0;marker:none;visibility:visible;display:inline;overflow:visible" />
  </g>
</svg>
