<?xml version="1.0" encoding="UTF-8" standalone="no"?>
<!-- Created with Inkscape (http://www.inkscape.org/) -->

<svg
   xmlns:dc="http://purl.org/dc/elements/1.1/"
   xmlns:cc="http://creativecommons.org/ns#"
   xmlns:rdf="http://www.w3.org/1999/02/22-rdf-syntax-ns#"
   xmlns:svg="http://www.w3.org/2000/svg"
   xmlns="http://www.w3.org/2000/svg"
   xmlns:xlink="http://www.w3.org/1999/xlink"
   version="1.1"
   width="22"
   height="22"
   viewBox="0 0 22 22"
   id="Capa_1"
   xml:space="preserve"><metadata
   id="metadata3105"><rdf:RDF><cc:Work
       rdf:about=""><dc:format>image/svg+xml</dc:format><dc:type
         rdf:resource="http://purl.org/dc/dcmitype/StillImage" /><dc:title></dc:title></cc:Work></rdf:RDF></metadata><defs
   id="defs3103"><linearGradient
   id="linearGradient4143"><stop
     id="stop4145"
     style="stop-color:#6a8d00;stop-opacity:1"
     offset="0" /><stop
     id="stop4147"
     style="stop-color:#516b00;stop-opacity:1"
     offset="1" /></linearGradient><linearGradient
   id="linearGradient4131"><stop
     id="stop4133"
     style="stop-color:#97ca03;stop-opacity:1"
     offset="0" /><stop
     id="stop4139"
     style="stop-color:#8cbd00;stop-opacity:1"
     offset="0.59320629" /><stop
     id="stop4135"
     style="stop-color:#4e6609;stop-opacity:1"
     offset="1" /></linearGradient>
	
	
		<radialGradient
   cx="101.0571"
   cy="199.0898"
   r="173.2639"
   id="path4348_1_"
   gradientUnits="userSpaceOnUse"
   gradientTransform="matrix(1.0131,0,0,-0.871,3.7349,209.2955)">
		<stop
   id="stop3007"
   style="stop-color:#ffffff;stop-opacity:1"
   offset="0" />
		<stop
   id="stop3009"
   style="stop-color:#ffffff;stop-opacity:0"
   offset="1" />
	</radialGradient>
	
		
	
	
	
<linearGradient
   x1="123.20689"
   y1="13.03891"
   x2="121.67282"
   y2="117.42049"
   id="linearGradient4125"
   xlink:href="#path4348_1_"
   gradientUnits="userSpaceOnUse" /><linearGradient
   x1="333.5401"
   y1="16.793198"
   x2="439.36871"
   y2="120.92879"
   id="linearGradient4137"
   xlink:href="#linearGradient4131"
   gradientUnits="userSpaceOnUse" /><radialGradient
   cx="690.05573"
   cy="277.53165"
   r="106.52975"
   fx="690.05573"
   fy="277.53165"
   id="radialGradient4149"
   xlink:href="#linearGradient4143"
   gradientUnits="userSpaceOnUse"
   gradientTransform="matrix(0.30372707,-0.20558194,0.10191528,0.15056979,214.16352,148.82211)" /><linearGradient
   x1="333.5401"
   y1="16.793198"
   x2="439.36871"
   y2="120.92879"
   id="linearGradient4155"
   xlink:href="#linearGradient4131"
   gradientUnits="userSpaceOnUse" /><radialGradient
   cx="690.05573"
   cy="277.53165"
   r="106.52975"
   fx="690.05573"
   fy="277.53165"
   id="radialGradient4157"
   xlink:href="#linearGradient4143"
   gradientUnits="userSpaceOnUse"
   gradientTransform="matrix(0.30372707,-0.20558194,0.10191528,0.15056979,214.16352,148.82211)" /><radialGradient
   cx="690.05573"
   cy="277.53165"
   r="106.52975"
   fx="690.05573"
   fy="277.53165"
   id="radialGradient4160"
   xlink:href="#linearGradient4143"
   gradientUnits="userSpaceOnUse"
   gradientTransform="matrix(0.30372707,-0.20558194,0.10191528,0.15056979,-7.12462,264.88991)" /><linearGradient
   x1="333.5401"
   y1="16.793198"
   x2="439.36871"
   y2="120.92879"
   id="linearGradient4163"
   xlink:href="#linearGradient4131"
   gradientUnits="userSpaceOnUse"
   gradientTransform="translate(-221.28814,116.0678)" /><radialGradient
   cx="690.05573"
   cy="277.53165"
   r="106.52975"
   fx="690.05573"
   fy="277.53165"
   id="radialGradient4204"
   xlink:href="#linearGradient4143"
   gradientUnits="userSpaceOnUse"
   gradientTransform="matrix(0.30372707,-0.20558194,0.10191528,0.15056979,-7.12462,264.88991)" /><radialGradient
   cx="9.6640997"
   cy="-62.565899"
   r="65.185501"
   id="radialGradient4206"
   xlink:href="#path4112_1_"
   gradientUnits="userSpaceOnUse"
   gradientTransform="matrix(1.6891,0,0,-0.777,107.7809,146.5186)" /><linearGradient
   x1="123.20689"
   y1="13.03891"
   x2="121.67282"
   y2="117.42049"
   id="linearGradient4208"
   xlink:href="#path4348_1_"
   gradientUnits="userSpaceOnUse" /><linearGradient
   x1="333.5401"
   y1="16.793198"
   x2="439.36871"
   y2="120.92879"
   id="linearGradient4210"
   xlink:href="#linearGradient4131"
   gradientUnits="userSpaceOnUse"
   gradientTransform="translate(-221.28814,116.0678)" /><radialGradient
   cx="99.157013"
   cy="186.17059"
   r="62.769119"
   fx="99.157013"
   fy="186.17059"
   id="radialGradient6873"
   xlink:href="#linearGradient3820-7-2-1"
   gradientUnits="userSpaceOnUse"
   gradientTransform="matrix(1,0,0,0.1666667,0,155.14216)" /><linearGradient
   id="linearGradient3820-7-2-1"><stop
     id="stop3822-2-6-3"
     style="stop-color:#3d3d3d;stop-opacity:1"
     offset="0" /><stop
     id="stop3864-8-7-7"
     style="stop-color:#686868;stop-opacity:0.49803922"
     offset="0.5" /><stop
     id="stop3824-1-2-5"
     style="stop-color:#686868;stop-opacity:0"
     offset="1" /></linearGradient><linearGradient
   id="linearGradient2867-449-88-871-390-598-476-591-434-148-57-177-3-8-63"><stop
     id="stop3750-8-9-2"
     style="stop-color:#5bc2ee;stop-opacity:1"
     offset="0" /><stop
     id="stop3752-3-2-6"
     style="stop-color:#42baea;stop-opacity:1"
     offset="0.26238" /><stop
     id="stop3754-7-2-0"
     style="stop-color:#3689e6;stop-opacity:1"
     offset="0.704952" /><stop
     id="stop3756-9-3-9"
     style="stop-color:#2b63a0;stop-opacity:1"
     offset="1" /></linearGradient><radialGradient
   cx="299.44821"
   cy="-290.5918"
   r="17.1528"
   fx="297.44989"
   fy="-289.9133"
   id="XMLID_2_-8-6-1-4"
   gradientUnits="userSpaceOnUse"
   gradientTransform="matrix(0.8232,0.2312,0.2703,-0.9626,-96.2274,-315.3433)"><stop
     id="stop228-2-7-9-3"
     style="stop-color:#000000;stop-opacity:1"
     offset="0" /><stop
     id="stop230-7-5-7-8"
     style="stop-color:#000000;stop-opacity:0"
     offset="1" /></radialGradient><linearGradient
   id="linearGradient3242-7-3-8-9-9"><stop
     id="stop3244-5-8-5-3-6"
     style="stop-color:#eef87e;stop-opacity:1"
     offset="0" /><stop
     id="stop3246-9-5-1-2-4"
     style="stop-color:#cde34f;stop-opacity:1"
     offset="0.26238" /><stop
     id="stop3248-7-2-0-84-3"
     style="stop-color:#93b723;stop-opacity:1"
     offset="0.66093999" /><stop
     id="stop3250-8-2-8-3-37"
     style="stop-color:#5a7e0d;stop-opacity:1"
     offset="1" /></linearGradient><linearGradient
   id="linearGradient4806-2"><stop
     id="stop4808-4"
     style="stop-color:#ffffff;stop-opacity:1"
     offset="0" /><stop
     id="stop4810-0"
     style="stop-color:#ffffff;stop-opacity:0.23529412"
     offset="0.42447853" /><stop
     id="stop4812-8"
     style="stop-color:#ffffff;stop-opacity:0.15686275"
     offset="0.82089913" /><stop
     id="stop4814-0"
     style="stop-color:#ffffff;stop-opacity:0.39215687"
     offset="1" /></linearGradient><radialGradient
   cx="99.157013"
   cy="186.17059"
   r="62.769119"
   fx="99.157013"
   fy="186.17059"
   id="radialGradient3229"
   xlink:href="#linearGradient3820-7-2-1"
   gradientUnits="userSpaceOnUse"
   gradientTransform="matrix(1,0,0,0.1666667,0,155.14216)" /><linearGradient
   x1="333.5401"
   y1="16.793198"
   x2="439.36871"
   y2="120.92879"
   id="linearGradient3301"
   xlink:href="#linearGradient4131"
   gradientUnits="userSpaceOnUse"
   gradientTransform="matrix(0.17081705,0,0,0.17081705,-35.532328,22.503012)" /><radialGradient
   cx="690.05573"
   cy="277.53165"
   r="106.52975"
   fx="690.05573"
   fy="277.53165"
   id="radialGradient3343"
   xlink:href="#linearGradient4143"
   gradientUnits="userSpaceOnUse"
   gradientTransform="matrix(0.05188176,-0.0351169,0.01740887,0.02571989,1.0504524,47.924365)" /><linearGradient
   x1="71.204407"
   y1="15.369057"
   x2="71.204407"
   y2="40.495617"
   id="linearGradient3477"
   xlink:href="#linearGradient4806-2"
   gradientUnits="userSpaceOnUse"
   gradientTransform="matrix(1.6169806,0,0,1.6169806,-39.52093,-31.776074)" /><radialGradient
   cx="15.645058"
   cy="8.449769"
   r="19.99999"
   fx="-0.32174549"
   fy="8.44977"
   id="radialGradient3489"
   xlink:href="#linearGradient2867-449-88-871-390-598-476-591-434-148-57-177-3-8-63"
   gradientUnits="userSpaceOnUse"
   gradientTransform="matrix(-6.7138025e-8,1.1033078,-1.0394758,-7.5994237e-8,85.969891,-6.9557025)" /><linearGradient
   x1="19.572119"
   y1="112.34997"
   x2="222.787"
   y2="112.34997"
   id="linearGradient4299"
   xlink:href="#XMLID_2_-8-6-1-4"
   gradientUnits="userSpaceOnUse" /><linearGradient
   x1="19.572119"
   y1="112.34997"
   x2="222.787"
   y2="112.34997"
   id="linearGradient4301"
   xlink:href="#XMLID_2_-8-6-1-4"
   gradientUnits="userSpaceOnUse" /><linearGradient
   x1="19.572119"
   y1="112.34997"
   x2="222.787"
   y2="112.34997"
   id="linearGradient4303"
   xlink:href="#XMLID_2_-8-6-1-4"
   gradientUnits="userSpaceOnUse" /><linearGradient
   x1="19.572119"
   y1="112.34997"
   x2="222.787"
   y2="112.34997"
   id="linearGradient4305"
   xlink:href="#XMLID_2_-8-6-1-4"
   gradientUnits="userSpaceOnUse" /><linearGradient
   x1="19.572119"
   y1="112.34997"
   x2="222.787"
   y2="112.34997"
   id="linearGradient4307"
   xlink:href="#XMLID_2_-8-6-1-4"
   gradientUnits="userSpaceOnUse" /><linearGradient
   x1="19.572119"
   y1="112.34997"
   x2="222.787"
   y2="112.34997"
   id="linearGradient4309"
   xlink:href="#XMLID_2_-8-6-1-4"
   gradientUnits="userSpaceOnUse" /><linearGradient
   x1="19.572119"
   y1="112.34997"
   x2="222.787"
   y2="112.34997"
   id="linearGradient4311"
   xlink:href="#XMLID_2_-8-6-1-4"
   gradientUnits="userSpaceOnUse" /><linearGradient
   x1="19.572119"
   y1="112.34997"
   x2="222.787"
   y2="112.34997"
   id="linearGradient4313"
   xlink:href="#XMLID_2_-8-6-1-4"
   gradientUnits="userSpaceOnUse" /><linearGradient
   x1="19.572119"
   y1="112.34997"
   x2="222.787"
   y2="112.34997"
   id="linearGradient4315"
   xlink:href="#XMLID_2_-8-6-1-4"
   gradientUnits="userSpaceOnUse" /><linearGradient
   x1="19.572119"
   y1="112.34997"
   x2="222.787"
   y2="112.34997"
   id="linearGradient4317"
   xlink:href="#XMLID_2_-8-6-1-4"
   gradientUnits="userSpaceOnUse" /><linearGradient
   x1="19.572119"
   y1="112.34997"
   x2="222.787"
   y2="112.34997"
   id="linearGradient4319"
   xlink:href="#XMLID_2_-8-6-1-4"
   gradientUnits="userSpaceOnUse" /><linearGradient
   x1="19.572119"
   y1="112.34997"
   x2="222.787"
   y2="112.34997"
   id="linearGradient4321"
   xlink:href="#XMLID_2_-8-6-1-4"
   gradientUnits="userSpaceOnUse" /><linearGradient
   x1="19.572119"
   y1="112.34997"
   x2="222.787"
   y2="112.34997"
   id="linearGradient4323"
   xlink:href="#XMLID_2_-8-6-1-4"
   gradientUnits="userSpaceOnUse" /><linearGradient
   x1="19.572119"
   y1="112.34997"
   x2="222.787"
   y2="112.34997"
   id="linearGradient4325"
   xlink:href="#XMLID_2_-8-6-1-4"
   gradientUnits="userSpaceOnUse" /><linearGradient
   x1="19.572119"
   y1="112.34997"
   x2="222.787"
   y2="112.34997"
   id="linearGradient4327"
   xlink:href="#XMLID_2_-8-6-1-4"
   gradientUnits="userSpaceOnUse" /><linearGradient
   x1="19.572119"
   y1="112.34997"
   x2="222.787"
   y2="112.34997"
   id="linearGradient4329"
   xlink:href="#XMLID_2_-8-6-1-4"
   gradientUnits="userSpaceOnUse" /><linearGradient
   x1="19.572119"
   y1="112.34997"
   x2="222.787"
   y2="112.34997"
   id="linearGradient4331"
   xlink:href="#XMLID_2_-8-6-1-4"
   gradientUnits="userSpaceOnUse" /><linearGradient
   x1="19.572119"
   y1="112.34997"
   x2="222.787"
   y2="112.34997"
   id="linearGradient4333"
   xlink:href="#XMLID_2_-8-6-1-4"
   gradientUnits="userSpaceOnUse" /><linearGradient
   x1="19.572119"
   y1="112.34997"
   x2="222.787"
   y2="112.34997"
   id="linearGradient4335"
   xlink:href="#XMLID_2_-8-6-1-4"
   gradientUnits="userSpaceOnUse" /><linearGradient
   x1="19.572119"
   y1="112.34997"
   x2="222.787"
   y2="112.34997"
   id="linearGradient4337"
   xlink:href="#XMLID_2_-8-6-1-4"
   gradientUnits="userSpaceOnUse" /><linearGradient
   x1="19.572119"
   y1="112.34997"
   x2="222.787"
   y2="112.34997"
   id="linearGradient4339"
   xlink:href="#XMLID_2_-8-6-1-4"
   gradientUnits="userSpaceOnUse" /><linearGradient
   x1="19.572119"
   y1="112.34997"
   x2="222.787"
   y2="112.34997"
   id="linearGradient4341"
   xlink:href="#XMLID_2_-8-6-1-4"
   gradientUnits="userSpaceOnUse" /><linearGradient
   x1="19.572119"
   y1="112.34997"
   x2="222.787"
   y2="112.34997"
   id="linearGradient4343"
   xlink:href="#XMLID_2_-8-6-1-4"
   gradientUnits="userSpaceOnUse" /><linearGradient
   x1="19.572119"
   y1="112.34997"
   x2="222.787"
   y2="112.34997"
   id="linearGradient4345"
   xlink:href="#XMLID_2_-8-6-1-4"
   gradientUnits="userSpaceOnUse" /><linearGradient
   x1="19.572119"
   y1="112.34997"
   x2="222.787"
   y2="112.34997"
   id="linearGradient4347"
   xlink:href="#XMLID_2_-8-6-1-4"
   gradientUnits="userSpaceOnUse" /><linearGradient
   x1="19.572119"
   y1="112.34997"
   x2="222.787"
   y2="112.34997"
   id="linearGradient4349"
   xlink:href="#XMLID_2_-8-6-1-4"
   gradientUnits="userSpaceOnUse" /><linearGradient
   x1="19.572119"
   y1="112.34997"
   x2="222.787"
   y2="112.34997"
   id="linearGradient4351"
   xlink:href="#XMLID_2_-8-6-1-4"
   gradientUnits="userSpaceOnUse" /><linearGradient
   x1="19.572119"
   y1="112.34997"
   x2="222.787"
   y2="112.34997"
   id="linearGradient4353"
   xlink:href="#XMLID_2_-8-6-1-4"
   gradientUnits="userSpaceOnUse" /><linearGradient
   x1="19.572119"
   y1="112.34997"
   x2="222.787"
   y2="112.34997"
   id="linearGradient4355"
   xlink:href="#XMLID_2_-8-6-1-4"
   gradientUnits="userSpaceOnUse" /><linearGradient
   x1="19.572119"
   y1="112.34997"
   x2="222.787"
   y2="112.34997"
   id="linearGradient4357"
   xlink:href="#XMLID_2_-8-6-1-4"
   gradientUnits="userSpaceOnUse" /><linearGradient
   x1="19.572119"
   y1="112.34997"
   x2="222.787"
   y2="112.34997"
   id="linearGradient4359"
   xlink:href="#XMLID_2_-8-6-1-4"
   gradientUnits="userSpaceOnUse" /><linearGradient
   x1="19.572119"
   y1="112.34997"
   x2="222.787"
   y2="112.34997"
   id="linearGradient4398"
   xlink:href="#XMLID_2_-8-6-1-4"
   gradientUnits="userSpaceOnUse" /><linearGradient
   x1="19.572119"
   y1="112.34997"
   x2="222.787"
   y2="112.34997"
   id="linearGradient4400"
   xlink:href="#XMLID_2_-8-6-1-4"
   gradientUnits="userSpaceOnUse" /><linearGradient
   x1="19.572119"
   y1="112.34997"
   x2="222.787"
   y2="112.34997"
   id="linearGradient4402"
   xlink:href="#XMLID_2_-8-6-1-4"
   gradientUnits="userSpaceOnUse" /><linearGradient
   x1="19.572119"
   y1="112.34997"
   x2="222.787"
   y2="112.34997"
   id="linearGradient4404"
   xlink:href="#XMLID_2_-8-6-1-4"
   gradientUnits="userSpaceOnUse" /><linearGradient
   x1="19.572119"
   y1="112.34997"
   x2="222.787"
   y2="112.34997"
   id="linearGradient4406"
   xlink:href="#XMLID_2_-8-6-1-4"
   gradientUnits="userSpaceOnUse" /><linearGradient
   x1="19.572119"
   y1="112.34997"
   x2="222.787"
   y2="112.34997"
   id="linearGradient4408"
   xlink:href="#XMLID_2_-8-6-1-4"
   gradientUnits="userSpaceOnUse" /><linearGradient
   x1="19.572119"
   y1="112.34997"
   x2="222.787"
   y2="112.34997"
   id="linearGradient4410"
   xlink:href="#XMLID_2_-8-6-1-4"
   gradientUnits="userSpaceOnUse" /><linearGradient
   x1="19.572119"
   y1="112.34997"
   x2="222.787"
   y2="112.34997"
   id="linearGradient4412"
   xlink:href="#XMLID_2_-8-6-1-4"
   gradientUnits="userSpaceOnUse" /><linearGradient
   x1="19.572119"
   y1="112.34997"
   x2="222.787"
   y2="112.34997"
   id="linearGradient4414"
   xlink:href="#XMLID_2_-8-6-1-4"
   gradientUnits="userSpaceOnUse" /><linearGradient
   x1="19.572119"
   y1="112.34997"
   x2="222.787"
   y2="112.34997"
   id="linearGradient4416"
   xlink:href="#XMLID_2_-8-6-1-4"
   gradientUnits="userSpaceOnUse" /><linearGradient
   x1="19.572119"
   y1="112.34997"
   x2="222.787"
   y2="112.34997"
   id="linearGradient4418"
   xlink:href="#XMLID_2_-8-6-1-4"
   gradientUnits="userSpaceOnUse" /><linearGradient
   x1="19.572119"
   y1="112.34997"
   x2="222.787"
   y2="112.34997"
   id="linearGradient4420"
   xlink:href="#XMLID_2_-8-6-1-4"
   gradientUnits="userSpaceOnUse" /><linearGradient
   x1="19.572119"
   y1="112.34997"
   x2="222.787"
   y2="112.34997"
   id="linearGradient4422"
   xlink:href="#XMLID_2_-8-6-1-4"
   gradientUnits="userSpaceOnUse" /><linearGradient
   x1="19.572119"
   y1="112.34997"
   x2="222.787"
   y2="112.34997"
   id="linearGradient4424"
   xlink:href="#XMLID_2_-8-6-1-4"
   gradientUnits="userSpaceOnUse" /><linearGradient
   x1="19.572119"
   y1="112.34997"
   x2="222.787"
   y2="112.34997"
   id="linearGradient4426"
   xlink:href="#XMLID_2_-8-6-1-4"
   gradientUnits="userSpaceOnUse" /><linearGradient
   x1="19.572119"
   y1="112.34997"
   x2="222.787"
   y2="112.34997"
   id="linearGradient4428"
   xlink:href="#XMLID_2_-8-6-1-4"
   gradientUnits="userSpaceOnUse" /><linearGradient
   x1="19.572119"
   y1="112.34997"
   x2="222.787"
   y2="112.34997"
   id="linearGradient4430"
   xlink:href="#XMLID_2_-8-6-1-4"
   gradientUnits="userSpaceOnUse" /><linearGradient
   x1="19.572119"
   y1="112.34997"
   x2="222.787"
   y2="112.34997"
   id="linearGradient4432"
   xlink:href="#XMLID_2_-8-6-1-4"
   gradientUnits="userSpaceOnUse" /><linearGradient
   x1="19.572119"
   y1="112.34997"
   x2="222.787"
   y2="112.34997"
   id="linearGradient4434"
   xlink:href="#XMLID_2_-8-6-1-4"
   gradientUnits="userSpaceOnUse" /><linearGradient
   x1="19.572119"
   y1="112.34997"
   x2="222.787"
   y2="112.34997"
   id="linearGradient4436"
   xlink:href="#XMLID_2_-8-6-1-4"
   gradientUnits="userSpaceOnUse" /><linearGradient
   x1="19.572119"
   y1="112.34997"
   x2="222.787"
   y2="112.34997"
   id="linearGradient4438"
   xlink:href="#XMLID_2_-8-6-1-4"
   gradientUnits="userSpaceOnUse" /><radialGradient
   cx="690.05573"
   cy="277.53165"
   r="106.52975"
   fx="690.05573"
   fy="277.53165"
   id="radialGradient5232"
   xlink:href="#linearGradient4143"
   gradientUnits="userSpaceOnUse"
   gradientTransform="matrix(0.05188176,-0.0351169,0.01740887,0.02571989,1.0504524,47.924365)" /><radialGradient
   cx="99.157013"
   cy="186.17059"
   r="62.769119"
   fx="99.157013"
   fy="186.17059"
   id="radialGradient5234"
   xlink:href="#linearGradient3820-7-2-1"
   gradientUnits="userSpaceOnUse"
   gradientTransform="matrix(1,0,0,0.1666667,0,155.14216)" /><radialGradient
   cx="15.645058"
   cy="8.449769"
   r="19.99999"
   fx="-0.32174549"
   fy="8.44977"
   id="radialGradient5236"
   xlink:href="#linearGradient2867-449-88-871-390-598-476-591-434-148-57-177-3-8-63"
   gradientUnits="userSpaceOnUse"
   gradientTransform="matrix(-6.7138025e-8,1.1033078,-1.0394758,-7.5994237e-8,85.969891,-6.9557025)" /><linearGradient
   x1="19.572119"
   y1="112.34997"
   x2="222.787"
   y2="112.34997"
   id="linearGradient5238"
   xlink:href="#XMLID_2_-8-6-1-4"
   gradientUnits="userSpaceOnUse" /><linearGradient
   x1="19.572119"
   y1="112.34997"
   x2="222.787"
   y2="112.34997"
   id="linearGradient5240"
   xlink:href="#XMLID_2_-8-6-1-4"
   gradientUnits="userSpaceOnUse" /><linearGradient
   x1="19.572119"
   y1="112.34997"
   x2="222.787"
   y2="112.34997"
   id="linearGradient5242"
   xlink:href="#XMLID_2_-8-6-1-4"
   gradientUnits="userSpaceOnUse" /><linearGradient
   x1="19.572119"
   y1="112.34997"
   x2="222.787"
   y2="112.34997"
   id="linearGradient5244"
   xlink:href="#XMLID_2_-8-6-1-4"
   gradientUnits="userSpaceOnUse" /><linearGradient
   x1="19.572119"
   y1="112.34997"
   x2="222.787"
   y2="112.34997"
   id="linearGradient5246"
   xlink:href="#XMLID_2_-8-6-1-4"
   gradientUnits="userSpaceOnUse" /><linearGradient
   x1="19.572119"
   y1="112.34997"
   x2="222.787"
   y2="112.34997"
   id="linearGradient5248"
   xlink:href="#XMLID_2_-8-6-1-4"
   gradientUnits="userSpaceOnUse" /><linearGradient
   x1="19.572119"
   y1="112.34997"
   x2="222.787"
   y2="112.34997"
   id="linearGradient5250"
   xlink:href="#XMLID_2_-8-6-1-4"
   gradientUnits="userSpaceOnUse" /><linearGradient
   x1="19.572119"
   y1="112.34997"
   x2="222.787"
   y2="112.34997"
   id="linearGradient5252"
   xlink:href="#XMLID_2_-8-6-1-4"
   gradientUnits="userSpaceOnUse" /><linearGradient
   x1="19.572119"
   y1="112.34997"
   x2="222.787"
   y2="112.34997"
   id="linearGradient5254"
   xlink:href="#XMLID_2_-8-6-1-4"
   gradientUnits="userSpaceOnUse" /><linearGradient
   x1="19.572119"
   y1="112.34997"
   x2="222.787"
   y2="112.34997"
   id="linearGradient5256"
   xlink:href="#XMLID_2_-8-6-1-4"
   gradientUnits="userSpaceOnUse" /><linearGradient
   x1="19.572119"
   y1="112.34997"
   x2="222.787"
   y2="112.34997"
   id="linearGradient5258"
   xlink:href="#XMLID_2_-8-6-1-4"
   gradientUnits="userSpaceOnUse" /><linearGradient
   x1="19.572119"
   y1="112.34997"
   x2="222.787"
   y2="112.34997"
   id="linearGradient5260"
   xlink:href="#XMLID_2_-8-6-1-4"
   gradientUnits="userSpaceOnUse" /><linearGradient
   x1="19.572119"
   y1="112.34997"
   x2="222.787"
   y2="112.34997"
   id="linearGradient5262"
   xlink:href="#XMLID_2_-8-6-1-4"
   gradientUnits="userSpaceOnUse" /><linearGradient
   x1="19.572119"
   y1="112.34997"
   x2="222.787"
   y2="112.34997"
   id="linearGradient5264"
   xlink:href="#XMLID_2_-8-6-1-4"
   gradientUnits="userSpaceOnUse" /><linearGradient
   x1="19.572119"
   y1="112.34997"
   x2="222.787"
   y2="112.34997"
   id="linearGradient5266"
   xlink:href="#XMLID_2_-8-6-1-4"
   gradientUnits="userSpaceOnUse" /><linearGradient
   x1="19.572119"
   y1="112.34997"
   x2="222.787"
   y2="112.34997"
   id="linearGradient5268"
   xlink:href="#XMLID_2_-8-6-1-4"
   gradientUnits="userSpaceOnUse" /><linearGradient
   x1="19.572119"
   y1="112.34997"
   x2="222.787"
   y2="112.34997"
   id="linearGradient5270"
   xlink:href="#XMLID_2_-8-6-1-4"
   gradientUnits="userSpaceOnUse" /><linearGradient
   x1="19.572119"
   y1="112.34997"
   x2="222.787"
   y2="112.34997"
   id="linearGradient5272"
   xlink:href="#XMLID_2_-8-6-1-4"
   gradientUnits="userSpaceOnUse" /><linearGradient
   x1="19.572119"
   y1="112.34997"
   x2="222.787"
   y2="112.34997"
   id="linearGradient5274"
   xlink:href="#XMLID_2_-8-6-1-4"
   gradientUnits="userSpaceOnUse" /><linearGradient
   x1="19.572119"
   y1="112.34997"
   x2="222.787"
   y2="112.34997"
   id="linearGradient5276"
   xlink:href="#XMLID_2_-8-6-1-4"
   gradientUnits="userSpaceOnUse" /><linearGradient
   x1="19.572119"
   y1="112.34997"
   x2="222.787"
   y2="112.34997"
   id="linearGradient5278"
   xlink:href="#XMLID_2_-8-6-1-4"
   gradientUnits="userSpaceOnUse" /><linearGradient
   x1="19.572119"
   y1="112.34997"
   x2="222.787"
   y2="112.34997"
   id="linearGradient5280"
   xlink:href="#XMLID_2_-8-6-1-4"
   gradientUnits="userSpaceOnUse" /><linearGradient
   x1="19.572119"
   y1="112.34997"
   x2="222.787"
   y2="112.34997"
   id="linearGradient5282"
   xlink:href="#XMLID_2_-8-6-1-4"
   gradientUnits="userSpaceOnUse" /><linearGradient
   x1="19.572119"
   y1="112.34997"
   x2="222.787"
   y2="112.34997"
   id="linearGradient5284"
   xlink:href="#XMLID_2_-8-6-1-4"
   gradientUnits="userSpaceOnUse" /><linearGradient
   x1="19.572119"
   y1="112.34997"
   x2="222.787"
   y2="112.34997"
   id="linearGradient5286"
   xlink:href="#XMLID_2_-8-6-1-4"
   gradientUnits="userSpaceOnUse" /><linearGradient
   x1="19.572119"
   y1="112.34997"
   x2="222.787"
   y2="112.34997"
   id="linearGradient5288"
   xlink:href="#XMLID_2_-8-6-1-4"
   gradientUnits="userSpaceOnUse" /><linearGradient
   x1="19.572119"
   y1="112.34997"
   x2="222.787"
   y2="112.34997"
   id="linearGradient5290"
   xlink:href="#XMLID_2_-8-6-1-4"
   gradientUnits="userSpaceOnUse" /><linearGradient
   x1="19.572119"
   y1="112.34997"
   x2="222.787"
   y2="112.34997"
   id="linearGradient5292"
   xlink:href="#XMLID_2_-8-6-1-4"
   gradientUnits="userSpaceOnUse" /><linearGradient
   x1="19.572119"
   y1="112.34997"
   x2="222.787"
   y2="112.34997"
   id="linearGradient5294"
   xlink:href="#XMLID_2_-8-6-1-4"
   gradientUnits="userSpaceOnUse" /><linearGradient
   x1="19.572119"
   y1="112.34997"
   x2="222.787"
   y2="112.34997"
   id="linearGradient5296"
   xlink:href="#XMLID_2_-8-6-1-4"
   gradientUnits="userSpaceOnUse" /><linearGradient
   x1="19.572119"
   y1="112.34997"
   x2="222.787"
   y2="112.34997"
   id="linearGradient5298"
   xlink:href="#XMLID_2_-8-6-1-4"
   gradientUnits="userSpaceOnUse" /><linearGradient
   x1="71.204407"
   y1="15.369057"
   x2="71.204407"
   y2="40.495617"
   id="linearGradient5300"
   xlink:href="#linearGradient4806-2"
   gradientUnits="userSpaceOnUse"
   gradientTransform="matrix(1.6169806,0,0,1.6169806,-39.52093,-31.776074)" /><linearGradient
   x1="333.5401"
   y1="16.793198"
   x2="439.36871"
   y2="120.92879"
   id="linearGradient5302"
   xlink:href="#linearGradient4131"
   gradientUnits="userSpaceOnUse"
   gradientTransform="matrix(0.17081705,0,0,0.17081705,-35.532328,22.503012)" /><linearGradient
   x1="333.5401"
   y1="16.793198"
   x2="439.36871"
   y2="120.92879"
   id="linearGradient3165"
   xlink:href="#linearGradient4131"
   gradientUnits="userSpaceOnUse"
   gradientTransform="matrix(0.07829115,0,0,0.07829115,-16.537246,10.347467)" /><radialGradient
   cx="690.05573"
   cy="277.53165"
   r="106.52975"
   fx="690.05573"
   fy="277.53165"
   id="radialGradient3204"
   xlink:href="#linearGradient4143"
   gradientUnits="userSpaceOnUse"
   gradientTransform="matrix(0.02377915,-0.01609525,0.00797906,0.01178828,0.22986353,21.998921)" /><radialGradient
   cx="99.157013"
   cy="186.17059"
   r="62.769119"
   fx="99.157013"
   fy="186.17059"
   id="radialGradient3982"
   xlink:href="#linearGradient3820-7-2-1"
   gradientUnits="userSpaceOnUse"
   gradientTransform="matrix(1,0,0,0.1666667,0,155.14216)" /><radialGradient
   cx="15.645058"
   cy="8.449769"
   r="19.99999"
   fx="-0.32174549"
   fy="8.44977"
   id="radialGradient3984"
   xlink:href="#linearGradient2867-449-88-871-390-598-476-591-434-148-57-177-3-8-63"
   gradientUnits="userSpaceOnUse"
   gradientTransform="matrix(-6.7138025e-8,1.1033078,-1.0394758,-7.5994237e-8,85.969891,-6.9557025)" /><linearGradient
   x1="19.572119"
   y1="112.34997"
   x2="222.787"
   y2="112.34997"
   id="linearGradient3986"
   xlink:href="#XMLID_2_-8-6-1-4"
   gradientUnits="userSpaceOnUse" /><linearGradient
   x1="19.572119"
   y1="112.34997"
   x2="222.787"
   y2="112.34997"
   id="linearGradient3988"
   xlink:href="#XMLID_2_-8-6-1-4"
   gradientUnits="userSpaceOnUse" /><linearGradient
   x1="19.572119"
   y1="112.34997"
   x2="222.787"
   y2="112.34997"
   id="linearGradient3990"
   xlink:href="#XMLID_2_-8-6-1-4"
   gradientUnits="userSpaceOnUse" /><linearGradient
   x1="19.572119"
   y1="112.34997"
   x2="222.787"
   y2="112.34997"
   id="linearGradient3992"
   xlink:href="#XMLID_2_-8-6-1-4"
   gradientUnits="userSpaceOnUse" /><linearGradient
   x1="19.572119"
   y1="112.34997"
   x2="222.787"
   y2="112.34997"
   id="linearGradient3994"
   xlink:href="#XMLID_2_-8-6-1-4"
   gradientUnits="userSpaceOnUse" /><linearGradient
   x1="19.572119"
   y1="112.34997"
   x2="222.787"
   y2="112.34997"
   id="linearGradient3996"
   xlink:href="#XMLID_2_-8-6-1-4"
   gradientUnits="userSpaceOnUse" /><linearGradient
   x1="19.572119"
   y1="112.34997"
   x2="222.787"
   y2="112.34997"
   id="linearGradient3998"
   xlink:href="#XMLID_2_-8-6-1-4"
   gradientUnits="userSpaceOnUse" /><linearGradient
   x1="19.572119"
   y1="112.34997"
   x2="222.787"
   y2="112.34997"
   id="linearGradient4000"
   xlink:href="#XMLID_2_-8-6-1-4"
   gradientUnits="userSpaceOnUse" /><linearGradient
   x1="19.572119"
   y1="112.34997"
   x2="222.787"
   y2="112.34997"
   id="linearGradient4002"
   xlink:href="#XMLID_2_-8-6-1-4"
   gradientUnits="userSpaceOnUse" /><linearGradient
   x1="19.572119"
   y1="112.34997"
   x2="222.787"
   y2="112.34997"
   id="linearGradient4004"
   xlink:href="#XMLID_2_-8-6-1-4"
   gradientUnits="userSpaceOnUse" /><linearGradient
   x1="19.572119"
   y1="112.34997"
   x2="222.787"
   y2="112.34997"
   id="linearGradient4006"
   xlink:href="#XMLID_2_-8-6-1-4"
   gradientUnits="userSpaceOnUse" /><linearGradient
   x1="19.572119"
   y1="112.34997"
   x2="222.787"
   y2="112.34997"
   id="linearGradient4008"
   xlink:href="#XMLID_2_-8-6-1-4"
   gradientUnits="userSpaceOnUse" /><linearGradient
   x1="19.572119"
   y1="112.34997"
   x2="222.787"
   y2="112.34997"
   id="linearGradient4010"
   xlink:href="#XMLID_2_-8-6-1-4"
   gradientUnits="userSpaceOnUse" /><linearGradient
   x1="19.572119"
   y1="112.34997"
   x2="222.787"
   y2="112.34997"
   id="linearGradient4012"
   xlink:href="#XMLID_2_-8-6-1-4"
   gradientUnits="userSpaceOnUse" /><linearGradient
   x1="19.572119"
   y1="112.34997"
   x2="222.787"
   y2="112.34997"
   id="linearGradient4014"
   xlink:href="#XMLID_2_-8-6-1-4"
   gradientUnits="userSpaceOnUse" /><linearGradient
   x1="19.572119"
   y1="112.34997"
   x2="222.787"
   y2="112.34997"
   id="linearGradient4016"
   xlink:href="#XMLID_2_-8-6-1-4"
   gradientUnits="userSpaceOnUse" /><linearGradient
   x1="19.572119"
   y1="112.34997"
   x2="222.787"
   y2="112.34997"
   id="linearGradient4018"
   xlink:href="#XMLID_2_-8-6-1-4"
   gradientUnits="userSpaceOnUse" /><linearGradient
   x1="19.572119"
   y1="112.34997"
   x2="222.787"
   y2="112.34997"
   id="linearGradient4020"
   xlink:href="#XMLID_2_-8-6-1-4"
   gradientUnits="userSpaceOnUse" /><linearGradient
   x1="19.572119"
   y1="112.34997"
   x2="222.787"
   y2="112.34997"
   id="linearGradient4022"
   xlink:href="#XMLID_2_-8-6-1-4"
   gradientUnits="userSpaceOnUse" /><linearGradient
   x1="19.572119"
   y1="112.34997"
   x2="222.787"
   y2="112.34997"
   id="linearGradient4024"
   xlink:href="#XMLID_2_-8-6-1-4"
   gradientUnits="userSpaceOnUse" /><linearGradient
   x1="19.572119"
   y1="112.34997"
   x2="222.787"
   y2="112.34997"
   id="linearGradient4026"
   xlink:href="#XMLID_2_-8-6-1-4"
   gradientUnits="userSpaceOnUse" /><linearGradient
   x1="19.572119"
   y1="112.34997"
   x2="222.787"
   y2="112.34997"
   id="linearGradient4028"
   xlink:href="#XMLID_2_-8-6-1-4"
   gradientUnits="userSpaceOnUse" /><linearGradient
   x1="19.572119"
   y1="112.34997"
   x2="222.787"
   y2="112.34997"
   id="linearGradient4030"
   xlink:href="#XMLID_2_-8-6-1-4"
   gradientUnits="userSpaceOnUse" /><linearGradient
   x1="19.572119"
   y1="112.34997"
   x2="222.787"
   y2="112.34997"
   id="linearGradient4032"
   xlink:href="#XMLID_2_-8-6-1-4"
   gradientUnits="userSpaceOnUse" /><linearGradient
   x1="19.572119"
   y1="112.34997"
   x2="222.787"
   y2="112.34997"
   id="linearGradient4034"
   xlink:href="#XMLID_2_-8-6-1-4"
   gradientUnits="userSpaceOnUse" /><linearGradient
   x1="19.572119"
   y1="112.34997"
   x2="222.787"
   y2="112.34997"
   id="linearGradient4036"
   xlink:href="#XMLID_2_-8-6-1-4"
   gradientUnits="userSpaceOnUse" /><linearGradient
   x1="19.572119"
   y1="112.34997"
   x2="222.787"
   y2="112.34997"
   id="linearGradient4038"
   xlink:href="#XMLID_2_-8-6-1-4"
   gradientUnits="userSpaceOnUse" /><linearGradient
   x1="19.572119"
   y1="112.34997"
   x2="222.787"
   y2="112.34997"
   id="linearGradient4040"
   xlink:href="#XMLID_2_-8-6-1-4"
   gradientUnits="userSpaceOnUse" /><linearGradient
   x1="19.572119"
   y1="112.34997"
   x2="222.787"
   y2="112.34997"
   id="linearGradient4042"
   xlink:href="#XMLID_2_-8-6-1-4"
   gradientUnits="userSpaceOnUse" /><linearGradient
   x1="19.572119"
   y1="112.34997"
   x2="222.787"
   y2="112.34997"
   id="linearGradient4044"
   xlink:href="#XMLID_2_-8-6-1-4"
   gradientUnits="userSpaceOnUse" /><linearGradient
   x1="19.572119"
   y1="112.34997"
   x2="222.787"
   y2="112.34997"
   id="linearGradient4046"
   xlink:href="#XMLID_2_-8-6-1-4"
   gradientUnits="userSpaceOnUse" /><linearGradient
   x1="71.204407"
   y1="15.369057"
   x2="71.204407"
   y2="40.495617"
   id="linearGradient4048"
   xlink:href="#linearGradient4806-2"
   gradientUnits="userSpaceOnUse"
   gradientTransform="matrix(1.6169806,0,0,1.6169806,-39.52093,-31.776074)" /><linearGradient
   x1="71.204407"
   y1="15.369057"
   x2="71.204407"
   y2="40.495617"
   id="linearGradient4051"
   xlink:href="#linearGradient4806-2"
   gradientUnits="userSpaceOnUse"
   gradientTransform="matrix(0.74111614,0,0,0.74111614,-42.490879,-9.6526114)" /><radialGradient
   cx="15.645058"
   cy="8.449769"
   r="19.99999"
   fx="-0.32174549"
   fy="8.44977"
   id="radialGradient4086"
   xlink:href="#linearGradient2867-449-88-871-390-598-476-591-434-148-57-177-3-8-63"
   gradientUnits="userSpaceOnUse"
   gradientTransform="matrix(-3.0771596e-8,0.50568278,-0.47642644,-3.4830695e-8,15.025749,1.7233932)" /><radialGradient
   cx="99.157013"
   cy="186.17059"
   r="62.769119"
   fx="99.157013"
   fy="186.17059"
   id="radialGradient4089"
   xlink:href="#linearGradient3820-7-2-1"
   gradientUnits="userSpaceOnUse"
   gradientTransform="matrix(0.12413217,0,0,0.04016041,-1.3085742,11.544144)" /><linearGradient
   x1="19.572119"
   y1="112.34997"
   x2="222.787"
   y2="112.34997"
   id="linearGradient4091"
   xlink:href="#path8660_1_"
   gradientUnits="userSpaceOnUse" /><linearGradient
   x1="19.572119"
   y1="112.34997"
   x2="222.787"
   y2="112.34997"
   id="linearGradient3203"
   xlink:href="#path8660_1_"
   gradientUnits="userSpaceOnUse" /><linearGradient
   x1="19.572119"
   y1="112.34997"
   x2="222.787"
   y2="112.34997"
   id="linearGradient3205"
   xlink:href="#path8660_1_"
   gradientUnits="userSpaceOnUse" /><linearGradient
   x1="19.572119"
   y1="112.34997"
   x2="222.787"
   y2="112.34997"
   id="linearGradient3207"
   xlink:href="#path8660_1_"
   gradientUnits="userSpaceOnUse" /><linearGradient
   x1="19.572119"
   y1="112.34997"
   x2="222.787"
   y2="112.34997"
   id="linearGradient3209"
   xlink:href="#path8660_1_"
   gradientUnits="userSpaceOnUse" /><linearGradient
   x1="19.572119"
   y1="112.34997"
   x2="222.787"
   y2="112.34997"
   id="linearGradient3211"
   xlink:href="#path8660_1_"
   gradientUnits="userSpaceOnUse" /><linearGradient
   x1="19.572119"
   y1="112.34997"
   x2="222.787"
   y2="112.34997"
   id="linearGradient3213"
   xlink:href="#path8660_1_"
   gradientUnits="userSpaceOnUse" /><linearGradient
   x1="19.572119"
   y1="112.34997"
   x2="222.787"
   y2="112.34997"
   id="linearGradient3215"
   xlink:href="#path8660_1_"
   gradientUnits="userSpaceOnUse" /><linearGradient
   x1="19.572119"
   y1="112.34997"
   x2="222.787"
   y2="112.34997"
   id="linearGradient3217"
   xlink:href="#path8660_1_"
   gradientUnits="userSpaceOnUse" /><linearGradient
   x1="19.572119"
   y1="112.34997"
   x2="222.787"
   y2="112.34997"
   id="linearGradient3219"
   xlink:href="#path8660_1_"
   gradientUnits="userSpaceOnUse" /><linearGradient
   x1="19.572119"
   y1="112.34997"
   x2="222.787"
   y2="112.34997"
   id="linearGradient3221"
   xlink:href="#path8660_1_"
   gradientUnits="userSpaceOnUse" /><linearGradient
   x1="19.572119"
   y1="112.34997"
   x2="222.787"
   y2="112.34997"
   id="linearGradient3223"
   xlink:href="#path8660_1_"
   gradientUnits="userSpaceOnUse" /><linearGradient
   x1="19.572119"
   y1="112.34997"
   x2="222.787"
   y2="112.34997"
   id="linearGradient3225"
   xlink:href="#path8660_1_"
   gradientUnits="userSpaceOnUse" /><linearGradient
   x1="19.572119"
   y1="112.34997"
   x2="222.787"
   y2="112.34997"
   id="linearGradient3227"
   xlink:href="#path8660_1_"
   gradientUnits="userSpaceOnUse" /><linearGradient
   x1="19.572119"
   y1="112.34997"
   x2="222.787"
   y2="112.34997"
   id="linearGradient3229"
   xlink:href="#path8660_1_"
   gradientUnits="userSpaceOnUse" /><linearGradient
   x1="19.572119"
   y1="112.34997"
   x2="222.787"
   y2="112.34997"
   id="linearGradient3231"
   xlink:href="#path8660_1_"
   gradientUnits="userSpaceOnUse" /><linearGradient
   x1="19.572119"
   y1="112.34997"
   x2="222.787"
   y2="112.34997"
   id="linearGradient3233"
   xlink:href="#path8660_1_"
   gradientUnits="userSpaceOnUse" /><linearGradient
   x1="19.572119"
   y1="112.34997"
   x2="222.787"
   y2="112.34997"
   id="linearGradient3235"
   xlink:href="#path8660_1_"
   gradientUnits="userSpaceOnUse" /><linearGradient
   x1="19.572119"
   y1="112.34997"
   x2="222.787"
   y2="112.34997"
   id="linearGradient3237"
   xlink:href="#path8660_1_"
   gradientUnits="userSpaceOnUse" /><linearGradient
   x1="19.572119"
   y1="112.34997"
   x2="222.787"
   y2="112.34997"
   id="linearGradient3239"
   xlink:href="#path8660_1_"
   gradientUnits="userSpaceOnUse" /><linearGradient
   x1="19.572119"
   y1="112.34997"
   x2="222.787"
   y2="112.34997"
   id="linearGradient3241"
   xlink:href="#path8660_1_"
   gradientUnits="userSpaceOnUse" /><linearGradient
   x1="19.572119"
   y1="112.34997"
   x2="222.787"
   y2="112.34997"
   id="linearGradient3243"
   xlink:href="#path8660_1_"
   gradientUnits="userSpaceOnUse" /><linearGradient
   x1="19.572119"
   y1="112.34997"
   x2="222.787"
   y2="112.34997"
   id="linearGradient3245"
   xlink:href="#path8660_1_"
   gradientUnits="userSpaceOnUse" /><linearGradient
   x1="19.572119"
   y1="112.34997"
   x2="222.787"
   y2="112.34997"
   id="linearGradient3247"
   xlink:href="#path8660_1_"
   gradientUnits="userSpaceOnUse" /><linearGradient
   x1="19.572119"
   y1="112.34997"
   x2="222.787"
   y2="112.34997"
   id="linearGradient3249"
   xlink:href="#path8660_1_"
   gradientUnits="userSpaceOnUse" /><linearGradient
   x1="19.572119"
   y1="112.34997"
   x2="222.787"
   y2="112.34997"
   id="linearGradient3251"
   xlink:href="#path8660_1_"
   gradientUnits="userSpaceOnUse" /><linearGradient
   x1="19.572119"
   y1="112.34997"
   x2="222.787"
   y2="112.34997"
   id="linearGradient3253"
   xlink:href="#path8660_1_"
   gradientUnits="userSpaceOnUse" /><linearGradient
   x1="19.572119"
   y1="112.34997"
   x2="222.787"
   y2="112.34997"
   id="linearGradient3255"
   xlink:href="#path8660_1_"
   gradientUnits="userSpaceOnUse" /><linearGradient
   x1="19.572119"
   y1="112.34997"
   x2="222.787"
   y2="112.34997"
   id="linearGradient3257"
   xlink:href="#path8660_1_"
   gradientUnits="userSpaceOnUse" /><linearGradient
   x1="19.572119"
   y1="112.34997"
   x2="222.787"
   y2="112.34997"
   id="linearGradient3259"
   xlink:href="#path8660_1_"
   gradientUnits="userSpaceOnUse" /><linearGradient
   x1="19.572119"
   y1="112.34997"
   x2="222.787"
   y2="112.34997"
   id="linearGradient3261"
   xlink:href="#path8660_1_"
   gradientUnits="userSpaceOnUse" /></defs>
<radialGradient
   cx="9.6640997"
   cy="-62.565899"
   r="65.185501"
   id="path4112_1_"
   gradientUnits="userSpaceOnUse"
   gradientTransform="matrix(1.6891,0,0,-0.777,107.7809,146.5186)">
	<stop
   id="stop2998"
   style="stop-color:#000000;stop-opacity:1"
   offset="0" />
	<stop
   id="stop3000"
   style="stop-color:#000000;stop-opacity:0"
   offset="1" />
</radialGradient>


<radialGradient
   cx="91.508301"
   cy="1391.1582"
   r="29.6665"
   id="path8660_1_"
   gradientUnits="userSpaceOnUse"
   gradientTransform="matrix(1.4897,0,0,0.5374,61.9156,-507.5522)">
	<stop
   id="stop3076"
   style="stop-color:#000000;stop-opacity:1"
   offset="0" />
	<stop
   id="stop3078"
   style="stop-color:#000000;stop-opacity:0"
   offset="1" />
</radialGradient>



<path
   d="m 19.212045,17.056693 c 0,0 0.498988,-0.503567 0.657081,-1.094124 0.09033,-0.337414 0.05473,-0.439535 0.06005,-0.660569 0.07717,-1.197117 -0.240252,-2.405701 -0.765662,-3.377911 C 3.3324753,5.4571493 16.888398,3.2309802 17.692251,16.713216 z"
   id="path4141"
   style="fill:url(#radialGradient3204);fill-opacity:1;stroke:#516b00;stroke-width:0.1565823;stroke-linecap:butt;stroke-linejoin:miter;stroke-miterlimit:4;stroke-opacity:1;stroke-dasharray:none" /><path
   d="m 18.791668,19.02083 a 7.7916672,2.5208335 0 0 1 -15.5833339,0 7.7916672,2.5208335 0 1 1 15.5833339,0 z"
   id="path3818-0-5"
   style="fill:url(#radialGradient4089);fill-opacity:1;stroke:none" /><path
   d="m 11.000002,1.6041642 c -5.184298,0 -9.3958346,4.2115373 -9.3958346,9.3958338 0,5.184297 4.2115366,9.395836 9.3958346,9.395834 5.184295,0 9.395837,-4.211537 9.395832,-9.395834 0,-5.1842965 -4.211537,-9.3958334 -9.395832,-9.3958334 z"
   id="path2555-7-65"
   style="color:#000000;fill:url(#radialGradient4086);fill-opacity:1;fill-rule:nonzero;stroke:none;stroke-width:1;marker:none;visibility:visible;display:inline;overflow:visible;enable-background:accumulate" /><g
   transform="matrix(0.09342729,0,0,0.09342729,-0.38610856,0.10037849)"
   id="g3216"
   style="opacity:0.5;fill:url(#linearGradient4091);fill-opacity:1">
		<g
   id="g3218"
   style="fill:url(#linearGradient3207);fill-opacity:1">
			<g
   id="g3222"
   style="fill:url(#linearGradient3205);fill-opacity:1">
				<path
   d="m 222.787,99.733 c 0,1.393 0,0 0,0 l -2.895,3.275 c -1.772,-2.089 -3.758,-3.845 -5.779,-5.677 l -4.434,0.653 -4.05,-4.578 v 5.666 l 3.468,2.624 2.311,2.618 3.083,-3.491 c 0.779,1.458 1.55,2.911 2.32,4.367 v 4.365 l -3.476,3.926 -6.361,4.362 -4.821,4.812 -3.082,-3.506 1.541,-3.926 -3.084,-3.489 -5.205,-11.129 -4.435,-5.015 -1.155,1.305 1.739,6.332 3.27,3.708 c 1.865,5.398 3.724,10.557 6.173,15.72 3.81,0 7.397,-0.407 11.182,-0.882 v 3.056 l -4.623,11.345 -4.248,4.799 -3.468,7.427 c 0,4.076 0,8.143 0,12.214 l 1.156,4.808 -1.919,2.179 -4.254,2.62 -4.435,3.707 3.673,4.144 -5.017,4.375 0.958,2.821 -7.517,8.519 h -5.009 l -4.247,2.62 h -2.697 v -3.493 l -1.156,-6.987 c -1.49,-4.385 -3.04,-8.738 -4.624,-13.087 0,-3.215 0.189,-6.396 0.386,-9.603 l 1.934,-4.362 -2.705,-5.24 0.189,-7.209 -3.665,-4.14 1.833,-6.002 -2.98,-3.383 h -5.214 l -1.729,-1.964 -5.206,3.274 -2.123,-2.401 -4.82,4.149 c -3.271,-3.716 -6.55,-7.424 -9.829,-11.131 l -3.854,-9.17 3.468,-5.231 -1.926,-2.183 4.238,-10.042 c 3.485,-4.332 7.115,-8.487 10.797,-12.655 l 6.549,-1.746 7.33,-0.871 5.016,1.312 7.125,7.194 2.516,-2.834 3.459,-0.435 6.558,2.181 h 5.018 l 3.468,-3.056 1.55,-2.181 -3.476,-2.181 -5.788,-0.437 c -1.6,-2.224 -3.1,-4.568 -5.009,-6.545 l -1.925,0.871 -0.78,5.674 -3.468,-3.925 -0.761,-4.369 -3.854,-3.046 h -1.549 l 3.853,4.362 -1.541,3.926 -3.083,0.869 1.927,-3.926 -3.476,-1.741 -3.074,-3.491 -5.797,1.306 -0.762,1.74 -3.476,2.186 -1.925,4.801 -4.813,2.4 -2.132,-2.4 h -2.302 v -7.858 l 5.008,-2.62 h 3.861 l -0.779,-3.05 -3.083,-3.056 5.205,-1.094 2.895,-3.268 2.303,-3.932 h 4.255 l -1.164,-3.05 2.705,-1.744 V 55 l 5.779,1.306 5.779,-4.795 0.394,-2.187 5.009,-3.489 c -1.824,0.224 -3.63,0.389 -5.403,0.871 v -3.93 l 1.926,-4.362 h -1.926 l -4.23,3.926 -1.164,2.183 1.164,3.059 -1.934,5.229 -3.084,-1.745 -2.697,-3.05 -4.247,3.05 -1.549,-6.98 7.328,-4.799 v -2.62 l 4.633,-3.055 7.32,-1.749 5.017,1.749 9.257,1.746 -2.312,2.616 h -5.017 l 5.017,5.235 3.854,-4.362 1.173,-1.918 c 0,0 14.777,13.249 23.229,27.745 8.45,14.499 12.423,31.591 12.423,35.059 z"
   id="path3224"
   style="fill:url(#linearGradient3203);fill-opacity:1" />
			</g>
		</g>
		<g
   id="g3226"
   style="fill:url(#linearGradient3213);fill-opacity:1">
			<g
   id="g3230"
   style="fill:url(#linearGradient3211);fill-opacity:1">
				<path
   d="m 127.294,38.848 -0.385,2.618 2.706,1.744 4.623,-3.052 -2.319,-2.618 -3.083,1.747 -1.542,-0.439"
   id="path3232"
   style="fill:url(#linearGradient3209);fill-opacity:1" />
			</g>
		</g>
		<g
   id="g3234"
   style="fill:url(#linearGradient3219);fill-opacity:1">
			<g
   id="g3238"
   style="fill:url(#linearGradient3217);fill-opacity:1">
				<path
   d="m 131.541,20.958 -10.026,-3.928 -11.565,1.308 -14.273,3.925 -2.699,2.62 8.868,6.109 v 3.491 l -3.47,3.491 4.63,9.169 3.078,-1.748 3.866,-6.109 c 5.955,-1.841 11.3,-3.928 16.959,-6.548 l 4.632,-11.78"
   id="path3240"
   style="fill:url(#linearGradient3215);fill-opacity:1" />
			</g>
		</g>
		<g
   id="g3242"
   style="fill:url(#linearGradient3225);fill-opacity:1">
			<g
   id="g3246"
   style="fill:url(#linearGradient3223);fill-opacity:1">
				<path
   d="m 141.952,57.62 -1.541,-3.932 -2.705,0.876 0.771,4.797 3.475,-1.741"
   id="path3248"
   style="fill:url(#linearGradient3221);fill-opacity:1" />
			</g>
		</g>
		<g
   id="g3250"
   style="fill:url(#linearGradient3231);fill-opacity:1">
			<g
   id="g3254"
   style="fill:url(#linearGradient3229);fill-opacity:1">
				<path
   d="m 143.485,56.74 -0.761,5.24 4.238,-0.873 3.083,-3.053 -2.698,-2.62 c -0.907,-2.416 -1.952,-4.668 -3.09,-6.984 h -2.304 v 2.618 l 1.533,1.747 v 3.925"
   id="path3256"
   style="fill:url(#linearGradient3227);fill-opacity:1" />
			</g>
		</g>
		<g
   id="g3258"
   style="fill:url(#linearGradient3237);fill-opacity:1">
			<g
   id="g3262"
   style="fill:url(#linearGradient3235);fill-opacity:1">
				<path
   d="m 86.423,139.662 -3.085,-6.104 -5.784,-1.315 -3.087,-8.288 -7.708,0.873 -6.554,-4.799 -6.943,6.109 0,0.963 c -2.1,-0.608 -4.682,-0.689 -6.555,-1.841 l -1.543,-4.362 0,-4.799 -4.626,0.432 c 0.386,-3.052 0.771,-6.109 1.16,-9.161 l -2.703,0 -2.695,3.489 -2.706,1.306 -3.855,-2.175 -0.383,-4.801 0.769,-5.238 5.79,-4.362 4.623,0 0.771,-2.621 5.783,1.304 4.24,5.242 0.775,-8.731 7.322,-6.107 2.699,-6.549 5.4,-2.181 3.085,-4.36 6.939,-1.316 3.474,-5.232 c -3.474,0 -6.944,0 -10.413,0 l 6.554,-3.056 4.623,0 6.559,-2.188 0.771,-2.609 -2.314,-2.186 -2.701,-0.875 0.771,-2.616 -1.925,-3.925 -4.629,1.74 0.77,-3.491 -5.392,-3.056 -4.24,7.415 0.381,2.62 -4.24,1.753 -2.699,5.673 -1.153,-5.238 -7.33,-3.056 -1.16,-3.926 9.643,-5.676 4.241,-3.926 0.389,-4.801 L 65.215,32.3 62.689178,32.794297 60.206,36.665 c 0,0 -3.228,0.631 -4.054,0.837 -10.587,9.756 -31.610881,30.772485 -36.579881,70.53649 0.195,0.921 3.230881,6.31351 3.230881,6.31351 l 8.094,4.795 8.099,2.187 3.474,4.367 5.394,3.925 3.085,-0.432 2.314,1.04 0,0.702 -3.085,8.296 -2.314,3.49 0.769,1.75 -1.924,6.533 6.939,12.663 6.94,6.109 3.089,4.363 -0.39,9.166 2.314,5.235 -2.314,10.038 c 0,0 -0.244782,0.79517 0.04822,1.80117 0.297,1.006 11.534726,7.82956 12.300726,7.25556 0.764,-0.578 2.303056,-2.07873 2.303056,-2.07873 l -0.768,-2.17 3.085,-3.056 1.153,-3.057 5.015,-1.755 3.853,-9.593 -1.153,-2.62 2.695,-3.921 5.784,-1.32 3.088998,-6.982 -0.774998,-8.721 4.627998,-6.549 0.771,-6.545 c -6.329998,-3.138 -12.605998,-6.37 -18.892998,-9.606"
   id="path3264"
   style="fill:url(#linearGradient3233);fill-opacity:1" />
			</g>
		</g>
		<g
   id="g3266"
   style="fill:url(#linearGradient3243);fill-opacity:1">
			<g
   id="g3270"
   style="fill:url(#linearGradient3241);fill-opacity:1">
				<path
   d="m 77.939,40.595 3.855,2.615 h 3.089 v -3.052 l -3.853,-1.744 -3.091,2.181"
   id="path3272"
   style="fill:url(#linearGradient3239);fill-opacity:1" />
			</g>
		</g>
		<g
   id="g3274"
   style="fill:url(#linearGradient3249);fill-opacity:1">
			<g
   id="g3278"
   style="fill:url(#linearGradient3247);fill-opacity:1">
				<path
   d="m 67.917,37.104 -1.931,4.799 h 3.859 l 1.931,-4.363 c 1.663,-1.177 3.315,-2.361 5.009,-3.493 l 3.859,1.312 c 2.567,1.744 5.138,3.489 7.708,5.236 l 3.859,-3.491 -4.245,-1.744 -1.928,-3.928 -7.325,-0.876 -0.389,-2.181 -3.47,0.876 -1.539,3.053 -1.931,-3.928 -0.768,1.745 0.385,4.364 -3.084,2.619"
   id="path3280"
   style="fill:url(#linearGradient3245);fill-opacity:1" />
			</g>
		</g>
		<g
   id="g3302"
   style="fill:url(#linearGradient3255);fill-opacity:1">
			<g
   id="g3306"
   style="fill:url(#linearGradient3253);fill-opacity:1">
				<path
   d="m 81.794,26.189 1.931,-1.743 3.859,-0.873 c 2.637,-1.284 5.292,-2.149 8.094,-3.056 L 94.143,17.899 89.25703,19.263208 86.809,20.958 l -3.876,0.563 -3.448,1.619 -1.675,0.81 -1.026,1.37 5.01,0.869"
   id="path3308"
   style="fill:url(#linearGradient3251);fill-opacity:1" />
			</g>
		</g>
		<g
   id="g3310"
   style="fill:url(#linearGradient3261);fill-opacity:1">
			<g
   id="g3314"
   style="fill:url(#linearGradient3259);fill-opacity:1">
				<path
   d="m 88.352,67.655 2.316,-3.493 -3.476,-2.616 1.16,6.109"
   id="path3316"
   style="fill:url(#linearGradient3257);fill-opacity:1" />
			</g>
		</g>
	</g><path
   d="m 11.000002,1.6041646 c -5.184298,0 -9.3958346,4.2115366 -9.3958346,9.3958334 0,5.184297 4.2115366,9.395836 9.3958346,9.395834 5.184295,0 9.395837,-4.211537 9.395835,-9.395834 0,-5.1842968 -4.21154,-9.3958334 -9.395835,-9.3958334 z"
   id="path3871"
   style="opacity:0.3;color:#000000;fill:none;stroke:#2b2200;stroke-width:0.45833328;marker:none;visibility:visible;display:inline;overflow:visible;enable-background:accumulate" /><path
   d="m 19.937502,10.999999 c 0,4.936045 -4.001459,8.9375 -8.937505,8.9375 -4.9360395,0 -8.9374962,-4.001455 -8.9374962,-8.9375 0,-4.9360443 4.0014567,-8.9375001 8.9374962,-8.9375001 4.936046,0 8.937505,4.0014558 8.937505,8.9375001 z"
   id="path4762-7"
   style="opacity:0.5;color:#000000;fill:none;stroke:url(#linearGradient4051);stroke-width:0.45833328;stroke-linecap:round;stroke-linejoin:round;stroke-miterlimit:4;stroke-opacity:1;stroke-dasharray:none;stroke-dashoffset:0;marker:none;visibility:visible;display:inline;overflow:visible;enable-background:accumulate" /><path
   d="m 7.9938939,15.91753 -1.3511645,1.351164 0,-6.155304 6.2453816,0 -1.456254,1.456255 c 0,0 1.276665,1.192802 1.966695,1.726488 0.535788,0.414392 1.112936,0.772766 1.681449,1.140983 0.335706,0.217433 0.667406,0.443374 1.020878,0.630544 0.368217,0.194976 0.746712,0.375722 1.140984,0.510439 0.643192,0.219771 1.971091,0.480414 1.971091,0.480414 0,0 -0.675783,0.834369 -1.070315,1.201035 -0.454603,0.422493 -0.92388,0.848528 -1.471268,1.140983 -0.25124,0.134231 -0.527081,0.243749 -0.810698,0.270233 -0.663795,0.06198 -1.338418,-0.09518 -1.981709,-0.270233 C 13.177685,19.209698 12.512811,18.893629 11.867232,18.559807 11.112384,18.169486 10.405552,17.690188 9.7053676,17.208643 9.1165587,16.803694 7.9938939,15.91753 7.9938939,15.91753 z"
   id="path4129"
   style="fill:url(#linearGradient3165);fill-opacity:1;stroke:#516b00;stroke-width:0.1565823;stroke-linecap:butt;stroke-linejoin:miter;stroke-miterlimit:4;stroke-opacity:1;stroke-dasharray:none" /></svg>