<?xml version="1.0" encoding="UTF-8" standalone="no"?>
<!-- Created with Inkscape (http://www.inkscape.org/) -->

<svg
   xmlns:dc="http://purl.org/dc/elements/1.1/"
   xmlns:cc="http://creativecommons.org/ns#"
   xmlns:rdf="http://www.w3.org/1999/02/22-rdf-syntax-ns#"
   xmlns:svg="http://www.w3.org/2000/svg"
   xmlns="http://www.w3.org/2000/svg"
   xmlns:xlink="http://www.w3.org/1999/xlink"
   version="1.1"
   width="22"
   height="22"
   id="svg4070">
  <defs
     id="defs4072">
    <linearGradient
       id="linearGradient3926">
      <stop
         id="stop3929"
         style="stop-color:#000000;stop-opacity:1"
         offset="0" />
      <stop
         id="stop3931"
         style="stop-color:#000000;stop-opacity:0"
         offset="1" />
    </linearGradient>
    <linearGradient
       x1="23.99999"
       y1="4.999989"
       x2="23.99999"
       y2="43"
       id="linearGradient3111"
       xlink:href="#linearGradient3924"
       gradientUnits="userSpaceOnUse"
       gradientTransform="matrix(2.7297298,0,0,2.7297298,-1.513511,-62.513486)" />
    <linearGradient
       id="linearGradient3924">
      <stop
         id="stop3926"
         style="stop-color:#ffffff;stop-opacity:1"
         offset="0" />
      <stop
         id="stop3928"
         style="stop-color:#ffffff;stop-opacity:0.23529412"
         offset="0.06316455" />
      <stop
         id="stop3930"
         style="stop-color:#ffffff;stop-opacity:0.15686275"
         offset="0.95056331" />
      <stop
         id="stop3932"
         style="stop-color:#ffffff;stop-opacity:0.39215687"
         offset="1" />
    </linearGradient>
    <linearGradient
       id="linearGradient3940-2-8">
      <stop
         id="stop3942-1-0"
         style="stop-color:#f7f7f7;stop-opacity:1"
         offset="0" />
      <stop
         id="stop3944-7-3"
         style="stop-color:#fef2cc;stop-opacity:1"
         offset="1" />
    </linearGradient>
    <linearGradient
       id="linearGradient3895-9-0-3-7-3">
      <stop
         id="stop3897-0-5-7-8-3"
         style="stop-color:#dc5639;stop-opacity:1"
         offset="0" />
      <stop
         id="stop3899-8-7-06-9-2"
         style="stop-color:#9d0f0f;stop-opacity:1"
         offset="1" />
    </linearGradient>
    <linearGradient
       id="linearGradient3895-9-0-3-7-3-0">
      <stop
         id="stop3897-0-5-7-8-3-0"
         style="stop-color:#dc5639;stop-opacity:1"
         offset="0" />
      <stop
         id="stop3899-8-7-06-9-2-4"
         style="stop-color:#9d0f0f;stop-opacity:1"
         offset="1" />
    </linearGradient>
    <linearGradient
       id="linearGradient3895-9-0-3-7-3-7">
      <stop
         id="stop3897-0-5-7-8-3-3"
         style="stop-color:#dc5639;stop-opacity:1"
         offset="0" />
      <stop
         id="stop3899-8-7-06-9-2-6"
         style="stop-color:#9d0f0f;stop-opacity:1"
         offset="1" />
    </linearGradient>
    <radialGradient
       cx="7.4956832"
       cy="8.4497671"
       r="19.99999"
       fx="7.4956832"
       fy="8.4497671"
       id="radialGradient3059"
       xlink:href="#linearGradient4644-104-3-3-6-2-3-4"
       gradientUnits="userSpaceOnUse"
       gradientTransform="matrix(1.5673793e-6,1.7781587,-4.2810432,3.5136457e-6,100.17406,-66.77484)" />
    <linearGradient
       id="linearGradient4067-0-2-0-7">
      <stop
         id="stop4069-2-9-3-6"
         style="stop-color:#7e6b00;stop-opacity:1"
         offset="0" />
      <stop
         id="stop4071-8-9-5-0"
         style="stop-color:#766a00;stop-opacity:0"
         offset="1" />
    </linearGradient>
    <linearGradient
       x1="16.626165"
       y1="15.298182"
       x2="20.054544"
       y2="24.627615"
       id="linearGradient3062"
       xlink:href="#linearGradient8265-821-176-38-919-66-249-7-7-0-4"
       gradientUnits="userSpaceOnUse"
       gradientTransform="matrix(2.2144231,0,0,3.4699564,10.750312,-67.821122)" />
    <linearGradient
       id="linearGradient8265-821-176-38-919-66-249-7-7-0-4">
      <stop
         id="stop2687-1-9-7-8"
         style="stop-color:#ff9116;stop-opacity:1"
         offset="0" />
      <stop
         id="stop2689-5-4-3-5"
         style="stop-color:#ffdf80;stop-opacity:0.375"
         offset="1" />
    </linearGradient>
    <radialGradient
       cx="7.4956832"
       cy="8.4497671"
       r="19.99999"
       fx="7.4956832"
       fy="8.4497671"
       id="radialGradient3068"
       xlink:href="#linearGradient4644-104-3-3-6-2-3-4"
       gradientUnits="userSpaceOnUse"
       gradientTransform="matrix(5.1311079e-8,6.1720504,-6.5292932,-1.1371273e-7,119.17127,-93.225222)" />
    <linearGradient
       id="linearGradient4644-104-3-3-6-2-3-4">
      <stop
         id="stop5237-6-5-1-7-5-2"
         style="stop-color:#622100;stop-opacity:1"
         offset="0" />
      <stop
         id="stop5239-4-6-4-8-4-8"
         style="stop-color:#390e04;stop-opacity:1"
         offset="1" />
    </linearGradient>
    <linearGradient
       x1="13.990655"
       y1="3.9626207"
       x2="13.990655"
       y2="43.2943"
       id="linearGradient3070"
       xlink:href="#linearGradient3895-9-0-3-7-3"
       gradientUnits="userSpaceOnUse"
       gradientTransform="matrix(2.6410256,0,0,2.6410256,0.61535984,-60.384608)" />
    <radialGradient
       cx="4.9929786"
       cy="43.5"
       r="2.5"
       fx="4.9929786"
       fy="43.5"
       id="radialGradient2455-1"
       xlink:href="#linearGradient3688-166-749-5"
       gradientUnits="userSpaceOnUse"
       gradientTransform="matrix(2.003784,0,0,1.4,27.98813,-17.4)" />
    <linearGradient
       id="linearGradient3688-166-749-5">
      <stop
         id="stop2883-0"
         style="stop-color:#181818;stop-opacity:1"
         offset="0" />
      <stop
         id="stop2885-5"
         style="stop-color:#181818;stop-opacity:0"
         offset="1" />
    </linearGradient>
    <radialGradient
       cx="4.9929786"
       cy="43.5"
       r="2.5"
       fx="4.9929786"
       fy="43.5"
       id="radialGradient2457-5"
       xlink:href="#linearGradient3688-464-309-8"
       gradientUnits="userSpaceOnUse"
       gradientTransform="matrix(2.003784,0,0,1.4,-20.01187,-104.4)" />
    <linearGradient
       id="linearGradient3688-464-309-8">
      <stop
         id="stop2889-9"
         style="stop-color:#181818;stop-opacity:1"
         offset="0" />
      <stop
         id="stop2891-4"
         style="stop-color:#181818;stop-opacity:0"
         offset="1" />
    </linearGradient>
    <linearGradient
       x1="25.058096"
       y1="47.027729"
       x2="25.058096"
       y2="39.999443"
       id="linearGradient2459-7"
       xlink:href="#linearGradient3702-501-757-0"
       gradientUnits="userSpaceOnUse" />
    <linearGradient
       id="linearGradient3702-501-757-0">
      <stop
         id="stop2895-0"
         style="stop-color:#181818;stop-opacity:0"
         offset="0" />
      <stop
         id="stop2897-2"
         style="stop-color:#181818;stop-opacity:1"
         offset="0.5" />
      <stop
         id="stop2899-6"
         style="stop-color:#181818;stop-opacity:0"
         offset="1" />
    </linearGradient>
    <linearGradient
       id="linearGradient3811">
      <stop
         id="stop3813"
         style="stop-color:#000000;stop-opacity:1"
         offset="0" />
      <stop
         id="stop3815"
         style="stop-color:#000000;stop-opacity:0"
         offset="1" />
    </linearGradient>
    <radialGradient
       cx="-4.0287771"
       cy="93.467628"
       r="35.338131"
       fx="-4.0287771"
       fy="93.467628"
       id="radialGradient4068"
       xlink:href="#linearGradient3811"
       gradientUnits="userSpaceOnUse"
       gradientTransform="matrix(1,0,0,0.43648207,0,52.670685)" />
    <filter
       x="0"
       y="0"
       width="1"
       height="1"
       color-interpolation-filters="sRGB"
       id="filter3048">
      <feColorMatrix
         values="0"
         type="saturate"
         id="feColorMatrix3050" />
    </filter>
    <filter
       x="0"
       y="0"
       width="1"
       height="1"
       color-interpolation-filters="sRGB"
       id="filter3052">
      <feColorMatrix
         values="0"
         type="saturate"
         id="feColorMatrix3054" />
    </filter>
    <filter
       x="0"
       y="0"
       width="1"
       height="1"
       color-interpolation-filters="sRGB"
       id="filter3056">
      <feColorMatrix
         values="0"
         type="saturate"
         id="feColorMatrix3058" />
    </filter>
    <filter
       x="0"
       y="0"
       width="1"
       height="1"
       color-interpolation-filters="sRGB"
       id="filter3060">
      <feColorMatrix
         values="0"
         type="saturate"
         id="feColorMatrix3062" />
    </filter>
    <filter
       x="0"
       y="0"
       width="1"
       height="1"
       color-interpolation-filters="sRGB"
       id="filter3064">
      <feColorMatrix
         values="0"
         type="saturate"
         id="feColorMatrix3066" />
    </filter>
    <filter
       x="0"
       y="0"
       width="1"
       height="1"
       color-interpolation-filters="sRGB"
       id="filter3068">
      <feColorMatrix
         values="0"
         type="saturate"
         id="feColorMatrix3070" />
    </filter>
    <linearGradient
       x1="98.78775"
       y1="29.272726"
       x2="9.8486099"
       y2="-27.909092"
       id="linearGradient3933"
       xlink:href="#linearGradient3926"
       gradientUnits="userSpaceOnUse"
       gradientTransform="matrix(0.16326284,0,0,0.16326284,0.06367257,52.391866)" />
  </defs>
  <metadata
     id="metadata4075">
    <rdf:RDF>
      <cc:Work
         rdf:about="">
        <dc:format>image/svg+xml</dc:format>
        <dc:type
           rdf:resource="http://purl.org/dc/dcmitype/StillImage" />
        <dc:title></dc:title>
      </cc:Work>
    </rdf:RDF>
  </metadata>
  <g
     transform="translate(0,-42)"
     id="layer1">
    <path
       d="m 31.309354,93.467628 a 35.338131,15.42446 0 1 1 -70.676262,0 35.338131,15.42446 0 1 1 70.676262,0 z"
       transform="matrix(0.29997292,0,0,0.07497289,13.228618,54.899249)"
       id="path3041"
       style="opacity:0.2;color:#000000;fill:url(#radialGradient4068);fill-opacity:1;fill-rule:nonzero;stroke:none;stroke-width:1;marker:none;visibility:visible;display:inline;overflow:visible;filter:url(#filter3048);enable-background:accumulate" />
    <g
       transform="matrix(0.44080951,0,0,0.09070167,-0.03725391,57.449713)"
       id="g2036"
       style="display:inline;filter:url(#filter3052)">
      <g
         transform="matrix(1.052632,0,0,1.285713,-1.263158,-13.42854)"
         id="g3712"
         style="opacity:0.4">
        <rect
           width="5"
           height="7"
           x="38"
           y="40"
           id="rect2801"
           style="fill:url(#radialGradient2455-1);fill-opacity:1;stroke:none" />
        <rect
           width="5"
           height="7"
           x="-10"
           y="-47"
           transform="scale(-1,-1)"
           id="rect3696"
           style="fill:url(#radialGradient2457-5);fill-opacity:1;stroke:none" />
        <rect
           width="28"
           height="7.0000005"
           x="10"
           y="40"
           id="rect3700"
           style="fill:url(#linearGradient2459-7);fill-opacity:1;stroke:none" />
      </g>
    </g>
    <rect
       width="103"
       height="103"
       rx="6.0545406"
       ry="6.0545406"
       x="12.5"
       y="-48.5"
       transform="matrix(0.16326284,0,0,0.16326284,0.0933567,52.406708)"
       id="rect5505-21-3"
       style="color:#000000;fill:url(#radialGradient3068);fill-opacity:1;fill-rule:nonzero;stroke:url(#linearGradient3070);stroke-width:1;stroke-linecap:round;stroke-linejoin:round;stroke-miterlimit:4;stroke-opacity:1;stroke-dasharray:none;stroke-dashoffset:0;marker:none;visibility:visible;display:inline;overflow:visible;filter:url(#filter3056);enable-background:accumulate" />
    <path
       d="M 18.782826,-48 C 16.959738,-48 13,-45.566759 13,-43.2 L 13.03393,16 C 15.968228,15.935567 112.7728,-7.591753 115,-8.723442 L 115,-43.2 c 0,-1.809076 -3.86592,-4.8 -5.44453,-4.8 z"
       transform="matrix(0.16326284,0,0,0.16326284,0.0933567,52.406708)"
       id="path3333-8"
       style="opacity:0.4;color:#000000;fill:url(#linearGradient3062);fill-opacity:1;fill-rule:evenodd;stroke:none;marker:none;visibility:visible;display:inline;overflow:visible;filter:url(#filter3060);enable-background:accumulate" />
    <rect
       width="104"
       height="104"
       rx="5.999989"
       ry="5.999989"
       x="12"
       y="-55"
       transform="matrix(0.16326284,0,0,-0.16326284,0.0933567,52.406708)"
       id="rect5505-2-6-47-4"
       style="opacity:0.5;color:#000000;fill:url(#radialGradient3059);fill-opacity:1;fill-rule:nonzero;stroke:none;stroke-width:1;marker:none;visibility:visible;display:inline;overflow:visible;filter:url(#filter3064);enable-background:accumulate" />
    <rect
       width="101"
       height="101"
       rx="5"
       ry="5"
       x="13.5"
       y="-47.5"
       transform="matrix(0.16326284,0,0,0.16326284,0.0933567,52.406708)"
       id="rect6741-7"
       style="opacity:0.5;fill:none;stroke:url(#linearGradient3111);stroke-width:0.99999994;stroke-linecap:round;stroke-linejoin:round;stroke-miterlimit:4;stroke-opacity:1;stroke-dasharray:none;stroke-dashoffset:0;filter:url(#filter3068)" />
    <path
       d="m 16.480372,52.154955 c 0,0.553371 -0.449118,1.002484 -1.002488,1.002484 -0.553369,0 -1.002482,-0.449113 -1.002482,-1.002484 0,-0.553372 0.449113,-1.002484 1.002482,-1.002484 0.55337,0 1.002488,0.449112 1.002488,1.002484 z m -1.007499,-1.866162 c -1.027822,0 -1.862612,0.828913 -1.871945,1.854597 l -1.166353,1.671446 c -0.04752,-0.0049 -0.09581,-0.0078 -0.144588,-0.0078 -0.260586,0 -0.504112,0.07163 -0.713305,0.196641 L 6.2943636,51.87927 C 6.1563097,51.25256 5.5962473,50.780395 4.9294434,50.780395 c -0.7698685,0 -1.3976933,0.629752 -1.3976933,1.399621 0,0.769867 0.6278248,1.397691 1.3976933,1.397691 0.2605762,-10e-7 0.5041117,-0.07163 0.7133058,-0.196639 l 5.2823168,2.120637 c 0.136658,0.628178 0.69678,1.100806 1.364921,1.100806 0.723719,0 1.320829,-0.554762 1.389981,-1.260816 l 1.792905,-1.310943 c 1.033405,0 1.871946,-0.836909 1.871945,-1.870016 1e-6,-1.033695 -0.838466,-1.871944 -1.871945,-1.871944 z m 0,0.616913 c 0.692411,0 1.255033,0.562604 1.255033,1.255033 0,0.692428 -0.562622,1.253103 -1.255033,1.253103 -0.69241,0 -1.255032,-0.560675 -1.255032,-1.253103 0,-0.692429 0.562621,-1.255033 1.255032,-1.255033 z M 4.9294434,51.150543 c 0.3946644,0 0.7357519,0.220498 0.9080193,0.545582 l -0.510881,-0.204351 0,0.0019 c -0.4116045,-0.147816 -0.8688605,0.05336 -1.0333295,0.462683 -0.1644692,0.40932 0.024739,0.872637 0.4241279,1.050679 l 0,0.0019 0.4337668,0.173507 c -0.071309,0.01554 -0.1455808,0.02506 -0.2217035,0.02506 -0.5695945,0 -1.0275452,-0.45795 -1.0275452,-1.027545 0,-0.569597 0.45795,-1.029474 1.0275452,-1.029474 z m 7.3605436,3.02673 c 0.569628,0 1.027545,0.457916 1.027545,1.027544 -2e-6,0.569632 -0.457914,1.027546 -1.027545,1.027546 -0.396221,0 -0.738338,-0.220915 -0.909946,-0.547508 0.16898,0.06818 0.338248,0.135679 0.507025,0.204352 0.418819,0.168294 0.895818,-0.03411 1.064173,-0.453046 0.168355,-0.41882 -0.03608,-0.893951 -0.454972,-1.062246 l -0.427981,-0.171579 c 0.07131,-0.01553 0.145575,-0.02506 0.221701,-0.02506 z"
       id="Gears-4"
       style="fill:url(#linearGradient3933);fill-opacity:1;fill-rule:nonzero;stroke:none" />
    <path
       d="m 16.438064,51.914604 c 0,0.553371 -0.449111,1.002482 -1.002485,1.002482 -0.553369,0 -1.002483,-0.449111 -1.002483,-1.002482 0,-0.553372 0.449114,-1.002484 1.002483,-1.002484 0.553374,0 1.002485,0.449112 1.002485,1.002484 z M 15.430568,50.04844 c -1.027821,0 -1.86261,0.82891 -1.871945,1.854596 l -1.166352,1.671448 c -0.04753,-0.0049 -0.0958,-0.0078 -0.144591,-0.0078 -0.260585,0 -0.50411,0.07163 -0.713303,0.196643 L 6.2520585,51.638918 c -0.138054,-0.62671 -0.6981163,-1.098876 -1.3649196,-1.098876 -0.769869,0 -1.3976943,0.629752 -1.3976943,1.399622 0,0.769867 0.6278253,1.397694 1.3976943,1.397694 0.2605755,-1e-6 0.5041111,-0.07163 0.7133058,-0.196642 l 5.2823173,2.120638 c 0.136657,0.628175 0.69678,1.100804 1.364918,1.100804 0.723722,0 1.320831,-0.554761 1.389984,-1.260817 l 1.792904,-1.310939 c 1.033403,0 1.871946,-0.836913 1.871945,-1.870017 10e-7,-1.033698 -0.838466,-1.871947 -1.871945,-1.871947 z m 0,0.616914 c 0.69241,0 1.255032,0.562604 1.255032,1.255033 0,0.692429 -0.562622,1.253102 -1.255032,1.253102 -0.692412,0 -1.255033,-0.560673 -1.255033,-1.253102 -10e-7,-0.69243 0.562621,-1.255033 1.255033,-1.255033 z M 4.8871389,50.910192 c 0.3946638,0 0.7357506,0.220498 0.9080187,0.545582 l -0.5108816,-0.204353 0,0.0019 c -0.4116045,-0.147811 -0.8688606,0.05336 -1.0333289,0.462685 -0.1644696,0.409323 0.024739,0.872639 0.4241278,1.050682 l 0,0.0019 0.433767,0.173508 c -0.071309,0.01554 -0.1455816,0.02506 -0.221703,0.02506 -0.5695958,0 -1.0275466,-0.45795 -1.0275466,-1.027546 0,-0.569594 0.4579508,-1.029474 1.0275466,-1.029474 z m 7.3605411,3.026727 c 0.569628,0 1.027548,0.457918 1.027548,1.027546 -3e-6,0.569632 -0.457916,1.027547 -1.027548,1.027547 -0.396218,0 -0.738334,-0.220915 -0.909945,-0.547509 0.168979,0.06818 0.338249,0.135679 0.507025,0.204351 0.418821,0.168294 0.895821,-0.03411 1.064177,-0.453046 0.168352,-0.418822 -0.03608,-0.893951 -0.454974,-1.062247 l -0.427984,-0.171577 c 0.07131,-0.01554 0.145576,-0.02506 0.221701,-0.02506 z"
       id="Gears"
       style="fill:#ffffff;fill-opacity:1;fill-rule:nonzero;stroke:none" />
  </g>
</svg>
