<?xml version="1.0" standalone="no"?>
<!DOCTYPE svg PUBLIC "-//W3C//DTD SVG 20010904//EN"
  "http://www.w3.org/TR/2001/REC-SVG-20010904/DTD/svg10.dtd">
<svg width="22" height="22">
  <circle cx="0" cy="0" r="1" fill="white"/>
  <circle cx="1" cy="0" r="1" fill="white"/>
  <circle cx="2" cy="0" r="1" fill="white"/>
  <circle cx="3" cy="0" r="1" fill="white"/>
  <circle cx="4" cy="0" r="1" fill="white"/>
  <circle cx="5" cy="0" r="1" fill="white"/>
  <circle cx="6" cy="0" r="1" fill="white"/>
  <circle cx="7" cy="0" r="1" fill="white"/>
  <circle cx="8" cy="0" r="1" fill="white"/>
  <circle cx="9" cy="0" r="1" fill="white"/>
  <circle cx="10" cy="0" r="1" fill="white"/>
  <circle cx="11" cy="0" r="1" fill="white"/>
  <circle cx="12" cy="0" r="1" fill="white"/>
  <circle cx="13" cy="0" r="1" fill="white"/>
  <circle cx="14" cy="0" r="1" fill="white"/>
  <circle cx="15" cy="0" r="1" fill="white"/>
  <circle cx="16" cy="0" r="1" fill="white"/>
  <circle cx="17" cy="0" r="1" fill="white"/>
  <circle cx="18" cy="0" r="1" fill="white"/>
  <circle cx="19" cy="0" r="1" fill="white"/>
  <circle cx="20" cy="0" r="1" fill="white"/>
  <circle cx="21" cy="0" r="1" fill="white"/>
  <circle cx="0" cy="1" r="1" fill="white"/>
  <circle cx="1" cy="1" r="1" fill="white"/>
  <circle cx="2" cy="1" r="1" fill="white"/>
  <circle cx="3" cy="1" r="1" fill="white"/>
  <circle cx="4" cy="1" r="1" fill="white"/>
  <circle cx="5" cy="1" r="1" fill="white"/>
  <circle cx="6" cy="1" r="1" fill="white"/>
  <circle cx="7" cy="1" r="1" fill="white"/>
  <circle cx="8" cy="1" r="1" fill="white"/>
  <circle cx="9" cy="1" r="1" fill="white"/>
  <circle cx="10" cy="1" r="1" fill="white"/>
  <circle cx="11" cy="1" r="1" fill="white"/>
  <circle cx="12" cy="1" r="1" fill="white"/>
  <circle cx="13" cy="1" r="1" fill="white"/>
  <circle cx="14" cy="1" r="1" fill="white"/>
  <circle cx="15" cy="1" r="1" fill="white"/>
  <circle cx="16" cy="1" r="1" fill="white"/>
  <circle cx="17" cy="1" r="1" fill="white"/>
  <circle cx="18" cy="1" r="1" fill="white"/>
  <circle cx="19" cy="1" r="1" fill="white"/>
  <circle cx="20" cy="1" r="1" fill="white"/>
  <circle cx="21" cy="1" r="1" fill="white"/>
  <circle cx="0" cy="2" r="1" fill="white"/>
  <circle cx="1" cy="2" r="1" fill="white"/>
  <circle cx="2" cy="2" r="1" fill="white"/>
  <circle cx="3" cy="2" r="1" fill="white"/>
  <circle cx="4" cy="2" r="1" fill="white"/>
  <circle cx="5" cy="2" r="1" fill="white"/>
  <circle cx="6" cy="2" r="1" fill="white"/>
  <circle cx="7" cy="2" r="1" fill="white"/>
  <circle cx="8" cy="2" r="1" fill="white"/>
  <circle cx="9" cy="2" r="1" fill="white"/>
  <circle cx="10" cy="2" r="1" fill="white"/>
  <circle cx="11" cy="2" r="1" fill="white"/>
  <circle cx="12" cy="2" r="1" fill="white"/>
  <circle cx="13" cy="2" r="1" fill="white"/>
  <circle cx="14" cy="2" r="1" fill="white"/>
  <circle cx="15" cy="2" r="1" fill="white"/>
  <circle cx="16" cy="2" r="1" fill="white"/>
  <circle cx="17" cy="2" r="1" fill="white"/>
  <circle cx="18" cy="2" r="1" fill="white"/>
  <circle cx="19" cy="2" r="1" fill="white"/>
  <circle cx="20" cy="2" r="1" fill="white"/>
  <circle cx="21" cy="2" r="1" fill="white"/>
  <circle cx="0" cy="3" r="1" fill="white"/>
  <circle cx="1" cy="3" r="1" fill="white"/>
  <circle cx="2" cy="3" r="1" fill="white"/>
  <circle cx="3" cy="3" r="1" fill="white"/>
  <circle cx="4" cy="3" r="1" fill="white"/>
  <circle cx="5" cy="3" r="1" fill="white"/>
  <circle cx="6" cy="3" r="1" fill="white"/>
  <circle cx="7" cy="3" r="1" fill="white"/>
  <circle cx="8" cy="3" r="1" fill="white"/>
  <circle cx="9" cy="3" r="1" fill="rgba(99.4385%,99.4385%,99.4385%,1)"/>
  <circle cx="10" cy="3" r="1" fill="rgba(84.9561%,84.9561%,84.9561%,1)"/>
  <circle cx="11" cy="3" r="1" fill="rgba(86.7689%,86.7689%,86.7689%,1)"/>
  <circle cx="12" cy="3" r="1" fill="rgba(99.5209%,99.5209%,99.5209%,1)"/>
  <circle cx="13" cy="3" r="1" fill="white"/>
  <circle cx="14" cy="3" r="1" fill="white"/>
  <circle cx="15" cy="3" r="1" fill="white"/>
  <circle cx="16" cy="3" r="1" fill="white"/>
  <circle cx="17" cy="3" r="1" fill="white"/>
  <circle cx="18" cy="3" r="1" fill="white"/>
  <circle cx="19" cy="3" r="1" fill="white"/>
  <circle cx="20" cy="3" r="1" fill="white"/>
  <circle cx="21" cy="3" r="1" fill="white"/>
  <circle cx="0" cy="4" r="1" fill="white"/>
  <circle cx="1" cy="4" r="1" fill="white"/>
  <circle cx="2" cy="4" r="1" fill="white"/>
  <circle cx="3" cy="4" r="1" fill="white"/>
  <circle cx="4" cy="4" r="1" fill="white"/>
  <circle cx="5" cy="4" r="1" fill="white"/>
  <circle cx="6" cy="4" r="1" fill="white"/>
  <circle cx="7" cy="4" r="1" fill="white"/>
  <circle cx="8" cy="4" r="1" fill="white"/>
  <circle cx="9" cy="4" r="1" fill="rgba(97.9583%,97.9583%,97.9583%,1)"/>
  <circle cx="10" cy="4" r="1" fill="rgba(43.1327%,43.1327%,43.1327%,1)"/>
  <circle cx="11" cy="4" r="1" fill="rgba(48.922%,48.922%,48.922%,1)"/>
  <circle cx="12" cy="4" r="1" fill="rgba(98.2422%,98.2422%,98.2422%,1)"/>
  <circle cx="13" cy="4" r="1" fill="white"/>
  <circle cx="14" cy="4" r="1" fill="white"/>
  <circle cx="15" cy="4" r="1" fill="white"/>
  <circle cx="16" cy="4" r="1" fill="white"/>
  <circle cx="17" cy="4" r="1" fill="white"/>
  <circle cx="18" cy="4" r="1" fill="white"/>
  <circle cx="19" cy="4" r="1" fill="white"/>
  <circle cx="20" cy="4" r="1" fill="white"/>
  <circle cx="21" cy="4" r="1" fill="white"/>
  <circle cx="0" cy="5" r="1" fill="white"/>
  <circle cx="1" cy="5" r="1" fill="white"/>
  <circle cx="2" cy="5" r="1" fill="white"/>
  <circle cx="3" cy="5" r="1" fill="white"/>
  <circle cx="4" cy="5" r="1" fill="white"/>
  <circle cx="5" cy="5" r="1" fill="white"/>
  <circle cx="6" cy="5" r="1" fill="white"/>
  <circle cx="7" cy="5" r="1" fill="rgba(91.8105%,91.8105%,91.8105%,1)"/>
  <circle cx="8" cy="5" r="1" fill="rgba(92.0714%,92.0714%,92.0714%,1)"/>
  <circle cx="9" cy="5" r="1" fill="rgba(96.5393%,96.5393%,96.5393%,1)"/>
  <circle cx="10" cy="5" r="1" fill="rgba(32.2194%,32.2194%,32.2194%,1)"/>
  <circle cx="11" cy="5" r="1" fill="rgba(38.056%,38.056%,38.056%,1)"/>
  <circle cx="12" cy="5" r="1" fill="rgba(96.5072%,96.5072%,96.5072%,1)"/>
  <circle cx="13" cy="5" r="1" fill="rgba(91.2215%,91.2215%,91.2215%,1)"/>
  <circle cx="14" cy="5" r="1" fill="rgba(92.4895%,92.4895%,92.4895%,1)"/>
  <circle cx="15" cy="5" r="1" fill="white"/>
  <circle cx="16" cy="5" r="1" fill="white"/>
  <circle cx="17" cy="5" r="1" fill="white"/>
  <circle cx="18" cy="5" r="1" fill="white"/>
  <circle cx="19" cy="5" r="1" fill="white"/>
  <circle cx="20" cy="5" r="1" fill="white"/>
  <circle cx="21" cy="5" r="1" fill="white"/>
  <circle cx="0" cy="6" r="1" fill="white"/>
  <circle cx="1" cy="6" r="1" fill="white"/>
  <circle cx="2" cy="6" r="1" fill="white"/>
  <circle cx="3" cy="6" r="1" fill="white"/>
  <circle cx="4" cy="6" r="1" fill="white"/>
  <circle cx="5" cy="6" r="1" fill="rgba(99.5819%,99.5819%,99.5819%,1)"/>
  <circle cx="6" cy="6" r="1" fill="rgba(78.439%,78.439%,78.439%,1)"/>
  <circle cx="7" cy="6" r="1" fill="rgba(48.0949%,48.0949%,48.0949%,1)"/>
  <circle cx="8" cy="6" r="1" fill="rgba(57.5036%,57.5036%,57.5036%,1)"/>
  <circle cx="9" cy="6" r="1" fill="rgba(91.2688%,91.2688%,91.2688%,1)"/>
  <circle cx="10" cy="6" r="1" fill="rgba(33.1701%,33.1701%,33.1701%,1)"/>
  <circle cx="11" cy="6" r="1" fill="rgba(39.0387%,39.0387%,39.0387%,1)"/>
  <circle cx="12" cy="6" r="1" fill="rgba(90.4173%,90.4173%,90.4173%,1)"/>
  <circle cx="13" cy="6" r="1" fill="rgba(53.4752%,53.4752%,53.4752%,1)"/>
  <circle cx="14" cy="6" r="1" fill="rgba(50.1213%,50.1213%,50.1213%,1)"/>
  <circle cx="15" cy="6" r="1" fill="rgba(81.738%,81.738%,81.738%,1)"/>
  <circle cx="16" cy="6" r="1" fill="white"/>
  <circle cx="17" cy="6" r="1" fill="white"/>
  <circle cx="18" cy="6" r="1" fill="white"/>
  <circle cx="19" cy="6" r="1" fill="white"/>
  <circle cx="20" cy="6" r="1" fill="white"/>
  <circle cx="21" cy="6" r="1" fill="white"/>
  <circle cx="0" cy="7" r="1" fill="white"/>
  <circle cx="1" cy="7" r="1" fill="white"/>
  <circle cx="2" cy="7" r="1" fill="white"/>
  <circle cx="3" cy="7" r="1" fill="white"/>
  <circle cx="4" cy="7" r="1" fill="white"/>
  <circle cx="5" cy="7" r="1" fill="rgba(79.0509%,79.0509%,79.0509%,1)"/>
  <circle cx="6" cy="7" r="1" fill="rgba(37.6822%,37.6822%,37.6822%,1)"/>
  <circle cx="7" cy="7" r="1" fill="rgba(28.7877%,28.7877%,28.7877%,1)"/>
  <circle cx="8" cy="7" r="1" fill="rgba(64.7776%,64.7776%,64.7776%,1)"/>
  <circle cx="9" cy="7" r="1" fill="rgba(93.8338%,93.8338%,93.8338%,1)"/>
  <circle cx="10" cy="7" r="1" fill="rgba(33.0465%,33.0465%,33.0465%,1)"/>
  <circle cx="11" cy="7" r="1" fill="rgba(38.9166%,38.9166%,38.9166%,1)"/>
  <circle cx="12" cy="7" r="1" fill="rgba(93.0587%,93.0587%,93.0587%,1)"/>
  <circle cx="13" cy="7" r="1" fill="rgba(59.3179%,59.3179%,59.3179%,1)"/>
  <circle cx="14" cy="7" r="1" fill="rgba(26.5293%,26.5293%,26.5293%,1)"/>
  <circle cx="15" cy="7" r="1" fill="rgba(42.1027%,42.1027%,42.1027%,1)"/>
  <circle cx="16" cy="7" r="1" fill="rgba(82.8595%,82.8595%,82.8595%,1)"/>
  <circle cx="17" cy="7" r="1" fill="white"/>
  <circle cx="18" cy="7" r="1" fill="white"/>
  <circle cx="19" cy="7" r="1" fill="white"/>
  <circle cx="20" cy="7" r="1" fill="white"/>
  <circle cx="21" cy="7" r="1" fill="white"/>
  <circle cx="0" cy="8" r="1" fill="white"/>
  <circle cx="1" cy="8" r="1" fill="white"/>
  <circle cx="2" cy="8" r="1" fill="white"/>
  <circle cx="3" cy="8" r="1" fill="white"/>
  <circle cx="4" cy="8" r="1" fill="rgba(91.0704%,91.0704%,91.0704%,1)"/>
  <circle cx="5" cy="8" r="1" fill="rgba(49.6544%,49.6544%,49.6544%,1)"/>
  <circle cx="6" cy="8" r="1" fill="rgba(28.8685%,28.8685%,28.8685%,1)"/>
  <circle cx="7" cy="8" r="1" fill="rgba(67.6005%,67.6005%,67.6005%,1)"/>
  <circle cx="8" cy="8" r="1" fill="rgba(95.2346%,95.2346%,95.2346%,1)"/>
  <circle cx="9" cy="8" r="1" fill="rgba(97.4777%,97.4777%,97.4777%,1)"/>
  <circle cx="10" cy="8" r="1" fill="rgba(32.8145%,32.8145%,32.8145%,1)"/>
  <circle cx="11" cy="8" r="1" fill="rgba(38.6389%,38.6389%,38.6389%,1)"/>
  <circle cx="12" cy="8" r="1" fill="rgba(97.6059%,97.6059%,97.6059%,1)"/>
  <circle cx="13" cy="8" r="1" fill="rgba(93.6889%,93.6889%,93.6889%,1)"/>
  <circle cx="14" cy="8" r="1" fill="rgba(62.2263%,62.2263%,62.2263%,1)"/>
  <circle cx="15" cy="8" r="1" fill="rgba(26.3447%,26.3447%,26.3447%,1)"/>
  <circle cx="16" cy="8" r="1" fill="rgba(54.0017%,54.0017%,54.0017%,1)"/>
  <circle cx="17" cy="8" r="1" fill="rgba(93.5561%,93.5561%,93.5561%,1)"/>
  <circle cx="18" cy="8" r="1" fill="white"/>
  <circle cx="19" cy="8" r="1" fill="white"/>
  <circle cx="20" cy="8" r="1" fill="white"/>
  <circle cx="21" cy="8" r="1" fill="white"/>
  <circle cx="0" cy="9" r="1" fill="white"/>
  <circle cx="1" cy="9" r="1" fill="white"/>
  <circle cx="2" cy="9" r="1" fill="white"/>
  <circle cx="3" cy="9" r="1" fill="white"/>
  <circle cx="4" cy="9" r="1" fill="rgba(77.8302%,77.8302%,77.8302%,1)"/>
  <circle cx="5" cy="9" r="1" fill="rgba(30.5364%,30.5364%,30.5364%,1)"/>
  <circle cx="6" cy="9" r="1" fill="rgba(52.6406%,52.6406%,52.6406%,1)"/>
  <circle cx="7" cy="9" r="1" fill="rgba(93.7881%,93.7881%,93.7881%,1)"/>
  <circle cx="8" cy="9" r="1" fill="white"/>
  <circle cx="9" cy="9" r="1" fill="rgba(97.5509%,97.5509%,97.5509%,1)"/>
  <circle cx="10" cy="9" r="1" fill="rgba(33.4188%,33.4188%,33.4188%,1)"/>
  <circle cx="11" cy="9" r="1" fill="rgba(39.2233%,39.2233%,39.2233%,1)"/>
  <circle cx="12" cy="9" r="1" fill="rgba(97.8424%,97.8424%,97.8424%,1)"/>
  <circle cx="13" cy="9" r="1" fill="white"/>
  <circle cx="14" cy="9" r="1" fill="rgba(90.8965%,90.8965%,90.8965%,1)"/>
  <circle cx="15" cy="9" r="1" fill="rgba(48.3253%,48.3253%,48.3253%,1)"/>
  <circle cx="16" cy="9" r="1" fill="rgba(33.1197%,33.1197%,33.1197%,1)"/>
  <circle cx="17" cy="9" r="1" fill="rgba(79.9054%,79.9054%,79.9054%,1)"/>
  <circle cx="18" cy="9" r="1" fill="white"/>
  <circle cx="19" cy="9" r="1" fill="white"/>
  <circle cx="20" cy="9" r="1" fill="white"/>
  <circle cx="21" cy="9" r="1" fill="white"/>
  <circle cx="0" cy="10" r="1" fill="white"/>
  <circle cx="1" cy="10" r="1" fill="white"/>
  <circle cx="2" cy="10" r="1" fill="white"/>
  <circle cx="3" cy="10" r="1" fill="white"/>
  <circle cx="4" cy="10" r="1" fill="rgba(70.309%,70.309%,70.309%,1)"/>
  <circle cx="5" cy="10" r="1" fill="rgba(22.7161%,22.7161%,22.7161%,1)"/>
  <circle cx="6" cy="10" r="1" fill="rgba(68.3925%,68.3925%,68.3925%,1)"/>
  <circle cx="7" cy="10" r="1" fill="rgba(99.7009%,99.7009%,99.7009%,1)"/>
  <circle cx="8" cy="10" r="1" fill="white"/>
  <circle cx="9" cy="10" r="1" fill="rgba(98.2666%,98.2666%,98.2666%,1)"/>
  <circle cx="10" cy="10" r="1" fill="rgba(53.4936%,53.4936%,53.4936%,1)"/>
  <circle cx="11" cy="10" r="1" fill="rgba(58.6725%,58.6725%,58.6725%,1)"/>
  <circle cx="12" cy="10" r="1" fill="rgba(98.5%,98.5%,98.5%,1)"/>
  <circle cx="13" cy="10" r="1" fill="white"/>
  <circle cx="14" cy="10" r="1" fill="rgba(99.4491%,99.4491%,99.4491%,1)"/>
  <circle cx="15" cy="10" r="1" fill="rgba(66.4424%,66.4424%,66.4424%,1)"/>
  <circle cx="16" cy="10" r="1" fill="rgba(23.4913%,23.4913%,23.4913%,1)"/>
  <circle cx="17" cy="10" r="1" fill="rgba(71.5282%,71.5282%,71.5282%,1)"/>
  <circle cx="18" cy="10" r="1" fill="white"/>
  <circle cx="19" cy="10" r="1" fill="white"/>
  <circle cx="20" cy="10" r="1" fill="white"/>
  <circle cx="21" cy="10" r="1" fill="white"/>
  <circle cx="0" cy="11" r="1" fill="white"/>
  <circle cx="1" cy="11" r="1" fill="white"/>
  <circle cx="2" cy="11" r="1" fill="white"/>
  <circle cx="3" cy="11" r="1" fill="white"/>
  <circle cx="4" cy="11" r="1" fill="rgba(70.6111%,70.6111%,70.6111%,1)"/>
  <circle cx="5" cy="11" r="1" fill="rgba(22.7222%,22.7222%,22.7222%,1)"/>
  <circle cx="6" cy="11" r="1" fill="rgba(68.5206%,68.5206%,68.5206%,1)"/>
  <circle cx="7" cy="11" r="1" fill="rgba(99.9222%,99.9222%,99.9222%,1)"/>
  <circle cx="8" cy="11" r="1" fill="white"/>
  <circle cx="9" cy="11" r="1" fill="rgba(99.8825%,99.8825%,99.8825%,1)"/>
  <circle cx="10" cy="11" r="1" fill="rgba(96.8368%,96.8368%,96.8368%,1)"/>
  <circle cx="11" cy="11" r="1" fill="rgba(97.2137%,97.2137%,97.2137%,1)"/>
  <circle cx="12" cy="11" r="1" fill="rgba(99.8993%,99.8993%,99.8993%,1)"/>
  <circle cx="13" cy="11" r="1" fill="white"/>
  <circle cx="14" cy="11" r="1" fill="rgba(99.9496%,99.9496%,99.9496%,1)"/>
  <circle cx="15" cy="11" r="1" fill="rgba(68.1163%,68.1163%,68.1163%,1)"/>
  <circle cx="16" cy="11" r="1" fill="rgba(22.417%,22.417%,22.417%,1)"/>
  <circle cx="17" cy="11" r="1" fill="rgba(70.5547%,70.5547%,70.5547%,1)"/>
  <circle cx="18" cy="11" r="1" fill="white"/>
  <circle cx="19" cy="11" r="1" fill="white"/>
  <circle cx="20" cy="11" r="1" fill="white"/>
  <circle cx="21" cy="11" r="1" fill="white"/>
  <circle cx="0" cy="12" r="1" fill="white"/>
  <circle cx="1" cy="12" r="1" fill="white"/>
  <circle cx="2" cy="12" r="1" fill="white"/>
  <circle cx="3" cy="12" r="1" fill="white"/>
  <circle cx="4" cy="12" r="1" fill="rgba(76.4141%,76.4141%,76.4141%,1)"/>
  <circle cx="5" cy="12" r="1" fill="rgba(28.7251%,28.7251%,28.7251%,1)"/>
  <circle cx="6" cy="12" r="1" fill="rgba(57.792%,57.792%,57.792%,1)"/>
  <circle cx="7" cy="12" r="1" fill="rgba(96.6369%,96.6369%,96.6369%,1)"/>
  <circle cx="8" cy="12" r="1" fill="white"/>
  <circle cx="9" cy="12" r="1" fill="white"/>
  <circle cx="10" cy="12" r="1" fill="white"/>
  <circle cx="11" cy="12" r="1" fill="white"/>
  <circle cx="12" cy="12" r="1" fill="white"/>
  <circle cx="13" cy="12" r="1" fill="white"/>
  <circle cx="14" cy="12" r="1" fill="rgba(96.7819%,96.7819%,96.7819%,1)"/>
  <circle cx="15" cy="12" r="1" fill="rgba(57.995%,57.995%,57.995%,1)"/>
  <circle cx="16" cy="12" r="1" fill="rgba(28.2506%,28.2506%,28.2506%,1)"/>
  <circle cx="17" cy="12" r="1" fill="rgba(76.0281%,76.0281%,76.0281%,1)"/>
  <circle cx="18" cy="12" r="1" fill="white"/>
  <circle cx="19" cy="12" r="1" fill="white"/>
  <circle cx="20" cy="12" r="1" fill="white"/>
  <circle cx="21" cy="12" r="1" fill="white"/>
  <circle cx="0" cy="13" r="1" fill="white"/>
  <circle cx="1" cy="13" r="1" fill="white"/>
  <circle cx="2" cy="13" r="1" fill="white"/>
  <circle cx="3" cy="13" r="1" fill="white"/>
  <circle cx="4" cy="13" r="1" fill="rgba(88.5191%,88.5191%,88.5191%,1)"/>
  <circle cx="5" cy="13" r="1" fill="rgba(43.9841%,43.9841%,43.9841%,1)"/>
  <circle cx="6" cy="13" r="1" fill="rgba(35.0988%,35.0988%,35.0988%,1)"/>
  <circle cx="7" cy="13" r="1" fill="rgba(80.3525%,80.3525%,80.3525%,1)"/>
  <circle cx="8" cy="13" r="1" fill="rgba(99.8703%,99.8703%,99.8703%,1)"/>
  <circle cx="9" cy="13" r="1" fill="white"/>
  <circle cx="10" cy="13" r="1" fill="white"/>
  <circle cx="11" cy="13" r="1" fill="white"/>
  <circle cx="12" cy="13" r="1" fill="white"/>
  <circle cx="13" cy="13" r="1" fill="rgba(99.7055%,99.7055%,99.7055%,1)"/>
  <circle cx="14" cy="13" r="1" fill="rgba(79.8352%,79.8352%,79.8352%,1)"/>
  <circle cx="15" cy="13" r="1" fill="rgba(35.1995%,35.1995%,35.1995%,1)"/>
  <circle cx="16" cy="13" r="1" fill="rgba(42.9114%,42.9114%,42.9114%,1)"/>
  <circle cx="17" cy="13" r="1" fill="rgba(87.6066%,87.6066%,87.6066%,1)"/>
  <circle cx="18" cy="13" r="1" fill="white"/>
  <circle cx="19" cy="13" r="1" fill="white"/>
  <circle cx="20" cy="13" r="1" fill="white"/>
  <circle cx="21" cy="13" r="1" fill="white"/>
  <circle cx="0" cy="14" r="1" fill="white"/>
  <circle cx="1" cy="14" r="1" fill="white"/>
  <circle cx="2" cy="14" r="1" fill="white"/>
  <circle cx="3" cy="14" r="1" fill="white"/>
  <circle cx="4" cy="14" r="1" fill="rgba(99.7253%,99.7253%,99.7253%,1)"/>
  <circle cx="5" cy="14" r="1" fill="rgba(69.0257%,69.0257%,69.0257%,1)"/>
  <circle cx="6" cy="14" r="1" fill="rgba(27.509%,27.509%,27.509%,1)"/>
  <circle cx="7" cy="14" r="1" fill="rgba(45.6199%,45.6199%,45.6199%,1)"/>
  <circle cx="8" cy="14" r="1" fill="rgba(81.0407%,81.0407%,81.0407%,1)"/>
  <circle cx="9" cy="14" r="1" fill="rgba(96.9192%,96.9192%,96.9192%,1)"/>
  <circle cx="10" cy="14" r="1" fill="white"/>
  <circle cx="11" cy="14" r="1" fill="white"/>
  <circle cx="12" cy="14" r="1" fill="rgba(96.643%,96.643%,96.643%,1)"/>
  <circle cx="13" cy="14" r="1" fill="rgba(79.8917%,79.8917%,79.8917%,1)"/>
  <circle cx="14" cy="14" r="1" fill="rgba(44.3366%,44.3366%,44.3366%,1)"/>
  <circle cx="15" cy="14" r="1" fill="rgba(27.3487%,27.3487%,27.3487%,1)"/>
  <circle cx="16" cy="14" r="1" fill="rgba(68.8228%,68.8228%,68.8228%,1)"/>
  <circle cx="17" cy="14" r="1" fill="rgba(99.7421%,99.7421%,99.7421%,1)"/>
  <circle cx="18" cy="14" r="1" fill="white"/>
  <circle cx="19" cy="14" r="1" fill="white"/>
  <circle cx="20" cy="14" r="1" fill="white"/>
  <circle cx="21" cy="14" r="1" fill="white"/>
  <circle cx="0" cy="15" r="1" fill="white"/>
  <circle cx="1" cy="15" r="1" fill="white"/>
  <circle cx="2" cy="15" r="1" fill="white"/>
  <circle cx="3" cy="15" r="1" fill="white"/>
  <circle cx="4" cy="15" r="1" fill="white"/>
  <circle cx="5" cy="15" r="1" fill="rgba(94.1314%,94.1314%,94.1314%,1)"/>
  <circle cx="6" cy="15" r="1" fill="rgba(60.6134%,60.6134%,60.6134%,1)"/>
  <circle cx="7" cy="15" r="1" fill="rgba(27.0771%,27.0771%,27.0771%,1)"/>
  <circle cx="8" cy="15" r="1" fill="rgba(36.3882%,36.3882%,36.3882%,1)"/>
  <circle cx="9" cy="15" r="1" fill="rgba(58.7732%,58.7732%,58.7732%,1)"/>
  <circle cx="10" cy="15" r="1" fill="rgba(69.3965%,69.3965%,69.3965%,1)"/>
  <circle cx="11" cy="15" r="1" fill="rgba(69.366%,69.366%,69.366%,1)"/>
  <circle cx="12" cy="15" r="1" fill="rgba(58.2483%,58.2483%,58.2483%,1)"/>
  <circle cx="13" cy="15" r="1" fill="rgba(35.3017%,35.3017%,35.3017%,1)"/>
  <circle cx="14" cy="15" r="1" fill="rgba(27.48%,27.48%,27.48%,1)"/>
  <circle cx="15" cy="15" r="1" fill="rgba(60.6058%,60.6058%,60.6058%,1)"/>
  <circle cx="16" cy="15" r="1" fill="rgba(93.7484%,93.7484%,93.7484%,1)"/>
  <circle cx="17" cy="15" r="1" fill="white"/>
  <circle cx="18" cy="15" r="1" fill="white"/>
  <circle cx="19" cy="15" r="1" fill="white"/>
  <circle cx="20" cy="15" r="1" fill="white"/>
  <circle cx="21" cy="15" r="1" fill="white"/>
  <circle cx="0" cy="16" r="1" fill="white"/>
  <circle cx="1" cy="16" r="1" fill="white"/>
  <circle cx="2" cy="16" r="1" fill="white"/>
  <circle cx="3" cy="16" r="1" fill="white"/>
  <circle cx="4" cy="16" r="1" fill="white"/>
  <circle cx="5" cy="16" r="1" fill="white"/>
  <circle cx="6" cy="16" r="1" fill="rgba(93.254%,93.254%,93.254%,1)"/>
  <circle cx="7" cy="16" r="1" fill="rgba(67.4876%,67.4876%,67.4876%,1)"/>
  <circle cx="8" cy="16" r="1" fill="rgba(42.2187%,42.2187%,42.2187%,1)"/>
  <circle cx="9" cy="16" r="1" fill="rgba(27.2084%,27.2084%,27.2084%,1)"/>
  <circle cx="10" cy="16" r="1" fill="rgba(23.3188%,23.3188%,23.3188%,1)"/>
  <circle cx="11" cy="16" r="1" fill="rgba(23.5416%,23.5416%,23.5416%,1)"/>
  <circle cx="12" cy="16" r="1" fill="rgba(28.0171%,28.0171%,28.0171%,1)"/>
  <circle cx="13" cy="16" r="1" fill="rgba(43.4089%,43.4089%,43.4089%,1)"/>
  <circle cx="14" cy="16" r="1" fill="rgba(67.8325%,67.8325%,67.8325%,1)"/>
  <circle cx="15" cy="16" r="1" fill="rgba(93.6492%,93.6492%,93.6492%,1)"/>
  <circle cx="16" cy="16" r="1" fill="white"/>
  <circle cx="17" cy="16" r="1" fill="white"/>
  <circle cx="18" cy="16" r="1" fill="white"/>
  <circle cx="19" cy="16" r="1" fill="white"/>
  <circle cx="20" cy="16" r="1" fill="white"/>
  <circle cx="21" cy="16" r="1" fill="white"/>
  <circle cx="0" cy="17" r="1" fill="white"/>
  <circle cx="1" cy="17" r="1" fill="white"/>
  <circle cx="2" cy="17" r="1" fill="white"/>
  <circle cx="3" cy="17" r="1" fill="white"/>
  <circle cx="4" cy="17" r="1" fill="white"/>
  <circle cx="5" cy="17" r="1" fill="white"/>
  <circle cx="6" cy="17" r="1" fill="white"/>
  <circle cx="7" cy="17" r="1" fill="rgba(99.3774%,99.3774%,99.3774%,1)"/>
  <circle cx="8" cy="17" r="1" fill="rgba(87.0283%,87.0283%,87.0283%,1)"/>
  <circle cx="9" cy="17" r="1" fill="rgba(75.1537%,75.1537%,75.1537%,1)"/>
  <circle cx="10" cy="17" r="1" fill="rgba(70.4845%,70.4845%,70.4845%,1)"/>
  <circle cx="11" cy="17" r="1" fill="rgba(70.6706%,70.6706%,70.6706%,1)"/>
  <circle cx="12" cy="17" r="1" fill="rgba(75.8145%,75.8145%,75.8145%,1)"/>
  <circle cx="13" cy="17" r="1" fill="rgba(87.9408%,87.9408%,87.9408%,1)"/>
  <circle cx="14" cy="17" r="1" fill="rgba(99.3362%,99.3362%,99.3362%,1)"/>
  <circle cx="15" cy="17" r="1" fill="white"/>
  <circle cx="16" cy="17" r="1" fill="white"/>
  <circle cx="17" cy="17" r="1" fill="white"/>
  <circle cx="18" cy="17" r="1" fill="white"/>
  <circle cx="19" cy="17" r="1" fill="white"/>
  <circle cx="20" cy="17" r="1" fill="white"/>
  <circle cx="21" cy="17" r="1" fill="white"/>
  <circle cx="0" cy="18" r="1" fill="white"/>
  <circle cx="1" cy="18" r="1" fill="white"/>
  <circle cx="2" cy="18" r="1" fill="white"/>
  <circle cx="3" cy="18" r="1" fill="white"/>
  <circle cx="4" cy="18" r="1" fill="white"/>
  <circle cx="5" cy="18" r="1" fill="white"/>
  <circle cx="6" cy="18" r="1" fill="white"/>
  <circle cx="7" cy="18" r="1" fill="white"/>
  <circle cx="8" cy="18" r="1" fill="white"/>
  <circle cx="9" cy="18" r="1" fill="white"/>
  <circle cx="10" cy="18" r="1" fill="white"/>
  <circle cx="11" cy="18" r="1" fill="white"/>
  <circle cx="12" cy="18" r="1" fill="white"/>
  <circle cx="13" cy="18" r="1" fill="white"/>
  <circle cx="14" cy="18" r="1" fill="white"/>
  <circle cx="15" cy="18" r="1" fill="white"/>
  <circle cx="16" cy="18" r="1" fill="white"/>
  <circle cx="17" cy="18" r="1" fill="white"/>
  <circle cx="18" cy="18" r="1" fill="white"/>
  <circle cx="19" cy="18" r="1" fill="white"/>
  <circle cx="20" cy="18" r="1" fill="white"/>
  <circle cx="21" cy="18" r="1" fill="white"/>
  <circle cx="0" cy="19" r="1" fill="white"/>
  <circle cx="1" cy="19" r="1" fill="white"/>
  <circle cx="2" cy="19" r="1" fill="white"/>
  <circle cx="3" cy="19" r="1" fill="white"/>
  <circle cx="4" cy="19" r="1" fill="white"/>
  <circle cx="5" cy="19" r="1" fill="white"/>
  <circle cx="6" cy="19" r="1" fill="white"/>
  <circle cx="7" cy="19" r="1" fill="white"/>
  <circle cx="8" cy="19" r="1" fill="white"/>
  <circle cx="9" cy="19" r="1" fill="white"/>
  <circle cx="10" cy="19" r="1" fill="white"/>
  <circle cx="11" cy="19" r="1" fill="white"/>
  <circle cx="12" cy="19" r="1" fill="white"/>
  <circle cx="13" cy="19" r="1" fill="white"/>
  <circle cx="14" cy="19" r="1" fill="white"/>
  <circle cx="15" cy="19" r="1" fill="white"/>
  <circle cx="16" cy="19" r="1" fill="white"/>
  <circle cx="17" cy="19" r="1" fill="white"/>
  <circle cx="18" cy="19" r="1" fill="white"/>
  <circle cx="19" cy="19" r="1" fill="white"/>
  <circle cx="20" cy="19" r="1" fill="white"/>
  <circle cx="21" cy="19" r="1" fill="white"/>
  <circle cx="0" cy="20" r="1" fill="white"/>
  <circle cx="1" cy="20" r="1" fill="white"/>
  <circle cx="2" cy="20" r="1" fill="white"/>
  <circle cx="3" cy="20" r="1" fill="white"/>
  <circle cx="4" cy="20" r="1" fill="white"/>
  <circle cx="5" cy="20" r="1" fill="white"/>
  <circle cx="6" cy="20" r="1" fill="white"/>
  <circle cx="7" cy="20" r="1" fill="white"/>
  <circle cx="8" cy="20" r="1" fill="white"/>
  <circle cx="9" cy="20" r="1" fill="white"/>
  <circle cx="10" cy="20" r="1" fill="white"/>
  <circle cx="11" cy="20" r="1" fill="white"/>
  <circle cx="12" cy="20" r="1" fill="white"/>
  <circle cx="13" cy="20" r="1" fill="white"/>
  <circle cx="14" cy="20" r="1" fill="white"/>
  <circle cx="15" cy="20" r="1" fill="white"/>
  <circle cx="16" cy="20" r="1" fill="white"/>
  <circle cx="17" cy="20" r="1" fill="white"/>
  <circle cx="18" cy="20" r="1" fill="white"/>
  <circle cx="19" cy="20" r="1" fill="white"/>
  <circle cx="20" cy="20" r="1" fill="white"/>
  <circle cx="21" cy="20" r="1" fill="white"/>
  <circle cx="0" cy="21" r="1" fill="white"/>
  <circle cx="1" cy="21" r="1" fill="white"/>
  <circle cx="2" cy="21" r="1" fill="white"/>
  <circle cx="3" cy="21" r="1" fill="white"/>
  <circle cx="4" cy="21" r="1" fill="white"/>
  <circle cx="5" cy="21" r="1" fill="white"/>
  <circle cx="6" cy="21" r="1" fill="white"/>
  <circle cx="7" cy="21" r="1" fill="white"/>
  <circle cx="8" cy="21" r="1" fill="white"/>
  <circle cx="9" cy="21" r="1" fill="white"/>
  <circle cx="10" cy="21" r="1" fill="white"/>
  <circle cx="11" cy="21" r="1" fill="white"/>
  <circle cx="12" cy="21" r="1" fill="white"/>
  <circle cx="13" cy="21" r="1" fill="white"/>
  <circle cx="14" cy="21" r="1" fill="white"/>
  <circle cx="15" cy="21" r="1" fill="white"/>
  <circle cx="16" cy="21" r="1" fill="white"/>
  <circle cx="17" cy="21" r="1" fill="white"/>
  <circle cx="18" cy="21" r="1" fill="white"/>
  <circle cx="19" cy="21" r="1" fill="white"/>
  <circle cx="20" cy="21" r="1" fill="white"/>
  <circle cx="21" cy="21" r="1" fill="white"/>
</svg>
