<?xml version="1.0" standalone="no"?>
<!DOCTYPE svg PUBLIC "-//W3C//DTD SVG 20010904//EN"
  "http://www.w3.org/TR/2001/REC-SVG-20010904/DTD/svg10.dtd">
<svg width="22" height="22">
  <circle cx="0" cy="0" r="1" fill="white"/>
  <circle cx="1" cy="0" r="1" fill="white"/>
  <circle cx="2" cy="0" r="1" fill="white"/>
  <circle cx="3" cy="0" r="1" fill="white"/>
  <circle cx="4" cy="0" r="1" fill="white"/>
  <circle cx="5" cy="0" r="1" fill="white"/>
  <circle cx="6" cy="0" r="1" fill="white"/>
  <circle cx="7" cy="0" r="1" fill="white"/>
  <circle cx="8" cy="0" r="1" fill="white"/>
  <circle cx="9" cy="0" r="1" fill="white"/>
  <circle cx="10" cy="0" r="1" fill="white"/>
  <circle cx="11" cy="0" r="1" fill="white"/>
  <circle cx="12" cy="0" r="1" fill="white"/>
  <circle cx="13" cy="0" r="1" fill="white"/>
  <circle cx="14" cy="0" r="1" fill="white"/>
  <circle cx="15" cy="0" r="1" fill="white"/>
  <circle cx="16" cy="0" r="1" fill="white"/>
  <circle cx="17" cy="0" r="1" fill="white"/>
  <circle cx="18" cy="0" r="1" fill="white"/>
  <circle cx="19" cy="0" r="1" fill="white"/>
  <circle cx="20" cy="0" r="1" fill="white"/>
  <circle cx="21" cy="0" r="1" fill="white"/>
  <circle cx="0" cy="1" r="1" fill="white"/>
  <circle cx="1" cy="1" r="1" fill="white"/>
  <circle cx="2" cy="1" r="1" fill="white"/>
  <circle cx="3" cy="1" r="1" fill="white"/>
  <circle cx="4" cy="1" r="1" fill="white"/>
  <circle cx="5" cy="1" r="1" fill="white"/>
  <circle cx="6" cy="1" r="1" fill="white"/>
  <circle cx="7" cy="1" r="1" fill="white"/>
  <circle cx="8" cy="1" r="1" fill="white"/>
  <circle cx="9" cy="1" r="1" fill="white"/>
  <circle cx="10" cy="1" r="1" fill="white"/>
  <circle cx="11" cy="1" r="1" fill="white"/>
  <circle cx="12" cy="1" r="1" fill="white"/>
  <circle cx="13" cy="1" r="1" fill="white"/>
  <circle cx="14" cy="1" r="1" fill="white"/>
  <circle cx="15" cy="1" r="1" fill="white"/>
  <circle cx="16" cy="1" r="1" fill="white"/>
  <circle cx="17" cy="1" r="1" fill="white"/>
  <circle cx="18" cy="1" r="1" fill="white"/>
  <circle cx="19" cy="1" r="1" fill="white"/>
  <circle cx="20" cy="1" r="1" fill="white"/>
  <circle cx="21" cy="1" r="1" fill="white"/>
  <circle cx="0" cy="2" r="1" fill="white"/>
  <circle cx="1" cy="2" r="1" fill="white"/>
  <circle cx="2" cy="2" r="1" fill="white"/>
  <circle cx="3" cy="2" r="1" fill="white"/>
  <circle cx="4" cy="2" r="1" fill="white"/>
  <circle cx="5" cy="2" r="1" fill="white"/>
  <circle cx="6" cy="2" r="1" fill="white"/>
  <circle cx="7" cy="2" r="1" fill="white"/>
  <circle cx="8" cy="2" r="1" fill="white"/>
  <circle cx="9" cy="2" r="1" fill="white"/>
  <circle cx="10" cy="2" r="1" fill="white"/>
  <circle cx="11" cy="2" r="1" fill="white"/>
  <circle cx="12" cy="2" r="1" fill="white"/>
  <circle cx="13" cy="2" r="1" fill="white"/>
  <circle cx="14" cy="2" r="1" fill="white"/>
  <circle cx="15" cy="2" r="1" fill="white"/>
  <circle cx="16" cy="2" r="1" fill="white"/>
  <circle cx="17" cy="2" r="1" fill="white"/>
  <circle cx="18" cy="2" r="1" fill="white"/>
  <circle cx="19" cy="2" r="1" fill="white"/>
  <circle cx="20" cy="2" r="1" fill="white"/>
  <circle cx="21" cy="2" r="1" fill="white"/>
  <circle cx="0" cy="3" r="1" fill="white"/>
  <circle cx="1" cy="3" r="1" fill="white"/>
  <circle cx="2" cy="3" r="1" fill="white"/>
  <circle cx="3" cy="3" r="1" fill="white"/>
  <circle cx="4" cy="3" r="1" fill="white"/>
  <circle cx="5" cy="3" r="1" fill="white"/>
  <circle cx="6" cy="3" r="1" fill="white"/>
  <circle cx="7" cy="3" r="1" fill="white"/>
  <circle cx="8" cy="3" r="1" fill="white"/>
  <circle cx="9" cy="3" r="1" fill="white"/>
  <circle cx="10" cy="3" r="1" fill="white"/>
  <circle cx="11" cy="3" r="1" fill="white"/>
  <circle cx="12" cy="3" r="1" fill="white"/>
  <circle cx="13" cy="3" r="1" fill="white"/>
  <circle cx="14" cy="3" r="1" fill="white"/>
  <circle cx="15" cy="3" r="1" fill="white"/>
  <circle cx="16" cy="3" r="1" fill="white"/>
  <circle cx="17" cy="3" r="1" fill="white"/>
  <circle cx="18" cy="3" r="1" fill="white"/>
  <circle cx="19" cy="3" r="1" fill="white"/>
  <circle cx="20" cy="3" r="1" fill="white"/>
  <circle cx="21" cy="3" r="1" fill="white"/>
  <circle cx="0" cy="4" r="1" fill="white"/>
  <circle cx="1" cy="4" r="1" fill="white"/>
  <circle cx="2" cy="4" r="1" fill="white"/>
  <circle cx="3" cy="4" r="1" fill="white"/>
  <circle cx="4" cy="4" r="1" fill="white"/>
  <circle cx="5" cy="4" r="1" fill="white"/>
  <circle cx="6" cy="4" r="1" fill="white"/>
  <circle cx="7" cy="4" r="1" fill="white"/>
  <circle cx="8" cy="4" r="1" fill="white"/>
  <circle cx="9" cy="4" r="1" fill="white"/>
  <circle cx="10" cy="4" r="1" fill="rgba(99.765%,98.5031%,98.4131%,1)"/>
  <circle cx="11" cy="4" r="1" fill="rgba(97.3037%,82.9526%,81.9348%,1)"/>
  <circle cx="12" cy="4" r="1" fill="rgba(99.6963%,98.4863%,98.4451%,1)"/>
  <circle cx="13" cy="4" r="1" fill="white"/>
  <circle cx="14" cy="4" r="1" fill="white"/>
  <circle cx="15" cy="4" r="1" fill="white"/>
  <circle cx="16" cy="4" r="1" fill="white"/>
  <circle cx="17" cy="4" r="1" fill="white"/>
  <circle cx="18" cy="4" r="1" fill="white"/>
  <circle cx="19" cy="4" r="1" fill="white"/>
  <circle cx="20" cy="4" r="1" fill="white"/>
  <circle cx="21" cy="4" r="1" fill="white"/>
  <circle cx="0" cy="5" r="1" fill="white"/>
  <circle cx="1" cy="5" r="1" fill="white"/>
  <circle cx="2" cy="5" r="1" fill="white"/>
  <circle cx="3" cy="5" r="1" fill="white"/>
  <circle cx="4" cy="5" r="1" fill="white"/>
  <circle cx="5" cy="5" r="1" fill="white"/>
  <circle cx="6" cy="5" r="1" fill="white"/>
  <circle cx="7" cy="5" r="1" fill="white"/>
  <circle cx="8" cy="5" r="1" fill="white"/>
  <circle cx="9" cy="5" r="1" fill="white"/>
  <circle cx="10" cy="5" r="1" fill="rgba(99.6033%,97.4929%,97.3404%,1)"/>
  <circle cx="11" cy="5" r="1" fill="rgba(90.4997%,40.6119%,37.0321%,1)"/>
  <circle cx="12" cy="5" r="1" fill="rgba(93.6294%,60.9461%,58.5794%,1)"/>
  <circle cx="13" cy="5" r="1" fill="rgba(97.8149%,86.3554%,85.5009%,1)"/>
  <circle cx="14" cy="5" r="1" fill="white"/>
  <circle cx="15" cy="5" r="1" fill="white"/>
  <circle cx="16" cy="5" r="1" fill="white"/>
  <circle cx="17" cy="5" r="1" fill="white"/>
  <circle cx="18" cy="5" r="1" fill="white"/>
  <circle cx="19" cy="5" r="1" fill="white"/>
  <circle cx="20" cy="5" r="1" fill="white"/>
  <circle cx="21" cy="5" r="1" fill="white"/>
  <circle cx="0" cy="6" r="1" fill="white"/>
  <circle cx="1" cy="6" r="1" fill="white"/>
  <circle cx="2" cy="6" r="1" fill="white"/>
  <circle cx="3" cy="6" r="1" fill="white"/>
  <circle cx="4" cy="6" r="1" fill="white"/>
  <circle cx="5" cy="6" r="1" fill="white"/>
  <circle cx="6" cy="6" r="1" fill="white"/>
  <circle cx="7" cy="6" r="1" fill="white"/>
  <circle cx="8" cy="6" r="1" fill="rgba(97.9019%,87.0008%,86.2135%,1)"/>
  <circle cx="9" cy="6" r="1" fill="rgba(94.7539%,66.8879%,64.7959%,1)"/>
  <circle cx="10" cy="6" r="1" fill="rgba(92.8374%,55.4894%,52.8328%,1)"/>
  <circle cx="11" cy="6" r="1" fill="rgba(87.6707%,23.3768%,18.7503%,1)"/>
  <circle cx="12" cy="6" r="1" fill="rgba(87.6585%,23.3173%,18.6328%,1)"/>
  <circle cx="13" cy="6" r="1" fill="rgba(90.6706%,41.9211%,38.4009%,1)"/>
  <circle cx="14" cy="6" r="1" fill="rgba(95.0469%,69.4759%,67.599%,1)"/>
  <circle cx="15" cy="6" r="1" fill="rgba(98.909%,93.637%,93.2815%,1)"/>
  <circle cx="16" cy="6" r="1" fill="white"/>
  <circle cx="17" cy="6" r="1" fill="white"/>
  <circle cx="18" cy="6" r="1" fill="white"/>
  <circle cx="19" cy="6" r="1" fill="white"/>
  <circle cx="20" cy="6" r="1" fill="white"/>
  <circle cx="21" cy="6" r="1" fill="white"/>
  <circle cx="0" cy="7" r="1" fill="white"/>
  <circle cx="1" cy="7" r="1" fill="white"/>
  <circle cx="2" cy="7" r="1" fill="white"/>
  <circle cx="3" cy="7" r="1" fill="white"/>
  <circle cx="4" cy="7" r="1" fill="white"/>
  <circle cx="5" cy="7" r="1" fill="white"/>
  <circle cx="6" cy="7" r="1" fill="rgba(99.7803%,98.2498%,98.1857%,1)"/>
  <circle cx="7" cy="7" r="1" fill="rgba(95.1598%,69.9184%,68.2902%,1)"/>
  <circle cx="8" cy="7" r="1" fill="rgba(90.4067%,40.4379%,36.8948%,1)"/>
  <circle cx="9" cy="7" r="1" fill="rgba(88.1773%,26.2013%,21.6922%,1)"/>
  <circle cx="10" cy="7" r="1" fill="rgba(87.2801%,20.9033%,16.1501%,1)"/>
  <circle cx="11" cy="7" r="1" fill="rgba(87.4311%,21.8402%,17.1313%,1)"/>
  <circle cx="12" cy="7" r="1" fill="rgba(87.3625%,21.4237%,16.6918%,1)"/>
  <circle cx="13" cy="7" r="1" fill="rgba(87.3869%,21.3291%,16.5698%,1)"/>
  <circle cx="14" cy="7" r="1" fill="rgba(90.9224%,43.4012%,39.9512%,1)"/>
  <circle cx="15" cy="7" r="1" fill="rgba(97.7127%,86.4469%,85.6443%,1)"/>
  <circle cx="16" cy="7" r="1" fill="white"/>
  <circle cx="17" cy="7" r="1" fill="white"/>
  <circle cx="18" cy="7" r="1" fill="white"/>
  <circle cx="19" cy="7" r="1" fill="white"/>
  <circle cx="20" cy="7" r="1" fill="white"/>
  <circle cx="21" cy="7" r="1" fill="white"/>
  <circle cx="0" cy="8" r="1" fill="white"/>
  <circle cx="1" cy="8" r="1" fill="white"/>
  <circle cx="2" cy="8" r="1" fill="white"/>
  <circle cx="3" cy="8" r="1" fill="white"/>
  <circle cx="4" cy="8" r="1" fill="white"/>
  <circle cx="5" cy="8" r="1" fill="rgba(99.9878%,99.9222%,99.9176%,1)"/>
  <circle cx="6" cy="8" r="1" fill="rgba(95.2941%,70.3685%,68.4825%,1)"/>
  <circle cx="7" cy="8" r="1" fill="rgba(88.9631%,31.1772%,27.0726%,1)"/>
  <circle cx="8" cy="8" r="1" fill="rgba(88.249%,26.5431%,22.269%,1)"/>
  <circle cx="9" cy="8" r="1" fill="rgba(92.99%,55.9213%,53.2677%,1)"/>
  <circle cx="10" cy="8" r="1" fill="rgba(95.1858%,70.6218%,68.835%,1)"/>
  <circle cx="11" cy="8" r="1" fill="rgba(88.0552%,25.7252%,21.236%,1)"/>
  <circle cx="12" cy="8" r="1" fill="rgba(88.426%,27.7562%,23.2929%,1)"/>
  <circle cx="13" cy="8" r="1" fill="rgba(93.0907%,56.6598%,53.9467%,1)"/>
  <circle cx="14" cy="8" r="1" fill="rgba(97.6318%,84.5838%,83.7385%,1)"/>
  <circle cx="15" cy="8" r="1" fill="rgba(99.3988%,96.4126%,96.1944%,1)"/>
  <circle cx="16" cy="8" r="1" fill="white"/>
  <circle cx="17" cy="8" r="1" fill="white"/>
  <circle cx="18" cy="8" r="1" fill="white"/>
  <circle cx="19" cy="8" r="1" fill="white"/>
  <circle cx="20" cy="8" r="1" fill="white"/>
  <circle cx="21" cy="8" r="1" fill="white"/>
  <circle cx="0" cy="9" r="1" fill="white"/>
  <circle cx="1" cy="9" r="1" fill="white"/>
  <circle cx="2" cy="9" r="1" fill="white"/>
  <circle cx="3" cy="9" r="1" fill="white"/>
  <circle cx="4" cy="9" r="1" fill="white"/>
  <circle cx="5" cy="9" r="1" fill="rgba(97.8592%,86.5187%,85.5879%,1)"/>
  <circle cx="6" cy="9" r="1" fill="rgba(90.6569%,41.7243%,38.0743%,1)"/>
  <circle cx="7" cy="9" r="1" fill="rgba(88.1773%,26.0502%,21.7182%,1)"/>
  <circle cx="8" cy="9" r="1" fill="rgba(95.3445%,70.6493%,68.9158%,1)"/>
  <circle cx="9" cy="9" r="1" fill="rgba(99.2218%,95.0256%,94.7265%,1)"/>
  <circle cx="10" cy="9" r="1" fill="rgba(99.2782%,95.5962%,95.3246%,1)"/>
  <circle cx="11" cy="9" r="1" fill="rgba(91.9219%,49.0639%,45.9327%,1)"/>
  <circle cx="12" cy="9" r="1" fill="rgba(96.5423%,78.6648%,77.3007%,1)"/>
  <circle cx="13" cy="9" r="1" fill="rgba(99.1958%,94.9325%,94.6044%,1)"/>
  <circle cx="14" cy="9" r="1" fill="white"/>
  <circle cx="15" cy="9" r="1" fill="white"/>
  <circle cx="16" cy="9" r="1" fill="white"/>
  <circle cx="17" cy="9" r="1" fill="white"/>
  <circle cx="18" cy="9" r="1" fill="white"/>
  <circle cx="19" cy="9" r="1" fill="white"/>
  <circle cx="20" cy="9" r="1" fill="white"/>
  <circle cx="21" cy="9" r="1" fill="white"/>
  <circle cx="0" cy="10" r="1" fill="white"/>
  <circle cx="1" cy="10" r="1" fill="white"/>
  <circle cx="2" cy="10" r="1" fill="white"/>
  <circle cx="3" cy="10" r="1" fill="white"/>
  <circle cx="4" cy="10" r="1" fill="white"/>
  <circle cx="5" cy="10" r="1" fill="rgba(95.3613%,70.6447%,68.7831%,1)"/>
  <circle cx="6" cy="10" r="1" fill="rgba(88.1804%,26.0853%,21.5534%,1)"/>
  <circle cx="7" cy="10" r="1" fill="rgba(92.665%,53.9971%,51.2108%,1)"/>
  <circle cx="8" cy="10" r="1" fill="rgba(99.0616%,93.9666%,93.5897%,1)"/>
  <circle cx="9" cy="10" r="1" fill="white"/>
  <circle cx="10" cy="10" r="1" fill="rgba(99.9405%,99.6124%,99.588%,1)"/>
  <circle cx="11" cy="10" r="1" fill="rgba(99.147%,94.5846%,94.2473%,1)"/>
  <circle cx="12" cy="10" r="1" fill="rgba(99.8779%,99.2828%,99.2325%,1)"/>
  <circle cx="13" cy="10" r="1" fill="white"/>
  <circle cx="14" cy="10" r="1" fill="white"/>
  <circle cx="15" cy="10" r="1" fill="white"/>
  <circle cx="16" cy="10" r="1" fill="white"/>
  <circle cx="17" cy="10" r="1" fill="white"/>
  <circle cx="18" cy="10" r="1" fill="white"/>
  <circle cx="19" cy="10" r="1" fill="white"/>
  <circle cx="20" cy="10" r="1" fill="white"/>
  <circle cx="21" cy="10" r="1" fill="white"/>
  <circle cx="0" cy="11" r="1" fill="white"/>
  <circle cx="1" cy="11" r="1" fill="white"/>
  <circle cx="2" cy="11" r="1" fill="white"/>
  <circle cx="3" cy="11" r="1" fill="white"/>
  <circle cx="4" cy="11" r="1" fill="white"/>
  <circle cx="5" cy="11" r="1" fill="rgba(94.1665%,63.1876%,61.0254%,1)"/>
  <circle cx="6" cy="11" r="1" fill="rgba(87.0985%,19.295%,14.4793%,1)"/>
  <circle cx="7" cy="11" r="1" fill="rgba(95.1949%,70.7683%,68.893%,1)"/>
  <circle cx="8" cy="11" r="1" fill="rgba(99.9649%,99.7696%,99.7543%,1)"/>
  <circle cx="9" cy="11" r="1" fill="white"/>
  <circle cx="10" cy="11" r="1" fill="white"/>
  <circle cx="11" cy="11" r="1" fill="white"/>
  <circle cx="12" cy="11" r="1" fill="white"/>
  <circle cx="13" cy="11" r="1" fill="white"/>
  <circle cx="14" cy="11" r="1" fill="rgba(99.469%,96.7498%,96.5423%,1)"/>
  <circle cx="15" cy="11" r="1" fill="rgba(98.4665%,90.4082%,89.8405%,1)"/>
  <circle cx="16" cy="11" r="1" fill="rgba(99.2996%,95.5749%,95.3201%,1)"/>
  <circle cx="17" cy="11" r="1" fill="white"/>
  <circle cx="18" cy="11" r="1" fill="white"/>
  <circle cx="19" cy="11" r="1" fill="white"/>
  <circle cx="20" cy="11" r="1" fill="white"/>
  <circle cx="21" cy="11" r="1" fill="white"/>
  <circle cx="0" cy="12" r="1" fill="white"/>
  <circle cx="1" cy="12" r="1" fill="white"/>
  <circle cx="2" cy="12" r="1" fill="white"/>
  <circle cx="3" cy="12" r="1" fill="white"/>
  <circle cx="4" cy="12" r="1" fill="white"/>
  <circle cx="5" cy="12" r="1" fill="rgba(94.1207%,63.7888%,61.5396%,1)"/>
  <circle cx="6" cy="12" r="1" fill="rgba(87.068%,19.8413%,14.9554%,1)"/>
  <circle cx="7" cy="12" r="1" fill="rgba(94.9981%,69.6315%,67.7409%,1)"/>
  <circle cx="8" cy="12" r="1" fill="rgba(99.9023%,99.4034%,99.3835%,1)"/>
  <circle cx="9" cy="12" r="1" fill="white"/>
  <circle cx="10" cy="12" r="1" fill="white"/>
  <circle cx="11" cy="12" r="1" fill="white"/>
  <circle cx="12" cy="12" r="1" fill="white"/>
  <circle cx="13" cy="12" r="1" fill="rgba(99.9023%,99.382%,99.3423%,1)"/>
  <circle cx="14" cy="12" r="1" fill="rgba(95.14%,70.0664%,68.1819%,1)"/>
  <circle cx="15" cy="12" r="1" fill="rgba(87.628%,22.7405%,18.117%,1)"/>
  <circle cx="16" cy="12" r="1" fill="rgba(94.4778%,65.2827%,63.2288%,1)"/>
  <circle cx="17" cy="12" r="1" fill="white"/>
  <circle cx="18" cy="12" r="1" fill="white"/>
  <circle cx="19" cy="12" r="1" fill="white"/>
  <circle cx="20" cy="12" r="1" fill="white"/>
  <circle cx="21" cy="12" r="1" fill="white"/>
  <circle cx="0" cy="13" r="1" fill="white"/>
  <circle cx="1" cy="13" r="1" fill="white"/>
  <circle cx="2" cy="13" r="1" fill="white"/>
  <circle cx="3" cy="13" r="1" fill="white"/>
  <circle cx="4" cy="13" r="1" fill="white"/>
  <circle cx="5" cy="13" r="1" fill="rgba(95.7519%,73.0159%,71.4748%,1)"/>
  <circle cx="6" cy="13" r="1" fill="rgba(88.5115%,28.0842%,23.8163%,1)"/>
  <circle cx="7" cy="13" r="1" fill="rgba(91.9402%,49.9519%,47.0863%,1)"/>
  <circle cx="8" cy="13" r="1" fill="rgba(98.822%,92.6513%,92.2484%,1)"/>
  <circle cx="9" cy="13" r="1" fill="white"/>
  <circle cx="10" cy="13" r="1" fill="white"/>
  <circle cx="11" cy="13" r="1" fill="white"/>
  <circle cx="12" cy="13" r="1" fill="white"/>
  <circle cx="13" cy="13" r="1" fill="rgba(98.8144%,92.5063%,91.9951%,1)"/>
  <circle cx="14" cy="13" r="1" fill="rgba(91.9402%,49.6391%,46.5064%,1)"/>
  <circle cx="15" cy="13" r="1" fill="rgba(88.513%,28.5771%,24.181%,1)"/>
  <circle cx="16" cy="13" r="1" fill="rgba(95.7534%,73.5973%,71.902%,1)"/>
  <circle cx="17" cy="13" r="1" fill="white"/>
  <circle cx="18" cy="13" r="1" fill="white"/>
  <circle cx="19" cy="13" r="1" fill="white"/>
  <circle cx="20" cy="13" r="1" fill="white"/>
  <circle cx="21" cy="13" r="1" fill="white"/>
  <circle cx="0" cy="14" r="1" fill="white"/>
  <circle cx="1" cy="14" r="1" fill="white"/>
  <circle cx="2" cy="14" r="1" fill="white"/>
  <circle cx="3" cy="14" r="1" fill="white"/>
  <circle cx="4" cy="14" r="1" fill="white"/>
  <circle cx="5" cy="14" r="1" fill="rgba(98.4894%,90.1625%,89.5766%,1)"/>
  <circle cx="6" cy="14" r="1" fill="rgba(91.3634%,45.8961%,42.5803%,1)"/>
  <circle cx="7" cy="14" r="1" fill="rgba(88.0247%,25.4749%,20.9873%,1)"/>
  <circle cx="8" cy="14" r="1" fill="rgba(94.0917%,62.9419%,60.737%,1)"/>
  <circle cx="9" cy="14" r="1" fill="rgba(98.5565%,90.7866%,90.2312%,1)"/>
  <circle cx="10" cy="14" r="1" fill="rgba(99.9893%,100%,100%,1)"/>
  <circle cx="11" cy="14" r="1" fill="rgba(99.9878%,100%,100%,1)"/>
  <circle cx="12" cy="14" r="1" fill="rgba(98.5855%,91.0323%,90.4753%,1)"/>
  <circle cx="13" cy="14" r="1" fill="rgba(94.197%,63.389%,61.1093%,1)"/>
  <circle cx="14" cy="14" r="1" fill="rgba(88.0232%,25.3056%,20.6989%,1)"/>
  <circle cx="15" cy="14" r="1" fill="rgba(91.3619%,46.2165%,43.0655%,1)"/>
  <circle cx="16" cy="14" r="1" fill="rgba(98.4894%,90.4387%,89.8558%,1)"/>
  <circle cx="17" cy="14" r="1" fill="white"/>
  <circle cx="18" cy="14" r="1" fill="white"/>
  <circle cx="19" cy="14" r="1" fill="white"/>
  <circle cx="20" cy="14" r="1" fill="white"/>
  <circle cx="21" cy="14" r="1" fill="white"/>
  <circle cx="0" cy="15" r="1" fill="white"/>
  <circle cx="1" cy="15" r="1" fill="white"/>
  <circle cx="2" cy="15" r="1" fill="white"/>
  <circle cx="3" cy="15" r="1" fill="white"/>
  <circle cx="4" cy="15" r="1" fill="white"/>
  <circle cx="5" cy="15" r="1" fill="white"/>
  <circle cx="6" cy="15" r="1" fill="rgba(96.3226%,76.8276%,75.3567%,1)"/>
  <circle cx="7" cy="15" r="1" fill="rgba(89.6788%,35.6237%,31.8273%,1)"/>
  <circle cx="8" cy="15" r="1" fill="rgba(87.7913%,23.7919%,19.3423%,1)"/>
  <circle cx="9" cy="15" r="1" fill="rgba(91.5785%,47.2404%,44.0589%,1)"/>
  <circle cx="10" cy="15" r="1" fill="rgba(94.1344%,63.9872%,61.7197%,1)"/>
  <circle cx="11" cy="15" r="1" fill="rgba(94.1314%,63.8285%,61.5579%,1)"/>
  <circle cx="12" cy="15" r="1" fill="rgba(91.6258%,47.6509%,44.4648%,1)"/>
  <circle cx="13" cy="15" r="1" fill="rgba(87.9713%,24.7166%,20.2182%,1)"/>
  <circle cx="14" cy="15" r="1" fill="rgba(89.6742%,35.874%,31.9814%,1)"/>
  <circle cx="15" cy="15" r="1" fill="rgba(96.321%,77.0687%,75.7488%,1)"/>
  <circle cx="16" cy="15" r="1" fill="white"/>
  <circle cx="17" cy="15" r="1" fill="white"/>
  <circle cx="18" cy="15" r="1" fill="white"/>
  <circle cx="19" cy="15" r="1" fill="white"/>
  <circle cx="20" cy="15" r="1" fill="white"/>
  <circle cx="21" cy="15" r="1" fill="white"/>
  <circle cx="0" cy="16" r="1" fill="white"/>
  <circle cx="1" cy="16" r="1" fill="white"/>
  <circle cx="2" cy="16" r="1" fill="white"/>
  <circle cx="3" cy="16" r="1" fill="white"/>
  <circle cx="4" cy="16" r="1" fill="white"/>
  <circle cx="5" cy="16" r="1" fill="white"/>
  <circle cx="6" cy="16" r="1" fill="rgba(99.9573%,99.4339%,99.4354%,1)"/>
  <circle cx="7" cy="16" r="1" fill="rgba(96.4416%,77.9782%,76.8154%,1)"/>
  <circle cx="8" cy="16" r="1" fill="rgba(91.783%,49.0135%,45.9724%,1)"/>
  <circle cx="9" cy="16" r="1" fill="rgba(88.6091%,28.7434%,24.3641%,1)"/>
  <circle cx="10" cy="16" r="1" fill="rgba(86.9993%,18.8464%,14.0749%,1)"/>
  <circle cx="11" cy="16" r="1" fill="rgba(87.0008%,18.8525%,14.1085%,1)"/>
  <circle cx="12" cy="16" r="1" fill="rgba(88.6061%,28.7541%,24.5441%,1)"/>
  <circle cx="13" cy="16" r="1" fill="rgba(91.7739%,49.2332%,46.1387%,1)"/>
  <circle cx="14" cy="16" r="1" fill="rgba(96.4431%,78.3322%,76.9482%,1)"/>
  <circle cx="15" cy="16" r="1" fill="rgba(99.9573%,99.5483%,99.4141%,1)"/>
  <circle cx="16" cy="16" r="1" fill="white"/>
  <circle cx="17" cy="16" r="1" fill="white"/>
  <circle cx="18" cy="16" r="1" fill="white"/>
  <circle cx="19" cy="16" r="1" fill="white"/>
  <circle cx="20" cy="16" r="1" fill="white"/>
  <circle cx="21" cy="16" r="1" fill="white"/>
  <circle cx="0" cy="17" r="1" fill="white"/>
  <circle cx="1" cy="17" r="1" fill="white"/>
  <circle cx="2" cy="17" r="1" fill="white"/>
  <circle cx="3" cy="17" r="1" fill="white"/>
  <circle cx="4" cy="17" r="1" fill="white"/>
  <circle cx="5" cy="17" r="1" fill="white"/>
  <circle cx="6" cy="17" r="1" fill="white"/>
  <circle cx="7" cy="17" r="1" fill="white"/>
  <circle cx="8" cy="17" r="1" fill="rgba(98.6374%,91.5587%,91.046%,1)"/>
  <circle cx="9" cy="17" r="1" fill="rgba(96.3424%,76.8948%,75.4345%,1)"/>
  <circle cx="10" cy="17" r="1" fill="rgba(95.082%,69.1798%,67.4189%,1)"/>
  <circle cx="11" cy="17" r="1" fill="rgba(95.0835%,69.1783%,67.4403%,1)"/>
  <circle cx="12" cy="17" r="1" fill="rgba(96.3439%,76.9253%,75.6054%,1)"/>
  <circle cx="13" cy="17" r="1" fill="rgba(98.6374%,91.7342%,91.2245%,1)"/>
  <circle cx="14" cy="17" r="1" fill="white"/>
  <circle cx="15" cy="17" r="1" fill="white"/>
  <circle cx="16" cy="17" r="1" fill="white"/>
  <circle cx="17" cy="17" r="1" fill="white"/>
  <circle cx="18" cy="17" r="1" fill="white"/>
  <circle cx="19" cy="17" r="1" fill="white"/>
  <circle cx="20" cy="17" r="1" fill="white"/>
  <circle cx="21" cy="17" r="1" fill="white"/>
  <circle cx="0" cy="18" r="1" fill="white"/>
  <circle cx="1" cy="18" r="1" fill="white"/>
  <circle cx="2" cy="18" r="1" fill="white"/>
  <circle cx="3" cy="18" r="1" fill="white"/>
  <circle cx="4" cy="18" r="1" fill="white"/>
  <circle cx="5" cy="18" r="1" fill="white"/>
  <circle cx="6" cy="18" r="1" fill="white"/>
  <circle cx="7" cy="18" r="1" fill="white"/>
  <circle cx="8" cy="18" r="1" fill="white"/>
  <circle cx="9" cy="18" r="1" fill="white"/>
  <circle cx="10" cy="18" r="1" fill="white"/>
  <circle cx="11" cy="18" r="1" fill="white"/>
  <circle cx="12" cy="18" r="1" fill="white"/>
  <circle cx="13" cy="18" r="1" fill="white"/>
  <circle cx="14" cy="18" r="1" fill="white"/>
  <circle cx="15" cy="18" r="1" fill="white"/>
  <circle cx="16" cy="18" r="1" fill="white"/>
  <circle cx="17" cy="18" r="1" fill="white"/>
  <circle cx="18" cy="18" r="1" fill="white"/>
  <circle cx="19" cy="18" r="1" fill="white"/>
  <circle cx="20" cy="18" r="1" fill="white"/>
  <circle cx="21" cy="18" r="1" fill="white"/>
  <circle cx="0" cy="19" r="1" fill="white"/>
  <circle cx="1" cy="19" r="1" fill="white"/>
  <circle cx="2" cy="19" r="1" fill="white"/>
  <circle cx="3" cy="19" r="1" fill="white"/>
  <circle cx="4" cy="19" r="1" fill="white"/>
  <circle cx="5" cy="19" r="1" fill="white"/>
  <circle cx="6" cy="19" r="1" fill="white"/>
  <circle cx="7" cy="19" r="1" fill="white"/>
  <circle cx="8" cy="19" r="1" fill="white"/>
  <circle cx="9" cy="19" r="1" fill="white"/>
  <circle cx="10" cy="19" r="1" fill="white"/>
  <circle cx="11" cy="19" r="1" fill="white"/>
  <circle cx="12" cy="19" r="1" fill="white"/>
  <circle cx="13" cy="19" r="1" fill="white"/>
  <circle cx="14" cy="19" r="1" fill="white"/>
  <circle cx="15" cy="19" r="1" fill="white"/>
  <circle cx="16" cy="19" r="1" fill="white"/>
  <circle cx="17" cy="19" r="1" fill="white"/>
  <circle cx="18" cy="19" r="1" fill="white"/>
  <circle cx="19" cy="19" r="1" fill="white"/>
  <circle cx="20" cy="19" r="1" fill="white"/>
  <circle cx="21" cy="19" r="1" fill="white"/>
  <circle cx="0" cy="20" r="1" fill="white"/>
  <circle cx="1" cy="20" r="1" fill="white"/>
  <circle cx="2" cy="20" r="1" fill="white"/>
  <circle cx="3" cy="20" r="1" fill="white"/>
  <circle cx="4" cy="20" r="1" fill="white"/>
  <circle cx="5" cy="20" r="1" fill="white"/>
  <circle cx="6" cy="20" r="1" fill="white"/>
  <circle cx="7" cy="20" r="1" fill="white"/>
  <circle cx="8" cy="20" r="1" fill="white"/>
  <circle cx="9" cy="20" r="1" fill="white"/>
  <circle cx="10" cy="20" r="1" fill="white"/>
  <circle cx="11" cy="20" r="1" fill="white"/>
  <circle cx="12" cy="20" r="1" fill="white"/>
  <circle cx="13" cy="20" r="1" fill="white"/>
  <circle cx="14" cy="20" r="1" fill="white"/>
  <circle cx="15" cy="20" r="1" fill="white"/>
  <circle cx="16" cy="20" r="1" fill="white"/>
  <circle cx="17" cy="20" r="1" fill="white"/>
  <circle cx="18" cy="20" r="1" fill="white"/>
  <circle cx="19" cy="20" r="1" fill="white"/>
  <circle cx="20" cy="20" r="1" fill="white"/>
  <circle cx="21" cy="20" r="1" fill="white"/>
  <circle cx="0" cy="21" r="1" fill="white"/>
  <circle cx="1" cy="21" r="1" fill="white"/>
  <circle cx="2" cy="21" r="1" fill="white"/>
  <circle cx="3" cy="21" r="1" fill="white"/>
  <circle cx="4" cy="21" r="1" fill="white"/>
  <circle cx="5" cy="21" r="1" fill="white"/>
  <circle cx="6" cy="21" r="1" fill="white"/>
  <circle cx="7" cy="21" r="1" fill="white"/>
  <circle cx="8" cy="21" r="1" fill="white"/>
  <circle cx="9" cy="21" r="1" fill="white"/>
  <circle cx="10" cy="21" r="1" fill="white"/>
  <circle cx="11" cy="21" r="1" fill="white"/>
  <circle cx="12" cy="21" r="1" fill="white"/>
  <circle cx="13" cy="21" r="1" fill="white"/>
  <circle cx="14" cy="21" r="1" fill="white"/>
  <circle cx="15" cy="21" r="1" fill="white"/>
  <circle cx="16" cy="21" r="1" fill="white"/>
  <circle cx="17" cy="21" r="1" fill="white"/>
  <circle cx="18" cy="21" r="1" fill="white"/>
  <circle cx="19" cy="21" r="1" fill="white"/>
  <circle cx="20" cy="21" r="1" fill="white"/>
  <circle cx="21" cy="21" r="1" fill="white"/>
</svg>
