<?xml version="1.0" standalone="no"?>
<!DOCTYPE svg PUBLIC "-//W3C//DTD SVG 20010904//EN"
  "http://www.w3.org/TR/2001/REC-SVG-20010904/DTD/svg10.dtd">
<svg width="22" height="22">
  <circle cx="0" cy="0" r="1" fill="white"/>
  <circle cx="1" cy="0" r="1" fill="white"/>
  <circle cx="2" cy="0" r="1" fill="white"/>
  <circle cx="3" cy="0" r="1" fill="white"/>
  <circle cx="4" cy="0" r="1" fill="white"/>
  <circle cx="5" cy="0" r="1" fill="white"/>
  <circle cx="6" cy="0" r="1" fill="white"/>
  <circle cx="7" cy="0" r="1" fill="white"/>
  <circle cx="8" cy="0" r="1" fill="white"/>
  <circle cx="9" cy="0" r="1" fill="white"/>
  <circle cx="10" cy="0" r="1" fill="white"/>
  <circle cx="11" cy="0" r="1" fill="white"/>
  <circle cx="12" cy="0" r="1" fill="white"/>
  <circle cx="13" cy="0" r="1" fill="white"/>
  <circle cx="14" cy="0" r="1" fill="white"/>
  <circle cx="15" cy="0" r="1" fill="white"/>
  <circle cx="16" cy="0" r="1" fill="white"/>
  <circle cx="17" cy="0" r="1" fill="white"/>
  <circle cx="18" cy="0" r="1" fill="white"/>
  <circle cx="19" cy="0" r="1" fill="white"/>
  <circle cx="20" cy="0" r="1" fill="white"/>
  <circle cx="21" cy="0" r="1" fill="white"/>
  <circle cx="0" cy="1" r="1" fill="white"/>
  <circle cx="1" cy="1" r="1" fill="white"/>
  <circle cx="2" cy="1" r="1" fill="white"/>
  <circle cx="3" cy="1" r="1" fill="white"/>
  <circle cx="4" cy="1" r="1" fill="white"/>
  <circle cx="5" cy="1" r="1" fill="white"/>
  <circle cx="6" cy="1" r="1" fill="white"/>
  <circle cx="7" cy="1" r="1" fill="white"/>
  <circle cx="8" cy="1" r="1" fill="white"/>
  <circle cx="9" cy="1" r="1" fill="white"/>
  <circle cx="10" cy="1" r="1" fill="white"/>
  <circle cx="11" cy="1" r="1" fill="white"/>
  <circle cx="12" cy="1" r="1" fill="white"/>
  <circle cx="13" cy="1" r="1" fill="white"/>
  <circle cx="14" cy="1" r="1" fill="white"/>
  <circle cx="15" cy="1" r="1" fill="white"/>
  <circle cx="16" cy="1" r="1" fill="white"/>
  <circle cx="17" cy="1" r="1" fill="white"/>
  <circle cx="18" cy="1" r="1" fill="white"/>
  <circle cx="19" cy="1" r="1" fill="white"/>
  <circle cx="20" cy="1" r="1" fill="white"/>
  <circle cx="21" cy="1" r="1" fill="white"/>
  <circle cx="0" cy="2" r="1" fill="white"/>
  <circle cx="1" cy="2" r="1" fill="white"/>
  <circle cx="2" cy="2" r="1" fill="white"/>
  <circle cx="3" cy="2" r="1" fill="white"/>
  <circle cx="4" cy="2" r="1" fill="white"/>
  <circle cx="5" cy="2" r="1" fill="white"/>
  <circle cx="6" cy="2" r="1" fill="white"/>
  <circle cx="7" cy="2" r="1" fill="white"/>
  <circle cx="8" cy="2" r="1" fill="white"/>
  <circle cx="9" cy="2" r="1" fill="white"/>
  <circle cx="10" cy="2" r="1" fill="white"/>
  <circle cx="11" cy="2" r="1" fill="white"/>
  <circle cx="12" cy="2" r="1" fill="white"/>
  <circle cx="13" cy="2" r="1" fill="white"/>
  <circle cx="14" cy="2" r="1" fill="white"/>
  <circle cx="15" cy="2" r="1" fill="white"/>
  <circle cx="16" cy="2" r="1" fill="white"/>
  <circle cx="17" cy="2" r="1" fill="white"/>
  <circle cx="18" cy="2" r="1" fill="white"/>
  <circle cx="19" cy="2" r="1" fill="white"/>
  <circle cx="20" cy="2" r="1" fill="white"/>
  <circle cx="21" cy="2" r="1" fill="white"/>
  <circle cx="0" cy="3" r="1" fill="white"/>
  <circle cx="1" cy="3" r="1" fill="white"/>
  <circle cx="2" cy="3" r="1" fill="white"/>
  <circle cx="3" cy="3" r="1" fill="white"/>
  <circle cx="4" cy="3" r="1" fill="white"/>
  <circle cx="5" cy="3" r="1" fill="white"/>
  <circle cx="6" cy="3" r="1" fill="white"/>
  <circle cx="7" cy="3" r="1" fill="white"/>
  <circle cx="8" cy="3" r="1" fill="white"/>
  <circle cx="9" cy="3" r="1" fill="rgba(99.9069%,99.4263%,99.3896%,1)"/>
  <circle cx="10" cy="3" r="1" fill="rgba(97.4853%,84.6235%,83.6423%,1)"/>
  <circle cx="11" cy="3" r="1" fill="rgba(97.7737%,86.4347%,85.6458%,1)"/>
  <circle cx="12" cy="3" r="1" fill="rgba(99.9191%,99.5087%,99.4797%,1)"/>
  <circle cx="13" cy="3" r="1" fill="white"/>
  <circle cx="14" cy="3" r="1" fill="white"/>
  <circle cx="15" cy="3" r="1" fill="white"/>
  <circle cx="16" cy="3" r="1" fill="white"/>
  <circle cx="17" cy="3" r="1" fill="white"/>
  <circle cx="18" cy="3" r="1" fill="white"/>
  <circle cx="19" cy="3" r="1" fill="white"/>
  <circle cx="20" cy="3" r="1" fill="white"/>
  <circle cx="21" cy="3" r="1" fill="white"/>
  <circle cx="0" cy="4" r="1" fill="white"/>
  <circle cx="1" cy="4" r="1" fill="white"/>
  <circle cx="2" cy="4" r="1" fill="white"/>
  <circle cx="3" cy="4" r="1" fill="white"/>
  <circle cx="4" cy="4" r="1" fill="white"/>
  <circle cx="5" cy="4" r="1" fill="white"/>
  <circle cx="6" cy="4" r="1" fill="white"/>
  <circle cx="7" cy="4" r="1" fill="white"/>
  <circle cx="8" cy="4" r="1" fill="white"/>
  <circle cx="9" cy="4" r="1" fill="rgba(99.6628%,97.9141%,97.7844%,1)"/>
  <circle cx="10" cy="4" r="1" fill="rgba(90.5867%,41.9181%,38.3337%,1)"/>
  <circle cx="11" cy="4" r="1" fill="rgba(91.4824%,47.7058%,44.7196%,1)"/>
  <circle cx="12" cy="4" r="1" fill="rgba(99.7055%,98.1964%,98.0957%,1)"/>
  <circle cx="13" cy="4" r="1" fill="white"/>
  <circle cx="14" cy="4" r="1" fill="white"/>
  <circle cx="15" cy="4" r="1" fill="white"/>
  <circle cx="16" cy="4" r="1" fill="white"/>
  <circle cx="17" cy="4" r="1" fill="white"/>
  <circle cx="18" cy="4" r="1" fill="white"/>
  <circle cx="19" cy="4" r="1" fill="white"/>
  <circle cx="20" cy="4" r="1" fill="white"/>
  <circle cx="21" cy="4" r="1" fill="white"/>
  <circle cx="0" cy="5" r="1" fill="white"/>
  <circle cx="1" cy="5" r="1" fill="white"/>
  <circle cx="2" cy="5" r="1" fill="white"/>
  <circle cx="3" cy="5" r="1" fill="white"/>
  <circle cx="4" cy="5" r="1" fill="white"/>
  <circle cx="5" cy="5" r="1" fill="white"/>
  <circle cx="6" cy="5" r="1" fill="white"/>
  <circle cx="7" cy="5" r="1" fill="rgba(98.6145%,91.5785%,91.1559%,1)"/>
  <circle cx="8" cy="5" r="1" fill="rgba(98.6862%,91.8425%,91.4168%,1)"/>
  <circle cx="9" cy="5" r="1" fill="rgba(99.4278%,96.4599%,96.2554%,1)"/>
  <circle cx="10" cy="5" r="1" fill="rgba(88.8731%,30.8202%,26.6758%,1)"/>
  <circle cx="11" cy="5" r="1" fill="rgba(89.7459%,36.6537%,33.0938%,1)"/>
  <circle cx="12" cy="5" r="1" fill="rgba(99.4308%,96.4645%,96.2463%,1)"/>
  <circle cx="13" cy="5" r="1" fill="rgba(98.6114%,91.2062%,90.634%,1)"/>
  <circle cx="14" cy="5" r="1" fill="rgba(98.8266%,92.3934%,91.9738%,1)"/>
  <circle cx="15" cy="5" r="1" fill="white"/>
  <circle cx="16" cy="5" r="1" fill="white"/>
  <circle cx="17" cy="5" r="1" fill="white"/>
  <circle cx="18" cy="5" r="1" fill="white"/>
  <circle cx="19" cy="5" r="1" fill="white"/>
  <circle cx="20" cy="5" r="1" fill="white"/>
  <circle cx="21" cy="5" r="1" fill="white"/>
  <circle cx="0" cy="6" r="1" fill="white"/>
  <circle cx="1" cy="6" r="1" fill="white"/>
  <circle cx="2" cy="6" r="1" fill="white"/>
  <circle cx="3" cy="6" r="1" fill="white"/>
  <circle cx="4" cy="6" r="1" fill="white"/>
  <circle cx="5" cy="6" r="1" fill="rgba(99.9435%,99.501%,99.4934%,1)"/>
  <circle cx="6" cy="6" r="1" fill="rgba(96.4614%,77.8058%,76.5698%,1)"/>
  <circle cx="7" cy="6" r="1" fill="rgba(91.4687%,46.9139%,43.827%,1)"/>
  <circle cx="8" cy="6" r="1" fill="rgba(93.0114%,56.5179%,53.9223%,1)"/>
  <circle cx="9" cy="6" r="1" fill="rgba(98.5626%,91.0658%,90.5272%,1)"/>
  <circle cx="10" cy="6" r="1" fill="rgba(89.0257%,31.7876%,27.6967%,1)"/>
  <circle cx="11" cy="6" r="1" fill="rgba(89.9046%,37.6562%,34.1497%,1)"/>
  <circle cx="12" cy="6" r="1" fill="rgba(98.4283%,90.2464%,89.6529%,1)"/>
  <circle cx="13" cy="6" r="1" fill="rgba(92.401%,52.6589%,49.7673%,1)"/>
  <circle cx="14" cy="6" r="1" fill="rgba(91.8456%,49.1356%,46.0624%,1)"/>
  <circle cx="15" cy="6" r="1" fill="rgba(97.0077%,81.2528%,80.1144%,1)"/>
  <circle cx="16" cy="6" r="1" fill="white"/>
  <circle cx="17" cy="6" r="1" fill="white"/>
  <circle cx="18" cy="6" r="1" fill="white"/>
  <circle cx="19" cy="6" r="1" fill="white"/>
  <circle cx="20" cy="6" r="1" fill="white"/>
  <circle cx="21" cy="6" r="1" fill="white"/>
  <circle cx="0" cy="7" r="1" fill="white"/>
  <circle cx="1" cy="7" r="1" fill="white"/>
  <circle cx="2" cy="7" r="1" fill="white"/>
  <circle cx="3" cy="7" r="1" fill="white"/>
  <circle cx="4" cy="7" r="1" fill="white"/>
  <circle cx="5" cy="7" r="1" fill="rgba(96.5805%,78.6175%,77.3083%,1)"/>
  <circle cx="6" cy="7" r="1" fill="rgba(89.8604%,36.318%,32.4727%,1)"/>
  <circle cx="7" cy="7" r="1" fill="rgba(88.3742%,27.1366%,22.8611%,1)"/>
  <circle cx="8" cy="7" r="1" fill="rgba(94.2931%,63.8666%,61.8372%,1)"/>
  <circle cx="9" cy="7" r="1" fill="rgba(99.0021%,93.6767%,93.3227%,1)"/>
  <circle cx="10" cy="7" r="1" fill="rgba(89.0043%,31.6625%,27.5624%,1)"/>
  <circle cx="11" cy="7" r="1" fill="rgba(89.8848%,37.5341%,34.02%,1)"/>
  <circle cx="12" cy="7" r="1" fill="rgba(98.8693%,92.8954%,92.4971%,1)"/>
  <circle cx="13" cy="7" r="1" fill="rgba(93.3577%,58.4665%,55.9915%,1)"/>
  <circle cx="14" cy="7" r="1" fill="rgba(87.9057%,25.1041%,20.4532%,1)"/>
  <circle cx="15" cy="7" r="1" fill="rgba(90.5394%,40.8194%,37.2976%,1)"/>
  <circle cx="16" cy="7" r="1" fill="rgba(97.2549%,82.4521%,81.4878%,1)"/>
  <circle cx="17" cy="7" r="1" fill="white"/>
  <circle cx="18" cy="7" r="1" fill="white"/>
  <circle cx="19" cy="7" r="1" fill="white"/>
  <circle cx="20" cy="7" r="1" fill="white"/>
  <circle cx="21" cy="7" r="1" fill="white"/>
  <circle cx="0" cy="8" r="1" fill="white"/>
  <circle cx="1" cy="8" r="1" fill="white"/>
  <circle cx="2" cy="8" r="1" fill="white"/>
  <circle cx="3" cy="8" r="1" fill="white"/>
  <circle cx="4" cy="8" r="1" fill="rgba(98.5931%,90.8446%,90.3029%,1)"/>
  <circle cx="5" cy="8" r="1" fill="rgba(91.812%,48.5878%,45.4795%,1)"/>
  <circle cx="6" cy="8" r="1" fill="rgba(88.3589%,27.454%,23.1189%,1)"/>
  <circle cx="7" cy="8" r="1" fill="rgba(94.7417%,66.92%,65.0889%,1)"/>
  <circle cx="8" cy="8" r="1" fill="rgba(99.2477%,95.0759%,94.8455%,1)"/>
  <circle cx="9" cy="8" r="1" fill="rgba(99.5911%,97.4182%,97.2717%,1)"/>
  <circle cx="10" cy="8" r="1" fill="rgba(88.9662%,31.426%,27.3121%,1)"/>
  <circle cx="11" cy="8" r="1" fill="rgba(89.839%,37.2488%,33.7194%,1)"/>
  <circle cx="12" cy="8" r="1" fill="rgba(99.6078%,97.5433%,97.4136%,1)"/>
  <circle cx="13" cy="8" r="1" fill="rgba(98.9761%,93.5821%,93.2174%,1)"/>
  <circle cx="14" cy="8" r="1" fill="rgba(93.7896%,61.6159%,59.2233%,1)"/>
  <circle cx="15" cy="8" r="1" fill="rgba(87.9362%,24.9119%,20.3128%,1)"/>
  <circle cx="16" cy="8" r="1" fill="rgba(92.5322%,53.0892%,50.2678%,1)"/>
  <circle cx="17" cy="8" r="1" fill="rgba(98.9868%,93.4615%,93.0495%,1)"/>
  <circle cx="18" cy="8" r="1" fill="white"/>
  <circle cx="19" cy="8" r="1" fill="white"/>
  <circle cx="20" cy="8" r="1" fill="white"/>
  <circle cx="21" cy="8" r="1" fill="white"/>
  <circle cx="0" cy="9" r="1" fill="white"/>
  <circle cx="1" cy="9" r="1" fill="white"/>
  <circle cx="2" cy="9" r="1" fill="white"/>
  <circle cx="3" cy="9" r="1" fill="white"/>
  <circle cx="4" cy="9" r="1" fill="rgba(96.3439%,77.2396%,75.9136%,1)"/>
  <circle cx="5" cy="9" r="1" fill="rgba(88.5801%,28.9479%,24.7242%,1)"/>
  <circle cx="6" cy="9" r="1" fill="rgba(92.3095%,51.6686%,48.7312%,1)"/>
  <circle cx="7" cy="9" r="1" fill="rgba(99.0326%,93.6675%,93.2906%,1)"/>
  <circle cx="8" cy="9" r="1" fill="white"/>
  <circle cx="9" cy="9" r="1" fill="rgba(99.5972%,97.5006%,97.348%,1)"/>
  <circle cx="10" cy="9" r="1" fill="rgba(89.0623%,32.0394%,27.9576%,1)"/>
  <circle cx="11" cy="9" r="1" fill="rgba(89.9321%,37.8439%,34.345%,1)"/>
  <circle cx="12" cy="9" r="1" fill="rgba(99.6414%,97.792%,97.6684%,1)"/>
  <circle cx="13" cy="9" r="1" fill="white"/>
  <circle cx="14" cy="9" r="1" fill="rgba(98.5245%,90.7713%,90.1854%,1)"/>
  <circle cx="15" cy="9" r="1" fill="rgba(91.5526%,47.3411%,44.0879%,1)"/>
  <circle cx="16" cy="9" r="1" fill="rgba(89.0562%,31.7357%,27.7272%,1)"/>
  <circle cx="17" cy="9" r="1" fill="rgba(96.73%,79.4873%,78.3413%,1)"/>
  <circle cx="18" cy="9" r="1" fill="white"/>
  <circle cx="19" cy="9" r="1" fill="white"/>
  <circle cx="20" cy="9" r="1" fill="white"/>
  <circle cx="21" cy="9" r="1" fill="white"/>
  <circle cx="0" cy="10" r="1" fill="white"/>
  <circle cx="1" cy="10" r="1" fill="white"/>
  <circle cx="2" cy="10" r="1" fill="white"/>
  <circle cx="3" cy="10" r="1" fill="white"/>
  <circle cx="4" cy="10" r="1" fill="rgba(95.0744%,69.6696%,67.7653%,1)"/>
  <circle cx="5" cy="10" r="1" fill="rgba(87.3442%,21.059%,16.286%,1)"/>
  <circle cx="6" cy="10" r="1" fill="rgba(94.9371%,67.7211%,65.8427%,1)"/>
  <circle cx="7" cy="10" r="1" fill="rgba(99.9573%,99.6933%,99.6674%,1)"/>
  <circle cx="8" cy="10" r="1" fill="white"/>
  <circle cx="9" cy="10" r="1" fill="rgba(99.7116%,98.2284%,98.117%,1)"/>
  <circle cx="10" cy="10" r="1" fill="rgba(92.2637%,52.4804%,49.4972%,1)"/>
  <circle cx="11" cy="10" r="1" fill="rgba(93.0755%,57.6593%,55.2178%,1)"/>
  <circle cx="12" cy="10" r="1" fill="rgba(99.7482%,98.4634%,98.3749%,1)"/>
  <circle cx="13" cy="10" r="1" fill="white"/>
  <circle cx="14" cy="10" r="1" fill="rgba(99.913%,99.44%,99.4034%,1)"/>
  <circle cx="15" cy="10" r="1" fill="rgba(94.4991%,65.7694%,63.5294%,1)"/>
  <circle cx="16" cy="10" r="1" fill="rgba(87.4067%,21.8418%,17.1359%,1)"/>
  <circle cx="17" cy="10" r="1" fill="rgba(95.2682%,70.8949%,69.1768%,1)"/>
  <circle cx="18" cy="10" r="1" fill="white"/>
  <circle cx="19" cy="10" r="1" fill="white"/>
  <circle cx="20" cy="10" r="1" fill="white"/>
  <circle cx="21" cy="10" r="1" fill="white"/>
  <circle cx="0" cy="11" r="1" fill="white"/>
  <circle cx="1" cy="11" r="1" fill="white"/>
  <circle cx="2" cy="11" r="1" fill="white"/>
  <circle cx="3" cy="11" r="1" fill="white"/>
  <circle cx="4" cy="11" r="1" fill="rgba(95.1965%,70.1228%,68.2078%,1)"/>
  <circle cx="5" cy="11" r="1" fill="rgba(87.3213%,21.2467%,16.289%,1)"/>
  <circle cx="6" cy="11" r="1" fill="rgba(94.844%,67.8355%,65.8885%,1)"/>
  <circle cx="7" cy="11" r="1" fill="rgba(99.9817%,99.9115%,99.9222%,1)"/>
  <circle cx="8" cy="11" r="1" fill="white"/>
  <circle cx="9" cy="11" r="1" fill="rgba(99.9802%,99.8795%,99.8718%,1)"/>
  <circle cx="10" cy="11" r="1" fill="rgba(99.472%,96.7666%,96.5606%,1)"/>
  <circle cx="11" cy="11" r="1" fill="rgba(99.5315%,97.1435%,96.9772%,1)"/>
  <circle cx="12" cy="11" r="1" fill="rgba(99.9832%,99.8962%,99.8901%,1)"/>
  <circle cx="13" cy="11" r="1" fill="white"/>
  <circle cx="14" cy="11" r="1" fill="rgba(99.9832%,99.9573%,99.9496%,1)"/>
  <circle cx="15" cy="11" r="1" fill="rgba(94.8165%,67.4708%,65.594%,1)"/>
  <circle cx="16" cy="11" r="1" fill="rgba(87.3243%,20.7691%,16.1837%,1)"/>
  <circle cx="17" cy="11" r="1" fill="rgba(95.2117%,69.9245%,68.1773%,1)"/>
  <circle cx="18" cy="11" r="1" fill="white"/>
  <circle cx="19" cy="11" r="1" fill="white"/>
  <circle cx="20" cy="11" r="1" fill="white"/>
  <circle cx="21" cy="11" r="1" fill="white"/>
  <circle cx="0" cy="12" r="1" fill="white"/>
  <circle cx="1" cy="12" r="1" fill="white"/>
  <circle cx="2" cy="12" r="1" fill="white"/>
  <circle cx="3" cy="12" r="1" fill="white"/>
  <circle cx="4" cy="12" r="1" fill="rgba(96.112%,75.9655%,74.4686%,1)"/>
  <circle cx="5" cy="12" r="1" fill="rgba(88.2826%,27.3091%,22.8595%,1)"/>
  <circle cx="6" cy="12" r="1" fill="rgba(93.0495%,56.8597%,54.4091%,1)"/>
  <circle cx="7" cy="12" r="1" fill="rgba(99.4308%,96.5301%,96.4096%,1)"/>
  <circle cx="8" cy="12" r="1" fill="white"/>
  <circle cx="9" cy="12" r="1" fill="white"/>
  <circle cx="10" cy="12" r="1" fill="white"/>
  <circle cx="11" cy="12" r="1" fill="white"/>
  <circle cx="12" cy="12" r="1" fill="white"/>
  <circle cx="13" cy="12" r="1" fill="white"/>
  <circle cx="14" cy="12" r="1" fill="rgba(99.4354%,96.7849%,96.5515%,1)"/>
  <circle cx="15" cy="12" r="1" fill="rgba(93.0541%,57.2534%,54.6105%,1)"/>
  <circle cx="16" cy="12" r="1" fill="rgba(88.2002%,26.8208%,22.5177%,1)"/>
  <circle cx="17" cy="12" r="1" fill="rgba(96.0433%,75.5779%,74.1909%,1)"/>
  <circle cx="18" cy="12" r="1" fill="white"/>
  <circle cx="19" cy="12" r="1" fill="white"/>
  <circle cx="20" cy="12" r="1" fill="white"/>
  <circle cx="21" cy="12" r="1" fill="white"/>
  <circle cx="0" cy="13" r="1" fill="white"/>
  <circle cx="1" cy="13" r="1" fill="white"/>
  <circle cx="2" cy="13" r="1" fill="white"/>
  <circle cx="3" cy="13" r="1" fill="white"/>
  <circle cx="4" cy="13" r="1" fill="rgba(98.1674%,88.3085%,87.6295%,1)"/>
  <circle cx="5" cy="13" r="1" fill="rgba(90.8583%,42.8504%,39.411%,1)"/>
  <circle cx="6" cy="13" r="1" fill="rgba(89.3858%,33.8064%,29.7642%,1)"/>
  <circle cx="7" cy="13" r="1" fill="rgba(96.8139%,80%,78.7655%,1)"/>
  <circle cx="8" cy="13" r="1" fill="rgba(99.9802%,99.8749%,99.8581%,1)"/>
  <circle cx="9" cy="13" r="1" fill="white"/>
  <circle cx="10" cy="13" r="1" fill="white"/>
  <circle cx="11" cy="13" r="1" fill="white"/>
  <circle cx="12" cy="13" r="1" fill="white"/>
  <circle cx="13" cy="13" r="1" fill="rgba(99.9588%,99.7086%,99.6994%,1)"/>
  <circle cx="14" cy="13" r="1" fill="rgba(96.7391%,79.4827%,78.2467%,1)"/>
  <circle cx="15" cy="13" r="1" fill="rgba(89.4087%,33.9132%,29.8787%,1)"/>
  <circle cx="16" cy="13" r="1" fill="rgba(90.547%,41.7212%,38.1247%,1)"/>
  <circle cx="17" cy="13" r="1" fill="rgba(97.9065%,87.3472%,86.5385%,1)"/>
  <circle cx="18" cy="13" r="1" fill="white"/>
  <circle cx="19" cy="13" r="1" fill="white"/>
  <circle cx="20" cy="13" r="1" fill="white"/>
  <circle cx="21" cy="13" r="1" fill="white"/>
  <circle cx="0" cy="14" r="1" fill="white"/>
  <circle cx="1" cy="14" r="1" fill="white"/>
  <circle cx="2" cy="14" r="1" fill="white"/>
  <circle cx="3" cy="14" r="1" fill="white"/>
  <circle cx="4" cy="14" r="1" fill="rgba(99.9496%,99.765%,99.7635%,1)"/>
  <circle cx="5" cy="14" r="1" fill="rgba(94.8791%,68.4504%,66.5034%,1)"/>
  <circle cx="6" cy="14" r="1" fill="rgba(87.9866%,26.0075%,21.4725%,1)"/>
  <circle cx="7" cy="14" r="1" fill="rgba(91.1086%,44.5411%,41.1322%,1)"/>
  <circle cx="8" cy="14" r="1" fill="rgba(96.9665%,80.6897%,79.5605%,1)"/>
  <circle cx="9" cy="14" r="1" fill="rgba(99.5331%,96.8093%,96.701%,1)"/>
  <circle cx="10" cy="14" r="1" fill="white"/>
  <circle cx="11" cy="14" r="1" fill="white"/>
  <circle cx="12" cy="14" r="1" fill="rgba(99.5056%,96.643%,96.3958%,1)"/>
  <circle cx="13" cy="14" r="1" fill="rgba(96.788%,79.5407%,78.3062%,1)"/>
  <circle cx="14" cy="14" r="1" fill="rgba(90.927%,43.2578%,39.8505%,1)"/>
  <circle cx="15" cy="14" r="1" fill="rgba(87.9942%,25.8549%,21.3199%,1)"/>
  <circle cx="16" cy="14" r="1" fill="rgba(94.8852%,68.1025%,66.1601%,1)"/>
  <circle cx="17" cy="14" r="1" fill="rgba(99.9542%,99.6628%,99.6643%,1)"/>
  <circle cx="18" cy="14" r="1" fill="white"/>
  <circle cx="19" cy="14" r="1" fill="white"/>
  <circle cx="20" cy="14" r="1" fill="white"/>
  <circle cx="21" cy="14" r="1" fill="white"/>
  <circle cx="0" cy="15" r="1" fill="white"/>
  <circle cx="1" cy="15" r="1" fill="white"/>
  <circle cx="2" cy="15" r="1" fill="white"/>
  <circle cx="3" cy="15" r="1" fill="white"/>
  <circle cx="4" cy="15" r="1" fill="white"/>
  <circle cx="5" cy="15" r="1" fill="rgba(99.0188%,94.0566%,93.7057%,1)"/>
  <circle cx="6" cy="15" r="1" fill="rgba(93.5027%,59.8962%,57.4258%,1)"/>
  <circle cx="7" cy="15" r="1" fill="rgba(88.0903%,25.5848%,20.9751%,1)"/>
  <circle cx="8" cy="15" r="1" fill="rgba(89.659%,35.1003%,31.2398%,1)"/>
  <circle cx="9" cy="15" r="1" fill="rgba(93.3043%,57.8576%,55.4559%,1)"/>
  <circle cx="10" cy="15" r="1" fill="rgba(95.0134%,68.8548%,66.9032%,1)"/>
  <circle cx="11" cy="15" r="1" fill="rgba(95.0134%,68.7343%,66.8727%,1)"/>
  <circle cx="12" cy="15" r="1" fill="rgba(93.2448%,57.5097%,54.8745%,1)"/>
  <circle cx="13" cy="15" r="1" fill="rgba(89.4743%,34.0246%,29.9855%,1)"/>
  <circle cx="14" cy="15" r="1" fill="rgba(88.101%,25.9876%,21.3825%,1)"/>
  <circle cx="15" cy="15" r="1" fill="rgba(93.5027%,59.8886%,57.4182%,1)"/>
  <circle cx="16" cy="15" r="1" fill="rgba(99.0188%,93.6767%,93.3272%,1)"/>
  <circle cx="17" cy="15" r="1" fill="white"/>
  <circle cx="18" cy="15" r="1" fill="white"/>
  <circle cx="19" cy="15" r="1" fill="white"/>
  <circle cx="20" cy="15" r="1" fill="white"/>
  <circle cx="21" cy="15" r="1" fill="white"/>
  <circle cx="0" cy="16" r="1" fill="white"/>
  <circle cx="1" cy="16" r="1" fill="white"/>
  <circle cx="2" cy="16" r="1" fill="white"/>
  <circle cx="3" cy="16" r="1" fill="white"/>
  <circle cx="4" cy="16" r="1" fill="white"/>
  <circle cx="5" cy="16" r="1" fill="white"/>
  <circle cx="6" cy="16" r="1" fill="rgba(98.9364%,93.1838%,92.723%,1)"/>
  <circle cx="7" cy="16" r="1" fill="rgba(94.6563%,66.7674%,64.7456%,1)"/>
  <circle cx="8" cy="16" r="1" fill="rgba(90.4814%,41.03%,37.583%,1)"/>
  <circle cx="9" cy="16" r="1" fill="rgba(88.0354%,25.6382%,21.1856%,1)"/>
  <circle cx="10" cy="16" r="1" fill="rgba(87.483%,21.9852%,17.0443%,1)"/>
  <circle cx="11" cy="16" r="1" fill="rgba(87.509%,21.9272%,17.2976%,1)"/>
  <circle cx="12" cy="16" r="1" fill="rgba(88.2429%,26.5461%,22.1195%,1)"/>
  <circle cx="13" cy="16" r="1" fill="rgba(90.6462%,42.0645%,38.6282%,1)"/>
  <circle cx="14" cy="16" r="1" fill="rgba(94.6532%,67.1168%,65.0919%,1)"/>
  <circle cx="15" cy="16" r="1" fill="rgba(98.9364%,93.579%,93.1167%,1)"/>
  <circle cx="16" cy="16" r="1" fill="white"/>
  <circle cx="17" cy="16" r="1" fill="white"/>
  <circle cx="18" cy="16" r="1" fill="white"/>
  <circle cx="19" cy="16" r="1" fill="white"/>
  <circle cx="20" cy="16" r="1" fill="white"/>
  <circle cx="21" cy="16" r="1" fill="white"/>
  <circle cx="0" cy="17" r="1" fill="white"/>
  <circle cx="1" cy="17" r="1" fill="white"/>
  <circle cx="2" cy="17" r="1" fill="white"/>
  <circle cx="3" cy="17" r="1" fill="white"/>
  <circle cx="4" cy="17" r="1" fill="white"/>
  <circle cx="5" cy="17" r="1" fill="white"/>
  <circle cx="6" cy="17" r="1" fill="white"/>
  <circle cx="7" cy="17" r="1" fill="rgba(99.8901%,99.3011%,99.324%,1)"/>
  <circle cx="8" cy="17" r="1" fill="rgba(97.8546%,86.7689%,86.0883%,1)"/>
  <circle cx="9" cy="17" r="1" fill="rgba(95.9075%,74.5708%,73.0739%,1)"/>
  <circle cx="10" cy="17" r="1" fill="rgba(95.1797%,69.9626%,68.0613%,1)"/>
  <circle cx="11" cy="17" r="1" fill="rgba(95.201%,70.0542%,68.2719%,1)"/>
  <circle cx="12" cy="17" r="1" fill="rgba(96.08%,75.3307%,73.8384%,1)"/>
  <circle cx="13" cy="17" r="1" fill="rgba(97.9858%,87.5517%,86.8696%,1)"/>
  <circle cx="14" cy="17" r="1" fill="rgba(99.8886%,99.263%,99.2859%,1)"/>
  <circle cx="15" cy="17" r="1" fill="white"/>
  <circle cx="16" cy="17" r="1" fill="white"/>
  <circle cx="17" cy="17" r="1" fill="white"/>
  <circle cx="18" cy="17" r="1" fill="white"/>
  <circle cx="19" cy="17" r="1" fill="white"/>
  <circle cx="20" cy="17" r="1" fill="white"/>
  <circle cx="21" cy="17" r="1" fill="white"/>
  <circle cx="0" cy="18" r="1" fill="white"/>
  <circle cx="1" cy="18" r="1" fill="white"/>
  <circle cx="2" cy="18" r="1" fill="white"/>
  <circle cx="3" cy="18" r="1" fill="white"/>
  <circle cx="4" cy="18" r="1" fill="white"/>
  <circle cx="5" cy="18" r="1" fill="white"/>
  <circle cx="6" cy="18" r="1" fill="white"/>
  <circle cx="7" cy="18" r="1" fill="white"/>
  <circle cx="8" cy="18" r="1" fill="white"/>
  <circle cx="9" cy="18" r="1" fill="white"/>
  <circle cx="10" cy="18" r="1" fill="white"/>
  <circle cx="11" cy="18" r="1" fill="white"/>
  <circle cx="12" cy="18" r="1" fill="white"/>
  <circle cx="13" cy="18" r="1" fill="white"/>
  <circle cx="14" cy="18" r="1" fill="white"/>
  <circle cx="15" cy="18" r="1" fill="white"/>
  <circle cx="16" cy="18" r="1" fill="white"/>
  <circle cx="17" cy="18" r="1" fill="white"/>
  <circle cx="18" cy="18" r="1" fill="white"/>
  <circle cx="19" cy="18" r="1" fill="white"/>
  <circle cx="20" cy="18" r="1" fill="white"/>
  <circle cx="21" cy="18" r="1" fill="white"/>
  <circle cx="0" cy="19" r="1" fill="white"/>
  <circle cx="1" cy="19" r="1" fill="white"/>
  <circle cx="2" cy="19" r="1" fill="white"/>
  <circle cx="3" cy="19" r="1" fill="white"/>
  <circle cx="4" cy="19" r="1" fill="white"/>
  <circle cx="5" cy="19" r="1" fill="white"/>
  <circle cx="6" cy="19" r="1" fill="white"/>
  <circle cx="7" cy="19" r="1" fill="white"/>
  <circle cx="8" cy="19" r="1" fill="white"/>
  <circle cx="9" cy="19" r="1" fill="white"/>
  <circle cx="10" cy="19" r="1" fill="white"/>
  <circle cx="11" cy="19" r="1" fill="white"/>
  <circle cx="12" cy="19" r="1" fill="white"/>
  <circle cx="13" cy="19" r="1" fill="white"/>
  <circle cx="14" cy="19" r="1" fill="white"/>
  <circle cx="15" cy="19" r="1" fill="white"/>
  <circle cx="16" cy="19" r="1" fill="white"/>
  <circle cx="17" cy="19" r="1" fill="white"/>
  <circle cx="18" cy="19" r="1" fill="white"/>
  <circle cx="19" cy="19" r="1" fill="white"/>
  <circle cx="20" cy="19" r="1" fill="white"/>
  <circle cx="21" cy="19" r="1" fill="white"/>
  <circle cx="0" cy="20" r="1" fill="white"/>
  <circle cx="1" cy="20" r="1" fill="white"/>
  <circle cx="2" cy="20" r="1" fill="white"/>
  <circle cx="3" cy="20" r="1" fill="white"/>
  <circle cx="4" cy="20" r="1" fill="white"/>
  <circle cx="5" cy="20" r="1" fill="white"/>
  <circle cx="6" cy="20" r="1" fill="white"/>
  <circle cx="7" cy="20" r="1" fill="white"/>
  <circle cx="8" cy="20" r="1" fill="white"/>
  <circle cx="9" cy="20" r="1" fill="white"/>
  <circle cx="10" cy="20" r="1" fill="white"/>
  <circle cx="11" cy="20" r="1" fill="white"/>
  <circle cx="12" cy="20" r="1" fill="white"/>
  <circle cx="13" cy="20" r="1" fill="white"/>
  <circle cx="14" cy="20" r="1" fill="white"/>
  <circle cx="15" cy="20" r="1" fill="white"/>
  <circle cx="16" cy="20" r="1" fill="white"/>
  <circle cx="17" cy="20" r="1" fill="white"/>
  <circle cx="18" cy="20" r="1" fill="white"/>
  <circle cx="19" cy="20" r="1" fill="white"/>
  <circle cx="20" cy="20" r="1" fill="white"/>
  <circle cx="21" cy="20" r="1" fill="white"/>
  <circle cx="0" cy="21" r="1" fill="white"/>
  <circle cx="1" cy="21" r="1" fill="white"/>
  <circle cx="2" cy="21" r="1" fill="white"/>
  <circle cx="3" cy="21" r="1" fill="white"/>
  <circle cx="4" cy="21" r="1" fill="white"/>
  <circle cx="5" cy="21" r="1" fill="white"/>
  <circle cx="6" cy="21" r="1" fill="white"/>
  <circle cx="7" cy="21" r="1" fill="white"/>
  <circle cx="8" cy="21" r="1" fill="white"/>
  <circle cx="9" cy="21" r="1" fill="white"/>
  <circle cx="10" cy="21" r="1" fill="white"/>
  <circle cx="11" cy="21" r="1" fill="white"/>
  <circle cx="12" cy="21" r="1" fill="white"/>
  <circle cx="13" cy="21" r="1" fill="white"/>
  <circle cx="14" cy="21" r="1" fill="white"/>
  <circle cx="15" cy="21" r="1" fill="white"/>
  <circle cx="16" cy="21" r="1" fill="white"/>
  <circle cx="17" cy="21" r="1" fill="white"/>
  <circle cx="18" cy="21" r="1" fill="white"/>
  <circle cx="19" cy="21" r="1" fill="white"/>
  <circle cx="20" cy="21" r="1" fill="white"/>
  <circle cx="21" cy="21" r="1" fill="white"/>
</svg>
