<?xml version="1.0" standalone="no"?>
<!DOCTYPE svg PUBLIC "-//W3C//DTD SVG 20010904//EN"
  "http://www.w3.org/TR/2001/REC-SVG-20010904/DTD/svg10.dtd">
<svg width="22" height="22">
  <circle cx="0" cy="0" r="1" fill="white"/>
  <circle cx="1" cy="0" r="1" fill="white"/>
  <circle cx="2" cy="0" r="1" fill="white"/>
  <circle cx="3" cy="0" r="1" fill="white"/>
  <circle cx="4" cy="0" r="1" fill="white"/>
  <circle cx="5" cy="0" r="1" fill="white"/>
  <circle cx="6" cy="0" r="1" fill="white"/>
  <circle cx="7" cy="0" r="1" fill="white"/>
  <circle cx="8" cy="0" r="1" fill="white"/>
  <circle cx="9" cy="0" r="1" fill="white"/>
  <circle cx="10" cy="0" r="1" fill="white"/>
  <circle cx="11" cy="0" r="1" fill="white"/>
  <circle cx="12" cy="0" r="1" fill="white"/>
  <circle cx="13" cy="0" r="1" fill="white"/>
  <circle cx="14" cy="0" r="1" fill="white"/>
  <circle cx="15" cy="0" r="1" fill="white"/>
  <circle cx="16" cy="0" r="1" fill="white"/>
  <circle cx="17" cy="0" r="1" fill="white"/>
  <circle cx="18" cy="0" r="1" fill="white"/>
  <circle cx="19" cy="0" r="1" fill="white"/>
  <circle cx="20" cy="0" r="1" fill="white"/>
  <circle cx="21" cy="0" r="1" fill="white"/>
  <circle cx="0" cy="1" r="1" fill="white"/>
  <circle cx="1" cy="1" r="1" fill="white"/>
  <circle cx="2" cy="1" r="1" fill="white"/>
  <circle cx="3" cy="1" r="1" fill="white"/>
  <circle cx="4" cy="1" r="1" fill="white"/>
  <circle cx="5" cy="1" r="1" fill="white"/>
  <circle cx="6" cy="1" r="1" fill="white"/>
  <circle cx="7" cy="1" r="1" fill="white"/>
  <circle cx="8" cy="1" r="1" fill="white"/>
  <circle cx="9" cy="1" r="1" fill="white"/>
  <circle cx="10" cy="1" r="1" fill="white"/>
  <circle cx="11" cy="1" r="1" fill="white"/>
  <circle cx="12" cy="1" r="1" fill="white"/>
  <circle cx="13" cy="1" r="1" fill="white"/>
  <circle cx="14" cy="1" r="1" fill="white"/>
  <circle cx="15" cy="1" r="1" fill="white"/>
  <circle cx="16" cy="1" r="1" fill="white"/>
  <circle cx="17" cy="1" r="1" fill="white"/>
  <circle cx="18" cy="1" r="1" fill="white"/>
  <circle cx="19" cy="1" r="1" fill="white"/>
  <circle cx="20" cy="1" r="1" fill="white"/>
  <circle cx="21" cy="1" r="1" fill="white"/>
  <circle cx="0" cy="2" r="1" fill="white"/>
  <circle cx="1" cy="2" r="1" fill="white"/>
  <circle cx="2" cy="2" r="1" fill="white"/>
  <circle cx="3" cy="2" r="1" fill="white"/>
  <circle cx="4" cy="2" r="1" fill="white"/>
  <circle cx="5" cy="2" r="1" fill="rgba(95.6069%,95.6069%,95.6069%,1)"/>
  <circle cx="6" cy="2" r="1" fill="rgba(90.0862%,90.0862%,90.0862%,1)"/>
  <circle cx="7" cy="2" r="1" fill="rgba(87.9103%,87.9103%,87.9103%,1)"/>
  <circle cx="8" cy="2" r="1" fill="rgba(87.8965%,87.8965%,87.8965%,1)"/>
  <circle cx="9" cy="2" r="1" fill="rgba(89.9519%,89.9519%,89.9519%,1)"/>
  <circle cx="10" cy="2" r="1" fill="rgba(94.7372%,94.7372%,94.7372%,1)"/>
  <circle cx="11" cy="2" r="1" fill="white"/>
  <circle cx="12" cy="2" r="1" fill="white"/>
  <circle cx="13" cy="2" r="1" fill="white"/>
  <circle cx="14" cy="2" r="1" fill="white"/>
  <circle cx="15" cy="2" r="1" fill="white"/>
  <circle cx="16" cy="2" r="1" fill="white"/>
  <circle cx="17" cy="2" r="1" fill="white"/>
  <circle cx="18" cy="2" r="1" fill="white"/>
  <circle cx="19" cy="2" r="1" fill="white"/>
  <circle cx="20" cy="2" r="1" fill="white"/>
  <circle cx="21" cy="2" r="1" fill="white"/>
  <circle cx="0" cy="3" r="1" fill="white"/>
  <circle cx="1" cy="3" r="1" fill="white"/>
  <circle cx="2" cy="3" r="1" fill="white"/>
  <circle cx="3" cy="3" r="1" fill="rgba(98.3703%,98.3703%,98.3703%,1)"/>
  <circle cx="4" cy="3" r="1" fill="rgba(86.5522%,86.5522%,86.5522%,1)"/>
  <circle cx="5" cy="3" r="1" fill="rgba(69.0776%,69.0776%,69.0776%,1)"/>
  <circle cx="6" cy="3" r="1" fill="rgba(56.3531%,56.3531%,56.3531%,1)"/>
  <circle cx="7" cy="3" r="1" fill="rgba(50.7866%,50.7866%,50.7866%,1)"/>
  <circle cx="8" cy="3" r="1" fill="rgba(50.6416%,50.6416%,50.6416%,1)"/>
  <circle cx="9" cy="3" r="1" fill="rgba(55.996%,55.996%,55.996%,1)"/>
  <circle cx="10" cy="3" r="1" fill="rgba(67.2068%,67.2068%,67.2068%,1)"/>
  <circle cx="11" cy="3" r="1" fill="rgba(84.9485%,84.9485%,84.9485%,1)"/>
  <circle cx="12" cy="3" r="1" fill="rgba(98.3215%,98.3215%,98.3215%,1)"/>
  <circle cx="13" cy="3" r="1" fill="white"/>
  <circle cx="14" cy="3" r="1" fill="white"/>
  <circle cx="15" cy="3" r="1" fill="white"/>
  <circle cx="16" cy="3" r="1" fill="white"/>
  <circle cx="17" cy="3" r="1" fill="white"/>
  <circle cx="18" cy="3" r="1" fill="white"/>
  <circle cx="19" cy="3" r="1" fill="white"/>
  <circle cx="20" cy="3" r="1" fill="white"/>
  <circle cx="21" cy="3" r="1" fill="white"/>
  <circle cx="0" cy="4" r="1" fill="white"/>
  <circle cx="1" cy="4" r="1" fill="white"/>
  <circle cx="2" cy="4" r="1" fill="rgba(98.0926%,98.0926%,98.0926%,1)"/>
  <circle cx="3" cy="4" r="1" fill="rgba(81.915%,81.915%,81.915%,1)"/>
  <circle cx="4" cy="4" r="1" fill="rgba(57.0062%,57.0062%,57.0062%,1)"/>
  <circle cx="5" cy="4" r="1" fill="rgba(48.5252%,48.5252%,48.5252%,1)"/>
  <circle cx="6" cy="4" r="1" fill="rgba(49.4545%,49.4545%,49.4545%,1)"/>
  <circle cx="7" cy="4" r="1" fill="rgba(52.781%,52.781%,52.781%,1)"/>
  <circle cx="8" cy="4" r="1" fill="rgba(53.2464%,53.2464%,53.2464%,1)"/>
  <circle cx="9" cy="4" r="1" fill="rgba(49.3248%,49.3248%,49.3248%,1)"/>
  <circle cx="10" cy="4" r="1" fill="rgba(48.9143%,48.9143%,48.9143%,1)"/>
  <circle cx="11" cy="4" r="1" fill="rgba(54.9584%,54.9584%,54.9584%,1)"/>
  <circle cx="12" cy="4" r="1" fill="rgba(78.732%,78.732%,78.732%,1)"/>
  <circle cx="13" cy="4" r="1" fill="rgba(98.6893%,98.6893%,98.6893%,1)"/>
  <circle cx="14" cy="4" r="1" fill="white"/>
  <circle cx="15" cy="4" r="1" fill="white"/>
  <circle cx="16" cy="4" r="1" fill="white"/>
  <circle cx="17" cy="4" r="1" fill="white"/>
  <circle cx="18" cy="4" r="1" fill="white"/>
  <circle cx="19" cy="4" r="1" fill="white"/>
  <circle cx="20" cy="4" r="1" fill="white"/>
  <circle cx="21" cy="4" r="1" fill="white"/>
  <circle cx="0" cy="5" r="1" fill="white"/>
  <circle cx="1" cy="5" r="1" fill="rgba(99.7711%,99.7711%,99.7711%,1)"/>
  <circle cx="2" cy="5" r="1" fill="rgba(88.0659%,88.0659%,88.0659%,1)"/>
  <circle cx="3" cy="5" r="1" fill="rgba(57.0428%,57.0428%,57.0428%,1)"/>
  <circle cx="4" cy="5" r="1" fill="rgba(49.4316%,49.4316%,49.4316%,1)"/>
  <circle cx="5" cy="5" r="1" fill="rgba(55.4376%,55.4376%,55.4376%,1)"/>
  <circle cx="6" cy="5" r="1" fill="rgba(69.8268%,69.8268%,69.8268%,1)"/>
  <circle cx="7" cy="5" r="1" fill="rgba(79.1638%,79.1638%,79.1638%,1)"/>
  <circle cx="8" cy="5" r="1" fill="rgba(79.8444%,79.8444%,79.8444%,1)"/>
  <circle cx="9" cy="5" r="1" fill="rgba(71.3588%,71.3588%,71.3588%,1)"/>
  <circle cx="10" cy="5" r="1" fill="rgba(55.6847%,55.6847%,55.6847%,1)"/>
  <circle cx="11" cy="5" r="1" fill="rgba(50.3792%,50.3792%,50.3792%,1)"/>
  <circle cx="12" cy="5" r="1" fill="rgba(55.3429%,55.3429%,55.3429%,1)"/>
  <circle cx="13" cy="5" r="1" fill="rgba(84.1123%,84.1123%,84.1123%,1)"/>
  <circle cx="14" cy="5" r="1" fill="white"/>
  <circle cx="15" cy="5" r="1" fill="white"/>
  <circle cx="16" cy="5" r="1" fill="white"/>
  <circle cx="17" cy="5" r="1" fill="white"/>
  <circle cx="18" cy="5" r="1" fill="white"/>
  <circle cx="19" cy="5" r="1" fill="white"/>
  <circle cx="20" cy="5" r="1" fill="white"/>
  <circle cx="21" cy="5" r="1" fill="white"/>
  <circle cx="0" cy="6" r="1" fill="white"/>
  <circle cx="1" cy="6" r="1" fill="rgba(96.6583%,96.6583%,96.6583%,1)"/>
  <circle cx="2" cy="6" r="1" fill="rgba(71.3527%,71.3527%,71.3527%,1)"/>
  <circle cx="3" cy="6" r="1" fill="rgba(49.3812%,49.3812%,49.3812%,1)"/>
  <circle cx="4" cy="6" r="1" fill="rgba(55.9121%,55.9121%,55.9121%,1)"/>
  <circle cx="5" cy="6" r="1" fill="rgba(77.6989%,77.6989%,77.6989%,1)"/>
  <circle cx="6" cy="6" r="1" fill="rgba(97.1237%,97.1237%,97.1237%,1)"/>
  <circle cx="7" cy="6" r="1" fill="white"/>
  <circle cx="8" cy="6" r="1" fill="white"/>
  <circle cx="9" cy="6" r="1" fill="rgba(98.3917%,98.3917%,98.3917%,1)"/>
  <circle cx="10" cy="6" r="1" fill="rgba(82.0264%,82.0264%,82.0264%,1)"/>
  <circle cx="11" cy="6" r="1" fill="rgba(54.7829%,54.7829%,54.7829%,1)"/>
  <circle cx="12" cy="6" r="1" fill="rgba(51.7113%,51.7113%,51.7113%,1)"/>
  <circle cx="13" cy="6" r="1" fill="rgba(64.416%,64.416%,64.416%,1)"/>
  <circle cx="14" cy="6" r="1" fill="rgba(97.7096%,97.7096%,97.7096%,1)"/>
  <circle cx="15" cy="6" r="1" fill="white"/>
  <circle cx="16" cy="6" r="1" fill="white"/>
  <circle cx="17" cy="6" r="1" fill="white"/>
  <circle cx="18" cy="6" r="1" fill="white"/>
  <circle cx="19" cy="6" r="1" fill="white"/>
  <circle cx="20" cy="6" r="1" fill="white"/>
  <circle cx="21" cy="6" r="1" fill="white"/>
  <circle cx="0" cy="7" r="1" fill="white"/>
  <circle cx="1" cy="7" r="1" fill="rgba(92.8649%,92.8649%,92.8649%,1)"/>
  <circle cx="2" cy="7" r="1" fill="rgba(57.879%,57.879%,57.879%,1)"/>
  <circle cx="3" cy="7" r="1" fill="rgba(50.5913%,50.5913%,50.5913%,1)"/>
  <circle cx="4" cy="7" r="1" fill="rgba(67.866%,67.866%,67.866%,1)"/>
  <circle cx="5" cy="7" r="1" fill="rgba(97.1435%,97.1435%,97.1435%,1)"/>
  <circle cx="6" cy="7" r="1" fill="white"/>
  <circle cx="7" cy="7" r="1" fill="white"/>
  <circle cx="8" cy="7" r="1" fill="white"/>
  <circle cx="9" cy="7" r="1" fill="white"/>
  <circle cx="10" cy="7" r="1" fill="rgba(98.4802%,98.4802%,98.4802%,1)"/>
  <circle cx="11" cy="7" r="1" fill="rgba(71.4107%,71.4107%,71.4107%,1)"/>
  <circle cx="12" cy="7" r="1" fill="rgba(51.0689%,51.0689%,51.0689%,1)"/>
  <circle cx="13" cy="7" r="1" fill="rgba(57.5036%,57.5036%,57.5036%,1)"/>
  <circle cx="14" cy="7" r="1" fill="rgba(88.9021%,88.9021%,88.9021%,1)"/>
  <circle cx="15" cy="7" r="1" fill="white"/>
  <circle cx="16" cy="7" r="1" fill="white"/>
  <circle cx="17" cy="7" r="1" fill="white"/>
  <circle cx="18" cy="7" r="1" fill="white"/>
  <circle cx="19" cy="7" r="1" fill="white"/>
  <circle cx="20" cy="7" r="1" fill="white"/>
  <circle cx="21" cy="7" r="1" fill="white"/>
  <circle cx="0" cy="8" r="1" fill="white"/>
  <circle cx="1" cy="8" r="1" fill="rgba(91.2398%,91.2398%,91.2398%,1)"/>
  <circle cx="2" cy="8" r="1" fill="rgba(51.754%,51.754%,51.754%,1)"/>
  <circle cx="3" cy="8" r="1" fill="rgba(53.6675%,53.6675%,53.6675%,1)"/>
  <circle cx="4" cy="8" r="1" fill="rgba(76.2036%,76.2036%,76.2036%,1)"/>
  <circle cx="5" cy="8" r="1" fill="white"/>
  <circle cx="6" cy="8" r="1" fill="white"/>
  <circle cx="7" cy="8" r="1" fill="white"/>
  <circle cx="8" cy="8" r="1" fill="white"/>
  <circle cx="9" cy="8" r="1" fill="white"/>
  <circle cx="10" cy="8" r="1" fill="rgba(99.3866%,99.3866%,99.3866%,1)"/>
  <circle cx="11" cy="8" r="1" fill="rgba(84.4404%,84.4404%,84.4404%,1)"/>
  <circle cx="12" cy="8" r="1" fill="rgba(51.3405%,51.3405%,51.3405%,1)"/>
  <circle cx="13" cy="8" r="1" fill="rgba(56.1593%,56.1593%,56.1593%,1)"/>
  <circle cx="14" cy="8" r="1" fill="rgba(82.0172%,82.0172%,82.0172%,1)"/>
  <circle cx="15" cy="8" r="1" fill="white"/>
  <circle cx="16" cy="8" r="1" fill="white"/>
  <circle cx="17" cy="8" r="1" fill="white"/>
  <circle cx="18" cy="8" r="1" fill="white"/>
  <circle cx="19" cy="8" r="1" fill="white"/>
  <circle cx="20" cy="8" r="1" fill="white"/>
  <circle cx="21" cy="8" r="1" fill="white"/>
  <circle cx="0" cy="9" r="1" fill="white"/>
  <circle cx="1" cy="9" r="1" fill="rgba(91.3771%,91.3771%,91.3771%,1)"/>
  <circle cx="2" cy="9" r="1" fill="rgba(52.4102%,52.4102%,52.4102%,1)"/>
  <circle cx="3" cy="9" r="1" fill="rgba(54.0154%,54.0154%,54.0154%,1)"/>
  <circle cx="4" cy="9" r="1" fill="rgba(76.1028%,76.1028%,76.1028%,1)"/>
  <circle cx="5" cy="9" r="1" fill="rgba(99.939%,99.939%,99.939%,1)"/>
  <circle cx="6" cy="9" r="1" fill="white"/>
  <circle cx="7" cy="9" r="1" fill="white"/>
  <circle cx="8" cy="9" r="1" fill="white"/>
  <circle cx="9" cy="9" r="1" fill="white"/>
  <circle cx="10" cy="9" r="1" fill="rgba(99.2844%,99.2844%,99.2844%,1)"/>
  <circle cx="11" cy="9" r="1" fill="rgba(83.7949%,83.7949%,83.7949%,1)"/>
  <circle cx="12" cy="9" r="1" fill="rgba(51.6487%,51.6487%,51.6487%,1)"/>
  <circle cx="13" cy="9" r="1" fill="rgba(57.0489%,57.0489%,57.0489%,1)"/>
  <circle cx="14" cy="9" r="1" fill="rgba(83.1861%,83.1861%,83.1861%,1)"/>
  <circle cx="15" cy="9" r="1" fill="white"/>
  <circle cx="16" cy="9" r="1" fill="white"/>
  <circle cx="17" cy="9" r="1" fill="white"/>
  <circle cx="18" cy="9" r="1" fill="white"/>
  <circle cx="19" cy="9" r="1" fill="white"/>
  <circle cx="20" cy="9" r="1" fill="white"/>
  <circle cx="21" cy="9" r="1" fill="white"/>
  <circle cx="0" cy="10" r="1" fill="white"/>
  <circle cx="1" cy="10" r="1" fill="rgba(93.1823%,93.1823%,93.1823%,1)"/>
  <circle cx="2" cy="10" r="1" fill="rgba(59.5026%,59.5026%,59.5026%,1)"/>
  <circle cx="3" cy="10" r="1" fill="rgba(51.5969%,51.5969%,51.5969%,1)"/>
  <circle cx="4" cy="10" r="1" fill="rgba(67.8767%,67.8767%,67.8767%,1)"/>
  <circle cx="5" cy="10" r="1" fill="rgba(96.9329%,96.9329%,96.9329%,1)"/>
  <circle cx="6" cy="10" r="1" fill="white"/>
  <circle cx="7" cy="10" r="1" fill="white"/>
  <circle cx="8" cy="10" r="1" fill="white"/>
  <circle cx="9" cy="10" r="1" fill="white"/>
  <circle cx="10" cy="10" r="1" fill="rgba(97.3999%,97.3999%,97.3999%,1)"/>
  <circle cx="11" cy="10" r="1" fill="rgba(70.6218%,70.6218%,70.6218%,1)"/>
  <circle cx="12" cy="10" r="1" fill="rgba(52.2621%,52.2621%,52.2621%,1)"/>
  <circle cx="13" cy="10" r="1" fill="rgba(58.9975%,58.9975%,58.9975%,1)"/>
  <circle cx="14" cy="10" r="1" fill="rgba(89.4362%,89.4362%,89.4362%,1)"/>
  <circle cx="15" cy="10" r="1" fill="white"/>
  <circle cx="16" cy="10" r="1" fill="white"/>
  <circle cx="17" cy="10" r="1" fill="white"/>
  <circle cx="18" cy="10" r="1" fill="white"/>
  <circle cx="19" cy="10" r="1" fill="white"/>
  <circle cx="20" cy="10" r="1" fill="white"/>
  <circle cx="21" cy="10" r="1" fill="white"/>
  <circle cx="0" cy="11" r="1" fill="white"/>
  <circle cx="1" cy="11" r="1" fill="rgba(96.7102%,96.7102%,96.7102%,1)"/>
  <circle cx="2" cy="11" r="1" fill="rgba(72.5368%,72.5368%,72.5368%,1)"/>
  <circle cx="3" cy="11" r="1" fill="rgba(51.5801%,51.5801%,51.5801%,1)"/>
  <circle cx="4" cy="11" r="1" fill="rgba(55.6252%,55.6252%,55.6252%,1)"/>
  <circle cx="5" cy="11" r="1" fill="rgba(77.7234%,77.7234%,77.7234%,1)"/>
  <circle cx="6" cy="11" r="1" fill="rgba(96.6842%,96.6842%,96.6842%,1)"/>
  <circle cx="7" cy="11" r="1" fill="rgba(98.8037%,98.8037%,98.8037%,1)"/>
  <circle cx="8" cy="11" r="1" fill="rgba(98.9227%,98.9227%,98.9227%,1)"/>
  <circle cx="9" cy="11" r="1" fill="rgba(96.5911%,96.5911%,96.5911%,1)"/>
  <circle cx="10" cy="11" r="1" fill="rgba(82.1088%,82.1088%,82.1088%,1)"/>
  <circle cx="11" cy="11" r="1" fill="rgba(55.0835%,55.0835%,55.0835%,1)"/>
  <circle cx="12" cy="11" r="1" fill="rgba(53.3562%,53.3562%,53.3562%,1)"/>
  <circle cx="13" cy="11" r="1" fill="rgba(65.4093%,65.4093%,65.4093%,1)"/>
  <circle cx="14" cy="11" r="1" fill="rgba(98.941%,98.941%,98.941%,1)"/>
  <circle cx="15" cy="11" r="1" fill="white"/>
  <circle cx="16" cy="11" r="1" fill="white"/>
  <circle cx="17" cy="11" r="1" fill="white"/>
  <circle cx="18" cy="11" r="1" fill="white"/>
  <circle cx="19" cy="11" r="1" fill="white"/>
  <circle cx="20" cy="11" r="1" fill="white"/>
  <circle cx="21" cy="11" r="1" fill="white"/>
  <circle cx="0" cy="12" r="1" fill="white"/>
  <circle cx="1" cy="12" r="1" fill="rgba(99.8886%,99.8886%,99.8886%,1)"/>
  <circle cx="2" cy="12" r="1" fill="rgba(89.7551%,89.7551%,89.7551%,1)"/>
  <circle cx="3" cy="12" r="1" fill="rgba(59.9039%,59.9039%,59.9039%,1)"/>
  <circle cx="4" cy="12" r="1" fill="rgba(52.7855%,52.7855%,52.7855%,1)"/>
  <circle cx="5" cy="12" r="1" fill="rgba(55.2285%,55.2285%,55.2285%,1)"/>
  <circle cx="6" cy="12" r="1" fill="rgba(68.3574%,68.3574%,68.3574%,1)"/>
  <circle cx="7" cy="12" r="1" fill="rgba(81.0117%,81.0117%,81.0117%,1)"/>
  <circle cx="8" cy="12" r="1" fill="rgba(81.7624%,81.7624%,81.7624%,1)"/>
  <circle cx="9" cy="12" r="1" fill="rgba(69.9809%,69.9809%,69.9809%,1)"/>
  <circle cx="10" cy="12" r="1" fill="rgba(55.0118%,55.0118%,55.0118%,1)"/>
  <circle cx="11" cy="12" r="1" fill="rgba(54.229%,54.229%,54.229%,1)"/>
  <circle cx="12" cy="12" r="1" fill="rgba(54.7601%,54.7601%,54.7601%,1)"/>
  <circle cx="13" cy="12" r="1" fill="rgba(67.1672%,67.1672%,67.1672%,1)"/>
  <circle cx="14" cy="12" r="1" fill="rgba(95.4498%,95.4498%,95.4498%,1)"/>
  <circle cx="15" cy="12" r="1" fill="white"/>
  <circle cx="16" cy="12" r="1" fill="white"/>
  <circle cx="17" cy="12" r="1" fill="white"/>
  <circle cx="18" cy="12" r="1" fill="white"/>
  <circle cx="19" cy="12" r="1" fill="white"/>
  <circle cx="20" cy="12" r="1" fill="white"/>
  <circle cx="21" cy="12" r="1" fill="white"/>
  <circle cx="0" cy="13" r="1" fill="white"/>
  <circle cx="1" cy="13" r="1" fill="white"/>
  <circle cx="2" cy="13" r="1" fill="rgba(99.2233%,99.2233%,99.2233%,1)"/>
  <circle cx="3" cy="13" r="1" fill="rgba(84.7166%,84.7166%,84.7166%,1)"/>
  <circle cx="4" cy="13" r="1" fill="rgba(60.351%,60.351%,60.351%,1)"/>
  <circle cx="5" cy="13" r="1" fill="rgba(53.959%,53.959%,53.959%,1)"/>
  <circle cx="6" cy="13" r="1" fill="rgba(52.3827%,52.3827%,52.3827%,1)"/>
  <circle cx="7" cy="13" r="1" fill="rgba(52.0455%,52.0455%,52.0455%,1)"/>
  <circle cx="8" cy="13" r="1" fill="rgba(52.1111%,52.1111%,52.1111%,1)"/>
  <circle cx="9" cy="13" r="1" fill="rgba(52.4514%,52.4514%,52.4514%,1)"/>
  <circle cx="10" cy="13" r="1" fill="rgba(53.8109%,53.8109%,53.8109%,1)"/>
  <circle cx="11" cy="13" r="1" fill="rgba(55.2621%,55.2621%,55.2621%,1)"/>
  <circle cx="12" cy="13" r="1" fill="rgba(54.4945%,54.4945%,54.4945%,1)"/>
  <circle cx="13" cy="13" r="1" fill="rgba(54.8043%,54.8043%,54.8043%,1)"/>
  <circle cx="14" cy="13" r="1" fill="rgba(70.1167%,70.1167%,70.1167%,1)"/>
  <circle cx="15" cy="13" r="1" fill="rgba(94.6746%,94.6746%,94.6746%,1)"/>
  <circle cx="16" cy="13" r="1" fill="white"/>
  <circle cx="17" cy="13" r="1" fill="white"/>
  <circle cx="18" cy="13" r="1" fill="white"/>
  <circle cx="19" cy="13" r="1" fill="white"/>
  <circle cx="20" cy="13" r="1" fill="white"/>
  <circle cx="21" cy="13" r="1" fill="white"/>
  <circle cx="0" cy="14" r="1" fill="white"/>
  <circle cx="1" cy="14" r="1" fill="white"/>
  <circle cx="2" cy="14" r="1" fill="white"/>
  <circle cx="3" cy="14" r="1" fill="rgba(99.4568%,99.4568%,99.4568%,1)"/>
  <circle cx="4" cy="14" r="1" fill="rgba(88.4657%,88.4657%,88.4657%,1)"/>
  <circle cx="5" cy="14" r="1" fill="rgba(70.2174%,70.2174%,70.2174%,1)"/>
  <circle cx="6" cy="14" r="1" fill="rgba(62.06%,62.06%,62.06%,1)"/>
  <circle cx="7" cy="14" r="1" fill="rgba(59.8535%,59.8535%,59.8535%,1)"/>
  <circle cx="8" cy="14" r="1" fill="rgba(60.2777%,60.2777%,60.2777%,1)"/>
  <circle cx="9" cy="14" r="1" fill="rgba(62.4414%,62.4414%,62.4414%,1)"/>
  <circle cx="10" cy="14" r="1" fill="rgba(69.6315%,69.6315%,69.6315%,1)"/>
  <circle cx="11" cy="14" r="1" fill="rgba(73.2326%,73.2326%,73.2326%,1)"/>
  <circle cx="12" cy="14" r="1" fill="rgba(57.0291%,57.0291%,57.0291%,1)"/>
  <circle cx="13" cy="14" r="1" fill="rgba(54.6014%,54.6014%,54.6014%,1)"/>
  <circle cx="14" cy="14" r="1" fill="rgba(55.024%,55.024%,55.024%,1)"/>
  <circle cx="15" cy="14" r="1" fill="rgba(69.9016%,69.9016%,69.9016%,1)"/>
  <circle cx="16" cy="14" r="1" fill="rgba(93.8094%,93.8094%,93.8094%,1)"/>
  <circle cx="17" cy="14" r="1" fill="white"/>
  <circle cx="18" cy="14" r="1" fill="white"/>
  <circle cx="19" cy="14" r="1" fill="white"/>
  <circle cx="20" cy="14" r="1" fill="white"/>
  <circle cx="21" cy="14" r="1" fill="white"/>
  <circle cx="0" cy="15" r="1" fill="white"/>
  <circle cx="1" cy="15" r="1" fill="white"/>
  <circle cx="2" cy="15" r="1" fill="white"/>
  <circle cx="3" cy="15" r="1" fill="white"/>
  <circle cx="4" cy="15" r="1" fill="white"/>
  <circle cx="5" cy="15" r="1" fill="rgba(99.1409%,99.1409%,99.1409%,1)"/>
  <circle cx="6" cy="15" r="1" fill="rgba(91.4122%,91.4122%,91.4122%,1)"/>
  <circle cx="7" cy="15" r="1" fill="rgba(85.7084%,85.7084%,85.7084%,1)"/>
  <circle cx="8" cy="15" r="1" fill="rgba(86.3447%,86.3447%,86.3447%,1)"/>
  <circle cx="9" cy="15" r="1" fill="rgba(91.0872%,91.0872%,91.0872%,1)"/>
  <circle cx="10" cy="15" r="1" fill="rgba(99.3591%,99.3591%,99.3591%,1)"/>
  <circle cx="11" cy="15" r="1" fill="rgba(98.584%,98.584%,98.584%,1)"/>
  <circle cx="12" cy="15" r="1" fill="rgba(78.3093%,78.3093%,78.3093%,1)"/>
  <circle cx="13" cy="15" r="1" fill="rgba(57.7035%,57.7035%,57.7035%,1)"/>
  <circle cx="14" cy="15" r="1" fill="rgba(54.7387%,54.7387%,54.7387%,1)"/>
  <circle cx="15" cy="15" r="1" fill="rgba(55.2392%,55.2392%,55.2392%,1)"/>
  <circle cx="16" cy="15" r="1" fill="rgba(68.6854%,68.6854%,68.6854%,1)"/>
  <circle cx="17" cy="15" r="1" fill="rgba(92.0546%,92.0546%,92.0546%,1)"/>
  <circle cx="18" cy="15" r="1" fill="white"/>
  <circle cx="19" cy="15" r="1" fill="white"/>
  <circle cx="20" cy="15" r="1" fill="white"/>
  <circle cx="21" cy="15" r="1" fill="white"/>
  <circle cx="0" cy="16" r="1" fill="white"/>
  <circle cx="1" cy="16" r="1" fill="white"/>
  <circle cx="2" cy="16" r="1" fill="white"/>
  <circle cx="3" cy="16" r="1" fill="white"/>
  <circle cx="4" cy="16" r="1" fill="white"/>
  <circle cx="5" cy="16" r="1" fill="white"/>
  <circle cx="6" cy="16" r="1" fill="white"/>
  <circle cx="7" cy="16" r="1" fill="white"/>
  <circle cx="8" cy="16" r="1" fill="white"/>
  <circle cx="9" cy="16" r="1" fill="white"/>
  <circle cx="10" cy="16" r="1" fill="white"/>
  <circle cx="11" cy="16" r="1" fill="white"/>
  <circle cx="12" cy="16" r="1" fill="rgba(98.2742%,98.2742%,98.2742%,1)"/>
  <circle cx="13" cy="16" r="1" fill="rgba(78.3993%,78.3993%,78.3993%,1)"/>
  <circle cx="14" cy="16" r="1" fill="rgba(57.3342%,57.3342%,57.3342%,1)"/>
  <circle cx="15" cy="16" r="1" fill="rgba(55.3353%,55.3353%,55.3353%,1)"/>
  <circle cx="16" cy="16" r="1" fill="rgba(54.9096%,54.9096%,54.9096%,1)"/>
  <circle cx="17" cy="16" r="1" fill="rgba(66.6209%,66.6209%,66.6209%,1)"/>
  <circle cx="18" cy="16" r="1" fill="rgba(91.223%,91.223%,91.223%,1)"/>
  <circle cx="19" cy="16" r="1" fill="rgba(99.9435%,99.9435%,99.9435%,1)"/>
  <circle cx="20" cy="16" r="1" fill="white"/>
  <circle cx="21" cy="16" r="1" fill="white"/>
  <circle cx="0" cy="17" r="1" fill="white"/>
  <circle cx="1" cy="17" r="1" fill="white"/>
  <circle cx="2" cy="17" r="1" fill="white"/>
  <circle cx="3" cy="17" r="1" fill="white"/>
  <circle cx="4" cy="17" r="1" fill="white"/>
  <circle cx="5" cy="17" r="1" fill="white"/>
  <circle cx="6" cy="17" r="1" fill="white"/>
  <circle cx="7" cy="17" r="1" fill="white"/>
  <circle cx="8" cy="17" r="1" fill="white"/>
  <circle cx="9" cy="17" r="1" fill="white"/>
  <circle cx="10" cy="17" r="1" fill="white"/>
  <circle cx="11" cy="17" r="1" fill="white"/>
  <circle cx="12" cy="17" r="1" fill="white"/>
  <circle cx="13" cy="17" r="1" fill="rgba(97.3953%,97.3953%,97.3953%,1)"/>
  <circle cx="14" cy="17" r="1" fill="rgba(77.1878%,77.1878%,77.1878%,1)"/>
  <circle cx="15" cy="17" r="1" fill="rgba(57.0169%,57.0169%,57.0169%,1)"/>
  <circle cx="16" cy="17" r="1" fill="rgba(55.903%,55.903%,55.903%,1)"/>
  <circle cx="17" cy="17" r="1" fill="rgba(55.0851%,55.0851%,55.0851%,1)"/>
  <circle cx="18" cy="17" r="1" fill="rgba(67.0375%,67.0375%,67.0375%,1)"/>
  <circle cx="19" cy="17" r="1" fill="rgba(93.8598%,93.8598%,93.8598%,1)"/>
  <circle cx="20" cy="17" r="1" fill="white"/>
  <circle cx="21" cy="17" r="1" fill="white"/>
  <circle cx="0" cy="18" r="1" fill="white"/>
  <circle cx="1" cy="18" r="1" fill="white"/>
  <circle cx="2" cy="18" r="1" fill="white"/>
  <circle cx="3" cy="18" r="1" fill="white"/>
  <circle cx="4" cy="18" r="1" fill="white"/>
  <circle cx="5" cy="18" r="1" fill="white"/>
  <circle cx="6" cy="18" r="1" fill="white"/>
  <circle cx="7" cy="18" r="1" fill="white"/>
  <circle cx="8" cy="18" r="1" fill="white"/>
  <circle cx="9" cy="18" r="1" fill="white"/>
  <circle cx="10" cy="18" r="1" fill="white"/>
  <circle cx="11" cy="18" r="1" fill="white"/>
  <circle cx="12" cy="18" r="1" fill="white"/>
  <circle cx="13" cy="18" r="1" fill="white"/>
  <circle cx="14" cy="18" r="1" fill="rgba(96.7193%,96.7193%,96.7193%,1)"/>
  <circle cx="15" cy="18" r="1" fill="rgba(75.9533%,75.9533%,75.9533%,1)"/>
  <circle cx="16" cy="18" r="1" fill="rgba(57.171%,57.171%,57.171%,1)"/>
  <circle cx="17" cy="18" r="1" fill="rgba(54.3893%,54.3893%,54.3893%,1)"/>
  <circle cx="18" cy="18" r="1" fill="rgba(61.7685%,61.7685%,61.7685%,1)"/>
  <circle cx="19" cy="18" r="1" fill="rgba(91.8669%,91.8669%,91.8669%,1)"/>
  <circle cx="20" cy="18" r="1" fill="white"/>
  <circle cx="21" cy="18" r="1" fill="white"/>
  <circle cx="0" cy="19" r="1" fill="white"/>
  <circle cx="1" cy="19" r="1" fill="white"/>
  <circle cx="2" cy="19" r="1" fill="white"/>
  <circle cx="3" cy="19" r="1" fill="white"/>
  <circle cx="4" cy="19" r="1" fill="white"/>
  <circle cx="5" cy="19" r="1" fill="white"/>
  <circle cx="6" cy="19" r="1" fill="white"/>
  <circle cx="7" cy="19" r="1" fill="white"/>
  <circle cx="8" cy="19" r="1" fill="white"/>
  <circle cx="9" cy="19" r="1" fill="white"/>
  <circle cx="10" cy="19" r="1" fill="white"/>
  <circle cx="11" cy="19" r="1" fill="white"/>
  <circle cx="12" cy="19" r="1" fill="white"/>
  <circle cx="13" cy="19" r="1" fill="white"/>
  <circle cx="14" cy="19" r="1" fill="white"/>
  <circle cx="15" cy="19" r="1" fill="rgba(96.6278%,96.6278%,96.6278%,1)"/>
  <circle cx="16" cy="19" r="1" fill="rgba(75.3429%,75.3429%,75.3429%,1)"/>
  <circle cx="17" cy="19" r="1" fill="rgba(61.326%,61.326%,61.326%,1)"/>
  <circle cx="18" cy="19" r="1" fill="rgba(82.9343%,82.9343%,82.9343%,1)"/>
  <circle cx="19" cy="19" r="1" fill="rgba(98.378%,98.378%,98.378%,1)"/>
  <circle cx="20" cy="19" r="1" fill="white"/>
  <circle cx="21" cy="19" r="1" fill="white"/>
  <circle cx="0" cy="20" r="1" fill="white"/>
  <circle cx="1" cy="20" r="1" fill="white"/>
  <circle cx="2" cy="20" r="1" fill="white"/>
  <circle cx="3" cy="20" r="1" fill="white"/>
  <circle cx="4" cy="20" r="1" fill="white"/>
  <circle cx="5" cy="20" r="1" fill="white"/>
  <circle cx="6" cy="20" r="1" fill="white"/>
  <circle cx="7" cy="20" r="1" fill="white"/>
  <circle cx="8" cy="20" r="1" fill="white"/>
  <circle cx="9" cy="20" r="1" fill="white"/>
  <circle cx="10" cy="20" r="1" fill="white"/>
  <circle cx="11" cy="20" r="1" fill="white"/>
  <circle cx="12" cy="20" r="1" fill="white"/>
  <circle cx="13" cy="20" r="1" fill="white"/>
  <circle cx="14" cy="20" r="1" fill="white"/>
  <circle cx="15" cy="20" r="1" fill="white"/>
  <circle cx="16" cy="20" r="1" fill="rgba(96.9512%,96.9512%,96.9512%,1)"/>
  <circle cx="17" cy="20" r="1" fill="rgba(93.6736%,93.6736%,93.6736%,1)"/>
  <circle cx="18" cy="20" r="1" fill="rgba(98.3474%,98.3474%,98.3474%,1)"/>
  <circle cx="19" cy="20" r="1" fill="white"/>
  <circle cx="20" cy="20" r="1" fill="white"/>
  <circle cx="21" cy="20" r="1" fill="white"/>
  <circle cx="0" cy="21" r="1" fill="white"/>
  <circle cx="1" cy="21" r="1" fill="white"/>
  <circle cx="2" cy="21" r="1" fill="white"/>
  <circle cx="3" cy="21" r="1" fill="white"/>
  <circle cx="4" cy="21" r="1" fill="white"/>
  <circle cx="5" cy="21" r="1" fill="white"/>
  <circle cx="6" cy="21" r="1" fill="white"/>
  <circle cx="7" cy="21" r="1" fill="white"/>
  <circle cx="8" cy="21" r="1" fill="white"/>
  <circle cx="9" cy="21" r="1" fill="white"/>
  <circle cx="10" cy="21" r="1" fill="white"/>
  <circle cx="11" cy="21" r="1" fill="white"/>
  <circle cx="12" cy="21" r="1" fill="white"/>
  <circle cx="13" cy="21" r="1" fill="white"/>
  <circle cx="14" cy="21" r="1" fill="white"/>
  <circle cx="15" cy="21" r="1" fill="white"/>
  <circle cx="16" cy="21" r="1" fill="white"/>
  <circle cx="17" cy="21" r="1" fill="white"/>
  <circle cx="18" cy="21" r="1" fill="white"/>
  <circle cx="19" cy="21" r="1" fill="white"/>
  <circle cx="20" cy="21" r="1" fill="white"/>
  <circle cx="21" cy="21" r="1" fill="white"/>
</svg>
