<?xml version="1.0" standalone="no"?>
<!DOCTYPE svg PUBLIC "-//W3C//DTD SVG 20010904//EN"
  "http://www.w3.org/TR/2001/REC-SVG-20010904/DTD/svg10.dtd">
<svg width="22" height="22">
  <circle cx="0" cy="0" r="1" fill="white"/>
  <circle cx="1" cy="0" r="1" fill="white"/>
  <circle cx="2" cy="0" r="1" fill="white"/>
  <circle cx="3" cy="0" r="1" fill="white"/>
  <circle cx="4" cy="0" r="1" fill="white"/>
  <circle cx="5" cy="0" r="1" fill="white"/>
  <circle cx="6" cy="0" r="1" fill="white"/>
  <circle cx="7" cy="0" r="1" fill="white"/>
  <circle cx="8" cy="0" r="1" fill="white"/>
  <circle cx="9" cy="0" r="1" fill="white"/>
  <circle cx="10" cy="0" r="1" fill="white"/>
  <circle cx="11" cy="0" r="1" fill="white"/>
  <circle cx="12" cy="0" r="1" fill="white"/>
  <circle cx="13" cy="0" r="1" fill="white"/>
  <circle cx="14" cy="0" r="1" fill="white"/>
  <circle cx="15" cy="0" r="1" fill="white"/>
  <circle cx="16" cy="0" r="1" fill="white"/>
  <circle cx="17" cy="0" r="1" fill="white"/>
  <circle cx="18" cy="0" r="1" fill="white"/>
  <circle cx="19" cy="0" r="1" fill="white"/>
  <circle cx="20" cy="0" r="1" fill="white"/>
  <circle cx="21" cy="0" r="1" fill="white"/>
  <circle cx="0" cy="1" r="1" fill="white"/>
  <circle cx="1" cy="1" r="1" fill="white"/>
  <circle cx="2" cy="1" r="1" fill="white"/>
  <circle cx="3" cy="1" r="1" fill="white"/>
  <circle cx="4" cy="1" r="1" fill="white"/>
  <circle cx="5" cy="1" r="1" fill="white"/>
  <circle cx="6" cy="1" r="1" fill="white"/>
  <circle cx="7" cy="1" r="1" fill="white"/>
  <circle cx="8" cy="1" r="1" fill="white"/>
  <circle cx="9" cy="1" r="1" fill="rgba(98.0911%,98.0911%,98.0911%,1)"/>
  <circle cx="10" cy="1" r="1" fill="rgba(96.672%,96.672%,96.672%,1)"/>
  <circle cx="11" cy="1" r="1" fill="rgba(95.9106%,95.9106%,95.9106%,1)"/>
  <circle cx="12" cy="1" r="1" fill="rgba(96.1883%,96.1883%,96.1883%,1)"/>
  <circle cx="13" cy="1" r="1" fill="rgba(97.8088%,97.8088%,97.8088%,1)"/>
  <circle cx="14" cy="1" r="1" fill="white"/>
  <circle cx="15" cy="1" r="1" fill="white"/>
  <circle cx="16" cy="1" r="1" fill="white"/>
  <circle cx="17" cy="1" r="1" fill="white"/>
  <circle cx="18" cy="1" r="1" fill="white"/>
  <circle cx="19" cy="1" r="1" fill="white"/>
  <circle cx="20" cy="1" r="1" fill="white"/>
  <circle cx="21" cy="1" r="1" fill="white"/>
  <circle cx="0" cy="2" r="1" fill="white"/>
  <circle cx="1" cy="2" r="1" fill="white"/>
  <circle cx="2" cy="2" r="1" fill="white"/>
  <circle cx="3" cy="2" r="1" fill="white"/>
  <circle cx="4" cy="2" r="1" fill="white"/>
  <circle cx="5" cy="2" r="1" fill="white"/>
  <circle cx="6" cy="2" r="1" fill="rgba(99.1272%,99.1272%,99.1272%,1)"/>
  <circle cx="7" cy="2" r="1" fill="rgba(93.0282%,93.0282%,93.0282%,1)"/>
  <circle cx="8" cy="2" r="1" fill="rgba(86.3615%,86.3615%,86.3615%,1)"/>
  <circle cx="9" cy="2" r="1" fill="rgba(76.4843%,76.4843%,76.4843%,1)"/>
  <circle cx="10" cy="2" r="1" fill="rgba(71.4199%,71.4199%,71.4199%,1)"/>
  <circle cx="11" cy="2" r="1" fill="rgba(68.6961%,68.6961%,68.6961%,1)"/>
  <circle cx="12" cy="2" r="1" fill="rgba(69.7047%,69.7047%,69.7047%,1)"/>
  <circle cx="13" cy="2" r="1" fill="rgba(75.3689%,75.3689%,75.3689%,1)"/>
  <circle cx="14" cy="2" r="1" fill="rgba(84.3641%,84.3641%,84.3641%,1)"/>
  <circle cx="15" cy="2" r="1" fill="rgba(92.8511%,92.8511%,92.8511%,1)"/>
  <circle cx="16" cy="2" r="1" fill="rgba(99.1897%,99.1897%,99.1897%,1)"/>
  <circle cx="17" cy="2" r="1" fill="white"/>
  <circle cx="18" cy="2" r="1" fill="white"/>
  <circle cx="19" cy="2" r="1" fill="white"/>
  <circle cx="20" cy="2" r="1" fill="white"/>
  <circle cx="21" cy="2" r="1" fill="white"/>
  <circle cx="0" cy="3" r="1" fill="white"/>
  <circle cx="1" cy="3" r="1" fill="white"/>
  <circle cx="2" cy="3" r="1" fill="white"/>
  <circle cx="3" cy="3" r="1" fill="white"/>
  <circle cx="4" cy="3" r="1" fill="white"/>
  <circle cx="5" cy="3" r="1" fill="rgba(95.23%,95.23%,95.23%,1)"/>
  <circle cx="6" cy="3" r="1" fill="rgba(80.2289%,80.2289%,80.2289%,1)"/>
  <circle cx="7" cy="3" r="1" fill="rgba(62.7817%,62.7817%,62.7817%,1)"/>
  <circle cx="8" cy="3" r="1" fill="rgba(50.3456%,50.3456%,50.3456%,1)"/>
  <circle cx="9" cy="3" r="1" fill="rgba(47.2694%,47.2694%,47.2694%,1)"/>
  <circle cx="10" cy="3" r="1" fill="rgba(47.0771%,47.0771%,47.0771%,1)"/>
  <circle cx="11" cy="3" r="1" fill="rgba(47.1214%,47.1214%,47.1214%,1)"/>
  <circle cx="12" cy="3" r="1" fill="rgba(47.3091%,47.3091%,47.3091%,1)"/>
  <circle cx="13" cy="3" r="1" fill="rgba(47.0939%,47.0939%,47.0939%,1)"/>
  <circle cx="14" cy="3" r="1" fill="rgba(49.4499%,49.4499%,49.4499%,1)"/>
  <circle cx="15" cy="3" r="1" fill="rgba(62.2461%,62.2461%,62.2461%,1)"/>
  <circle cx="16" cy="3" r="1" fill="rgba(82.0218%,82.0218%,82.0218%,1)"/>
  <circle cx="17" cy="3" r="1" fill="rgba(97.0321%,97.0321%,97.0321%,1)"/>
  <circle cx="18" cy="3" r="1" fill="white"/>
  <circle cx="19" cy="3" r="1" fill="white"/>
  <circle cx="20" cy="3" r="1" fill="white"/>
  <circle cx="21" cy="3" r="1" fill="white"/>
  <circle cx="0" cy="4" r="1" fill="white"/>
  <circle cx="1" cy="4" r="1" fill="white"/>
  <circle cx="2" cy="4" r="1" fill="white"/>
  <circle cx="3" cy="4" r="1" fill="white"/>
  <circle cx="4" cy="4" r="1" fill="rgba(93.875%,93.875%,93.875%,1)"/>
  <circle cx="5" cy="4" r="1" fill="rgba(70.5562%,70.5562%,70.5562%,1)"/>
  <circle cx="6" cy="4" r="1" fill="rgba(51.5251%,51.5251%,51.5251%,1)"/>
  <circle cx="7" cy="4" r="1" fill="rgba(47.7546%,47.7546%,47.7546%,1)"/>
  <circle cx="8" cy="4" r="1" fill="rgba(53.0159%,53.0159%,53.0159%,1)"/>
  <circle cx="9" cy="4" r="1" fill="rgba(61.1261%,61.1261%,61.1261%,1)"/>
  <circle cx="10" cy="4" r="1" fill="rgba(66.7918%,66.7918%,66.7918%,1)"/>
  <circle cx="11" cy="4" r="1" fill="rgba(69.1554%,69.1554%,69.1554%,1)"/>
  <circle cx="12" cy="4" r="1" fill="rgba(67.5776%,67.5776%,67.5776%,1)"/>
  <circle cx="13" cy="4" r="1" fill="rgba(61.5702%,61.5702%,61.5702%,1)"/>
  <circle cx="14" cy="4" r="1" fill="rgba(53.2219%,53.2219%,53.2219%,1)"/>
  <circle cx="15" cy="4" r="1" fill="rgba(47.8233%,47.8233%,47.8233%,1)"/>
  <circle cx="16" cy="4" r="1" fill="rgba(53.7682%,53.7682%,53.7682%,1)"/>
  <circle cx="17" cy="4" r="1" fill="rgba(77.6013%,77.6013%,77.6013%,1)"/>
  <circle cx="18" cy="4" r="1" fill="rgba(97.0367%,97.0367%,97.0367%,1)"/>
  <circle cx="19" cy="4" r="1" fill="white"/>
  <circle cx="20" cy="4" r="1" fill="white"/>
  <circle cx="21" cy="4" r="1" fill="white"/>
  <circle cx="0" cy="5" r="1" fill="white"/>
  <circle cx="1" cy="5" r="1" fill="white"/>
  <circle cx="2" cy="5" r="1" fill="white"/>
  <circle cx="3" cy="5" r="1" fill="rgba(95.9625%,95.9625%,95.9625%,1)"/>
  <circle cx="4" cy="5" r="1" fill="rgba(72.2683%,72.2683%,72.2683%,1)"/>
  <circle cx="5" cy="5" r="1" fill="rgba(50.6722%,50.6722%,50.6722%,1)"/>
  <circle cx="6" cy="5" r="1" fill="rgba(50.7424%,50.7424%,50.7424%,1)"/>
  <circle cx="7" cy="5" r="1" fill="rgba(63.4943%,63.4943%,63.4943%,1)"/>
  <circle cx="8" cy="5" r="1" fill="rgba(79.7436%,79.7436%,79.7436%,1)"/>
  <circle cx="9" cy="5" r="1" fill="rgba(92.0058%,92.0058%,92.0058%,1)"/>
  <circle cx="10" cy="5" r="1" fill="rgba(99.2996%,99.2996%,99.2996%,1)"/>
  <circle cx="11" cy="5" r="1" fill="rgba(99.5651%,99.5651%,99.5651%,1)"/>
  <circle cx="12" cy="5" r="1" fill="rgba(98.2895%,98.2895%,98.2895%,1)"/>
  <circle cx="13" cy="5" r="1" fill="rgba(93.0129%,93.0129%,93.0129%,1)"/>
  <circle cx="14" cy="5" r="1" fill="rgba(79.5941%,79.5941%,79.5941%,1)"/>
  <circle cx="15" cy="5" r="1" fill="rgba(59.8184%,59.8184%,59.8184%,1)"/>
  <circle cx="16" cy="5" r="1" fill="rgba(49.1646%,49.1646%,49.1646%,1)"/>
  <circle cx="17" cy="5" r="1" fill="rgba(54.5495%,54.5495%,54.5495%,1)"/>
  <circle cx="18" cy="5" r="1" fill="rgba(83.4485%,83.4485%,83.4485%,1)"/>
  <circle cx="19" cy="5" r="1" fill="rgba(99.2294%,99.2294%,99.2294%,1)"/>
  <circle cx="20" cy="5" r="1" fill="white"/>
  <circle cx="21" cy="5" r="1" fill="white"/>
  <circle cx="0" cy="6" r="1" fill="white"/>
  <circle cx="1" cy="6" r="1" fill="white"/>
  <circle cx="2" cy="6" r="1" fill="rgba(99.5529%,99.5529%,99.5529%,1)"/>
  <circle cx="3" cy="6" r="1" fill="rgba(83.3616%,83.3616%,83.3616%,1)"/>
  <circle cx="4" cy="6" r="1" fill="rgba(53.7758%,53.7758%,53.7758%,1)"/>
  <circle cx="5" cy="6" r="1" fill="rgba(50.1854%,50.1854%,50.1854%,1)"/>
  <circle cx="6" cy="6" r="1" fill="rgba(67.4189%,67.4189%,67.4189%,1)"/>
  <circle cx="7" cy="6" r="1" fill="rgba(92.6543%,92.6543%,92.6543%,1)"/>
  <circle cx="8" cy="6" r="1" fill="rgba(94.1772%,94.1772%,94.1772%,1)"/>
  <circle cx="9" cy="6" r="1" fill="rgba(79.0951%,79.0951%,79.0951%,1)"/>
  <circle cx="10" cy="6" r="1" fill="rgba(70.5684%,70.5684%,70.5684%,1)"/>
  <circle cx="11" cy="6" r="1" fill="rgba(67.3381%,67.3381%,67.3381%,1)"/>
  <circle cx="12" cy="6" r="1" fill="rgba(68.0949%,68.0949%,68.0949%,1)"/>
  <circle cx="13" cy="6" r="1" fill="rgba(72.4727%,72.4727%,72.4727%,1)"/>
  <circle cx="14" cy="6" r="1" fill="rgba(80.6104%,80.6104%,80.6104%,1)"/>
  <circle cx="15" cy="6" r="1" fill="rgba(79.6109%,79.6109%,79.6109%,1)"/>
  <circle cx="16" cy="6" r="1" fill="rgba(58.7747%,58.7747%,58.7747%,1)"/>
  <circle cx="17" cy="6" r="1" fill="rgba(48.7602%,48.7602%,48.7602%,1)"/>
  <circle cx="18" cy="6" r="1" fill="rgba(65.2155%,65.2155%,65.2155%,1)"/>
  <circle cx="19" cy="6" r="1" fill="rgba(93.9849%,93.9849%,93.9849%,1)"/>
  <circle cx="20" cy="6" r="1" fill="white"/>
  <circle cx="21" cy="6" r="1" fill="white"/>
  <circle cx="0" cy="7" r="1" fill="white"/>
  <circle cx="1" cy="7" r="1" fill="white"/>
  <circle cx="2" cy="7" r="1" fill="rgba(94.6853%,94.6853%,94.6853%,1)"/>
  <circle cx="3" cy="7" r="1" fill="rgba(67.2648%,67.2648%,67.2648%,1)"/>
  <circle cx="4" cy="7" r="1" fill="rgba(49.1203%,49.1203%,49.1203%,1)"/>
  <circle cx="5" cy="7" r="1" fill="rgba(59.8718%,59.8718%,59.8718%,1)"/>
  <circle cx="6" cy="7" r="1" fill="rgba(88.9158%,88.9158%,88.9158%,1)"/>
  <circle cx="7" cy="7" r="1" fill="rgba(88.8487%,88.8487%,88.8487%,1)"/>
  <circle cx="8" cy="7" r="1" fill="rgba(65.2506%,65.2506%,65.2506%,1)"/>
  <circle cx="9" cy="7" r="1" fill="rgba(53.7285%,53.7285%,53.7285%,1)"/>
  <circle cx="10" cy="7" r="1" fill="rgba(49.1661%,49.1661%,49.1661%,1)"/>
  <circle cx="11" cy="7" r="1" fill="rgba(48.394%,48.394%,48.394%,1)"/>
  <circle cx="12" cy="7" r="1" fill="rgba(48.6778%,48.6778%,48.6778%,1)"/>
  <circle cx="13" cy="7" r="1" fill="rgba(49.9123%,49.9123%,49.9123%,1)"/>
  <circle cx="14" cy="7" r="1" fill="rgba(59.4263%,59.4263%,59.4263%,1)"/>
  <circle cx="15" cy="7" r="1" fill="rgba(85.6184%,85.6184%,85.6184%,1)"/>
  <circle cx="16" cy="7" r="1" fill="rgba(75.5688%,75.5688%,75.5688%,1)"/>
  <circle cx="17" cy="7" r="1" fill="rgba(52.076%,52.076%,52.076%,1)"/>
  <circle cx="18" cy="7" r="1" fill="rgba(52.5444%,52.5444%,52.5444%,1)"/>
  <circle cx="19" cy="7" r="1" fill="rgba(87.5639%,87.5639%,87.5639%,1)"/>
  <circle cx="20" cy="7" r="1" fill="white"/>
  <circle cx="21" cy="7" r="1" fill="white"/>
  <circle cx="0" cy="8" r="1" fill="white"/>
  <circle cx="1" cy="8" r="1" fill="rgba(99.9969%,99.9969%,99.9969%,1)"/>
  <circle cx="2" cy="8" r="1" fill="rgba(89.5018%,89.5018%,89.5018%,1)"/>
  <circle cx="3" cy="8" r="1" fill="rgba(55.5261%,55.5261%,55.5261%,1)"/>
  <circle cx="4" cy="8" r="1" fill="rgba(51.4748%,51.4748%,51.4748%,1)"/>
  <circle cx="5" cy="8" r="1" fill="rgba(74.3786%,74.3786%,74.3786%,1)"/>
  <circle cx="6" cy="8" r="1" fill="rgba(94.3206%,94.3206%,94.3206%,1)"/>
  <circle cx="7" cy="8" r="1" fill="rgba(66.0868%,66.0868%,66.0868%,1)"/>
  <circle cx="8" cy="8" r="1" fill="rgba(51.5282%,51.5282%,51.5282%,1)"/>
  <circle cx="9" cy="8" r="1" fill="rgba(51.5145%,51.5145%,51.5145%,1)"/>
  <circle cx="10" cy="8" r="1" fill="rgba(67.248%,67.248%,67.248%,1)"/>
  <circle cx="11" cy="8" r="1" fill="rgba(75.0378%,75.0378%,75.0378%,1)"/>
  <circle cx="12" cy="8" r="1" fill="rgba(62.5086%,62.5086%,62.5086%,1)"/>
  <circle cx="13" cy="8" r="1" fill="rgba(50.8614%,50.8614%,50.8614%,1)"/>
  <circle cx="14" cy="8" r="1" fill="rgba(58.1338%,58.1338%,58.1338%,1)"/>
  <circle cx="15" cy="8" r="1" fill="rgba(86.3432%,86.3432%,86.3432%,1)"/>
  <circle cx="16" cy="8" r="1" fill="rgba(86.3767%,86.3767%,86.3767%,1)"/>
  <circle cx="17" cy="8" r="1" fill="rgba(58.2391%,58.2391%,58.2391%,1)"/>
  <circle cx="18" cy="8" r="1" fill="rgba(49.4697%,49.4697%,49.4697%,1)"/>
  <circle cx="19" cy="8" r="1" fill="rgba(79.9725%,79.9725%,79.9725%,1)"/>
  <circle cx="20" cy="8" r="1" fill="rgba(98.79%,98.79%,98.79%,1)"/>
  <circle cx="21" cy="8" r="1" fill="white"/>
  <circle cx="0" cy="9" r="1" fill="white"/>
  <circle cx="1" cy="9" r="1" fill="rgba(99.4568%,99.4568%,99.4568%,1)"/>
  <circle cx="2" cy="9" r="1" fill="rgba(82.9099%,82.9099%,82.9099%,1)"/>
  <circle cx="3" cy="9" r="1" fill="rgba(50.5592%,50.5592%,50.5592%,1)"/>
  <circle cx="4" cy="9" r="1" fill="rgba(57.2091%,57.2091%,57.2091%,1)"/>
  <circle cx="5" cy="9" r="1" fill="rgba(84.4694%,84.4694%,84.4694%,1)"/>
  <circle cx="6" cy="9" r="1" fill="rgba(82.7634%,82.7634%,82.7634%,1)"/>
  <circle cx="7" cy="9" r="1" fill="rgba(56.2707%,56.2707%,56.2707%,1)"/>
  <circle cx="8" cy="9" r="1" fill="rgba(51.339%,51.339%,51.339%,1)"/>
  <circle cx="9" cy="9" r="1" fill="rgba(70.4646%,70.4646%,70.4646%,1)"/>
  <circle cx="10" cy="9" r="1" fill="rgba(93.6736%,93.6736%,93.6736%,1)"/>
  <circle cx="11" cy="9" r="1" fill="rgba(95.8801%,95.8801%,95.8801%,1)"/>
  <circle cx="12" cy="9" r="1" fill="rgba(74.1131%,74.1131%,74.1131%,1)"/>
  <circle cx="13" cy="9" r="1" fill="rgba(51.3115%,51.3115%,51.3115%,1)"/>
  <circle cx="14" cy="9" r="1" fill="rgba(59.527%,59.527%,59.527%,1)"/>
  <circle cx="15" cy="9" r="1" fill="rgba(87.5929%,87.5929%,87.5929%,1)"/>
  <circle cx="16" cy="9" r="1" fill="rgba(91.2978%,91.2978%,91.2978%,1)"/>
  <circle cx="17" cy="9" r="1" fill="rgba(62.4872%,62.4872%,62.4872%,1)"/>
  <circle cx="18" cy="9" r="1" fill="rgba(50.0618%,50.0618%,50.0618%,1)"/>
  <circle cx="19" cy="9" r="1" fill="rgba(76.0998%,76.0998%,76.0998%,1)"/>
  <circle cx="20" cy="9" r="1" fill="rgba(97.7752%,97.7752%,97.7752%,1)"/>
  <circle cx="21" cy="9" r="1" fill="white"/>
  <circle cx="0" cy="10" r="1" fill="white"/>
  <circle cx="1" cy="10" r="1" fill="rgba(98.1796%,98.1796%,98.1796%,1)"/>
  <circle cx="2" cy="10" r="1" fill="rgba(77.6349%,77.6349%,77.6349%,1)"/>
  <circle cx="3" cy="10" r="1" fill="rgba(50.4402%,50.4402%,50.4402%,1)"/>
  <circle cx="4" cy="10" r="1" fill="rgba(61.5595%,61.5595%,61.5595%,1)"/>
  <circle cx="5" cy="10" r="1" fill="rgba(90.222%,90.222%,90.222%,1)"/>
  <circle cx="6" cy="10" r="1" fill="rgba(75.5871%,75.5871%,75.5871%,1)"/>
  <circle cx="7" cy="10" r="1" fill="rgba(53.9559%,53.9559%,53.9559%,1)"/>
  <circle cx="8" cy="10" r="1" fill="rgba(52.1157%,52.1157%,52.1157%,1)"/>
  <circle cx="9" cy="10" r="1" fill="rgba(88.1346%,88.1346%,88.1346%,1)"/>
  <circle cx="10" cy="10" r="1" fill="rgba(99.9908%,99.9908%,99.9908%,1)"/>
  <circle cx="11" cy="10" r="1" fill="rgba(97.6974%,97.6974%,97.6974%,1)"/>
  <circle cx="12" cy="10" r="1" fill="rgba(73.4096%,73.4096%,73.4096%,1)"/>
  <circle cx="13" cy="10" r="1" fill="rgba(51.8639%,51.8639%,51.8639%,1)"/>
  <circle cx="14" cy="10" r="1" fill="rgba(60.5234%,60.5234%,60.5234%,1)"/>
  <circle cx="15" cy="10" r="1" fill="rgba(89.3172%,89.3172%,89.3172%,1)"/>
  <circle cx="16" cy="10" r="1" fill="rgba(91.5038%,91.5038%,91.5038%,1)"/>
  <circle cx="17" cy="10" r="1" fill="rgba(62.9603%,62.9603%,62.9603%,1)"/>
  <circle cx="18" cy="10" r="1" fill="rgba(50.5241%,50.5241%,50.5241%,1)"/>
  <circle cx="19" cy="10" r="1" fill="rgba(75.8282%,75.8282%,75.8282%,1)"/>
  <circle cx="20" cy="10" r="1" fill="rgba(97.6547%,97.6547%,97.6547%,1)"/>
  <circle cx="21" cy="10" r="1" fill="white"/>
  <circle cx="0" cy="11" r="1" fill="white"/>
  <circle cx="1" cy="11" r="1" fill="rgba(97.6135%,97.6135%,97.6135%,1)"/>
  <circle cx="2" cy="11" r="1" fill="rgba(75.7031%,75.7031%,75.7031%,1)"/>
  <circle cx="3" cy="11" r="1" fill="rgba(50.6233%,50.6233%,50.6233%,1)"/>
  <circle cx="4" cy="11" r="1" fill="rgba(62.7619%,62.7619%,62.7619%,1)"/>
  <circle cx="5" cy="11" r="1" fill="rgba(92.0348%,92.0348%,92.0348%,1)"/>
  <circle cx="6" cy="11" r="1" fill="rgba(73.5454%,73.5454%,73.5454%,1)"/>
  <circle cx="7" cy="11" r="1" fill="rgba(52.9488%,52.9488%,52.9488%,1)"/>
  <circle cx="8" cy="11" r="1" fill="rgba(53.7499%,53.7499%,53.7499%,1)"/>
  <circle cx="9" cy="11" r="1" fill="rgba(91.339%,91.339%,91.339%,1)"/>
  <circle cx="10" cy="11" r="1" fill="white"/>
  <circle cx="11" cy="11" r="1" fill="rgba(96.939%,96.939%,96.939%,1)"/>
  <circle cx="12" cy="11" r="1" fill="rgba(68.2994%,68.2994%,68.2994%,1)"/>
  <circle cx="13" cy="11" r="1" fill="rgba(52.2911%,52.2911%,52.2911%,1)"/>
  <circle cx="14" cy="11" r="1" fill="rgba(61.1917%,61.1917%,61.1917%,1)"/>
  <circle cx="15" cy="11" r="1" fill="rgba(90.8049%,90.8049%,90.8049%,1)"/>
  <circle cx="16" cy="11" r="1" fill="rgba(88.6595%,88.6595%,88.6595%,1)"/>
  <circle cx="17" cy="11" r="1" fill="rgba(60.8515%,60.8515%,60.8515%,1)"/>
  <circle cx="18" cy="11" r="1" fill="rgba(50.3868%,50.3868%,50.3868%,1)"/>
  <circle cx="19" cy="11" r="1" fill="rgba(79.5392%,79.5392%,79.5392%,1)"/>
  <circle cx="20" cy="11" r="1" fill="rgba(98.6389%,98.6389%,98.6389%,1)"/>
  <circle cx="21" cy="11" r="1" fill="white"/>
  <circle cx="0" cy="12" r="1" fill="white"/>
  <circle cx="1" cy="12" r="1" fill="rgba(97.9294%,97.9294%,97.9294%,1)"/>
  <circle cx="2" cy="12" r="1" fill="rgba(76.8643%,76.8643%,76.8643%,1)"/>
  <circle cx="3" cy="12" r="1" fill="rgba(50.8537%,50.8537%,50.8537%,1)"/>
  <circle cx="4" cy="12" r="1" fill="rgba(62.1592%,62.1592%,62.1592%,1)"/>
  <circle cx="5" cy="12" r="1" fill="rgba(90.7027%,90.7027%,90.7027%,1)"/>
  <circle cx="6" cy="12" r="1" fill="rgba(78.0056%,78.0056%,78.0056%,1)"/>
  <circle cx="7" cy="12" r="1" fill="rgba(55.5489%,55.5489%,55.5489%,1)"/>
  <circle cx="8" cy="12" r="1" fill="rgba(51.9966%,51.9966%,51.9966%,1)"/>
  <circle cx="9" cy="12" r="1" fill="rgba(82.443%,82.443%,82.443%,1)"/>
  <circle cx="10" cy="12" r="1" fill="rgba(96.0067%,96.0067%,96.0067%,1)"/>
  <circle cx="11" cy="12" r="1" fill="rgba(89.6391%,89.6391%,89.6391%,1)"/>
  <circle cx="12" cy="12" r="1" fill="rgba(57.3205%,57.3205%,57.3205%,1)"/>
  <circle cx="13" cy="12" r="1" fill="rgba(53.2952%,53.2952%,53.2952%,1)"/>
  <circle cx="14" cy="12" r="1" fill="rgba(60.174%,60.174%,60.174%,1)"/>
  <circle cx="15" cy="12" r="1" fill="rgba(86.8696%,86.8696%,86.8696%,1)"/>
  <circle cx="16" cy="12" r="1" fill="rgba(78.6114%,78.6114%,78.6114%,1)"/>
  <circle cx="17" cy="12" r="1" fill="rgba(55.1492%,55.1492%,55.1492%,1)"/>
  <circle cx="18" cy="12" r="1" fill="rgba(53.6004%,53.6004%,53.6004%,1)"/>
  <circle cx="19" cy="12" r="1" fill="rgba(87.2755%,87.2755%,87.2755%,1)"/>
  <circle cx="20" cy="12" r="1" fill="rgba(99.9527%,99.9527%,99.9527%,1)"/>
  <circle cx="21" cy="12" r="1" fill="white"/>
  <circle cx="0" cy="13" r="1" fill="white"/>
  <circle cx="1" cy="13" r="1" fill="rgba(99.4003%,99.4003%,99.4003%,1)"/>
  <circle cx="2" cy="13" r="1" fill="rgba(82.8382%,82.8382%,82.8382%,1)"/>
  <circle cx="3" cy="13" r="1" fill="rgba(51.3298%,51.3298%,51.3298%,1)"/>
  <circle cx="4" cy="13" r="1" fill="rgba(59.1073%,59.1073%,59.1073%,1)"/>
  <circle cx="5" cy="13" r="1" fill="rgba(85.7038%,85.7038%,85.7038%,1)"/>
  <circle cx="6" cy="13" r="1" fill="rgba(88.9403%,88.9403%,88.9403%,1)"/>
  <circle cx="7" cy="13" r="1" fill="rgba(60.5463%,60.5463%,60.5463%,1)"/>
  <circle cx="8" cy="13" r="1" fill="rgba(52.3781%,52.3781%,52.3781%,1)"/>
  <circle cx="9" cy="13" r="1" fill="rgba(58.6679%,58.6679%,58.6679%,1)"/>
  <circle cx="10" cy="13" r="1" fill="rgba(70.222%,70.222%,70.222%,1)"/>
  <circle cx="11" cy="13" r="1" fill="rgba(61.944%,61.944%,61.944%,1)"/>
  <circle cx="12" cy="13" r="1" fill="rgba(51.8822%,51.8822%,51.8822%,1)"/>
  <circle cx="13" cy="13" r="1" fill="rgba(52.9549%,52.9549%,52.9549%,1)"/>
  <circle cx="14" cy="13" r="1" fill="rgba(54.3511%,54.3511%,54.3511%,1)"/>
  <circle cx="15" cy="13" r="1" fill="rgba(62.9175%,62.9175%,62.9175%,1)"/>
  <circle cx="16" cy="13" r="1" fill="rgba(60.209%,60.209%,60.209%,1)"/>
  <circle cx="17" cy="13" r="1" fill="rgba(51.3588%,51.3588%,51.3588%,1)"/>
  <circle cx="18" cy="13" r="1" fill="rgba(67.2343%,67.2343%,67.2343%,1)"/>
  <circle cx="19" cy="13" r="1" fill="rgba(94.2184%,94.2184%,94.2184%,1)"/>
  <circle cx="20" cy="13" r="1" fill="white"/>
  <circle cx="21" cy="13" r="1" fill="white"/>
  <circle cx="0" cy="14" r="1" fill="white"/>
  <circle cx="1" cy="14" r="1" fill="white"/>
  <circle cx="2" cy="14" r="1" fill="rgba(88.3635%,88.3635%,88.3635%,1)"/>
  <circle cx="3" cy="14" r="1" fill="rgba(55.3292%,55.3292%,55.3292%,1)"/>
  <circle cx="4" cy="14" r="1" fill="rgba(54.0475%,54.0475%,54.0475%,1)"/>
  <circle cx="5" cy="14" r="1" fill="rgba(74.8898%,74.8898%,74.8898%,1)"/>
  <circle cx="6" cy="14" r="1" fill="rgba(98.5428%,98.5428%,98.5428%,1)"/>
  <circle cx="7" cy="14" r="1" fill="rgba(78.0606%,78.0606%,78.0606%,1)"/>
  <circle cx="8" cy="14" r="1" fill="rgba(59.2126%,59.2126%,59.2126%,1)"/>
  <circle cx="9" cy="14" r="1" fill="rgba(53.2387%,53.2387%,53.2387%,1)"/>
  <circle cx="10" cy="14" r="1" fill="rgba(51.1696%,51.1696%,51.1696%,1)"/>
  <circle cx="11" cy="14" r="1" fill="rgba(53.1426%,53.1426%,53.1426%,1)"/>
  <circle cx="12" cy="14" r="1" fill="rgba(61.8372%,61.8372%,61.8372%,1)"/>
  <circle cx="13" cy="14" r="1" fill="rgba(67.3396%,67.3396%,67.3396%,1)"/>
  <circle cx="14" cy="14" r="1" fill="rgba(55.1431%,55.1431%,55.1431%,1)"/>
  <circle cx="15" cy="14" r="1" fill="rgba(51.3237%,51.3237%,51.3237%,1)"/>
  <circle cx="16" cy="14" r="1" fill="rgba(53.051%,53.051%,53.051%,1)"/>
  <circle cx="17" cy="14" r="1" fill="rgba(61.6205%,61.6205%,61.6205%,1)"/>
  <circle cx="18" cy="14" r="1" fill="rgba(87.5608%,87.5608%,87.5608%,1)"/>
  <circle cx="19" cy="14" r="1" fill="rgba(99.971%,99.971%,99.971%,1)"/>
  <circle cx="20" cy="14" r="1" fill="white"/>
  <circle cx="21" cy="14" r="1" fill="white"/>
  <circle cx="0" cy="15" r="1" fill="white"/>
  <circle cx="1" cy="15" r="1" fill="white"/>
  <circle cx="2" cy="15" r="1" fill="rgba(94.4198%,94.4198%,94.4198%,1)"/>
  <circle cx="3" cy="15" r="1" fill="rgba(67.7623%,67.7623%,67.7623%,1)"/>
  <circle cx="4" cy="15" r="1" fill="rgba(52.6467%,52.6467%,52.6467%,1)"/>
  <circle cx="5" cy="15" r="1" fill="rgba(60.8774%,60.8774%,60.8774%,1)"/>
  <circle cx="6" cy="15" r="1" fill="rgba(84.9516%,84.9516%,84.9516%,1)"/>
  <circle cx="7" cy="15" r="1" fill="rgba(98.2513%,98.2513%,98.2513%,1)"/>
  <circle cx="8" cy="15" r="1" fill="rgba(85.417%,85.417%,85.417%,1)"/>
  <circle cx="9" cy="15" r="1" fill="rgba(73.7728%,73.7728%,73.7728%,1)"/>
  <circle cx="10" cy="15" r="1" fill="rgba(70.9026%,70.9026%,70.9026%,1)"/>
  <circle cx="11" cy="15" r="1" fill="rgba(76.0967%,76.0967%,76.0967%,1)"/>
  <circle cx="12" cy="15" r="1" fill="rgba(90.2983%,90.2983%,90.2983%,1)"/>
  <circle cx="13" cy="15" r="1" fill="rgba(95.8526%,95.8526%,95.8526%,1)"/>
  <circle cx="14" cy="15" r="1" fill="rgba(79.4125%,79.4125%,79.4125%,1)"/>
  <circle cx="15" cy="15" r="1" fill="rgba(72.2591%,72.2591%,72.2591%,1)"/>
  <circle cx="16" cy="15" r="1" fill="rgba(74.8409%,74.8409%,74.8409%,1)"/>
  <circle cx="17" cy="15" r="1" fill="rgba(89.2805%,89.2805%,89.2805%,1)"/>
  <circle cx="18" cy="15" r="1" fill="rgba(99.4186%,99.4186%,99.4186%,1)"/>
  <circle cx="19" cy="15" r="1" fill="white"/>
  <circle cx="20" cy="15" r="1" fill="white"/>
  <circle cx="21" cy="15" r="1" fill="white"/>
  <circle cx="0" cy="16" r="1" fill="white"/>
  <circle cx="1" cy="16" r="1" fill="white"/>
  <circle cx="2" cy="16" r="1" fill="rgba(99.0875%,99.0875%,99.0875%,1)"/>
  <circle cx="3" cy="16" r="1" fill="rgba(84.2634%,84.2634%,84.2634%,1)"/>
  <circle cx="4" cy="16" r="1" fill="rgba(58.2254%,58.2254%,58.2254%,1)"/>
  <circle cx="5" cy="16" r="1" fill="rgba(53.4386%,53.4386%,53.4386%,1)"/>
  <circle cx="6" cy="16" r="1" fill="rgba(62.4247%,62.4247%,62.4247%,1)"/>
  <circle cx="7" cy="16" r="1" fill="rgba(79.8032%,79.8032%,79.8032%,1)"/>
  <circle cx="8" cy="16" r="1" fill="rgba(91.7586%,91.7586%,91.7586%,1)"/>
  <circle cx="9" cy="16" r="1" fill="rgba(99.617%,99.617%,99.617%,1)"/>
  <circle cx="10" cy="16" r="1" fill="white"/>
  <circle cx="11" cy="16" r="1" fill="white"/>
  <circle cx="12" cy="16" r="1" fill="rgba(96.8658%,96.8658%,96.8658%,1)"/>
  <circle cx="13" cy="16" r="1" fill="rgba(91.1254%,91.1254%,91.1254%,1)"/>
  <circle cx="14" cy="16" r="1" fill="rgba(83.4852%,83.4852%,83.4852%,1)"/>
  <circle cx="15" cy="16" r="1" fill="rgba(86.2531%,86.2531%,86.2531%,1)"/>
  <circle cx="16" cy="16" r="1" fill="rgba(99.8428%,99.8428%,99.8428%,1)"/>
  <circle cx="17" cy="16" r="1" fill="white"/>
  <circle cx="18" cy="16" r="1" fill="white"/>
  <circle cx="19" cy="16" r="1" fill="white"/>
  <circle cx="20" cy="16" r="1" fill="white"/>
  <circle cx="21" cy="16" r="1" fill="white"/>
  <circle cx="0" cy="17" r="1" fill="white"/>
  <circle cx="1" cy="17" r="1" fill="white"/>
  <circle cx="2" cy="17" r="1" fill="white"/>
  <circle cx="3" cy="17" r="1" fill="rgba(248,248,248,1)"/>
  <circle cx="4" cy="17" r="1" fill="rgba(80.2853%,80.2853%,80.2853%,1)"/>
  <circle cx="5" cy="17" r="1" fill="rgba(59.2691%,59.2691%,59.2691%,1)"/>
  <circle cx="6" cy="17" r="1" fill="rgba(53.0465%,53.0465%,53.0465%,1)"/>
  <circle cx="7" cy="17" r="1" fill="rgba(57.6715%,57.6715%,57.6715%,1)"/>
  <circle cx="8" cy="17" r="1" fill="rgba(64.4633%,64.4633%,64.4633%,1)"/>
  <circle cx="9" cy="17" r="1" fill="rgba(69.8405%,69.8405%,69.8405%,1)"/>
  <circle cx="10" cy="17" r="1" fill="rgba(70.8537%,70.8537%,70.8537%,1)"/>
  <circle cx="11" cy="17" r="1" fill="rgba(70.4524%,70.4524%,70.4524%,1)"/>
  <circle cx="12" cy="17" r="1" fill="rgba(68.5206%,68.5206%,68.5206%,1)"/>
  <circle cx="13" cy="17" r="1" fill="rgba(64.5609%,64.5609%,64.5609%,1)"/>
  <circle cx="14" cy="17" r="1" fill="rgba(56.5866%,56.5866%,56.5866%,1)"/>
  <circle cx="15" cy="17" r="1" fill="rgba(67.5303%,67.5303%,67.5303%,1)"/>
  <circle cx="16" cy="17" r="1" fill="rgba(96.4401%,96.4401%,96.4401%,1)"/>
  <circle cx="17" cy="17" r="1" fill="white"/>
  <circle cx="18" cy="17" r="1" fill="white"/>
  <circle cx="19" cy="17" r="1" fill="white"/>
  <circle cx="20" cy="17" r="1" fill="white"/>
  <circle cx="21" cy="17" r="1" fill="white"/>
  <circle cx="0" cy="18" r="1" fill="white"/>
  <circle cx="1" cy="18" r="1" fill="white"/>
  <circle cx="2" cy="18" r="1" fill="white"/>
  <circle cx="3" cy="18" r="1" fill="white"/>
  <circle cx="4" cy="18" r="1" fill="rgba(97.8225%,97.8225%,97.8225%,1)"/>
  <circle cx="5" cy="18" r="1" fill="rgba(84.7166%,84.7166%,84.7166%,1)"/>
  <circle cx="6" cy="18" r="1" fill="rgba(67.3274%,67.3274%,67.3274%,1)"/>
  <circle cx="7" cy="18" r="1" fill="rgba(55.5154%,55.5154%,55.5154%,1)"/>
  <circle cx="8" cy="18" r="1" fill="rgba(52.6375%,52.6375%,52.6375%,1)"/>
  <circle cx="9" cy="18" r="1" fill="rgba(52.8359%,52.8359%,52.8359%,1)"/>
  <circle cx="10" cy="18" r="1" fill="rgba(52.8847%,52.8847%,52.8847%,1)"/>
  <circle cx="11" cy="18" r="1" fill="rgba(52.9046%,52.9046%,52.9046%,1)"/>
  <circle cx="12" cy="18" r="1" fill="rgba(52.9656%,52.9656%,52.9656%,1)"/>
  <circle cx="13" cy="18" r="1" fill="rgba(52.845%,52.845%,52.845%,1)"/>
  <circle cx="14" cy="18" r="1" fill="rgba(54.9401%,54.9401%,54.9401%,1)"/>
  <circle cx="15" cy="18" r="1" fill="rgba(74.8104%,74.8104%,74.8104%,1)"/>
  <circle cx="16" cy="18" r="1" fill="rgba(98.2269%,98.2269%,98.2269%,1)"/>
  <circle cx="17" cy="18" r="1" fill="white"/>
  <circle cx="18" cy="18" r="1" fill="white"/>
  <circle cx="19" cy="18" r="1" fill="white"/>
  <circle cx="20" cy="18" r="1" fill="white"/>
  <circle cx="21" cy="18" r="1" fill="white"/>
  <circle cx="0" cy="19" r="1" fill="white"/>
  <circle cx="1" cy="19" r="1" fill="white"/>
  <circle cx="2" cy="19" r="1" fill="white"/>
  <circle cx="3" cy="19" r="1" fill="white"/>
  <circle cx="4" cy="19" r="1" fill="white"/>
  <circle cx="5" cy="19" r="1" fill="rgba(99.3362%,99.3362%,99.3362%,1)"/>
  <circle cx="6" cy="19" r="1" fill="rgba(94.023%,94.023%,94.023%,1)"/>
  <circle cx="7" cy="19" r="1" fill="rgba(87.4586%,87.4586%,87.4586%,1)"/>
  <circle cx="8" cy="19" r="1" fill="rgba(80.3937%,80.3937%,80.3937%,1)"/>
  <circle cx="9" cy="19" r="1" fill="rgba(75.1354%,75.1354%,75.1354%,1)"/>
  <circle cx="10" cy="19" r="1" fill="rgba(72.7077%,72.7077%,72.7077%,1)"/>
  <circle cx="11" cy="19" r="1" fill="rgba(73.0114%,73.0114%,73.0114%,1)"/>
  <circle cx="12" cy="19" r="1" fill="rgba(75.935%,75.935%,75.935%,1)"/>
  <circle cx="13" cy="19" r="1" fill="rgba(81.7166%,81.7166%,81.7166%,1)"/>
  <circle cx="14" cy="19" r="1" fill="rgba(88.6534%,88.6534%,88.6534%,1)"/>
  <circle cx="15" cy="19" r="1" fill="rgba(94.9279%,94.9279%,94.9279%,1)"/>
  <circle cx="16" cy="19" r="1" fill="rgba(99.8764%,99.8764%,99.8764%,1)"/>
  <circle cx="17" cy="19" r="1" fill="white"/>
  <circle cx="18" cy="19" r="1" fill="white"/>
  <circle cx="19" cy="19" r="1" fill="white"/>
  <circle cx="20" cy="19" r="1" fill="white"/>
  <circle cx="21" cy="19" r="1" fill="white"/>
  <circle cx="0" cy="20" r="1" fill="white"/>
  <circle cx="1" cy="20" r="1" fill="white"/>
  <circle cx="2" cy="20" r="1" fill="white"/>
  <circle cx="3" cy="20" r="1" fill="white"/>
  <circle cx="4" cy="20" r="1" fill="white"/>
  <circle cx="5" cy="20" r="1" fill="white"/>
  <circle cx="6" cy="20" r="1" fill="white"/>
  <circle cx="7" cy="20" r="1" fill="white"/>
  <circle cx="8" cy="20" r="1" fill="rgba(98.6938%,98.6938%,98.6938%,1)"/>
  <circle cx="9" cy="20" r="1" fill="rgba(97.1695%,97.1695%,97.1695%,1)"/>
  <circle cx="10" cy="20" r="1" fill="rgba(96.5087%,96.5087%,96.5087%,1)"/>
  <circle cx="11" cy="20" r="1" fill="rgba(96.5942%,96.5942%,96.5942%,1)"/>
  <circle cx="12" cy="20" r="1" fill="rgba(97.4136%,97.4136%,97.4136%,1)"/>
  <circle cx="13" cy="20" r="1" fill="rgba(99.028%,99.028%,99.028%,1)"/>
  <circle cx="14" cy="20" r="1" fill="white"/>
  <circle cx="15" cy="20" r="1" fill="white"/>
  <circle cx="16" cy="20" r="1" fill="white"/>
  <circle cx="17" cy="20" r="1" fill="white"/>
  <circle cx="18" cy="20" r="1" fill="white"/>
  <circle cx="19" cy="20" r="1" fill="white"/>
  <circle cx="20" cy="20" r="1" fill="white"/>
  <circle cx="21" cy="20" r="1" fill="white"/>
  <circle cx="0" cy="21" r="1" fill="white"/>
  <circle cx="1" cy="21" r="1" fill="white"/>
  <circle cx="2" cy="21" r="1" fill="white"/>
  <circle cx="3" cy="21" r="1" fill="white"/>
  <circle cx="4" cy="21" r="1" fill="white"/>
  <circle cx="5" cy="21" r="1" fill="white"/>
  <circle cx="6" cy="21" r="1" fill="white"/>
  <circle cx="7" cy="21" r="1" fill="white"/>
  <circle cx="8" cy="21" r="1" fill="white"/>
  <circle cx="9" cy="21" r="1" fill="white"/>
  <circle cx="10" cy="21" r="1" fill="white"/>
  <circle cx="11" cy="21" r="1" fill="white"/>
  <circle cx="12" cy="21" r="1" fill="white"/>
  <circle cx="13" cy="21" r="1" fill="white"/>
  <circle cx="14" cy="21" r="1" fill="white"/>
  <circle cx="15" cy="21" r="1" fill="white"/>
  <circle cx="16" cy="21" r="1" fill="white"/>
  <circle cx="17" cy="21" r="1" fill="white"/>
  <circle cx="18" cy="21" r="1" fill="white"/>
  <circle cx="19" cy="21" r="1" fill="white"/>
  <circle cx="20" cy="21" r="1" fill="white"/>
  <circle cx="21" cy="21" r="1" fill="white"/>
</svg>
