<?xml version="1.0" standalone="no"?>
<!DOCTYPE svg PUBLIC "-//W3C//DTD SVG 20010904//EN"
  "http://www.w3.org/TR/2001/REC-SVG-20010904/DTD/svg10.dtd">
<svg width="22" height="22">
  <circle cx="0" cy="0" r="1" fill="white"/>
  <circle cx="1" cy="0" r="1" fill="white"/>
  <circle cx="2" cy="0" r="1" fill="white"/>
  <circle cx="3" cy="0" r="1" fill="white"/>
  <circle cx="4" cy="0" r="1" fill="white"/>
  <circle cx="5" cy="0" r="1" fill="white"/>
  <circle cx="6" cy="0" r="1" fill="white"/>
  <circle cx="7" cy="0" r="1" fill="white"/>
  <circle cx="8" cy="0" r="1" fill="white"/>
  <circle cx="9" cy="0" r="1" fill="white"/>
  <circle cx="10" cy="0" r="1" fill="white"/>
  <circle cx="11" cy="0" r="1" fill="white"/>
  <circle cx="12" cy="0" r="1" fill="white"/>
  <circle cx="13" cy="0" r="1" fill="white"/>
  <circle cx="14" cy="0" r="1" fill="white"/>
  <circle cx="15" cy="0" r="1" fill="white"/>
  <circle cx="16" cy="0" r="1" fill="white"/>
  <circle cx="17" cy="0" r="1" fill="white"/>
  <circle cx="18" cy="0" r="1" fill="white"/>
  <circle cx="19" cy="0" r="1" fill="white"/>
  <circle cx="20" cy="0" r="1" fill="white"/>
  <circle cx="21" cy="0" r="1" fill="white"/>
  <circle cx="0" cy="1" r="1" fill="white"/>
  <circle cx="1" cy="1" r="1" fill="white"/>
  <circle cx="2" cy="1" r="1" fill="white"/>
  <circle cx="3" cy="1" r="1" fill="white"/>
  <circle cx="4" cy="1" r="1" fill="white"/>
  <circle cx="5" cy="1" r="1" fill="white"/>
  <circle cx="6" cy="1" r="1" fill="white"/>
  <circle cx="7" cy="1" r="1" fill="white"/>
  <circle cx="8" cy="1" r="1" fill="white"/>
  <circle cx="9" cy="1" r="1" fill="white"/>
  <circle cx="10" cy="1" r="1" fill="white"/>
  <circle cx="11" cy="1" r="1" fill="white"/>
  <circle cx="12" cy="1" r="1" fill="white"/>
  <circle cx="13" cy="1" r="1" fill="white"/>
  <circle cx="14" cy="1" r="1" fill="white"/>
  <circle cx="15" cy="1" r="1" fill="white"/>
  <circle cx="16" cy="1" r="1" fill="white"/>
  <circle cx="17" cy="1" r="1" fill="white"/>
  <circle cx="18" cy="1" r="1" fill="white"/>
  <circle cx="19" cy="1" r="1" fill="white"/>
  <circle cx="20" cy="1" r="1" fill="white"/>
  <circle cx="21" cy="1" r="1" fill="white"/>
  <circle cx="0" cy="2" r="1" fill="white"/>
  <circle cx="1" cy="2" r="1" fill="white"/>
  <circle cx="2" cy="2" r="1" fill="white"/>
  <circle cx="3" cy="2" r="1" fill="white"/>
  <circle cx="4" cy="2" r="1" fill="white"/>
  <circle cx="5" cy="2" r="1" fill="white"/>
  <circle cx="6" cy="2" r="1" fill="white"/>
  <circle cx="7" cy="2" r="1" fill="white"/>
  <circle cx="8" cy="2" r="1" fill="white"/>
  <circle cx="9" cy="2" r="1" fill="white"/>
  <circle cx="10" cy="2" r="1" fill="rgba(94.7021%,94.7021%,94.7021%,1)"/>
  <circle cx="11" cy="2" r="1" fill="rgba(94.7005%,94.7005%,94.7005%,1)"/>
  <circle cx="12" cy="2" r="1" fill="white"/>
  <circle cx="13" cy="2" r="1" fill="white"/>
  <circle cx="14" cy="2" r="1" fill="white"/>
  <circle cx="15" cy="2" r="1" fill="white"/>
  <circle cx="16" cy="2" r="1" fill="white"/>
  <circle cx="17" cy="2" r="1" fill="white"/>
  <circle cx="18" cy="2" r="1" fill="white"/>
  <circle cx="19" cy="2" r="1" fill="white"/>
  <circle cx="20" cy="2" r="1" fill="white"/>
  <circle cx="21" cy="2" r="1" fill="white"/>
  <circle cx="0" cy="3" r="1" fill="white"/>
  <circle cx="1" cy="3" r="1" fill="white"/>
  <circle cx="2" cy="3" r="1" fill="white"/>
  <circle cx="3" cy="3" r="1" fill="white"/>
  <circle cx="4" cy="3" r="1" fill="white"/>
  <circle cx="5" cy="3" r="1" fill="white"/>
  <circle cx="6" cy="3" r="1" fill="white"/>
  <circle cx="7" cy="3" r="1" fill="white"/>
  <circle cx="8" cy="3" r="1" fill="white"/>
  <circle cx="9" cy="3" r="1" fill="rgba(91.783%,91.783%,91.783%,1)"/>
  <circle cx="10" cy="3" r="1" fill="rgba(67.4159%,67.4159%,67.4159%,1)"/>
  <circle cx="11" cy="3" r="1" fill="rgba(67.4342%,67.4342%,67.4342%,1)"/>
  <circle cx="12" cy="3" r="1" fill="rgba(91.8944%,91.8944%,91.8944%,1)"/>
  <circle cx="13" cy="3" r="1" fill="white"/>
  <circle cx="14" cy="3" r="1" fill="white"/>
  <circle cx="15" cy="3" r="1" fill="white"/>
  <circle cx="16" cy="3" r="1" fill="white"/>
  <circle cx="17" cy="3" r="1" fill="white"/>
  <circle cx="18" cy="3" r="1" fill="white"/>
  <circle cx="19" cy="3" r="1" fill="white"/>
  <circle cx="20" cy="3" r="1" fill="white"/>
  <circle cx="21" cy="3" r="1" fill="white"/>
  <circle cx="0" cy="4" r="1" fill="white"/>
  <circle cx="1" cy="4" r="1" fill="white"/>
  <circle cx="2" cy="4" r="1" fill="white"/>
  <circle cx="3" cy="4" r="1" fill="white"/>
  <circle cx="4" cy="4" r="1" fill="white"/>
  <circle cx="5" cy="4" r="1" fill="white"/>
  <circle cx="6" cy="4" r="1" fill="white"/>
  <circle cx="7" cy="4" r="1" fill="white"/>
  <circle cx="8" cy="4" r="1" fill="rgba(90.7317%,90.7317%,90.7317%,1)"/>
  <circle cx="9" cy="4" r="1" fill="rgba(64.7486%,64.7486%,64.7486%,1)"/>
  <circle cx="10" cy="4" r="1" fill="rgba(50.4692%,50.4692%,50.4692%,1)"/>
  <circle cx="11" cy="4" r="1" fill="rgba(50.5013%,50.5013%,50.5013%,1)"/>
  <circle cx="12" cy="4" r="1" fill="rgba(64.9363%,64.9363%,64.9363%,1)"/>
  <circle cx="13" cy="4" r="1" fill="rgba(90.7805%,90.7805%,90.7805%,1)"/>
  <circle cx="14" cy="4" r="1" fill="white"/>
  <circle cx="15" cy="4" r="1" fill="white"/>
  <circle cx="16" cy="4" r="1" fill="white"/>
  <circle cx="17" cy="4" r="1" fill="white"/>
  <circle cx="18" cy="4" r="1" fill="white"/>
  <circle cx="19" cy="4" r="1" fill="white"/>
  <circle cx="20" cy="4" r="1" fill="white"/>
  <circle cx="21" cy="4" r="1" fill="white"/>
  <circle cx="0" cy="5" r="1" fill="white"/>
  <circle cx="1" cy="5" r="1" fill="white"/>
  <circle cx="2" cy="5" r="1" fill="white"/>
  <circle cx="3" cy="5" r="1" fill="white"/>
  <circle cx="4" cy="5" r="1" fill="white"/>
  <circle cx="5" cy="5" r="1" fill="white"/>
  <circle cx="6" cy="5" r="1" fill="white"/>
  <circle cx="7" cy="5" r="1" fill="rgba(90.0832%,90.0832%,90.0832%,1)"/>
  <circle cx="8" cy="5" r="1" fill="rgba(63.8987%,63.8987%,63.8987%,1)"/>
  <circle cx="9" cy="5" r="1" fill="rgba(51.397%,51.397%,51.397%,1)"/>
  <circle cx="10" cy="5" r="1" fill="rgba(53.0587%,53.0587%,53.0587%,1)"/>
  <circle cx="11" cy="5" r="1" fill="rgba(53.0571%,53.0571%,53.0571%,1)"/>
  <circle cx="12" cy="5" r="1" fill="rgba(51.3848%,51.3848%,51.3848%,1)"/>
  <circle cx="13" cy="5" r="1" fill="rgba(63.9536%,63.9536%,63.9536%,1)"/>
  <circle cx="14" cy="5" r="1" fill="rgba(90.074%,90.074%,90.074%,1)"/>
  <circle cx="15" cy="5" r="1" fill="white"/>
  <circle cx="16" cy="5" r="1" fill="white"/>
  <circle cx="17" cy="5" r="1" fill="white"/>
  <circle cx="18" cy="5" r="1" fill="white"/>
  <circle cx="19" cy="5" r="1" fill="white"/>
  <circle cx="20" cy="5" r="1" fill="white"/>
  <circle cx="21" cy="5" r="1" fill="white"/>
  <circle cx="0" cy="6" r="1" fill="white"/>
  <circle cx="1" cy="6" r="1" fill="white"/>
  <circle cx="2" cy="6" r="1" fill="white"/>
  <circle cx="3" cy="6" r="1" fill="white"/>
  <circle cx="4" cy="6" r="1" fill="white"/>
  <circle cx="5" cy="6" r="1" fill="white"/>
  <circle cx="6" cy="6" r="1" fill="rgba(88.8289%,88.8289%,88.8289%,1)"/>
  <circle cx="7" cy="6" r="1" fill="rgba(63.4531%,63.4531%,63.4531%,1)"/>
  <circle cx="8" cy="6" r="1" fill="rgba(51.9509%,51.9509%,51.9509%,1)"/>
  <circle cx="9" cy="6" r="1" fill="rgba(53.3837%,53.3837%,53.3837%,1)"/>
  <circle cx="10" cy="6" r="1" fill="rgba(54.0032%,54.0032%,54.0032%,1)"/>
  <circle cx="11" cy="6" r="1" fill="rgba(54.0032%,54.0032%,54.0032%,1)"/>
  <circle cx="12" cy="6" r="1" fill="rgba(53.3806%,53.3806%,53.3806%,1)"/>
  <circle cx="13" cy="6" r="1" fill="rgba(52.0119%,52.0119%,52.0119%,1)"/>
  <circle cx="14" cy="6" r="1" fill="rgba(63.6179%,63.6179%,63.6179%,1)"/>
  <circle cx="15" cy="6" r="1" fill="rgba(88.8228%,88.8228%,88.8228%,1)"/>
  <circle cx="16" cy="6" r="1" fill="white"/>
  <circle cx="17" cy="6" r="1" fill="white"/>
  <circle cx="18" cy="6" r="1" fill="white"/>
  <circle cx="19" cy="6" r="1" fill="white"/>
  <circle cx="20" cy="6" r="1" fill="white"/>
  <circle cx="21" cy="6" r="1" fill="white"/>
  <circle cx="0" cy="7" r="1" fill="white"/>
  <circle cx="1" cy="7" r="1" fill="white"/>
  <circle cx="2" cy="7" r="1" fill="white"/>
  <circle cx="3" cy="7" r="1" fill="white"/>
  <circle cx="4" cy="7" r="1" fill="white"/>
  <circle cx="5" cy="7" r="1" fill="rgba(88.7373%,88.7373%,88.7373%,1)"/>
  <circle cx="6" cy="7" r="1" fill="rgba(62.7237%,62.7237%,62.7237%,1)"/>
  <circle cx="7" cy="7" r="1" fill="rgba(51.9341%,51.9341%,51.9341%,1)"/>
  <circle cx="8" cy="7" r="1" fill="rgba(53.5058%,53.5058%,53.5058%,1)"/>
  <circle cx="9" cy="7" r="1" fill="rgba(54.2138%,54.2138%,54.2138%,1)"/>
  <circle cx="10" cy="7" r="1" fill="rgba(54.197%,54.197%,54.197%,1)"/>
  <circle cx="11" cy="7" r="1" fill="rgba(54.197%,54.197%,54.197%,1)"/>
  <circle cx="12" cy="7" r="1" fill="rgba(54.2123%,54.2123%,54.2123%,1)"/>
  <circle cx="13" cy="7" r="1" fill="rgba(53.5439%,53.5439%,53.5439%,1)"/>
  <circle cx="14" cy="7" r="1" fill="rgba(52.0302%,52.0302%,52.0302%,1)"/>
  <circle cx="15" cy="7" r="1" fill="rgba(62.7207%,62.7207%,62.7207%,1)"/>
  <circle cx="16" cy="7" r="1" fill="rgba(88.7282%,88.7282%,88.7282%,1)"/>
  <circle cx="17" cy="7" r="1" fill="white"/>
  <circle cx="18" cy="7" r="1" fill="white"/>
  <circle cx="19" cy="7" r="1" fill="white"/>
  <circle cx="20" cy="7" r="1" fill="white"/>
  <circle cx="21" cy="7" r="1" fill="white"/>
  <circle cx="0" cy="8" r="1" fill="white"/>
  <circle cx="1" cy="8" r="1" fill="white"/>
  <circle cx="2" cy="8" r="1" fill="white"/>
  <circle cx="3" cy="8" r="1" fill="rgba(99.9435%,99.9435%,99.9435%,1)"/>
  <circle cx="4" cy="8" r="1" fill="rgba(88.4886%,88.4886%,88.4886%,1)"/>
  <circle cx="5" cy="8" r="1" fill="rgba(62.0874%,62.0874%,62.0874%,1)"/>
  <circle cx="6" cy="8" r="1" fill="rgba(52.2301%,52.2301%,52.2301%,1)"/>
  <circle cx="7" cy="8" r="1" fill="rgba(53.8628%,53.8628%,53.8628%,1)"/>
  <circle cx="8" cy="8" r="1" fill="rgba(53.9956%,53.9956%,53.9956%,1)"/>
  <circle cx="9" cy="8" r="1" fill="rgba(52.1859%,52.1859%,52.1859%,1)"/>
  <circle cx="10" cy="8" r="1" fill="rgba(50.9102%,50.9102%,50.9102%,1)"/>
  <circle cx="11" cy="8" r="1" fill="rgba(50.9102%,50.9102%,50.9102%,1)"/>
  <circle cx="12" cy="8" r="1" fill="rgba(52.1859%,52.1859%,52.1859%,1)"/>
  <circle cx="13" cy="8" r="1" fill="rgba(53.9925%,53.9925%,53.9925%,1)"/>
  <circle cx="14" cy="8" r="1" fill="rgba(53.8567%,53.8567%,53.8567%,1)"/>
  <circle cx="15" cy="8" r="1" fill="rgba(52.1996%,52.1996%,52.1996%,1)"/>
  <circle cx="16" cy="8" r="1" fill="rgba(62.5452%,62.5452%,62.5452%,1)"/>
  <circle cx="17" cy="8" r="1" fill="rgba(89.0593%,89.0593%,89.0593%,1)"/>
  <circle cx="18" cy="8" r="1" fill="rgba(99.9435%,99.9435%,99.9435%,1)"/>
  <circle cx="19" cy="8" r="1" fill="white"/>
  <circle cx="20" cy="8" r="1" fill="white"/>
  <circle cx="21" cy="8" r="1" fill="white"/>
  <circle cx="0" cy="9" r="1" fill="white"/>
  <circle cx="1" cy="9" r="1" fill="white"/>
  <circle cx="2" cy="9" r="1" fill="rgba(99.7101%,99.7101%,99.7101%,1)"/>
  <circle cx="3" cy="9" r="1" fill="rgba(89.6452%,89.6452%,89.6452%,1)"/>
  <circle cx="4" cy="9" r="1" fill="rgba(62.5925%,62.5925%,62.5925%,1)"/>
  <circle cx="5" cy="9" r="1" fill="rgba(52.372%,52.372%,52.372%,1)"/>
  <circle cx="6" cy="9" r="1" fill="rgba(54.3404%,54.3404%,54.3404%,1)"/>
  <circle cx="7" cy="9" r="1" fill="rgba(54.4335%,54.4335%,54.4335%,1)"/>
  <circle cx="8" cy="9" r="1" fill="rgba(52.5658%,52.5658%,52.5658%,1)"/>
  <circle cx="9" cy="9" r="1" fill="rgba(68.574%,68.574%,68.574%,1)"/>
  <circle cx="10" cy="9" r="1" fill="rgba(84.48%,84.48%,84.48%,1)"/>
  <circle cx="11" cy="9" r="1" fill="rgba(84.48%,84.48%,84.48%,1)"/>
  <circle cx="12" cy="9" r="1" fill="rgba(68.5725%,68.5725%,68.5725%,1)"/>
  <circle cx="13" cy="9" r="1" fill="rgba(52.5566%,52.5566%,52.5566%,1)"/>
  <circle cx="14" cy="9" r="1" fill="rgba(54.4335%,54.4335%,54.4335%,1)"/>
  <circle cx="15" cy="9" r="1" fill="rgba(54.3236%,54.3236%,54.3236%,1)"/>
  <circle cx="16" cy="9" r="1" fill="rgba(52.6665%,52.6665%,52.6665%,1)"/>
  <circle cx="17" cy="9" r="1" fill="rgba(62.6902%,62.6902%,62.6902%,1)"/>
  <circle cx="18" cy="9" r="1" fill="rgba(89.5247%,89.5247%,89.5247%,1)"/>
  <circle cx="19" cy="9" r="1" fill="rgba(99.6994%,99.6994%,99.6994%,1)"/>
  <circle cx="20" cy="9" r="1" fill="white"/>
  <circle cx="21" cy="9" r="1" fill="white"/>
  <circle cx="0" cy="10" r="1" fill="white"/>
  <circle cx="1" cy="10" r="1" fill="rgba(99.4354%,99.4354%,99.4354%,1)"/>
  <circle cx="2" cy="10" r="1" fill="rgba(89.6056%,89.6056%,89.6056%,1)"/>
  <circle cx="3" cy="10" r="1" fill="rgba(62.385%,62.385%,62.385%,1)"/>
  <circle cx="4" cy="10" r="1" fill="rgba(52.8191%,52.8191%,52.8191%,1)"/>
  <circle cx="5" cy="10" r="1" fill="rgba(54.7356%,54.7356%,54.7356%,1)"/>
  <circle cx="6" cy="10" r="1" fill="rgba(55.404%,55.404%,55.404%,1)"/>
  <circle cx="7" cy="10" r="1" fill="rgba(52.7352%,52.7352%,52.7352%,1)"/>
  <circle cx="8" cy="10" r="1" fill="rgba(68.2582%,68.2582%,68.2582%,1)"/>
  <circle cx="9" cy="10" r="1" fill="rgba(93.5393%,93.5393%,93.5393%,1)"/>
  <circle cx="10" cy="10" r="1" fill="rgba(99.469%,99.469%,99.469%,1)"/>
  <circle cx="11" cy="10" r="1" fill="rgba(99.469%,99.469%,99.469%,1)"/>
  <circle cx="12" cy="10" r="1" fill="rgba(93.4783%,93.4783%,93.4783%,1)"/>
  <circle cx="13" cy="10" r="1" fill="rgba(68.0201%,68.0201%,68.0201%,1)"/>
  <circle cx="14" cy="10" r="1" fill="rgba(52.7398%,52.7398%,52.7398%,1)"/>
  <circle cx="15" cy="10" r="1" fill="rgba(55.4009%,55.4009%,55.4009%,1)"/>
  <circle cx="16" cy="10" r="1" fill="rgba(54.7723%,54.7723%,54.7723%,1)"/>
  <circle cx="17" cy="10" r="1" fill="rgba(52.8145%,52.8145%,52.8145%,1)"/>
  <circle cx="18" cy="10" r="1" fill="rgba(62.3896%,62.3896%,62.3896%,1)"/>
  <circle cx="19" cy="10" r="1" fill="rgba(89.3767%,89.3767%,89.3767%,1)"/>
  <circle cx="20" cy="10" r="1" fill="rgba(99.4568%,99.4568%,99.4568%,1)"/>
  <circle cx="21" cy="10" r="1" fill="white"/>
  <circle cx="0" cy="11" r="1" fill="rgba(99.8596%,99.8596%,99.8596%,1)"/>
  <circle cx="1" cy="11" r="1" fill="rgba(90.5699%,90.5699%,90.5699%,1)"/>
  <circle cx="2" cy="11" r="1" fill="rgba(60.4334%,60.4334%,60.4334%,1)"/>
  <circle cx="3" cy="11" r="1" fill="rgba(52.9274%,52.9274%,52.9274%,1)"/>
  <circle cx="4" cy="11" r="1" fill="rgba(53.4356%,53.4356%,53.4356%,1)"/>
  <circle cx="5" cy="11" r="1" fill="rgba(54.0322%,54.0322%,54.0322%,1)"/>
  <circle cx="6" cy="11" r="1" fill="rgba(55.9457%,55.9457%,55.9457%,1)"/>
  <circle cx="7" cy="11" r="1" fill="rgba(51.7174%,51.7174%,51.7174%,1)"/>
  <circle cx="8" cy="11" r="1" fill="rgba(82.6642%,82.6642%,82.6642%,1)"/>
  <circle cx="9" cy="11" r="1" fill="rgba(99.646%,99.646%,99.646%,1)"/>
  <circle cx="10" cy="11" r="1" fill="white"/>
  <circle cx="11" cy="11" r="1" fill="white"/>
  <circle cx="12" cy="11" r="1" fill="rgba(99.6429%,99.6429%,99.6429%,1)"/>
  <circle cx="13" cy="11" r="1" fill="rgba(82.649%,82.649%,82.649%,1)"/>
  <circle cx="14" cy="11" r="1" fill="rgba(51.7174%,51.7174%,51.7174%,1)"/>
  <circle cx="15" cy="11" r="1" fill="rgba(55.9335%,55.9335%,55.9335%,1)"/>
  <circle cx="16" cy="11" r="1" fill="rgba(54.226%,54.226%,54.226%,1)"/>
  <circle cx="17" cy="11" r="1" fill="rgba(53.5866%,53.5866%,53.5866%,1)"/>
  <circle cx="18" cy="11" r="1" fill="rgba(53.1212%,53.1212%,53.1212%,1)"/>
  <circle cx="19" cy="11" r="1" fill="rgba(60.4883%,60.4883%,60.4883%,1)"/>
  <circle cx="20" cy="11" r="1" fill="rgba(90.8522%,90.8522%,90.8522%,1)"/>
  <circle cx="21" cy="11" r="1" fill="rgba(99.8672%,99.8672%,99.8672%,1)"/>
  <circle cx="0" cy="12" r="1" fill="rgba(99.1379%,99.1379%,99.1379%,1)"/>
  <circle cx="1" cy="12" r="1" fill="rgba(85.1392%,85.1392%,85.1392%,1)"/>
  <circle cx="2" cy="12" r="1" fill="rgba(56.5072%,56.5072%,56.5072%,1)"/>
  <circle cx="3" cy="12" r="1" fill="rgba(53.6385%,53.6385%,53.6385%,1)"/>
  <circle cx="4" cy="12" r="1" fill="rgba(53.6767%,53.6767%,53.6767%,1)"/>
  <circle cx="5" cy="12" r="1" fill="rgba(53.4051%,53.4051%,53.4051%,1)"/>
  <circle cx="6" cy="12" r="1" fill="rgba(56.4034%,56.4034%,56.4034%,1)"/>
  <circle cx="7" cy="12" r="1" fill="rgba(52.2271%,52.2271%,52.2271%,1)"/>
  <circle cx="8" cy="12" r="1" fill="rgba(81.4069%,81.4069%,81.4069%,1)"/>
  <circle cx="9" cy="12" r="1" fill="rgba(99.5163%,99.5163%,99.5163%,1)"/>
  <circle cx="10" cy="12" r="1" fill="white"/>
  <circle cx="11" cy="12" r="1" fill="white"/>
  <circle cx="12" cy="12" r="1" fill="rgba(99.4919%,99.4919%,99.4919%,1)"/>
  <circle cx="13" cy="12" r="1" fill="rgba(81.2924%,81.2924%,81.2924%,1)"/>
  <circle cx="14" cy="12" r="1" fill="rgba(52.2286%,52.2286%,52.2286%,1)"/>
  <circle cx="15" cy="12" r="1" fill="rgba(56.3897%,56.3897%,56.3897%,1)"/>
  <circle cx="16" cy="12" r="1" fill="rgba(53.6126%,53.6126%,53.6126%,1)"/>
  <circle cx="17" cy="12" r="1" fill="rgba(53.9422%,53.9422%,53.9422%,1)"/>
  <circle cx="18" cy="12" r="1" fill="rgba(53.8796%,53.8796%,53.8796%,1)"/>
  <circle cx="19" cy="12" r="1" fill="rgba(56.759%,56.759%,56.759%,1)"/>
  <circle cx="20" cy="12" r="1" fill="rgba(85.4337%,85.4337%,85.4337%,1)"/>
  <circle cx="21" cy="12" r="1" fill="rgba(99.1791%,99.1791%,99.1791%,1)"/>
  <circle cx="0" cy="13" r="1" fill="rgba(99.9954%,99.9954%,99.9954%,1)"/>
  <circle cx="1" cy="13" r="1" fill="rgba(98.2925%,98.2925%,98.2925%,1)"/>
  <circle cx="2" cy="13" r="1" fill="rgba(81.4832%,81.4832%,81.4832%,1)"/>
  <circle cx="3" cy="13" r="1" fill="rgba(69.6361%,69.6361%,69.6361%,1)"/>
  <circle cx="4" cy="13" r="1" fill="rgba(71.487%,71.487%,71.487%,1)"/>
  <circle cx="5" cy="13" r="1" fill="rgba(54.3969%,54.3969%,54.3969%,1)"/>
  <circle cx="6" cy="13" r="1" fill="rgba(56.4508%,56.4508%,56.4508%,1)"/>
  <circle cx="7" cy="13" r="1" fill="rgba(54.2123%,54.2123%,54.2123%,1)"/>
  <circle cx="8" cy="13" r="1" fill="rgba(66.0105%,66.0105%,66.0105%,1)"/>
  <circle cx="9" cy="13" r="1" fill="rgba(90.6432%,90.6432%,90.6432%,1)"/>
  <circle cx="10" cy="13" r="1" fill="rgba(99.324%,99.324%,99.324%,1)"/>
  <circle cx="11" cy="13" r="1" fill="rgba(99.3103%,99.3103%,99.3103%,1)"/>
  <circle cx="12" cy="13" r="1" fill="rgba(90.4433%,90.4433%,90.4433%,1)"/>
  <circle cx="13" cy="13" r="1" fill="rgba(65.5756%,65.5756%,65.5756%,1)"/>
  <circle cx="14" cy="13" r="1" fill="rgba(54.2199%,54.2199%,54.2199%,1)"/>
  <circle cx="15" cy="13" r="1" fill="rgba(56.4416%,56.4416%,56.4416%,1)"/>
  <circle cx="16" cy="13" r="1" fill="rgba(54.5342%,54.5342%,54.5342%,1)"/>
  <circle cx="17" cy="13" r="1" fill="rgba(71.9341%,71.9341%,71.9341%,1)"/>
  <circle cx="18" cy="13" r="1" fill="rgba(70.9194%,70.9194%,70.9194%,1)"/>
  <circle cx="19" cy="13" r="1" fill="rgba(82.5605%,82.5605%,82.5605%,1)"/>
  <circle cx="20" cy="13" r="1" fill="rgba(98.4466%,98.4466%,98.4466%,1)"/>
  <circle cx="21" cy="13" r="1" fill="rgba(99.9954%,99.9954%,99.9954%,1)"/>
  <circle cx="0" cy="14" r="1" fill="white"/>
  <circle cx="1" cy="14" r="1" fill="white"/>
  <circle cx="2" cy="14" r="1" fill="rgba(99.4659%,99.4659%,99.4659%,1)"/>
  <circle cx="3" cy="14" r="1" fill="rgba(99.2065%,99.2065%,99.2065%,1)"/>
  <circle cx="4" cy="14" r="1" fill="rgba(84.4038%,84.4038%,84.4038%,1)"/>
  <circle cx="5" cy="14" r="1" fill="rgba(57.0672%,57.0672%,57.0672%,1)"/>
  <circle cx="6" cy="14" r="1" fill="rgba(56.2371%,56.2371%,56.2371%,1)"/>
  <circle cx="7" cy="14" r="1" fill="rgba(56.7636%,56.7636%,56.7636%,1)"/>
  <circle cx="8" cy="14" r="1" fill="rgba(54.2977%,54.2977%,54.2977%,1)"/>
  <circle cx="9" cy="14" r="1" fill="rgba(65.9037%,65.9037%,65.9037%,1)"/>
  <circle cx="10" cy="14" r="1" fill="rgba(79.7055%,79.7055%,79.7055%,1)"/>
  <circle cx="11" cy="14" r="1" fill="rgba(79.6719%,79.6719%,79.6719%,1)"/>
  <circle cx="12" cy="14" r="1" fill="rgba(65.6947%,65.6947%,65.6947%,1)"/>
  <circle cx="13" cy="14" r="1" fill="rgba(54.3038%,54.3038%,54.3038%,1)"/>
  <circle cx="14" cy="14" r="1" fill="rgba(56.762%,56.762%,56.762%,1)"/>
  <circle cx="15" cy="14" r="1" fill="rgba(56.2371%,56.2371%,56.2371%,1)"/>
  <circle cx="16" cy="14" r="1" fill="rgba(57.0718%,57.0718%,57.0718%,1)"/>
  <circle cx="17" cy="14" r="1" fill="rgba(84.3717%,84.3717%,84.3717%,1)"/>
  <circle cx="18" cy="14" r="1" fill="rgba(99.9237%,99.9237%,99.9237%,1)"/>
  <circle cx="19" cy="14" r="1" fill="rgba(99.7421%,99.7421%,99.7421%,1)"/>
  <circle cx="20" cy="14" r="1" fill="white"/>
  <circle cx="21" cy="14" r="1" fill="white"/>
  <circle cx="0" cy="15" r="1" fill="white"/>
  <circle cx="1" cy="15" r="1" fill="white"/>
  <circle cx="2" cy="15" r="1" fill="white"/>
  <circle cx="3" cy="15" r="1" fill="white"/>
  <circle cx="4" cy="15" r="1" fill="rgba(87.2175%,87.2175%,87.2175%,1)"/>
  <circle cx="5" cy="15" r="1" fill="rgba(60.4105%,60.4105%,60.4105%,1)"/>
  <circle cx="6" cy="15" r="1" fill="rgba(55.877%,55.877%,55.877%,1)"/>
  <circle cx="7" cy="15" r="1" fill="rgba(57.3404%,57.3404%,57.3404%,1)"/>
  <circle cx="8" cy="15" r="1" fill="rgba(56.968%,56.968%,56.968%,1)"/>
  <circle cx="9" cy="15" r="1" fill="rgba(54.0887%,54.0887%,54.0887%,1)"/>
  <circle cx="10" cy="15" r="1" fill="rgba(50.0908%,50.0908%,50.0908%,1)"/>
  <circle cx="11" cy="15" r="1" fill="rgba(50.1106%,50.1106%,50.1106%,1)"/>
  <circle cx="12" cy="15" r="1" fill="rgba(54.0871%,54.0871%,54.0871%,1)"/>
  <circle cx="13" cy="15" r="1" fill="rgba(56.968%,56.968%,56.968%,1)"/>
  <circle cx="14" cy="15" r="1" fill="rgba(57.3404%,57.3404%,57.3404%,1)"/>
  <circle cx="15" cy="15" r="1" fill="rgba(55.8831%,55.8831%,55.8831%,1)"/>
  <circle cx="16" cy="15" r="1" fill="rgba(60.3159%,60.3159%,60.3159%,1)"/>
  <circle cx="17" cy="15" r="1" fill="rgba(87.1397%,87.1397%,87.1397%,1)"/>
  <circle cx="18" cy="15" r="1" fill="white"/>
  <circle cx="19" cy="15" r="1" fill="white"/>
  <circle cx="20" cy="15" r="1" fill="white"/>
  <circle cx="21" cy="15" r="1" fill="white"/>
  <circle cx="0" cy="16" r="1" fill="white"/>
  <circle cx="1" cy="16" r="1" fill="white"/>
  <circle cx="2" cy="16" r="1" fill="white"/>
  <circle cx="3" cy="16" r="1" fill="white"/>
  <circle cx="4" cy="16" r="1" fill="rgba(90.2068%,90.2068%,90.2068%,1)"/>
  <circle cx="5" cy="16" r="1" fill="rgba(63.5721%,63.5721%,63.5721%,1)"/>
  <circle cx="6" cy="16" r="1" fill="rgba(55.462%,55.462%,55.462%,1)"/>
  <circle cx="7" cy="16" r="1" fill="rgba(57.5326%,57.5326%,57.5326%,1)"/>
  <circle cx="8" cy="16" r="1" fill="rgba(57.4395%,57.4395%,57.4395%,1)"/>
  <circle cx="9" cy="16" r="1" fill="rgba(54.9432%,54.9432%,54.9432%,1)"/>
  <circle cx="10" cy="16" r="1" fill="rgba(67.715%,67.715%,67.715%,1)"/>
  <circle cx="11" cy="16" r="1" fill="rgba(67.4434%,67.4434%,67.4434%,1)"/>
  <circle cx="12" cy="16" r="1" fill="rgba(55.0942%,55.0942%,55.0942%,1)"/>
  <circle cx="13" cy="16" r="1" fill="rgba(57.4411%,57.4411%,57.4411%,1)"/>
  <circle cx="14" cy="16" r="1" fill="rgba(57.5326%,57.5326%,57.5326%,1)"/>
  <circle cx="15" cy="16" r="1" fill="rgba(55.4696%,55.4696%,55.4696%,1)"/>
  <circle cx="16" cy="16" r="1" fill="rgba(63.4607%,63.4607%,63.4607%,1)"/>
  <circle cx="17" cy="16" r="1" fill="rgba(90.1137%,90.1137%,90.1137%,1)"/>
  <circle cx="18" cy="16" r="1" fill="white"/>
  <circle cx="19" cy="16" r="1" fill="white"/>
  <circle cx="20" cy="16" r="1" fill="white"/>
  <circle cx="21" cy="16" r="1" fill="white"/>
  <circle cx="0" cy="17" r="1" fill="white"/>
  <circle cx="1" cy="17" r="1" fill="white"/>
  <circle cx="2" cy="17" r="1" fill="white"/>
  <circle cx="3" cy="17" r="1" fill="white"/>
  <circle cx="4" cy="17" r="1" fill="rgba(93.2937%,93.2937%,93.2937%,1)"/>
  <circle cx="5" cy="17" r="1" fill="rgba(67.1382%,67.1382%,67.1382%,1)"/>
  <circle cx="6" cy="17" r="1" fill="rgba(55.4177%,55.4177%,55.4177%,1)"/>
  <circle cx="7" cy="17" r="1" fill="rgba(57.9919%,57.9919%,57.9919%,1)"/>
  <circle cx="8" cy="17" r="1" fill="rgba(57.8531%,57.8531%,57.8531%,1)"/>
  <circle cx="9" cy="17" r="1" fill="rgba(54.6166%,54.6166%,54.6166%,1)"/>
  <circle cx="10" cy="17" r="1" fill="rgba(85.4261%,85.4261%,85.4261%,1)"/>
  <circle cx="11" cy="17" r="1" fill="rgba(85.0126%,85.0126%,85.0126%,1)"/>
  <circle cx="12" cy="17" r="1" fill="rgba(54.7341%,54.7341%,54.7341%,1)"/>
  <circle cx="13" cy="17" r="1" fill="rgba(57.8546%,57.8546%,57.8546%,1)"/>
  <circle cx="14" cy="17" r="1" fill="rgba(57.9919%,57.9919%,57.9919%,1)"/>
  <circle cx="15" cy="17" r="1" fill="rgba(55.4162%,55.4162%,55.4162%,1)"/>
  <circle cx="16" cy="17" r="1" fill="rgba(67.1443%,67.1443%,67.1443%,1)"/>
  <circle cx="17" cy="17" r="1" fill="rgba(93.2998%,93.2998%,93.2998%,1)"/>
  <circle cx="18" cy="17" r="1" fill="white"/>
  <circle cx="19" cy="17" r="1" fill="white"/>
  <circle cx="20" cy="17" r="1" fill="white"/>
  <circle cx="21" cy="17" r="1" fill="white"/>
  <circle cx="0" cy="18" r="1" fill="white"/>
  <circle cx="1" cy="18" r="1" fill="white"/>
  <circle cx="2" cy="18" r="1" fill="white"/>
  <circle cx="3" cy="18" r="1" fill="white"/>
  <circle cx="4" cy="18" r="1" fill="rgba(96.3256%,96.3256%,96.3256%,1)"/>
  <circle cx="5" cy="18" r="1" fill="rgba(70.5928%,70.5928%,70.5928%,1)"/>
  <circle cx="6" cy="18" r="1" fill="rgba(55.3841%,55.3841%,55.3841%,1)"/>
  <circle cx="7" cy="18" r="1" fill="rgba(58.529%,58.529%,58.529%,1)"/>
  <circle cx="8" cy="18" r="1" fill="rgba(58.3795%,58.3795%,58.3795%,1)"/>
  <circle cx="9" cy="18" r="1" fill="rgba(56.2264%,56.2264%,56.2264%,1)"/>
  <circle cx="10" cy="18" r="1" fill="rgba(63.6255%,63.6255%,63.6255%,1)"/>
  <circle cx="11" cy="18" r="1" fill="rgba(63.537%,63.537%,63.537%,1)"/>
  <circle cx="12" cy="18" r="1" fill="rgba(56.2127%,56.2127%,56.2127%,1)"/>
  <circle cx="13" cy="18" r="1" fill="rgba(58.3795%,58.3795%,58.3795%,1)"/>
  <circle cx="14" cy="18" r="1" fill="rgba(58.529%,58.529%,58.529%,1)"/>
  <circle cx="15" cy="18" r="1" fill="rgba(55.3841%,55.3841%,55.3841%,1)"/>
  <circle cx="16" cy="18" r="1" fill="rgba(70.5928%,70.5928%,70.5928%,1)"/>
  <circle cx="17" cy="18" r="1" fill="rgba(96.3256%,96.3256%,96.3256%,1)"/>
  <circle cx="18" cy="18" r="1" fill="white"/>
  <circle cx="19" cy="18" r="1" fill="white"/>
  <circle cx="20" cy="18" r="1" fill="white"/>
  <circle cx="21" cy="18" r="1" fill="white"/>
  <circle cx="0" cy="19" r="1" fill="white"/>
  <circle cx="1" cy="19" r="1" fill="white"/>
  <circle cx="2" cy="19" r="1" fill="white"/>
  <circle cx="3" cy="19" r="1" fill="white"/>
  <circle cx="4" cy="19" r="1" fill="rgba(99.3301%,99.3301%,99.3301%,1)"/>
  <circle cx="5" cy="19" r="1" fill="rgba(74.0093%,74.0093%,74.0093%,1)"/>
  <circle cx="6" cy="19" r="1" fill="rgba(52.6848%,52.6848%,52.6848%,1)"/>
  <circle cx="7" cy="19" r="1" fill="rgba(54.5922%,54.5922%,54.5922%,1)"/>
  <circle cx="8" cy="19" r="1" fill="rgba(54.5541%,54.5541%,54.5541%,1)"/>
  <circle cx="9" cy="19" r="1" fill="rgba(54.1588%,54.1588%,54.1588%,1)"/>
  <circle cx="10" cy="19" r="1" fill="rgba(52.6253%,52.6253%,52.6253%,1)"/>
  <circle cx="11" cy="19" r="1" fill="rgba(52.6329%,52.6329%,52.6329%,1)"/>
  <circle cx="12" cy="19" r="1" fill="rgba(54.1588%,54.1588%,54.1588%,1)"/>
  <circle cx="13" cy="19" r="1" fill="rgba(54.5541%,54.5541%,54.5541%,1)"/>
  <circle cx="14" cy="19" r="1" fill="rgba(54.5922%,54.5922%,54.5922%,1)"/>
  <circle cx="15" cy="19" r="1" fill="rgba(52.6848%,52.6848%,52.6848%,1)"/>
  <circle cx="16" cy="19" r="1" fill="rgba(74.0093%,74.0093%,74.0093%,1)"/>
  <circle cx="17" cy="19" r="1" fill="rgba(99.3301%,99.3301%,99.3301%,1)"/>
  <circle cx="18" cy="19" r="1" fill="white"/>
  <circle cx="19" cy="19" r="1" fill="white"/>
  <circle cx="20" cy="19" r="1" fill="white"/>
  <circle cx="21" cy="19" r="1" fill="white"/>
  <circle cx="0" cy="20" r="1" fill="white"/>
  <circle cx="1" cy="20" r="1" fill="white"/>
  <circle cx="2" cy="20" r="1" fill="white"/>
  <circle cx="3" cy="20" r="1" fill="white"/>
  <circle cx="4" cy="20" r="1" fill="white"/>
  <circle cx="5" cy="20" r="1" fill="rgba(95.5016%,95.5016%,95.5016%,1)"/>
  <circle cx="6" cy="20" r="1" fill="rgba(91.2474%,91.2474%,91.2474%,1)"/>
  <circle cx="7" cy="20" r="1" fill="rgba(91.4733%,91.4733%,91.4733%,1)"/>
  <circle cx="8" cy="20" r="1" fill="rgba(91.4748%,91.4748%,91.4748%,1)"/>
  <circle cx="9" cy="20" r="1" fill="rgba(91.5038%,91.5038%,91.5038%,1)"/>
  <circle cx="10" cy="20" r="1" fill="rgba(91.5572%,91.5572%,91.5572%,1)"/>
  <circle cx="11" cy="20" r="1" fill="rgba(91.5572%,91.5572%,91.5572%,1)"/>
  <circle cx="12" cy="20" r="1" fill="rgba(91.5038%,91.5038%,91.5038%,1)"/>
  <circle cx="13" cy="20" r="1" fill="rgba(91.4748%,91.4748%,91.4748%,1)"/>
  <circle cx="14" cy="20" r="1" fill="rgba(91.4733%,91.4733%,91.4733%,1)"/>
  <circle cx="15" cy="20" r="1" fill="rgba(91.2474%,91.2474%,91.2474%,1)"/>
  <circle cx="16" cy="20" r="1" fill="rgba(95.5016%,95.5016%,95.5016%,1)"/>
  <circle cx="17" cy="20" r="1" fill="white"/>
  <circle cx="18" cy="20" r="1" fill="white"/>
  <circle cx="19" cy="20" r="1" fill="white"/>
  <circle cx="20" cy="20" r="1" fill="white"/>
  <circle cx="21" cy="20" r="1" fill="white"/>
  <circle cx="0" cy="21" r="1" fill="white"/>
  <circle cx="1" cy="21" r="1" fill="white"/>
  <circle cx="2" cy="21" r="1" fill="white"/>
  <circle cx="3" cy="21" r="1" fill="white"/>
  <circle cx="4" cy="21" r="1" fill="white"/>
  <circle cx="5" cy="21" r="1" fill="white"/>
  <circle cx="6" cy="21" r="1" fill="white"/>
  <circle cx="7" cy="21" r="1" fill="white"/>
  <circle cx="8" cy="21" r="1" fill="white"/>
  <circle cx="9" cy="21" r="1" fill="white"/>
  <circle cx="10" cy="21" r="1" fill="white"/>
  <circle cx="11" cy="21" r="1" fill="white"/>
  <circle cx="12" cy="21" r="1" fill="white"/>
  <circle cx="13" cy="21" r="1" fill="white"/>
  <circle cx="14" cy="21" r="1" fill="white"/>
  <circle cx="15" cy="21" r="1" fill="white"/>
  <circle cx="16" cy="21" r="1" fill="white"/>
  <circle cx="17" cy="21" r="1" fill="white"/>
  <circle cx="18" cy="21" r="1" fill="white"/>
  <circle cx="19" cy="21" r="1" fill="white"/>
  <circle cx="20" cy="21" r="1" fill="white"/>
  <circle cx="21" cy="21" r="1" fill="white"/>
</svg>
