<?xml version="1.0" standalone="no"?>
<!DOCTYPE svg PUBLIC "-//W3C//DTD SVG 20010904//EN"
  "http://www.w3.org/TR/2001/REC-SVG-20010904/DTD/svg10.dtd">
<svg width="22" height="22">
  <circle cx="0" cy="0" r="1" fill="white"/>
  <circle cx="1" cy="0" r="1" fill="white"/>
  <circle cx="2" cy="0" r="1" fill="white"/>
  <circle cx="3" cy="0" r="1" fill="white"/>
  <circle cx="4" cy="0" r="1" fill="white"/>
  <circle cx="5" cy="0" r="1" fill="white"/>
  <circle cx="6" cy="0" r="1" fill="white"/>
  <circle cx="7" cy="0" r="1" fill="white"/>
  <circle cx="8" cy="0" r="1" fill="white"/>
  <circle cx="9" cy="0" r="1" fill="white"/>
  <circle cx="10" cy="0" r="1" fill="white"/>
  <circle cx="11" cy="0" r="1" fill="white"/>
  <circle cx="12" cy="0" r="1" fill="white"/>
  <circle cx="13" cy="0" r="1" fill="white"/>
  <circle cx="14" cy="0" r="1" fill="white"/>
  <circle cx="15" cy="0" r="1" fill="white"/>
  <circle cx="16" cy="0" r="1" fill="white"/>
  <circle cx="17" cy="0" r="1" fill="white"/>
  <circle cx="18" cy="0" r="1" fill="white"/>
  <circle cx="19" cy="0" r="1" fill="white"/>
  <circle cx="20" cy="0" r="1" fill="white"/>
  <circle cx="21" cy="0" r="1" fill="white"/>
  <circle cx="0" cy="1" r="1" fill="white"/>
  <circle cx="1" cy="1" r="1" fill="white"/>
  <circle cx="2" cy="1" r="1" fill="white"/>
  <circle cx="3" cy="1" r="1" fill="white"/>
  <circle cx="4" cy="1" r="1" fill="white"/>
  <circle cx="5" cy="1" r="1" fill="white"/>
  <circle cx="6" cy="1" r="1" fill="white"/>
  <circle cx="7" cy="1" r="1" fill="white"/>
  <circle cx="8" cy="1" r="1" fill="white"/>
  <circle cx="9" cy="1" r="1" fill="white"/>
  <circle cx="10" cy="1" r="1" fill="white"/>
  <circle cx="11" cy="1" r="1" fill="white"/>
  <circle cx="12" cy="1" r="1" fill="white"/>
  <circle cx="13" cy="1" r="1" fill="white"/>
  <circle cx="14" cy="1" r="1" fill="white"/>
  <circle cx="15" cy="1" r="1" fill="white"/>
  <circle cx="16" cy="1" r="1" fill="white"/>
  <circle cx="17" cy="1" r="1" fill="white"/>
  <circle cx="18" cy="1" r="1" fill="white"/>
  <circle cx="19" cy="1" r="1" fill="white"/>
  <circle cx="20" cy="1" r="1" fill="white"/>
  <circle cx="21" cy="1" r="1" fill="white"/>
  <circle cx="0" cy="2" r="1" fill="white"/>
  <circle cx="1" cy="2" r="1" fill="white"/>
  <circle cx="2" cy="2" r="1" fill="white"/>
  <circle cx="3" cy="2" r="1" fill="white"/>
  <circle cx="4" cy="2" r="1" fill="rgba(98.2284%,98.2284%,98.2284%,1)"/>
  <circle cx="5" cy="2" r="1" fill="rgba(90.3792%,90.3792%,90.3792%,1)"/>
  <circle cx="6" cy="2" r="1" fill="rgba(85.7923%,85.7923%,85.7923%,1)"/>
  <circle cx="7" cy="2" r="1" fill="rgba(86.1326%,86.1326%,86.1326%,1)"/>
  <circle cx="8" cy="2" r="1" fill="rgba(86.1341%,86.1341%,86.1341%,1)"/>
  <circle cx="9" cy="2" r="1" fill="rgba(86.1341%,86.1341%,86.1341%,1)"/>
  <circle cx="10" cy="2" r="1" fill="rgba(86.1341%,86.1341%,86.1341%,1)"/>
  <circle cx="11" cy="2" r="1" fill="rgba(86.1341%,86.1341%,86.1341%,1)"/>
  <circle cx="12" cy="2" r="1" fill="rgba(86.1341%,86.1341%,86.1341%,1)"/>
  <circle cx="13" cy="2" r="1" fill="rgba(86.1341%,86.1341%,86.1341%,1)"/>
  <circle cx="14" cy="2" r="1" fill="rgba(86.1326%,86.1326%,86.1326%,1)"/>
  <circle cx="15" cy="2" r="1" fill="rgba(85.7969%,85.7969%,85.7969%,1)"/>
  <circle cx="16" cy="2" r="1" fill="rgba(90.3838%,90.3838%,90.3838%,1)"/>
  <circle cx="17" cy="2" r="1" fill="rgba(98.2269%,98.2269%,98.2269%,1)"/>
  <circle cx="18" cy="2" r="1" fill="white"/>
  <circle cx="19" cy="2" r="1" fill="white"/>
  <circle cx="20" cy="2" r="1" fill="white"/>
  <circle cx="21" cy="2" r="1" fill="white"/>
  <circle cx="0" cy="3" r="1" fill="white"/>
  <circle cx="1" cy="3" r="1" fill="white"/>
  <circle cx="2" cy="3" r="1" fill="white"/>
  <circle cx="3" cy="3" r="1" fill="white"/>
  <circle cx="4" cy="3" r="1" fill="rgba(88.7572%,88.7572%,88.7572%,1)"/>
  <circle cx="5" cy="3" r="1" fill="rgba(58.146%,58.146%,58.146%,1)"/>
  <circle cx="6" cy="3" r="1" fill="rgba(46.1753%,46.1753%,46.1753%,1)"/>
  <circle cx="7" cy="3" r="1" fill="rgba(45.2903%,45.2903%,45.2903%,1)"/>
  <circle cx="8" cy="3" r="1" fill="rgba(44.8539%,44.8539%,44.8539%,1)"/>
  <circle cx="9" cy="3" r="1" fill="rgba(44.8569%,44.8569%,44.8569%,1)"/>
  <circle cx="10" cy="3" r="1" fill="rgba(44.8569%,44.8569%,44.8569%,1)"/>
  <circle cx="11" cy="3" r="1" fill="rgba(44.8569%,44.8569%,44.8569%,1)"/>
  <circle cx="12" cy="3" r="1" fill="rgba(44.8569%,44.8569%,44.8569%,1)"/>
  <circle cx="13" cy="3" r="1" fill="rgba(44.8539%,44.8539%,44.8539%,1)"/>
  <circle cx="14" cy="3" r="1" fill="rgba(45.2888%,45.2888%,45.2888%,1)"/>
  <circle cx="15" cy="3" r="1" fill="rgba(46.1051%,46.1051%,46.1051%,1)"/>
  <circle cx="16" cy="3" r="1" fill="rgba(58.0713%,58.0713%,58.0713%,1)"/>
  <circle cx="17" cy="3" r="1" fill="rgba(88.7617%,88.7617%,88.7617%,1)"/>
  <circle cx="18" cy="3" r="1" fill="white"/>
  <circle cx="19" cy="3" r="1" fill="white"/>
  <circle cx="20" cy="3" r="1" fill="white"/>
  <circle cx="21" cy="3" r="1" fill="white"/>
  <circle cx="0" cy="4" r="1" fill="white"/>
  <circle cx="1" cy="4" r="1" fill="white"/>
  <circle cx="2" cy="4" r="1" fill="white"/>
  <circle cx="3" cy="4" r="1" fill="rgba(98.9288%,98.9288%,98.9288%,1)"/>
  <circle cx="4" cy="4" r="1" fill="rgba(77.1786%,77.1786%,77.1786%,1)"/>
  <circle cx="5" cy="4" r="1" fill="rgba(50.312%,50.312%,50.312%,1)"/>
  <circle cx="6" cy="4" r="1" fill="rgba(50.5974%,50.5974%,50.5974%,1)"/>
  <circle cx="7" cy="4" r="1" fill="rgba(63.1037%,63.1037%,63.1037%,1)"/>
  <circle cx="8" cy="4" r="1" fill="rgba(69.1905%,69.1905%,69.1905%,1)"/>
  <circle cx="9" cy="4" r="1" fill="rgba(69.1966%,69.1966%,69.1966%,1)"/>
  <circle cx="10" cy="4" r="1" fill="rgba(69.1966%,69.1966%,69.1966%,1)"/>
  <circle cx="11" cy="4" r="1" fill="rgba(69.1966%,69.1966%,69.1966%,1)"/>
  <circle cx="12" cy="4" r="1" fill="rgba(69.1966%,69.1966%,69.1966%,1)"/>
  <circle cx="13" cy="4" r="1" fill="rgba(69.1905%,69.1905%,69.1905%,1)"/>
  <circle cx="14" cy="4" r="1" fill="rgba(63.1693%,63.1693%,63.1693%,1)"/>
  <circle cx="15" cy="4" r="1" fill="rgba(50.5898%,50.5898%,50.5898%,1)"/>
  <circle cx="16" cy="4" r="1" fill="rgba(50.1793%,50.1793%,50.1793%,1)"/>
  <circle cx="17" cy="4" r="1" fill="rgba(77.1786%,77.1786%,77.1786%,1)"/>
  <circle cx="18" cy="4" r="1" fill="rgba(98.9242%,98.9242%,98.9242%,1)"/>
  <circle cx="19" cy="4" r="1" fill="white"/>
  <circle cx="20" cy="4" r="1" fill="white"/>
  <circle cx="21" cy="4" r="1" fill="white"/>
  <circle cx="0" cy="5" r="1" fill="white"/>
  <circle cx="1" cy="5" r="1" fill="white"/>
  <circle cx="2" cy="5" r="1" fill="white"/>
  <circle cx="3" cy="5" r="1" fill="rgba(92.7474%,92.7474%,92.7474%,1)"/>
  <circle cx="4" cy="5" r="1" fill="rgba(63.9261%,63.9261%,63.9261%,1)"/>
  <circle cx="5" cy="5" r="1" fill="rgba(48.8518%,48.8518%,48.8518%,1)"/>
  <circle cx="6" cy="5" r="1" fill="rgba(58.6679%,58.6679%,58.6679%,1)"/>
  <circle cx="7" cy="5" r="1" fill="rgba(90.3639%,90.3639%,90.3639%,1)"/>
  <circle cx="8" cy="5" r="1" fill="white"/>
  <circle cx="9" cy="5" r="1" fill="white"/>
  <circle cx="10" cy="5" r="1" fill="white"/>
  <circle cx="11" cy="5" r="1" fill="white"/>
  <circle cx="12" cy="5" r="1" fill="white"/>
  <circle cx="13" cy="5" r="1" fill="white"/>
  <circle cx="14" cy="5" r="1" fill="rgba(90.5089%,90.5089%,90.5089%,1)"/>
  <circle cx="15" cy="5" r="1" fill="rgba(58.9227%,58.9227%,58.9227%,1)"/>
  <circle cx="16" cy="5" r="1" fill="rgba(48.8396%,48.8396%,48.8396%,1)"/>
  <circle cx="17" cy="5" r="1" fill="rgba(64.0543%,64.0543%,64.0543%,1)"/>
  <circle cx="18" cy="5" r="1" fill="rgba(92.8222%,92.8222%,92.8222%,1)"/>
  <circle cx="19" cy="5" r="1" fill="white"/>
  <circle cx="20" cy="5" r="1" fill="white"/>
  <circle cx="21" cy="5" r="1" fill="white"/>
  <circle cx="0" cy="6" r="1" fill="white"/>
  <circle cx="1" cy="6" r="1" fill="white"/>
  <circle cx="2" cy="6" r="1" fill="rgba(99.8001%,99.8001%,99.8001%,1)"/>
  <circle cx="3" cy="6" r="1" fill="rgba(82.7573%,82.7573%,82.7573%,1)"/>
  <circle cx="4" cy="6" r="1" fill="rgba(52.5902%,52.5902%,52.5902%,1)"/>
  <circle cx="5" cy="6" r="1" fill="rgba(49.4514%,49.4514%,49.4514%,1)"/>
  <circle cx="6" cy="6" r="1" fill="rgba(71.4122%,71.4122%,71.4122%,1)"/>
  <circle cx="7" cy="6" r="1" fill="rgba(97.1847%,97.1847%,97.1847%,1)"/>
  <circle cx="8" cy="6" r="1" fill="white"/>
  <circle cx="9" cy="6" r="1" fill="white"/>
  <circle cx="10" cy="6" r="1" fill="white"/>
  <circle cx="11" cy="6" r="1" fill="white"/>
  <circle cx="12" cy="6" r="1" fill="white"/>
  <circle cx="13" cy="6" r="1" fill="white"/>
  <circle cx="14" cy="6" r="1" fill="rgba(97.3297%,97.3297%,97.3297%,1)"/>
  <circle cx="15" cy="6" r="1" fill="rgba(71.6594%,71.6594%,71.6594%,1)"/>
  <circle cx="16" cy="6" r="1" fill="rgba(49.4331%,49.4331%,49.4331%,1)"/>
  <circle cx="17" cy="6" r="1" fill="rgba(52.6986%,52.6986%,52.6986%,1)"/>
  <circle cx="18" cy="6" r="1" fill="rgba(82.8199%,82.8199%,82.8199%,1)"/>
  <circle cx="19" cy="6" r="1" fill="rgba(99.8001%,99.8001%,99.8001%,1)"/>
  <circle cx="20" cy="6" r="1" fill="white"/>
  <circle cx="21" cy="6" r="1" fill="white"/>
  <circle cx="0" cy="7" r="1" fill="white"/>
  <circle cx="1" cy="7" r="1" fill="white"/>
  <circle cx="2" cy="7" r="1" fill="rgba(95.4757%,95.4757%,95.4757%,1)"/>
  <circle cx="3" cy="7" r="1" fill="rgba(69.0364%,69.0364%,69.0364%,1)"/>
  <circle cx="4" cy="7" r="1" fill="rgba(49.926%,49.926%,49.926%,1)"/>
  <circle cx="5" cy="7" r="1" fill="rgba(54.4503%,54.4503%,54.4503%,1)"/>
  <circle cx="6" cy="7" r="1" fill="rgba(82.7146%,82.7146%,82.7146%,1)"/>
  <circle cx="7" cy="7" r="1" fill="white"/>
  <circle cx="8" cy="7" r="1" fill="white"/>
  <circle cx="9" cy="7" r="1" fill="white"/>
  <circle cx="10" cy="7" r="1" fill="white"/>
  <circle cx="11" cy="7" r="1" fill="white"/>
  <circle cx="12" cy="7" r="1" fill="white"/>
  <circle cx="13" cy="7" r="1" fill="white"/>
  <circle cx="14" cy="7" r="1" fill="white"/>
  <circle cx="15" cy="7" r="1" fill="rgba(82.7924%,82.7924%,82.7924%,1)"/>
  <circle cx="16" cy="7" r="1" fill="rgba(54.4457%,54.4457%,54.4457%,1)"/>
  <circle cx="17" cy="7" r="1" fill="rgba(49.9184%,49.9184%,49.9184%,1)"/>
  <circle cx="18" cy="7" r="1" fill="rgba(69.0333%,69.0333%,69.0333%,1)"/>
  <circle cx="19" cy="7" r="1" fill="rgba(95.4757%,95.4757%,95.4757%,1)"/>
  <circle cx="20" cy="7" r="1" fill="white"/>
  <circle cx="21" cy="7" r="1" fill="white"/>
  <circle cx="0" cy="8" r="1" fill="white"/>
  <circle cx="1" cy="8" r="1" fill="rgba(99.9847%,99.9847%,99.9847%,1)"/>
  <circle cx="2" cy="8" r="1" fill="rgba(87.892%,87.892%,87.892%,1)"/>
  <circle cx="3" cy="8" r="1" fill="rgba(55.0774%,55.0774%,55.0774%,1)"/>
  <circle cx="4" cy="8" r="1" fill="rgba(50.869%,50.869%,50.869%,1)"/>
  <circle cx="5" cy="8" r="1" fill="rgba(63.9475%,63.9475%,63.9475%,1)"/>
  <circle cx="6" cy="8" r="1" fill="rgba(92.3903%,92.3903%,92.3903%,1)"/>
  <circle cx="7" cy="8" r="1" fill="white"/>
  <circle cx="8" cy="8" r="1" fill="white"/>
  <circle cx="9" cy="8" r="1" fill="white"/>
  <circle cx="10" cy="8" r="1" fill="white"/>
  <circle cx="11" cy="8" r="1" fill="white"/>
  <circle cx="12" cy="8" r="1" fill="white"/>
  <circle cx="13" cy="8" r="1" fill="white"/>
  <circle cx="14" cy="8" r="1" fill="white"/>
  <circle cx="15" cy="8" r="1" fill="rgba(92.3857%,92.3857%,92.3857%,1)"/>
  <circle cx="16" cy="8" r="1" fill="rgba(63.9475%,63.9475%,63.9475%,1)"/>
  <circle cx="17" cy="8" r="1" fill="rgba(50.869%,50.869%,50.869%,1)"/>
  <circle cx="18" cy="8" r="1" fill="rgba(55.0774%,55.0774%,55.0774%,1)"/>
  <circle cx="19" cy="8" r="1" fill="rgba(87.892%,87.892%,87.892%,1)"/>
  <circle cx="20" cy="8" r="1" fill="rgba(99.9847%,99.9847%,99.9847%,1)"/>
  <circle cx="21" cy="8" r="1" fill="white"/>
  <circle cx="0" cy="9" r="1" fill="white"/>
  <circle cx="1" cy="9" r="1" fill="rgba(97.2702%,97.2702%,97.2702%,1)"/>
  <circle cx="2" cy="9" r="1" fill="rgba(74.3496%,74.3496%,74.3496%,1)"/>
  <circle cx="3" cy="9" r="1" fill="rgba(51.4809%,51.4809%,51.4809%,1)"/>
  <circle cx="4" cy="9" r="1" fill="rgba(52.018%,52.018%,52.018%,1)"/>
  <circle cx="5" cy="9" r="1" fill="rgba(74.7112%,74.7112%,74.7112%,1)"/>
  <circle cx="6" cy="9" r="1" fill="rgba(99.1272%,99.1272%,99.1272%,1)"/>
  <circle cx="7" cy="9" r="1" fill="white"/>
  <circle cx="8" cy="9" r="1" fill="white"/>
  <circle cx="9" cy="9" r="1" fill="white"/>
  <circle cx="10" cy="9" r="1" fill="white"/>
  <circle cx="11" cy="9" r="1" fill="white"/>
  <circle cx="12" cy="9" r="1" fill="white"/>
  <circle cx="13" cy="9" r="1" fill="white"/>
  <circle cx="14" cy="9" r="1" fill="white"/>
  <circle cx="15" cy="9" r="1" fill="rgba(99.1272%,99.1272%,99.1272%,1)"/>
  <circle cx="16" cy="9" r="1" fill="rgba(74.6975%,74.6975%,74.6975%,1)"/>
  <circle cx="17" cy="9" r="1" fill="rgba(52.0073%,52.0073%,52.0073%,1)"/>
  <circle cx="18" cy="9" r="1" fill="rgba(51.4809%,51.4809%,51.4809%,1)"/>
  <circle cx="19" cy="9" r="1" fill="rgba(74.3496%,74.3496%,74.3496%,1)"/>
  <circle cx="20" cy="9" r="1" fill="rgba(97.2702%,97.2702%,97.2702%,1)"/>
  <circle cx="21" cy="9" r="1" fill="white"/>
  <circle cx="0" cy="10" r="1" fill="white"/>
  <circle cx="1" cy="10" r="1" fill="rgba(93.0266%,93.0266%,93.0266%,1)"/>
  <circle cx="2" cy="10" r="1" fill="rgba(58.9685%,58.9685%,58.9685%,1)"/>
  <circle cx="3" cy="10" r="1" fill="rgba(52.4422%,52.4422%,52.4422%,1)"/>
  <circle cx="4" cy="10" r="1" fill="rgba(58.6648%,58.6648%,58.6648%,1)"/>
  <circle cx="5" cy="10" r="1" fill="rgba(85.8167%,85.8167%,85.8167%,1)"/>
  <circle cx="6" cy="10" r="1" fill="white"/>
  <circle cx="7" cy="10" r="1" fill="white"/>
  <circle cx="8" cy="10" r="1" fill="white"/>
  <circle cx="9" cy="10" r="1" fill="white"/>
  <circle cx="10" cy="10" r="1" fill="white"/>
  <circle cx="11" cy="10" r="1" fill="white"/>
  <circle cx="12" cy="10" r="1" fill="white"/>
  <circle cx="13" cy="10" r="1" fill="white"/>
  <circle cx="14" cy="10" r="1" fill="white"/>
  <circle cx="15" cy="10" r="1" fill="white"/>
  <circle cx="16" cy="10" r="1" fill="rgba(85.4612%,85.4612%,85.4612%,1)"/>
  <circle cx="17" cy="10" r="1" fill="rgba(58.3673%,58.3673%,58.3673%,1)"/>
  <circle cx="18" cy="10" r="1" fill="rgba(52.4605%,52.4605%,52.4605%,1)"/>
  <circle cx="19" cy="10" r="1" fill="rgba(58.9685%,58.9685%,58.9685%,1)"/>
  <circle cx="20" cy="10" r="1" fill="rgba(93.0266%,93.0266%,93.0266%,1)"/>
  <circle cx="21" cy="10" r="1" fill="white"/>
  <circle cx="0" cy="11" r="1" fill="white"/>
  <circle cx="1" cy="11" r="1" fill="rgba(90.8049%,90.8049%,90.8049%,1)"/>
  <circle cx="2" cy="11" r="1" fill="rgba(52.1324%,52.1324%,52.1324%,1)"/>
  <circle cx="3" cy="11" r="1" fill="rgba(52.668%,52.668%,52.668%,1)"/>
  <circle cx="4" cy="11" r="1" fill="rgba(63.4821%,63.4821%,63.4821%,1)"/>
  <circle cx="5" cy="11" r="1" fill="rgba(89.2103%,89.2103%,89.2103%,1)"/>
  <circle cx="6" cy="11" r="1" fill="rgba(93.5775%,93.5775%,93.5775%,1)"/>
  <circle cx="7" cy="11" r="1" fill="rgba(97.3373%,97.3373%,97.3373%,1)"/>
  <circle cx="8" cy="11" r="1" fill="rgba(99.939%,99.939%,99.939%,1)"/>
  <circle cx="9" cy="11" r="1" fill="white"/>
  <circle cx="10" cy="11" r="1" fill="white"/>
  <circle cx="11" cy="11" r="1" fill="white"/>
  <circle cx="12" cy="11" r="1" fill="white"/>
  <circle cx="13" cy="11" r="1" fill="rgba(99.9252%,99.9252%,99.9252%,1)"/>
  <circle cx="14" cy="11" r="1" fill="rgba(97.3022%,97.3022%,97.3022%,1)"/>
  <circle cx="15" cy="11" r="1" fill="rgba(93.5897%,93.5897%,93.5897%,1)"/>
  <circle cx="16" cy="11" r="1" fill="rgba(89.0089%,89.0089%,89.0089%,1)"/>
  <circle cx="17" cy="11" r="1" fill="rgba(63.3127%,63.3127%,63.3127%,1)"/>
  <circle cx="18" cy="11" r="1" fill="rgba(52.7138%,52.7138%,52.7138%,1)"/>
  <circle cx="19" cy="11" r="1" fill="rgba(52.1462%,52.1462%,52.1462%,1)"/>
  <circle cx="20" cy="11" r="1" fill="rgba(90.8049%,90.8049%,90.8049%,1)"/>
  <circle cx="21" cy="11" r="1" fill="white"/>
  <circle cx="0" cy="12" r="1" fill="white"/>
  <circle cx="1" cy="12" r="1" fill="rgba(90.7057%,90.7057%,90.7057%,1)"/>
  <circle cx="2" cy="12" r="1" fill="rgba(51.6365%,51.6365%,51.6365%,1)"/>
  <circle cx="3" cy="12" r="1" fill="rgba(53.4783%,53.4783%,53.4783%,1)"/>
  <circle cx="4" cy="12" r="1" fill="rgba(51.7479%,51.7479%,51.7479%,1)"/>
  <circle cx="5" cy="12" r="1" fill="rgba(52.8038%,52.8038%,52.8038%,1)"/>
  <circle cx="6" cy="12" r="1" fill="rgba(51.5923%,51.5923%,51.5923%,1)"/>
  <circle cx="7" cy="12" r="1" fill="rgba(77.0321%,77.0321%,77.0321%,1)"/>
  <circle cx="8" cy="12" r="1" fill="rgba(98.2589%,98.2589%,98.2589%,1)"/>
  <circle cx="9" cy="12" r="1" fill="white"/>
  <circle cx="10" cy="12" r="1" fill="white"/>
  <circle cx="11" cy="12" r="1" fill="white"/>
  <circle cx="12" cy="12" r="1" fill="white"/>
  <circle cx="13" cy="12" r="1" fill="rgba(98.1735%,98.1735%,98.1735%,1)"/>
  <circle cx="14" cy="12" r="1" fill="rgba(76.82%,76.82%,76.82%,1)"/>
  <circle cx="15" cy="12" r="1" fill="rgba(51.5999%,51.5999%,51.5999%,1)"/>
  <circle cx="16" cy="12" r="1" fill="rgba(52.7977%,52.7977%,52.7977%,1)"/>
  <circle cx="17" cy="12" r="1" fill="rgba(51.7342%,51.7342%,51.7342%,1)"/>
  <circle cx="18" cy="12" r="1" fill="rgba(53.6904%,53.6904%,53.6904%,1)"/>
  <circle cx="19" cy="12" r="1" fill="rgba(51.722%,51.722%,51.722%,1)"/>
  <circle cx="20" cy="12" r="1" fill="rgba(90.7012%,90.7012%,90.7012%,1)"/>
  <circle cx="21" cy="12" r="1" fill="white"/>
  <circle cx="0" cy="13" r="1" fill="white"/>
  <circle cx="1" cy="13" r="1" fill="rgba(90.7607%,90.7607%,90.7607%,1)"/>
  <circle cx="2" cy="13" r="1" fill="rgba(52.2789%,52.2789%,52.2789%,1)"/>
  <circle cx="3" cy="13" r="1" fill="rgba(56.3592%,56.3592%,56.3592%,1)"/>
  <circle cx="4" cy="13" r="1" fill="rgba(56.5393%,56.5393%,56.5393%,1)"/>
  <circle cx="5" cy="13" r="1" fill="rgba(56.6171%,56.6171%,56.6171%,1)"/>
  <circle cx="6" cy="13" r="1" fill="rgba(54.461%,54.461%,54.461%,1)"/>
  <circle cx="7" cy="13" r="1" fill="rgba(64.4816%,64.4816%,64.4816%,1)"/>
  <circle cx="8" cy="13" r="1" fill="rgba(93.7392%,93.7392%,93.7392%,1)"/>
  <circle cx="9" cy="13" r="1" fill="white"/>
  <circle cx="10" cy="13" r="1" fill="white"/>
  <circle cx="11" cy="13" r="1" fill="white"/>
  <circle cx="12" cy="13" r="1" fill="white"/>
  <circle cx="13" cy="13" r="1" fill="rgba(93.7377%,93.7377%,93.7377%,1)"/>
  <circle cx="14" cy="13" r="1" fill="rgba(64.4816%,64.4816%,64.4816%,1)"/>
  <circle cx="15" cy="13" r="1" fill="rgba(54.461%,54.461%,54.461%,1)"/>
  <circle cx="16" cy="13" r="1" fill="rgba(56.6171%,56.6171%,56.6171%,1)"/>
  <circle cx="17" cy="13" r="1" fill="rgba(56.5393%,56.5393%,56.5393%,1)"/>
  <circle cx="18" cy="13" r="1" fill="rgba(56.3607%,56.3607%,56.3607%,1)"/>
  <circle cx="19" cy="13" r="1" fill="rgba(52.2789%,52.2789%,52.2789%,1)"/>
  <circle cx="20" cy="13" r="1" fill="rgba(90.7607%,90.7607%,90.7607%,1)"/>
  <circle cx="21" cy="13" r="1" fill="white"/>
  <circle cx="0" cy="14" r="1" fill="white"/>
  <circle cx="1" cy="14" r="1" fill="rgba(90.84%,90.84%,90.84%,1)"/>
  <circle cx="2" cy="14" r="1" fill="rgba(52.7184%,52.7184%,52.7184%,1)"/>
  <circle cx="3" cy="14" r="1" fill="rgba(56.8139%,56.8139%,56.8139%,1)"/>
  <circle cx="4" cy="14" r="1" fill="rgba(57.0077%,57.0077%,57.0077%,1)"/>
  <circle cx="5" cy="14" r="1" fill="rgba(57.0306%,57.0306%,57.0306%,1)"/>
  <circle cx="6" cy="14" r="1" fill="rgba(56.3912%,56.3912%,56.3912%,1)"/>
  <circle cx="7" cy="14" r="1" fill="rgba(55.6344%,55.6344%,55.6344%,1)"/>
  <circle cx="8" cy="14" r="1" fill="rgba(76.4523%,76.4523%,76.4523%,1)"/>
  <circle cx="9" cy="14" r="1" fill="rgba(83.7278%,83.7278%,83.7278%,1)"/>
  <circle cx="10" cy="14" r="1" fill="rgba(83.2563%,83.2563%,83.2563%,1)"/>
  <circle cx="11" cy="14" r="1" fill="rgba(83.2563%,83.2563%,83.2563%,1)"/>
  <circle cx="12" cy="14" r="1" fill="rgba(83.7278%,83.7278%,83.7278%,1)"/>
  <circle cx="13" cy="14" r="1" fill="rgba(76.4523%,76.4523%,76.4523%,1)"/>
  <circle cx="14" cy="14" r="1" fill="rgba(55.6344%,55.6344%,55.6344%,1)"/>
  <circle cx="15" cy="14" r="1" fill="rgba(56.3912%,56.3912%,56.3912%,1)"/>
  <circle cx="16" cy="14" r="1" fill="rgba(57.0306%,57.0306%,57.0306%,1)"/>
  <circle cx="17" cy="14" r="1" fill="rgba(57.0077%,57.0077%,57.0077%,1)"/>
  <circle cx="18" cy="14" r="1" fill="rgba(56.8139%,56.8139%,56.8139%,1)"/>
  <circle cx="19" cy="14" r="1" fill="rgba(52.7184%,52.7184%,52.7184%,1)"/>
  <circle cx="20" cy="14" r="1" fill="rgba(90.84%,90.84%,90.84%,1)"/>
  <circle cx="21" cy="14" r="1" fill="white"/>
  <circle cx="0" cy="15" r="1" fill="white"/>
  <circle cx="1" cy="15" r="1" fill="rgba(90.8858%,90.8858%,90.8858%,1)"/>
  <circle cx="2" cy="15" r="1" fill="rgba(52.9717%,52.9717%,52.9717%,1)"/>
  <circle cx="3" cy="15" r="1" fill="rgba(57.0687%,57.0687%,57.0687%,1)"/>
  <circle cx="4" cy="15" r="1" fill="rgba(57.2625%,57.2625%,57.2625%,1)"/>
  <circle cx="5" cy="15" r="1" fill="rgba(57.2503%,57.2503%,57.2503%,1)"/>
  <circle cx="6" cy="15" r="1" fill="rgba(57.3693%,57.3693%,57.3693%,1)"/>
  <circle cx="7" cy="15" r="1" fill="rgba(54.9966%,54.9966%,54.9966%,1)"/>
  <circle cx="8" cy="15" r="1" fill="rgba(52.7672%,52.7672%,52.7672%,1)"/>
  <circle cx="9" cy="15" r="1" fill="rgba(52.4971%,52.4971%,52.4971%,1)"/>
  <circle cx="10" cy="15" r="1" fill="rgba(52.52%,52.52%,52.52%,1)"/>
  <circle cx="11" cy="15" r="1" fill="rgba(52.52%,52.52%,52.52%,1)"/>
  <circle cx="12" cy="15" r="1" fill="rgba(52.4971%,52.4971%,52.4971%,1)"/>
  <circle cx="13" cy="15" r="1" fill="rgba(52.7672%,52.7672%,52.7672%,1)"/>
  <circle cx="14" cy="15" r="1" fill="rgba(54.9966%,54.9966%,54.9966%,1)"/>
  <circle cx="15" cy="15" r="1" fill="rgba(57.3693%,57.3693%,57.3693%,1)"/>
  <circle cx="16" cy="15" r="1" fill="rgba(57.2503%,57.2503%,57.2503%,1)"/>
  <circle cx="17" cy="15" r="1" fill="rgba(57.2625%,57.2625%,57.2625%,1)"/>
  <circle cx="18" cy="15" r="1" fill="rgba(57.0687%,57.0687%,57.0687%,1)"/>
  <circle cx="19" cy="15" r="1" fill="rgba(52.9717%,52.9717%,52.9717%,1)"/>
  <circle cx="20" cy="15" r="1" fill="rgba(90.8858%,90.8858%,90.8858%,1)"/>
  <circle cx="21" cy="15" r="1" fill="white"/>
  <circle cx="0" cy="16" r="1" fill="white"/>
  <circle cx="1" cy="16" r="1" fill="rgba(90.9194%,90.9194%,90.9194%,1)"/>
  <circle cx="2" cy="16" r="1" fill="rgba(53.1579%,53.1579%,53.1579%,1)"/>
  <circle cx="3" cy="16" r="1" fill="rgba(146,146,146,1)"/>
  <circle cx="4" cy="16" r="1" fill="rgba(57.4487%,57.4487%,57.4487%,1)"/>
  <circle cx="5" cy="16" r="1" fill="rgba(57.438%,57.438%,57.438%,1)"/>
  <circle cx="6" cy="16" r="1" fill="rgba(57.4334%,57.4334%,57.4334%,1)"/>
  <circle cx="7" cy="16" r="1" fill="rgba(57.557%,57.557%,57.557%,1)"/>
  <circle cx="8" cy="16" r="1" fill="rgba(57.6287%,57.6287%,57.6287%,1)"/>
  <circle cx="9" cy="16" r="1" fill="rgba(57.6287%,57.6287%,57.6287%,1)"/>
  <circle cx="10" cy="16" r="1" fill="rgba(57.6287%,57.6287%,57.6287%,1)"/>
  <circle cx="11" cy="16" r="1" fill="rgba(57.6287%,57.6287%,57.6287%,1)"/>
  <circle cx="12" cy="16" r="1" fill="rgba(57.6287%,57.6287%,57.6287%,1)"/>
  <circle cx="13" cy="16" r="1" fill="rgba(57.6287%,57.6287%,57.6287%,1)"/>
  <circle cx="14" cy="16" r="1" fill="rgba(57.557%,57.557%,57.557%,1)"/>
  <circle cx="15" cy="16" r="1" fill="rgba(57.4334%,57.4334%,57.4334%,1)"/>
  <circle cx="16" cy="16" r="1" fill="rgba(57.438%,57.438%,57.438%,1)"/>
  <circle cx="17" cy="16" r="1" fill="rgba(57.4487%,57.4487%,57.4487%,1)"/>
  <circle cx="18" cy="16" r="1" fill="rgba(146,146,146,1)"/>
  <circle cx="19" cy="16" r="1" fill="rgba(53.1579%,53.1579%,53.1579%,1)"/>
  <circle cx="20" cy="16" r="1" fill="rgba(90.9194%,90.9194%,90.9194%,1)"/>
  <circle cx="21" cy="16" r="1" fill="white"/>
  <circle cx="0" cy="17" r="1" fill="white"/>
  <circle cx="1" cy="17" r="1" fill="rgba(90.9972%,90.9972%,90.9972%,1)"/>
  <circle cx="2" cy="17" r="1" fill="rgba(53.5958%,53.5958%,53.5958%,1)"/>
  <circle cx="3" cy="17" r="1" fill="rgba(57.7005%,57.7005%,57.7005%,1)"/>
  <circle cx="4" cy="17" r="1" fill="rgba(57.9004%,57.9004%,57.9004%,1)"/>
  <circle cx="5" cy="17" r="1" fill="rgba(57.8897%,57.8897%,57.8897%,1)"/>
  <circle cx="6" cy="17" r="1" fill="rgba(57.8897%,57.8897%,57.8897%,1)"/>
  <circle cx="7" cy="17" r="1" fill="rgba(57.8897%,57.8897%,57.8897%,1)"/>
  <circle cx="8" cy="17" r="1" fill="rgba(57.8897%,57.8897%,57.8897%,1)"/>
  <circle cx="9" cy="17" r="1" fill="rgba(57.8897%,57.8897%,57.8897%,1)"/>
  <circle cx="10" cy="17" r="1" fill="rgba(57.8897%,57.8897%,57.8897%,1)"/>
  <circle cx="11" cy="17" r="1" fill="rgba(57.8897%,57.8897%,57.8897%,1)"/>
  <circle cx="12" cy="17" r="1" fill="rgba(57.8897%,57.8897%,57.8897%,1)"/>
  <circle cx="13" cy="17" r="1" fill="rgba(57.8897%,57.8897%,57.8897%,1)"/>
  <circle cx="14" cy="17" r="1" fill="rgba(57.8897%,57.8897%,57.8897%,1)"/>
  <circle cx="15" cy="17" r="1" fill="rgba(57.8897%,57.8897%,57.8897%,1)"/>
  <circle cx="16" cy="17" r="1" fill="rgba(57.8897%,57.8897%,57.8897%,1)"/>
  <circle cx="17" cy="17" r="1" fill="rgba(57.9004%,57.9004%,57.9004%,1)"/>
  <circle cx="18" cy="17" r="1" fill="rgba(57.7005%,57.7005%,57.7005%,1)"/>
  <circle cx="19" cy="17" r="1" fill="rgba(53.5958%,53.5958%,53.5958%,1)"/>
  <circle cx="20" cy="17" r="1" fill="rgba(90.9972%,90.9972%,90.9972%,1)"/>
  <circle cx="21" cy="17" r="1" fill="white"/>
  <circle cx="0" cy="18" r="1" fill="white"/>
  <circle cx="1" cy="18" r="1" fill="rgba(91.0735%,91.0735%,91.0735%,1)"/>
  <circle cx="2" cy="18" r="1" fill="rgba(54.049%,54.049%,54.049%,1)"/>
  <circle cx="3" cy="18" r="1" fill="rgba(58.1201%,58.1201%,58.1201%,1)"/>
  <circle cx="4" cy="18" r="1" fill="rgba(58.1292%,58.1292%,58.1292%,1)"/>
  <circle cx="5" cy="18" r="1" fill="rgba(58.1262%,58.1262%,58.1262%,1)"/>
  <circle cx="6" cy="18" r="1" fill="rgba(58.1262%,58.1262%,58.1262%,1)"/>
  <circle cx="7" cy="18" r="1" fill="rgba(58.1262%,58.1262%,58.1262%,1)"/>
  <circle cx="8" cy="18" r="1" fill="rgba(58.1262%,58.1262%,58.1262%,1)"/>
  <circle cx="9" cy="18" r="1" fill="rgba(58.1262%,58.1262%,58.1262%,1)"/>
  <circle cx="10" cy="18" r="1" fill="rgba(58.1262%,58.1262%,58.1262%,1)"/>
  <circle cx="11" cy="18" r="1" fill="rgba(58.1262%,58.1262%,58.1262%,1)"/>
  <circle cx="12" cy="18" r="1" fill="rgba(58.1262%,58.1262%,58.1262%,1)"/>
  <circle cx="13" cy="18" r="1" fill="rgba(58.1262%,58.1262%,58.1262%,1)"/>
  <circle cx="14" cy="18" r="1" fill="rgba(58.1262%,58.1262%,58.1262%,1)"/>
  <circle cx="15" cy="18" r="1" fill="rgba(58.1262%,58.1262%,58.1262%,1)"/>
  <circle cx="16" cy="18" r="1" fill="rgba(58.1262%,58.1262%,58.1262%,1)"/>
  <circle cx="17" cy="18" r="1" fill="rgba(58.1292%,58.1292%,58.1292%,1)"/>
  <circle cx="18" cy="18" r="1" fill="rgba(58.1201%,58.1201%,58.1201%,1)"/>
  <circle cx="19" cy="18" r="1" fill="rgba(54.049%,54.049%,54.049%,1)"/>
  <circle cx="20" cy="18" r="1" fill="rgba(91.0735%,91.0735%,91.0735%,1)"/>
  <circle cx="21" cy="18" r="1" fill="white"/>
  <circle cx="0" cy="19" r="1" fill="white"/>
  <circle cx="1" cy="19" r="1" fill="rgba(91.2627%,91.2627%,91.2627%,1)"/>
  <circle cx="2" cy="19" r="1" fill="rgba(53.6538%,53.6538%,53.6538%,1)"/>
  <circle cx="3" cy="19" r="1" fill="rgba(54.4747%,54.4747%,54.4747%,1)"/>
  <circle cx="4" cy="19" r="1" fill="rgba(54.4488%,54.4488%,54.4488%,1)"/>
  <circle cx="5" cy="19" r="1" fill="rgba(54.4488%,54.4488%,54.4488%,1)"/>
  <circle cx="6" cy="19" r="1" fill="rgba(54.4488%,54.4488%,54.4488%,1)"/>
  <circle cx="7" cy="19" r="1" fill="rgba(54.4488%,54.4488%,54.4488%,1)"/>
  <circle cx="8" cy="19" r="1" fill="rgba(54.4488%,54.4488%,54.4488%,1)"/>
  <circle cx="9" cy="19" r="1" fill="rgba(54.4488%,54.4488%,54.4488%,1)"/>
  <circle cx="10" cy="19" r="1" fill="rgba(54.4488%,54.4488%,54.4488%,1)"/>
  <circle cx="11" cy="19" r="1" fill="rgba(54.4488%,54.4488%,54.4488%,1)"/>
  <circle cx="12" cy="19" r="1" fill="rgba(54.4488%,54.4488%,54.4488%,1)"/>
  <circle cx="13" cy="19" r="1" fill="rgba(54.4488%,54.4488%,54.4488%,1)"/>
  <circle cx="14" cy="19" r="1" fill="rgba(54.4488%,54.4488%,54.4488%,1)"/>
  <circle cx="15" cy="19" r="1" fill="rgba(54.4488%,54.4488%,54.4488%,1)"/>
  <circle cx="16" cy="19" r="1" fill="rgba(54.4488%,54.4488%,54.4488%,1)"/>
  <circle cx="17" cy="19" r="1" fill="rgba(54.4488%,54.4488%,54.4488%,1)"/>
  <circle cx="18" cy="19" r="1" fill="rgba(54.4747%,54.4747%,54.4747%,1)"/>
  <circle cx="19" cy="19" r="1" fill="rgba(53.6538%,53.6538%,53.6538%,1)"/>
  <circle cx="20" cy="19" r="1" fill="rgba(91.2627%,91.2627%,91.2627%,1)"/>
  <circle cx="21" cy="19" r="1" fill="white"/>
  <circle cx="0" cy="20" r="1" fill="white"/>
  <circle cx="1" cy="20" r="1" fill="rgba(98.4375%,98.4375%,98.4375%,1)"/>
  <circle cx="2" cy="20" r="1" fill="rgba(91.5938%,91.5938%,91.5938%,1)"/>
  <circle cx="3" cy="20" r="1" fill="rgba(91.4809%,91.4809%,91.4809%,1)"/>
  <circle cx="4" cy="20" r="1" fill="rgba(91.4824%,91.4824%,91.4824%,1)"/>
  <circle cx="5" cy="20" r="1" fill="rgba(91.4824%,91.4824%,91.4824%,1)"/>
  <circle cx="6" cy="20" r="1" fill="rgba(91.4824%,91.4824%,91.4824%,1)"/>
  <circle cx="7" cy="20" r="1" fill="rgba(91.4824%,91.4824%,91.4824%,1)"/>
  <circle cx="8" cy="20" r="1" fill="rgba(91.4824%,91.4824%,91.4824%,1)"/>
  <circle cx="9" cy="20" r="1" fill="rgba(91.4824%,91.4824%,91.4824%,1)"/>
  <circle cx="10" cy="20" r="1" fill="rgba(91.4824%,91.4824%,91.4824%,1)"/>
  <circle cx="11" cy="20" r="1" fill="rgba(91.4824%,91.4824%,91.4824%,1)"/>
  <circle cx="12" cy="20" r="1" fill="rgba(91.4824%,91.4824%,91.4824%,1)"/>
  <circle cx="13" cy="20" r="1" fill="rgba(91.4824%,91.4824%,91.4824%,1)"/>
  <circle cx="14" cy="20" r="1" fill="rgba(91.4824%,91.4824%,91.4824%,1)"/>
  <circle cx="15" cy="20" r="1" fill="rgba(91.4824%,91.4824%,91.4824%,1)"/>
  <circle cx="16" cy="20" r="1" fill="rgba(91.4824%,91.4824%,91.4824%,1)"/>
  <circle cx="17" cy="20" r="1" fill="rgba(91.4824%,91.4824%,91.4824%,1)"/>
  <circle cx="18" cy="20" r="1" fill="rgba(91.4809%,91.4809%,91.4809%,1)"/>
  <circle cx="19" cy="20" r="1" fill="rgba(91.5938%,91.5938%,91.5938%,1)"/>
  <circle cx="20" cy="20" r="1" fill="rgba(98.4375%,98.4375%,98.4375%,1)"/>
  <circle cx="21" cy="20" r="1" fill="white"/>
  <circle cx="0" cy="21" r="1" fill="white"/>
  <circle cx="1" cy="21" r="1" fill="white"/>
  <circle cx="2" cy="21" r="1" fill="white"/>
  <circle cx="3" cy="21" r="1" fill="white"/>
  <circle cx="4" cy="21" r="1" fill="white"/>
  <circle cx="5" cy="21" r="1" fill="white"/>
  <circle cx="6" cy="21" r="1" fill="white"/>
  <circle cx="7" cy="21" r="1" fill="white"/>
  <circle cx="8" cy="21" r="1" fill="white"/>
  <circle cx="9" cy="21" r="1" fill="white"/>
  <circle cx="10" cy="21" r="1" fill="white"/>
  <circle cx="11" cy="21" r="1" fill="white"/>
  <circle cx="12" cy="21" r="1" fill="white"/>
  <circle cx="13" cy="21" r="1" fill="white"/>
  <circle cx="14" cy="21" r="1" fill="white"/>
  <circle cx="15" cy="21" r="1" fill="white"/>
  <circle cx="16" cy="21" r="1" fill="white"/>
  <circle cx="17" cy="21" r="1" fill="white"/>
  <circle cx="18" cy="21" r="1" fill="white"/>
  <circle cx="19" cy="21" r="1" fill="white"/>
  <circle cx="20" cy="21" r="1" fill="white"/>
  <circle cx="21" cy="21" r="1" fill="white"/>
</svg>
