<?xml version="1.0" standalone="no"?>
<!DOCTYPE svg PUBLIC "-//W3C//DTD SVG 20010904//EN"
  "http://www.w3.org/TR/2001/REC-SVG-20010904/DTD/svg10.dtd">
<svg width="22" height="22">
  <circle cx="0" cy="0" r="1" fill="white"/>
  <circle cx="1" cy="0" r="1" fill="white"/>
  <circle cx="2" cy="0" r="1" fill="white"/>
  <circle cx="3" cy="0" r="1" fill="white"/>
  <circle cx="4" cy="0" r="1" fill="white"/>
  <circle cx="5" cy="0" r="1" fill="white"/>
  <circle cx="6" cy="0" r="1" fill="white"/>
  <circle cx="7" cy="0" r="1" fill="white"/>
  <circle cx="8" cy="0" r="1" fill="white"/>
  <circle cx="9" cy="0" r="1" fill="white"/>
  <circle cx="10" cy="0" r="1" fill="white"/>
  <circle cx="11" cy="0" r="1" fill="white"/>
  <circle cx="12" cy="0" r="1" fill="white"/>
  <circle cx="13" cy="0" r="1" fill="white"/>
  <circle cx="14" cy="0" r="1" fill="white"/>
  <circle cx="15" cy="0" r="1" fill="white"/>
  <circle cx="16" cy="0" r="1" fill="white"/>
  <circle cx="17" cy="0" r="1" fill="white"/>
  <circle cx="18" cy="0" r="1" fill="white"/>
  <circle cx="19" cy="0" r="1" fill="white"/>
  <circle cx="20" cy="0" r="1" fill="white"/>
  <circle cx="21" cy="0" r="1" fill="white"/>
  <circle cx="0" cy="1" r="1" fill="white"/>
  <circle cx="1" cy="1" r="1" fill="white"/>
  <circle cx="2" cy="1" r="1" fill="white"/>
  <circle cx="3" cy="1" r="1" fill="white"/>
  <circle cx="4" cy="1" r="1" fill="white"/>
  <circle cx="5" cy="1" r="1" fill="white"/>
  <circle cx="6" cy="1" r="1" fill="white"/>
  <circle cx="7" cy="1" r="1" fill="white"/>
  <circle cx="8" cy="1" r="1" fill="white"/>
  <circle cx="9" cy="1" r="1" fill="white"/>
  <circle cx="10" cy="1" r="1" fill="white"/>
  <circle cx="11" cy="1" r="1" fill="white"/>
  <circle cx="12" cy="1" r="1" fill="white"/>
  <circle cx="13" cy="1" r="1" fill="white"/>
  <circle cx="14" cy="1" r="1" fill="white"/>
  <circle cx="15" cy="1" r="1" fill="white"/>
  <circle cx="16" cy="1" r="1" fill="white"/>
  <circle cx="17" cy="1" r="1" fill="white"/>
  <circle cx="18" cy="1" r="1" fill="white"/>
  <circle cx="19" cy="1" r="1" fill="white"/>
  <circle cx="20" cy="1" r="1" fill="white"/>
  <circle cx="21" cy="1" r="1" fill="white"/>
  <circle cx="0" cy="2" r="1" fill="white"/>
  <circle cx="1" cy="2" r="1" fill="white"/>
  <circle cx="2" cy="2" r="1" fill="white"/>
  <circle cx="3" cy="2" r="1" fill="white"/>
  <circle cx="4" cy="2" r="1" fill="white"/>
  <circle cx="5" cy="2" r="1" fill="white"/>
  <circle cx="6" cy="2" r="1" fill="white"/>
  <circle cx="7" cy="2" r="1" fill="rgba(99.0066%,99.0066%,99.0066%,1)"/>
  <circle cx="8" cy="2" r="1" fill="rgba(94.5068%,94.5068%,94.5068%,1)"/>
  <circle cx="9" cy="2" r="1" fill="rgba(91.3619%,91.3619%,91.3619%,1)"/>
  <circle cx="10" cy="2" r="1" fill="rgba(88.7282%,88.7282%,88.7282%,1)"/>
  <circle cx="11" cy="2" r="1" fill="rgba(88.6107%,88.6107%,88.6107%,1)"/>
  <circle cx="12" cy="2" r="1" fill="rgba(91.2337%,91.2337%,91.2337%,1)"/>
  <circle cx="13" cy="2" r="1" fill="rgba(97.1069%,97.1069%,97.1069%,1)"/>
  <circle cx="14" cy="2" r="1" fill="white"/>
  <circle cx="15" cy="2" r="1" fill="white"/>
  <circle cx="16" cy="2" r="1" fill="white"/>
  <circle cx="17" cy="2" r="1" fill="white"/>
  <circle cx="18" cy="2" r="1" fill="white"/>
  <circle cx="19" cy="2" r="1" fill="white"/>
  <circle cx="20" cy="2" r="1" fill="white"/>
  <circle cx="21" cy="2" r="1" fill="white"/>
  <circle cx="0" cy="3" r="1" fill="white"/>
  <circle cx="1" cy="3" r="1" fill="white"/>
  <circle cx="2" cy="3" r="1" fill="white"/>
  <circle cx="3" cy="3" r="1" fill="white"/>
  <circle cx="4" cy="3" r="1" fill="white"/>
  <circle cx="5" cy="3" r="1" fill="white"/>
  <circle cx="6" cy="3" r="1" fill="white"/>
  <circle cx="7" cy="3" r="1" fill="rgba(88.5466%,88.5466%,88.5466%,1)"/>
  <circle cx="8" cy="3" r="1" fill="rgba(67.3426%,67.3426%,67.3426%,1)"/>
  <circle cx="9" cy="3" r="1" fill="rgba(58.9899%,58.9899%,58.9899%,1)"/>
  <circle cx="10" cy="3" r="1" fill="rgba(53.1685%,53.1685%,53.1685%,1)"/>
  <circle cx="11" cy="3" r="1" fill="rgba(52.7504%,52.7504%,52.7504%,1)"/>
  <circle cx="12" cy="3" r="1" fill="rgba(58.6587%,58.6587%,58.6587%,1)"/>
  <circle cx="13" cy="3" r="1" fill="rgba(73.8994%,73.8994%,73.8994%,1)"/>
  <circle cx="14" cy="3" r="1" fill="rgba(92.8206%,92.8206%,92.8206%,1)"/>
  <circle cx="15" cy="3" r="1" fill="white"/>
  <circle cx="16" cy="3" r="1" fill="white"/>
  <circle cx="17" cy="3" r="1" fill="white"/>
  <circle cx="18" cy="3" r="1" fill="white"/>
  <circle cx="19" cy="3" r="1" fill="white"/>
  <circle cx="20" cy="3" r="1" fill="white"/>
  <circle cx="21" cy="3" r="1" fill="white"/>
  <circle cx="0" cy="4" r="1" fill="white"/>
  <circle cx="1" cy="4" r="1" fill="white"/>
  <circle cx="2" cy="4" r="1" fill="white"/>
  <circle cx="3" cy="4" r="1" fill="white"/>
  <circle cx="4" cy="4" r="1" fill="white"/>
  <circle cx="5" cy="4" r="1" fill="white"/>
  <circle cx="6" cy="4" r="1" fill="rgba(95.3399%,95.3399%,95.3399%,1)"/>
  <circle cx="7" cy="4" r="1" fill="rgba(67.9362%,67.9362%,67.9362%,1)"/>
  <circle cx="8" cy="4" r="1" fill="rgba(50.602%,50.602%,50.602%,1)"/>
  <circle cx="9" cy="4" r="1" fill="rgba(51.1437%,51.1437%,51.1437%,1)"/>
  <circle cx="10" cy="4" r="1" fill="rgba(52.4804%,52.4804%,52.4804%,1)"/>
  <circle cx="11" cy="4" r="1" fill="rgba(52.314%,52.314%,52.314%,1)"/>
  <circle cx="12" cy="4" r="1" fill="rgba(51.1391%,51.1391%,51.1391%,1)"/>
  <circle cx="13" cy="4" r="1" fill="rgba(50.4524%,50.4524%,50.4524%,1)"/>
  <circle cx="14" cy="4" r="1" fill="rgba(68.5557%,68.5557%,68.5557%,1)"/>
  <circle cx="15" cy="4" r="1" fill="rgba(95.6542%,95.6542%,95.6542%,1)"/>
  <circle cx="16" cy="4" r="1" fill="white"/>
  <circle cx="17" cy="4" r="1" fill="white"/>
  <circle cx="18" cy="4" r="1" fill="white"/>
  <circle cx="19" cy="4" r="1" fill="white"/>
  <circle cx="20" cy="4" r="1" fill="white"/>
  <circle cx="21" cy="4" r="1" fill="white"/>
  <circle cx="0" cy="5" r="1" fill="white"/>
  <circle cx="1" cy="5" r="1" fill="white"/>
  <circle cx="2" cy="5" r="1" fill="white"/>
  <circle cx="3" cy="5" r="1" fill="white"/>
  <circle cx="4" cy="5" r="1" fill="white"/>
  <circle cx="5" cy="5" r="1" fill="white"/>
  <circle cx="6" cy="5" r="1" fill="rgba(84.0101%,84.0101%,84.0101%,1)"/>
  <circle cx="7" cy="5" r="1" fill="rgba(56.0616%,56.0616%,56.0616%,1)"/>
  <circle cx="8" cy="5" r="1" fill="rgba(52.0058%,52.0058%,52.0058%,1)"/>
  <circle cx="9" cy="5" r="1" fill="rgba(53.6477%,53.6477%,53.6477%,1)"/>
  <circle cx="10" cy="5" r="1" fill="rgba(53.5744%,53.5744%,53.5744%,1)"/>
  <circle cx="11" cy="5" r="1" fill="rgba(53.5836%,53.5836%,53.5836%,1)"/>
  <circle cx="12" cy="5" r="1" fill="rgba(53.6477%,53.6477%,53.6477%,1)"/>
  <circle cx="13" cy="5" r="1" fill="rgba(51.9799%,51.9799%,51.9799%,1)"/>
  <circle cx="14" cy="5" r="1" fill="rgba(56.3302%,56.3302%,56.3302%,1)"/>
  <circle cx="15" cy="5" r="1" fill="rgba(84.5212%,84.5212%,84.5212%,1)"/>
  <circle cx="16" cy="5" r="1" fill="white"/>
  <circle cx="17" cy="5" r="1" fill="white"/>
  <circle cx="18" cy="5" r="1" fill="white"/>
  <circle cx="19" cy="5" r="1" fill="white"/>
  <circle cx="20" cy="5" r="1" fill="white"/>
  <circle cx="21" cy="5" r="1" fill="white"/>
  <circle cx="0" cy="6" r="1" fill="white"/>
  <circle cx="1" cy="6" r="1" fill="white"/>
  <circle cx="2" cy="6" r="1" fill="white"/>
  <circle cx="3" cy="6" r="1" fill="white"/>
  <circle cx="4" cy="6" r="1" fill="white"/>
  <circle cx="5" cy="6" r="1" fill="white"/>
  <circle cx="6" cy="6" r="1" fill="rgba(80.0519%,80.0519%,80.0519%,1)"/>
  <circle cx="7" cy="6" r="1" fill="rgba(55.1263%,55.1263%,55.1263%,1)"/>
  <circle cx="8" cy="6" r="1" fill="rgba(52.8939%,52.8939%,52.8939%,1)"/>
  <circle cx="9" cy="6" r="1" fill="rgba(53.7652%,53.7652%,53.7652%,1)"/>
  <circle cx="10" cy="6" r="1" fill="rgba(53.7285%,53.7285%,53.7285%,1)"/>
  <circle cx="11" cy="6" r="1" fill="rgba(53.7285%,53.7285%,53.7285%,1)"/>
  <circle cx="12" cy="6" r="1" fill="rgba(53.7652%,53.7652%,53.7652%,1)"/>
  <circle cx="13" cy="6" r="1" fill="rgba(52.8908%,52.8908%,52.8908%,1)"/>
  <circle cx="14" cy="6" r="1" fill="rgba(55.1751%,55.1751%,55.1751%,1)"/>
  <circle cx="15" cy="6" r="1" fill="rgba(80.1343%,80.1343%,80.1343%,1)"/>
  <circle cx="16" cy="6" r="1" fill="white"/>
  <circle cx="17" cy="6" r="1" fill="white"/>
  <circle cx="18" cy="6" r="1" fill="white"/>
  <circle cx="19" cy="6" r="1" fill="white"/>
  <circle cx="20" cy="6" r="1" fill="white"/>
  <circle cx="21" cy="6" r="1" fill="white"/>
  <circle cx="0" cy="7" r="1" fill="white"/>
  <circle cx="1" cy="7" r="1" fill="white"/>
  <circle cx="2" cy="7" r="1" fill="white"/>
  <circle cx="3" cy="7" r="1" fill="white"/>
  <circle cx="4" cy="7" r="1" fill="white"/>
  <circle cx="5" cy="7" r="1" fill="white"/>
  <circle cx="6" cy="7" r="1" fill="rgba(81.0559%,81.0559%,81.0559%,1)"/>
  <circle cx="7" cy="7" r="1" fill="rgba(55.7595%,55.7595%,55.7595%,1)"/>
  <circle cx="8" cy="7" r="1" fill="rgba(53.0556%,53.0556%,53.0556%,1)"/>
  <circle cx="9" cy="7" r="1" fill="rgba(54.02%,54.02%,54.02%,1)"/>
  <circle cx="10" cy="7" r="1" fill="rgba(53.9834%,53.9834%,53.9834%,1)"/>
  <circle cx="11" cy="7" r="1" fill="rgba(53.9834%,53.9834%,53.9834%,1)"/>
  <circle cx="12" cy="7" r="1" fill="rgba(54.02%,54.02%,54.02%,1)"/>
  <circle cx="13" cy="7" r="1" fill="rgba(53.0556%,53.0556%,53.0556%,1)"/>
  <circle cx="14" cy="7" r="1" fill="rgba(55.7534%,55.7534%,55.7534%,1)"/>
  <circle cx="15" cy="7" r="1" fill="rgba(81.0452%,81.0452%,81.0452%,1)"/>
  <circle cx="16" cy="7" r="1" fill="white"/>
  <circle cx="17" cy="7" r="1" fill="white"/>
  <circle cx="18" cy="7" r="1" fill="white"/>
  <circle cx="19" cy="7" r="1" fill="white"/>
  <circle cx="20" cy="7" r="1" fill="white"/>
  <circle cx="21" cy="7" r="1" fill="white"/>
  <circle cx="0" cy="8" r="1" fill="white"/>
  <circle cx="1" cy="8" r="1" fill="white"/>
  <circle cx="2" cy="8" r="1" fill="white"/>
  <circle cx="3" cy="8" r="1" fill="white"/>
  <circle cx="4" cy="8" r="1" fill="white"/>
  <circle cx="5" cy="8" r="1" fill="white"/>
  <circle cx="6" cy="8" r="1" fill="rgba(74.3908%,74.3908%,74.3908%,1)"/>
  <circle cx="7" cy="8" r="1" fill="rgba(52.8542%,52.8542%,52.8542%,1)"/>
  <circle cx="8" cy="8" r="1" fill="rgba(53.9635%,53.9635%,53.9635%,1)"/>
  <circle cx="9" cy="8" r="1" fill="rgba(54.4472%,54.4472%,54.4472%,1)"/>
  <circle cx="10" cy="8" r="1" fill="rgba(54.4228%,54.4228%,54.4228%,1)"/>
  <circle cx="11" cy="8" r="1" fill="rgba(54.4228%,54.4228%,54.4228%,1)"/>
  <circle cx="12" cy="8" r="1" fill="rgba(54.4472%,54.4472%,54.4472%,1)"/>
  <circle cx="13" cy="8" r="1" fill="rgba(53.9574%,53.9574%,53.9574%,1)"/>
  <circle cx="14" cy="8" r="1" fill="rgba(52.961%,52.961%,52.961%,1)"/>
  <circle cx="15" cy="8" r="1" fill="rgba(74.5693%,74.5693%,74.5693%,1)"/>
  <circle cx="16" cy="8" r="1" fill="white"/>
  <circle cx="17" cy="8" r="1" fill="white"/>
  <circle cx="18" cy="8" r="1" fill="white"/>
  <circle cx="19" cy="8" r="1" fill="white"/>
  <circle cx="20" cy="8" r="1" fill="white"/>
  <circle cx="21" cy="8" r="1" fill="white"/>
  <circle cx="0" cy="9" r="1" fill="white"/>
  <circle cx="1" cy="9" r="1" fill="white"/>
  <circle cx="2" cy="9" r="1" fill="white"/>
  <circle cx="3" cy="9" r="1" fill="white"/>
  <circle cx="4" cy="9" r="1" fill="white"/>
  <circle cx="5" cy="9" r="1" fill="white"/>
  <circle cx="6" cy="9" r="1" fill="rgba(70.2617%,70.2617%,70.2617%,1)"/>
  <circle cx="7" cy="9" r="1" fill="rgba(51.4397%,51.4397%,51.4397%,1)"/>
  <circle cx="8" cy="9" r="1" fill="rgba(54.8196%,54.8196%,54.8196%,1)"/>
  <circle cx="9" cy="9" r="1" fill="rgba(54.8592%,54.8592%,54.8592%,1)"/>
  <circle cx="10" cy="9" r="1" fill="rgba(54.8516%,54.8516%,54.8516%,1)"/>
  <circle cx="11" cy="9" r="1" fill="rgba(54.8516%,54.8516%,54.8516%,1)"/>
  <circle cx="12" cy="9" r="1" fill="rgba(54.8547%,54.8547%,54.8547%,1)"/>
  <circle cx="13" cy="9" r="1" fill="rgba(54.8989%,54.8989%,54.8989%,1)"/>
  <circle cx="14" cy="9" r="1" fill="rgba(51.6747%,51.6747%,51.6747%,1)"/>
  <circle cx="15" cy="9" r="1" fill="rgba(70.309%,70.309%,70.309%,1)"/>
  <circle cx="16" cy="9" r="1" fill="white"/>
  <circle cx="17" cy="9" r="1" fill="white"/>
  <circle cx="18" cy="9" r="1" fill="white"/>
  <circle cx="19" cy="9" r="1" fill="white"/>
  <circle cx="20" cy="9" r="1" fill="white"/>
  <circle cx="21" cy="9" r="1" fill="white"/>
  <circle cx="0" cy="10" r="1" fill="white"/>
  <circle cx="1" cy="10" r="1" fill="white"/>
  <circle cx="2" cy="10" r="1" fill="white"/>
  <circle cx="3" cy="10" r="1" fill="white"/>
  <circle cx="4" cy="10" r="1" fill="white"/>
  <circle cx="5" cy="10" r="1" fill="white"/>
  <circle cx="6" cy="10" r="1" fill="rgba(75.7107%,75.7107%,75.7107%,1)"/>
  <circle cx="7" cy="10" r="1" fill="rgba(54.0887%,54.0887%,54.0887%,1)"/>
  <circle cx="8" cy="10" r="1" fill="rgba(54.7738%,54.7738%,54.7738%,1)"/>
  <circle cx="9" cy="10" r="1" fill="rgba(141,141,141,1)"/>
  <circle cx="10" cy="10" r="1" fill="rgba(55.2773%,55.2773%,55.2773%,1)"/>
  <circle cx="11" cy="10" r="1" fill="rgba(55.2773%,55.2773%,55.2773%,1)"/>
  <circle cx="12" cy="10" r="1" fill="rgba(141,141,141,1)"/>
  <circle cx="13" cy="10" r="1" fill="rgba(54.6731%,54.6731%,54.6731%,1)"/>
  <circle cx="14" cy="10" r="1" fill="rgba(54.0078%,54.0078%,54.0078%,1)"/>
  <circle cx="15" cy="10" r="1" fill="rgba(75.8938%,75.8938%,75.8938%,1)"/>
  <circle cx="16" cy="10" r="1" fill="white"/>
  <circle cx="17" cy="10" r="1" fill="white"/>
  <circle cx="18" cy="10" r="1" fill="white"/>
  <circle cx="19" cy="10" r="1" fill="white"/>
  <circle cx="20" cy="10" r="1" fill="white"/>
  <circle cx="21" cy="10" r="1" fill="white"/>
  <circle cx="0" cy="11" r="1" fill="white"/>
  <circle cx="1" cy="11" r="1" fill="white"/>
  <circle cx="2" cy="11" r="1" fill="white"/>
  <circle cx="3" cy="11" r="1" fill="white"/>
  <circle cx="4" cy="11" r="1" fill="white"/>
  <circle cx="5" cy="11" r="1" fill="white"/>
  <circle cx="6" cy="11" r="1" fill="rgba(89.6345%,89.6345%,89.6345%,1)"/>
  <circle cx="7" cy="11" r="1" fill="rgba(62.1637%,62.1637%,62.1637%,1)"/>
  <circle cx="8" cy="11" r="1" fill="rgba(53.6706%,53.6706%,53.6706%,1)"/>
  <circle cx="9" cy="11" r="1" fill="rgba(55.5154%,55.5154%,55.5154%,1)"/>
  <circle cx="10" cy="11" r="1" fill="rgba(55.7153%,55.7153%,55.7153%,1)"/>
  <circle cx="11" cy="11" r="1" fill="rgba(55.7198%,55.7198%,55.7198%,1)"/>
  <circle cx="12" cy="11" r="1" fill="rgba(55.4421%,55.4421%,55.4421%,1)"/>
  <circle cx="13" cy="11" r="1" fill="rgba(53.402%,53.402%,53.402%,1)"/>
  <circle cx="14" cy="11" r="1" fill="rgba(62.0783%,62.0783%,62.0783%,1)"/>
  <circle cx="15" cy="11" r="1" fill="rgba(89.4591%,89.4591%,89.4591%,1)"/>
  <circle cx="16" cy="11" r="1" fill="white"/>
  <circle cx="17" cy="11" r="1" fill="white"/>
  <circle cx="18" cy="11" r="1" fill="white"/>
  <circle cx="19" cy="11" r="1" fill="white"/>
  <circle cx="20" cy="11" r="1" fill="white"/>
  <circle cx="21" cy="11" r="1" fill="white"/>
  <circle cx="0" cy="12" r="1" fill="white"/>
  <circle cx="1" cy="12" r="1" fill="white"/>
  <circle cx="2" cy="12" r="1" fill="white"/>
  <circle cx="3" cy="12" r="1" fill="white"/>
  <circle cx="4" cy="12" r="1" fill="white"/>
  <circle cx="5" cy="12" r="1" fill="white"/>
  <circle cx="6" cy="12" r="1" fill="rgba(99.6582%,99.6582%,99.6582%,1)"/>
  <circle cx="7" cy="12" r="1" fill="rgba(86.5339%,86.5339%,86.5339%,1)"/>
  <circle cx="8" cy="12" r="1" fill="rgba(58.4222%,58.4222%,58.4222%,1)"/>
  <circle cx="9" cy="12" r="1" fill="rgba(54.847%,54.847%,54.847%,1)"/>
  <circle cx="10" cy="12" r="1" fill="rgba(56.1624%,56.1624%,56.1624%,1)"/>
  <circle cx="11" cy="12" r="1" fill="rgba(56.1639%,56.1639%,56.1639%,1)"/>
  <circle cx="12" cy="12" r="1" fill="rgba(54.8089%,54.8089%,54.8089%,1)"/>
  <circle cx="13" cy="12" r="1" fill="rgba(58.381%,58.381%,58.381%,1)"/>
  <circle cx="14" cy="12" r="1" fill="rgba(86.7399%,86.7399%,86.7399%,1)"/>
  <circle cx="15" cy="12" r="1" fill="rgba(99.649%,99.649%,99.649%,1)"/>
  <circle cx="16" cy="12" r="1" fill="white"/>
  <circle cx="17" cy="12" r="1" fill="white"/>
  <circle cx="18" cy="12" r="1" fill="white"/>
  <circle cx="19" cy="12" r="1" fill="white"/>
  <circle cx="20" cy="12" r="1" fill="white"/>
  <circle cx="21" cy="12" r="1" fill="white"/>
  <circle cx="0" cy="13" r="1" fill="white"/>
  <circle cx="1" cy="13" r="1" fill="white"/>
  <circle cx="2" cy="13" r="1" fill="white"/>
  <circle cx="3" cy="13" r="1" fill="white"/>
  <circle cx="4" cy="13" r="1" fill="white"/>
  <circle cx="5" cy="13" r="1" fill="white"/>
  <circle cx="6" cy="13" r="1" fill="white"/>
  <circle cx="7" cy="13" r="1" fill="white"/>
  <circle cx="8" cy="13" r="1" fill="rgba(63.9796%,63.9796%,63.9796%,1)"/>
  <circle cx="9" cy="13" r="1" fill="rgba(54.6639%,54.6639%,54.6639%,1)"/>
  <circle cx="10" cy="13" r="1" fill="rgba(56.5515%,56.5515%,56.5515%,1)"/>
  <circle cx="11" cy="13" r="1" fill="rgba(56.5454%,56.5454%,56.5454%,1)"/>
  <circle cx="12" cy="13" r="1" fill="rgba(54.7768%,54.7768%,54.7768%,1)"/>
  <circle cx="13" cy="13" r="1" fill="rgba(64.4404%,64.4404%,64.4404%,1)"/>
  <circle cx="14" cy="13" r="1" fill="white"/>
  <circle cx="15" cy="13" r="1" fill="white"/>
  <circle cx="16" cy="13" r="1" fill="white"/>
  <circle cx="17" cy="13" r="1" fill="white"/>
  <circle cx="18" cy="13" r="1" fill="white"/>
  <circle cx="19" cy="13" r="1" fill="white"/>
  <circle cx="20" cy="13" r="1" fill="white"/>
  <circle cx="21" cy="13" r="1" fill="white"/>
  <circle cx="0" cy="14" r="1" fill="white"/>
  <circle cx="1" cy="14" r="1" fill="white"/>
  <circle cx="2" cy="14" r="1" fill="white"/>
  <circle cx="3" cy="14" r="1" fill="white"/>
  <circle cx="4" cy="14" r="1" fill="white"/>
  <circle cx="5" cy="14" r="1" fill="white"/>
  <circle cx="6" cy="14" r="1" fill="white"/>
  <circle cx="7" cy="14" r="1" fill="rgba(94.6304%,94.6304%,94.6304%,1)"/>
  <circle cx="8" cy="14" r="1" fill="rgba(62.0462%,62.0462%,62.0462%,1)"/>
  <circle cx="9" cy="14" r="1" fill="rgba(55.3704%,55.3704%,55.3704%,1)"/>
  <circle cx="10" cy="14" r="1" fill="rgba(57.0092%,57.0092%,57.0092%,1)"/>
  <circle cx="11" cy="14" r="1" fill="rgba(57.0092%,57.0092%,57.0092%,1)"/>
  <circle cx="12" cy="14" r="1" fill="rgba(55.3613%,55.3613%,55.3613%,1)"/>
  <circle cx="13" cy="14" r="1" fill="rgba(62.15%,62.15%,62.15%,1)"/>
  <circle cx="14" cy="14" r="1" fill="rgba(94.9081%,94.9081%,94.9081%,1)"/>
  <circle cx="15" cy="14" r="1" fill="white"/>
  <circle cx="16" cy="14" r="1" fill="white"/>
  <circle cx="17" cy="14" r="1" fill="white"/>
  <circle cx="18" cy="14" r="1" fill="white"/>
  <circle cx="19" cy="14" r="1" fill="white"/>
  <circle cx="20" cy="14" r="1" fill="white"/>
  <circle cx="21" cy="14" r="1" fill="white"/>
  <circle cx="0" cy="15" r="1" fill="white"/>
  <circle cx="1" cy="15" r="1" fill="white"/>
  <circle cx="2" cy="15" r="1" fill="white"/>
  <circle cx="3" cy="15" r="1" fill="white"/>
  <circle cx="4" cy="15" r="1" fill="white"/>
  <circle cx="5" cy="15" r="1" fill="white"/>
  <circle cx="6" cy="15" r="1" fill="rgba(95.7122%,95.7122%,95.7122%,1)"/>
  <circle cx="7" cy="15" r="1" fill="rgba(73.0465%,73.0465%,73.0465%,1)"/>
  <circle cx="8" cy="15" r="1" fill="rgba(56.3851%,56.3851%,56.3851%,1)"/>
  <circle cx="9" cy="15" r="1" fill="rgba(56.6217%,56.6217%,56.6217%,1)"/>
  <circle cx="10" cy="15" r="1" fill="rgba(57.2808%,57.2808%,57.2808%,1)"/>
  <circle cx="11" cy="15" r="1" fill="rgba(57.2808%,57.2808%,57.2808%,1)"/>
  <circle cx="12" cy="15" r="1" fill="rgba(56.6186%,56.6186%,56.6186%,1)"/>
  <circle cx="13" cy="15" r="1" fill="rgba(56.4431%,56.4431%,56.4431%,1)"/>
  <circle cx="14" cy="15" r="1" fill="rgba(73.2616%,73.2616%,73.2616%,1)"/>
  <circle cx="15" cy="15" r="1" fill="rgba(95.8984%,95.8984%,95.8984%,1)"/>
  <circle cx="16" cy="15" r="1" fill="white"/>
  <circle cx="17" cy="15" r="1" fill="white"/>
  <circle cx="18" cy="15" r="1" fill="white"/>
  <circle cx="19" cy="15" r="1" fill="white"/>
  <circle cx="20" cy="15" r="1" fill="white"/>
  <circle cx="21" cy="15" r="1" fill="white"/>
  <circle cx="0" cy="16" r="1" fill="white"/>
  <circle cx="1" cy="16" r="1" fill="white"/>
  <circle cx="2" cy="16" r="1" fill="white"/>
  <circle cx="3" cy="16" r="1" fill="white"/>
  <circle cx="4" cy="16" r="1" fill="rgba(98.9731%,98.9731%,98.9731%,1)"/>
  <circle cx="5" cy="16" r="1" fill="rgba(88.1895%,88.1895%,88.1895%,1)"/>
  <circle cx="6" cy="16" r="1" fill="rgba(71.1666%,71.1666%,71.1666%,1)"/>
  <circle cx="7" cy="16" r="1" fill="rgba(56.6384%,56.6384%,56.6384%,1)"/>
  <circle cx="8" cy="16" r="1" fill="rgba(56.0479%,56.0479%,56.0479%,1)"/>
  <circle cx="9" cy="16" r="1" fill="rgba(57.4441%,57.4441%,57.4441%,1)"/>
  <circle cx="10" cy="16" r="1" fill="rgba(57.4411%,57.4411%,57.4411%,1)"/>
  <circle cx="11" cy="16" r="1" fill="rgba(57.4411%,57.4411%,57.4411%,1)"/>
  <circle cx="12" cy="16" r="1" fill="rgba(57.4441%,57.4441%,57.4441%,1)"/>
  <circle cx="13" cy="16" r="1" fill="rgba(56.0388%,56.0388%,56.0388%,1)"/>
  <circle cx="14" cy="16" r="1" fill="rgba(56.7041%,56.7041%,56.7041%,1)"/>
  <circle cx="15" cy="16" r="1" fill="rgba(71.3878%,71.3878%,71.3878%,1)"/>
  <circle cx="16" cy="16" r="1" fill="rgba(88.2994%,88.2994%,88.2994%,1)"/>
  <circle cx="17" cy="16" r="1" fill="rgba(99.0661%,99.0661%,99.0661%,1)"/>
  <circle cx="18" cy="16" r="1" fill="white"/>
  <circle cx="19" cy="16" r="1" fill="white"/>
  <circle cx="20" cy="16" r="1" fill="white"/>
  <circle cx="21" cy="16" r="1" fill="white"/>
  <circle cx="0" cy="17" r="1" fill="white"/>
  <circle cx="1" cy="17" r="1" fill="white"/>
  <circle cx="2" cy="17" r="1" fill="rgba(99.8749%,99.8749%,99.8749%,1)"/>
  <circle cx="3" cy="17" r="1" fill="rgba(92.047%,92.047%,92.047%,1)"/>
  <circle cx="4" cy="17" r="1" fill="rgba(74.5068%,74.5068%,74.5068%,1)"/>
  <circle cx="5" cy="17" r="1" fill="rgba(61.651%,61.651%,61.651%,1)"/>
  <circle cx="6" cy="17" r="1" fill="rgba(55.6619%,55.6619%,55.6619%,1)"/>
  <circle cx="7" cy="17" r="1" fill="rgba(56.788%,56.788%,56.788%,1)"/>
  <circle cx="8" cy="17" r="1" fill="rgba(57.9263%,57.9263%,57.9263%,1)"/>
  <circle cx="9" cy="17" r="1" fill="rgba(57.8988%,57.8988%,57.8988%,1)"/>
  <circle cx="10" cy="17" r="1" fill="rgba(57.8897%,57.8897%,57.8897%,1)"/>
  <circle cx="11" cy="17" r="1" fill="rgba(57.8897%,57.8897%,57.8897%,1)"/>
  <circle cx="12" cy="17" r="1" fill="rgba(57.8988%,57.8988%,57.8988%,1)"/>
  <circle cx="13" cy="17" r="1" fill="rgba(57.9309%,57.9309%,57.9309%,1)"/>
  <circle cx="14" cy="17" r="1" fill="rgba(56.6979%,56.6979%,56.6979%,1)"/>
  <circle cx="15" cy="17" r="1" fill="rgba(55.494%,55.494%,55.494%,1)"/>
  <circle cx="16" cy="17" r="1" fill="rgba(61.7517%,61.7517%,61.7517%,1)"/>
  <circle cx="17" cy="17" r="1" fill="rgba(74.5785%,74.5785%,74.5785%,1)"/>
  <circle cx="18" cy="17" r="1" fill="rgba(92.0424%,92.0424%,92.0424%,1)"/>
  <circle cx="19" cy="17" r="1" fill="rgba(99.8749%,99.8749%,99.8749%,1)"/>
  <circle cx="20" cy="17" r="1" fill="white"/>
  <circle cx="21" cy="17" r="1" fill="white"/>
  <circle cx="0" cy="18" r="1" fill="white"/>
  <circle cx="1" cy="18" r="1" fill="white"/>
  <circle cx="2" cy="18" r="1" fill="rgba(90.7942%,90.7942%,90.7942%,1)"/>
  <circle cx="3" cy="18" r="1" fill="rgba(65.0797%,65.0797%,65.0797%,1)"/>
  <circle cx="4" cy="18" r="1" fill="rgba(56.1563%,56.1563%,56.1563%,1)"/>
  <circle cx="5" cy="18" r="1" fill="rgba(56.0113%,56.0113%,56.0113%,1)"/>
  <circle cx="6" cy="18" r="1" fill="rgba(57.8576%,57.8576%,57.8576%,1)"/>
  <circle cx="7" cy="18" r="1" fill="rgba(58.2162%,58.2162%,58.2162%,1)"/>
  <circle cx="8" cy="18" r="1" fill="rgba(58.1231%,58.1231%,58.1231%,1)"/>
  <circle cx="9" cy="18" r="1" fill="rgba(58.1186%,58.1186%,58.1186%,1)"/>
  <circle cx="10" cy="18" r="1" fill="rgba(58.1201%,58.1201%,58.1201%,1)"/>
  <circle cx="11" cy="18" r="1" fill="rgba(58.1201%,58.1201%,58.1201%,1)"/>
  <circle cx="12" cy="18" r="1" fill="rgba(58.1186%,58.1186%,58.1186%,1)"/>
  <circle cx="13" cy="18" r="1" fill="rgba(58.1262%,58.1262%,58.1262%,1)"/>
  <circle cx="14" cy="18" r="1" fill="rgba(58.1659%,58.1659%,58.1659%,1)"/>
  <circle cx="15" cy="18" r="1" fill="rgba(57.7722%,57.7722%,57.7722%,1)"/>
  <circle cx="16" cy="18" r="1" fill="rgba(56.0006%,56.0006%,56.0006%,1)"/>
  <circle cx="17" cy="18" r="1" fill="rgba(56.3165%,56.3165%,56.3165%,1)"/>
  <circle cx="18" cy="18" r="1" fill="rgba(65.1759%,65.1759%,65.1759%,1)"/>
  <circle cx="19" cy="18" r="1" fill="rgba(90.7881%,90.7881%,90.7881%,1)"/>
  <circle cx="20" cy="18" r="1" fill="white"/>
  <circle cx="21" cy="18" r="1" fill="white"/>
  <circle cx="0" cy="19" r="1" fill="white"/>
  <circle cx="1" cy="19" r="1" fill="rgba(97.7768%,97.7768%,97.7768%,1)"/>
  <circle cx="2" cy="19" r="1" fill="rgba(76.9284%,76.9284%,76.9284%,1)"/>
  <circle cx="3" cy="19" r="1" fill="rgba(53.1807%,53.1807%,53.1807%,1)"/>
  <circle cx="4" cy="19" r="1" fill="rgba(54.1299%,54.1299%,54.1299%,1)"/>
  <circle cx="5" cy="19" r="1" fill="rgba(54.8135%,54.8135%,54.8135%,1)"/>
  <circle cx="6" cy="19" r="1" fill="rgba(54.7646%,54.7646%,54.7646%,1)"/>
  <circle cx="7" cy="19" r="1" fill="rgba(54.7387%,54.7387%,54.7387%,1)"/>
  <circle cx="8" cy="19" r="1" fill="rgba(54.7402%,54.7402%,54.7402%,1)"/>
  <circle cx="9" cy="19" r="1" fill="rgba(54.7402%,54.7402%,54.7402%,1)"/>
  <circle cx="10" cy="19" r="1" fill="rgba(54.7402%,54.7402%,54.7402%,1)"/>
  <circle cx="11" cy="19" r="1" fill="rgba(54.7402%,54.7402%,54.7402%,1)"/>
  <circle cx="12" cy="19" r="1" fill="rgba(54.7402%,54.7402%,54.7402%,1)"/>
  <circle cx="13" cy="19" r="1" fill="rgba(54.7402%,54.7402%,54.7402%,1)"/>
  <circle cx="14" cy="19" r="1" fill="rgba(54.7417%,54.7417%,54.7417%,1)"/>
  <circle cx="15" cy="19" r="1" fill="rgba(54.7707%,54.7707%,54.7707%,1)"/>
  <circle cx="16" cy="19" r="1" fill="rgba(54.8089%,54.8089%,54.8089%,1)"/>
  <circle cx="17" cy="19" r="1" fill="rgba(54.1955%,54.1955%,54.1955%,1)"/>
  <circle cx="18" cy="19" r="1" fill="rgba(53.2189%,53.2189%,53.2189%,1)"/>
  <circle cx="19" cy="19" r="1" fill="rgba(76.9253%,76.9253%,76.9253%,1)"/>
  <circle cx="20" cy="19" r="1" fill="rgba(97.7768%,97.7768%,97.7768%,1)"/>
  <circle cx="21" cy="19" r="1" fill="white"/>
  <circle cx="0" cy="20" r="1" fill="white"/>
  <circle cx="1" cy="20" r="1" fill="rgba(99.4171%,99.4171%,99.4171%,1)"/>
  <circle cx="2" cy="20" r="1" fill="rgba(95.1278%,95.1278%,95.1278%,1)"/>
  <circle cx="3" cy="20" r="1" fill="rgba(91.5175%,91.5175%,91.5175%,1)"/>
  <circle cx="4" cy="20" r="1" fill="rgba(91.5938%,91.5938%,91.5938%,1)"/>
  <circle cx="5" cy="20" r="1" fill="rgba(91.5602%,91.5602%,91.5602%,1)"/>
  <circle cx="6" cy="20" r="1" fill="rgba(91.5587%,91.5587%,91.5587%,1)"/>
  <circle cx="7" cy="20" r="1" fill="rgba(91.5587%,91.5587%,91.5587%,1)"/>
  <circle cx="8" cy="20" r="1" fill="rgba(91.5587%,91.5587%,91.5587%,1)"/>
  <circle cx="9" cy="20" r="1" fill="rgba(91.5587%,91.5587%,91.5587%,1)"/>
  <circle cx="10" cy="20" r="1" fill="rgba(91.5587%,91.5587%,91.5587%,1)"/>
  <circle cx="11" cy="20" r="1" fill="rgba(91.5587%,91.5587%,91.5587%,1)"/>
  <circle cx="12" cy="20" r="1" fill="rgba(91.5587%,91.5587%,91.5587%,1)"/>
  <circle cx="13" cy="20" r="1" fill="rgba(91.5587%,91.5587%,91.5587%,1)"/>
  <circle cx="14" cy="20" r="1" fill="rgba(91.5587%,91.5587%,91.5587%,1)"/>
  <circle cx="15" cy="20" r="1" fill="rgba(91.5587%,91.5587%,91.5587%,1)"/>
  <circle cx="16" cy="20" r="1" fill="rgba(91.5602%,91.5602%,91.5602%,1)"/>
  <circle cx="17" cy="20" r="1" fill="rgba(91.5908%,91.5908%,91.5908%,1)"/>
  <circle cx="18" cy="20" r="1" fill="rgba(91.516%,91.516%,91.516%,1)"/>
  <circle cx="19" cy="20" r="1" fill="rgba(95.1278%,95.1278%,95.1278%,1)"/>
  <circle cx="20" cy="20" r="1" fill="rgba(99.4171%,99.4171%,99.4171%,1)"/>
  <circle cx="21" cy="20" r="1" fill="white"/>
  <circle cx="0" cy="21" r="1" fill="white"/>
  <circle cx="1" cy="21" r="1" fill="white"/>
  <circle cx="2" cy="21" r="1" fill="white"/>
  <circle cx="3" cy="21" r="1" fill="white"/>
  <circle cx="4" cy="21" r="1" fill="white"/>
  <circle cx="5" cy="21" r="1" fill="white"/>
  <circle cx="6" cy="21" r="1" fill="white"/>
  <circle cx="7" cy="21" r="1" fill="white"/>
  <circle cx="8" cy="21" r="1" fill="white"/>
  <circle cx="9" cy="21" r="1" fill="white"/>
  <circle cx="10" cy="21" r="1" fill="white"/>
  <circle cx="11" cy="21" r="1" fill="white"/>
  <circle cx="12" cy="21" r="1" fill="white"/>
  <circle cx="13" cy="21" r="1" fill="white"/>
  <circle cx="14" cy="21" r="1" fill="white"/>
  <circle cx="15" cy="21" r="1" fill="white"/>
  <circle cx="16" cy="21" r="1" fill="white"/>
  <circle cx="17" cy="21" r="1" fill="white"/>
  <circle cx="18" cy="21" r="1" fill="white"/>
  <circle cx="19" cy="21" r="1" fill="white"/>
  <circle cx="20" cy="21" r="1" fill="white"/>
  <circle cx="21" cy="21" r="1" fill="white"/>
</svg>
